<svg width="1327" height="444" xmlns="http://www.w3.org/2000/svg" xmlns:xlink="http://www.w3.org/1999/xlink" xml:space="preserve" overflow="hidden"><defs><clipPath id="clip0"><rect x="1576" y="379" width="224" height="224"/></clipPath><clipPath id="clip1"><rect x="1576" y="379" width="224" height="224"/></clipPath><clipPath id="clip2"><rect x="1576" y="379" width="224" height="224"/></clipPath><clipPath id="clip3"><rect x="1100" y="379" width="196" height="224"/></clipPath><clipPath id="clip4"><rect x="1100" y="379" width="196" height="224"/></clipPath><clipPath id="clip5"><rect x="1100" y="379" width="196" height="224"/></clipPath><clipPath id="clip6"><rect x="551" y="407" width="91" height="110"/></clipPath><clipPath id="clip7"><rect x="551" y="407" width="91" height="110"/></clipPath><clipPath id="clip8"><rect x="551" y="407" width="91" height="110"/></clipPath><clipPath id="clip9"><rect x="473" y="517" width="91" height="110"/></clipPath><clipPath id="clip10"><rect x="473" y="517" width="91" height="110"/></clipPath><clipPath id="clip11"><rect x="473" y="517" width="91" height="110"/></clipPath><clipPath id="clip12"><rect x="589" y="602" width="90" height="111"/></clipPath><clipPath id="clip13"><rect x="589" y="602" width="90" height="111"/></clipPath><clipPath id="clip14"><rect x="589" y="602" width="90" height="111"/></clipPath></defs><g transform="translate(-473 -291)"><g clip-path="url(#clip0)"><g clip-path="url(#clip1)"><g clip-path="url(#clip2)"><path d="M1583.56 603 1653 603 1653 480.08 1699.13 480.08 1699.13 386.91C1699.21 382.62 1695.79 379.079 1691.5 379.001 1691.45 379.001 1691.41 379 1691.36 379L1583.56 379C1579.31 379.076 1575.92 382.584 1576 386.836 1576 386.861 1576 386.885 1576 386.91L1576 595.09C1575.88 599.341 1579.23 602.882 1583.49 602.999 1583.51 602.999 1583.54 602.999 1583.56 603ZM1622.13 571.01 1653 571.01 1653 586.97 1622.13 586.97Z" fill="#2F2F2F"/><path d="M1800 549.66 1800 522.57 1664.83 522.57 1664.83 603 1800 603 1800 549.66Z" fill="#C2C2C2"/><path d="M1664.83 492.47 1800 492.47 1800 512.56 1664.83 512.56Z" fill="#0078D4"/></g></g></g><g clip-path="url(#clip3)"><g clip-path="url(#clip4)"><g clip-path="url(#clip5)"><path d="M7.87064 222.885 120.079 222.885C125.791 222.885 127.393 220.239 127.393 214.527L127.393 189.104C82.8096 188.886 46.8446 152.567 47.063 107.984 47.1491 90.3946 52.9775 73.3153 63.6616 59.3432 79.6063 40.4474 102.697 29.041 127.393 27.8607L127.393 7.87064C127.393 3.5238 123.869-3.32125e-08 119.522-3.32125e-08L8.07959 0C3.77399-0.154067 0.158699 3.21142 0.00463215 7.51702 0.000416266 7.63487-0.00112826 7.75272-2.32311e-07 7.87064L0 215.015C-0.0386409 219.323 3.42252 222.847 7.73071 222.885 7.77738 222.886 7.82397 222.886 7.87064 222.885ZM47.781 191.055 79.6119 191.055 79.6119 206.935 47.781 206.935Z" fill="#2F2F2F" transform="matrix(1 0 0 1 1100 379.557)"/><path d="M153.791 137.771 100.925 137.771C101.343 139.721 101.97 142.089 102.736 144.736 103.502 147.383 104.408 150.239 105.522 153.164 106.664 156.089 107.966 158.949 109.423 161.731 110.792 164.455 112.45 167.023 114.368 169.393 116.065 171.509 118.087 173.342 120.358 174.826 124.621 177.484 130.025 177.484 134.288 174.826 136.559 173.342 138.581 171.509 140.278 169.393 142.197 167.023 143.854 164.455 145.224 161.731 146.702 158.974 148.027 156.137 149.194 153.234 150.308 150.308 151.283 147.453 152.05 144.806 152.816 142.159 153.234 139.721 153.791 137.771Z" fill="#C2C2C2" transform="matrix(1 0 0 1 1100 379.557)"/><path d="M165.353 88.7362C165.771 92.0099 166.05 95.2835 166.259 98.4875 166.467 101.691 166.259 105.035 166.259 108.308 166.259 111.582 166.259 114.925 166.259 118.199 166.259 121.473 165.771 124.676 165.353 127.95L193.214 127.95C197.021 115.156 197.021 101.531 193.214 88.7362Z" fill="#C2C2C2" transform="matrix(1 0 0 1 1100 379.557)"/><path d="M158.736 60.4577C159.851 63.4295 160.826 66.4941 161.662 69.6517 162.497 72.786 163.194 75.8507 163.821 78.9153L189.313 78.9153C187.385 74.8156 185.051 70.9193 182.348 67.2835 179.616 63.6502 176.536 60.2911 173.154 57.2537 169.781 54.2307 166.119 51.5477 162.219 49.2437 158.32 46.897 154.188 44.9597 149.89 43.4626 151.726 46.061 153.379 48.784 154.836 51.6119 156.289 54.4903 157.591 57.4429 158.736 60.4577Z" fill="#C2C2C2" transform="matrix(1 0 0 1 1100 379.557)"/><path d="M99.2536 88.7362C98.8357 92.0099 98.5571 95.2835 98.2785 98.4875 97.9999 101.691 98.2785 105.035 98.2785 108.308 98.2785 111.582 98.2785 114.925 98.2785 118.199 98.2785 121.473 98.8357 124.676 99.2536 127.95L155.463 127.95C155.88 124.676 156.159 121.403 156.438 118.199 156.716 114.995 156.786 111.652 156.786 108.308 156.786 104.965 156.786 101.761 156.438 98.4875 156.089 95.2138 155.88 92.0099 155.463 88.7362Z" fill="#C2C2C2" transform="matrix(1 0 0 1 1100 379.557)"/><path d="M109.423 54.8159C110.791 52.1134 112.449 49.5678 114.368 47.2238 116.065 45.1082 118.087 43.2745 120.358 41.791 124.591 39.0292 130.056 39.0292 134.288 41.791 136.559 43.2745 138.581 45.1082 140.278 47.2238 142.197 49.5678 143.855 52.1134 145.224 54.8159 146.681 57.6214 147.983 60.5047 149.124 63.4527 150.239 66.378 151.214 69.1641 151.98 71.8805 152.746 74.5969 153.303 76.9651 153.721 78.8457L100.925 78.8457C101.343 76.8954 101.97 74.5273 102.736 71.8805 103.502 69.2338 104.408 66.378 105.522 63.4527 106.664 60.5047 107.966 57.6214 109.423 54.8159Z" fill="#C2C2C2" transform="matrix(1 0 0 1 1100 379.557)"/><path d="M72.4377 67.2835C75.1702 63.6502 78.2495 60.2911 81.6318 57.2537 85.0175 54.2468 88.6791 51.565 92.5671 49.2437 96.4662 46.897 100.598 44.9597 104.895 43.4626 103.06 46.061 101.407 48.784 99.9501 51.6119 98.4728 54.4888 97.1474 57.4415 95.98 60.4577 94.8656 63.4295 93.8904 66.4941 93.0546 69.6517 92.2188 72.786 91.5223 75.8507 90.8954 78.9153L65.4029 78.9153C67.3533 74.8129 69.7102 70.9158 72.4377 67.2835Z" fill="#C2C2C2" transform="matrix(1 0 0 1 1100 379.557)"/><path d="M58.786 108.308C58.754 101.683 59.6927 95.0892 61.5721 88.7362L89.4327 88.7362C89.0148 92.0099 88.7362 95.2835 88.5273 98.4875 88.3183 101.691 88.5273 105.035 88.5273 108.308 88.5273 111.582 88.5273 114.925 88.5273 118.199 88.5273 121.473 89.0148 124.676 89.4327 127.95L61.5721 127.95C59.6879 121.574 58.7492 114.957 58.786 108.308Z" fill="#C2C2C2" transform="matrix(1 0 0 1 1100 379.557)"/><path d="M92.5671 167.164C88.6944 164.82 85.0356 162.139 81.6318 159.154 78.2662 156.1 75.1883 152.743 72.4377 149.124 69.7346 145.488 67.4009 141.592 65.4726 137.492L90.9651 137.492C91.5919 140.487 92.2885 143.622 93.1243 146.756 93.9601 149.89 94.9352 152.885 96.0497 155.95 97.217 158.966 98.5425 161.919 100.02 164.796 101.477 167.624 103.13 170.347 104.965 172.945 100.656 171.423 96.5031 169.487 92.5671 167.164Z" fill="#C2C2C2" transform="matrix(1 0 0 1 1100 379.557)"/><path d="M182.278 149.403C176.793 156.581 169.954 162.615 162.149 167.164 158.235 169.483 154.106 171.419 149.821 172.945 151.656 170.347 153.309 167.624 154.766 164.796 156.243 161.919 157.569 158.966 158.736 155.95 159.851 152.885 160.826 149.821 161.662 146.756 162.497 143.622 163.194 140.487 163.821 137.492L189.313 137.492C187.38 141.692 185.022 145.682 182.278 149.403Z" fill="#C2C2C2" transform="matrix(1 0 0 1 1100 379.557)"/></g></g></g><path d="M1334 457.854 1520 457.854 1520 460.146 1334 460.146ZM1515.42 445.25 1542.92 459 1515.42 472.75Z" fill="#4472C4"/><path d="M1334 487.854 1520 487.855 1520 490.146 1334 490.146ZM1515.42 475.25 1542.92 489.001 1515.42 502.75Z" fill="#4472C4"/><path d="M1334 515.854 1520 515.854 1520 518.146 1334 518.146ZM1515.42 503.25 1542.92 517 1515.42 530.75Z" fill="#4472C4"/><g><g><g><path d="M43.9934 58.5893C60.1534 58.5705 73.2384 45.4547 73.2195 29.2947 73.2007 13.1346 60.0849 0.0496324 43.9249 0.0685663 27.7915 0.0874687 14.7176 13.1614 14.6987 29.2947 14.6987 45.4735 27.8144 58.5893 43.9934 58.5893Z" fill="#D2D2D2" transform="matrix(1 0 0 1.00422 478.558 291)"/><path d="M43.9249 65.5789C19.6469 65.5978-0.0189644 85.2941-0.000107991 109.572-9.02156e-05 109.595-5.45669e-05 109.618-1.04562e-06 109.641L87.884 109.641C87.9409 85.3629 68.3056 65.6358 44.0277 65.5789 43.9934 65.5789 43.9591 65.5789 43.9249 65.5789Z" fill="#D2D2D2" transform="matrix(1 0 0 1.00422 478.558 291)"/></g></g></g><g clip-path="url(#clip6)"><g clip-path="url(#clip7)"><g clip-path="url(#clip8)"><path d="M44.1789 58.8364C60.4071 58.8175 73.5472 45.6464 73.5283 29.4182 73.5094 13.19 60.3383 0.0498417 44.1101 0.0688555 27.9087 0.0878376 14.7797 13.2169 14.7607 29.4182 14.7607 45.6653 27.9317 58.8364 44.1789 58.8364Z" fill="#D2D2D2" transform="matrix(1.00699 0 0 1 551.564 407)"/><path d="M44.1101 65.8555C19.7298 65.8744-0.0190444 85.6538-0.000108447 110.034-9.0596e-05 110.057-5.4797e-05 110.08-1.05003e-06 110.103L88.2546 110.103C88.3117 85.7229 68.5936 65.9126 44.2133 65.8555 44.1789 65.8555 44.1445 65.8555 44.1101 65.8555Z" fill="#D2D2D2" transform="matrix(1.00699 0 0 1 551.564 407)"/></g></g></g><g clip-path="url(#clip9)"><g clip-path="url(#clip10)"><g clip-path="url(#clip11)"><path d="M44.1789 58.8364C60.4071 58.8175 73.5472 45.6464 73.5283 29.4182 73.5094 13.19 60.3383 0.0498417 44.1101 0.0688555 27.9087 0.0878376 14.7797 13.2169 14.7607 29.4182 14.7607 45.6653 27.9317 58.8364 44.1789 58.8364Z" fill="#D2D2D2" transform="matrix(1.00699 0 0 1 473.564 517)"/><path d="M44.1101 65.8555C19.7298 65.8744-0.0190444 85.6538-0.000108447 110.034-9.0596e-05 110.057-5.4797e-05 110.08-1.05003e-06 110.103L88.2546 110.103C88.3117 85.7229 68.5936 65.9126 44.2133 65.8555 44.1789 65.8555 44.1445 65.8555 44.1101 65.8555Z" fill="#D2D2D2" transform="matrix(1.00699 0 0 1 473.564 517)"/></g></g></g><g clip-path="url(#clip12)"><g clip-path="url(#clip13)"><g clip-path="url(#clip14)"><path d="M43.9936 58.5896C60.1537 58.5707 73.2387 45.4549 73.2198 29.2948 73.201 13.1346 60.0851 0.0496326 43.925 0.0685666 27.7916 0.0874691 14.7177 13.1614 14.6988 29.2948 14.6988 45.4737 27.8145 58.5896 43.9936 58.5896Z" fill="#D2D2D2" transform="matrix(1 0 0 1.00421 590.558 603)"/><path d="M43.925 65.5792C19.647 65.598-0.0189645 85.2944-0.000107992 109.573-9.02159e-05 109.595-5.45671e-05 109.618-1.04563e-06 109.641L87.8843 109.641C87.9412 85.3633 68.3058 65.6361 44.0278 65.5792 43.9936 65.5792 43.9593 65.5792 43.925 65.5792Z" fill="#D2D2D2" transform="matrix(1 0 0 1.00421 590.558 603)"/></g></g></g><path d="M567.301 344.895 1078.15 484.165 1077.55 486.376 566.698 347.106ZM1077.05 470.799 1099.96 491.298 1069.81 497.331Z" fill="#4472C4"/><path d="M641.072 460.856 1077.83 488.367 1077.68 490.654 640.928 463.144ZM1074.05 475.499 1100.63 490.951 1072.32 502.945Z" fill="#4472C4"/><path d="M0.170911-1.13302 514.806 76.4979 514.464 78.7639-0.170911 1.13302ZM512.154 63.3512 537.296 81.0492 508.052 90.5435Z" fill="#4472C4" transform="matrix(1 0 0 -1 563 572.049)"/><path d="M0.4229-1.06494 399.818 157.54 398.972 159.67-0.4229 1.06494ZM400.211 144.134 420.694 167.063 390.061 169.693Z" fill="#4472C4" transform="matrix(1 0 0 -1 679 658.063)"/><text font-family="Meiryo UI,Meiryo UI_MSFontService,sans-serif" font-weight="400" font-size="50" transform="matrix(1 0 0 1 1103.47 694)">Web</text><text font-family="Meiryo UI,Meiryo UI_MSFontService,sans-serif" font-weight="400" font-size="50" transform="matrix(1 0 0 1 1608.68 690)">App</text></g></svg>