<svg width="2615" height="812" xmlns="http://www.w3.org/2000/svg" xmlns:xlink="http://www.w3.org/1999/xlink" xml:space="preserve" overflow="hidden"><defs><clipPath id="clip0"><rect x="190" y="778" width="2615" height="812"/></clipPath></defs><g clip-path="url(#clip0)" transform="translate(-190 -778)"><path d="M192.5 780.816 658.396 780.816 658.396 879.816 192.5 879.816Z" fill="#4472C4" fill-rule="evenodd"/><path d="M658.396 780.816 987.364 780.816 987.364 879.816 658.396 879.816Z" fill="#4472C4" fill-rule="evenodd"/><path d="M987.364 780.816 1763.34 780.816 1763.34 879.816 987.364 879.816Z" fill="#4472C4" fill-rule="evenodd"/><path d="M1763.34 780.816 2795.65 780.816 2795.65 879.816 1763.34 879.816Z" fill="#4472C4" fill-rule="evenodd"/><path d="M192.5 879.816 658.396 879.816 658.396 978.816 192.5 978.816Z" fill="#E9EBF5" fill-rule="evenodd"/><path d="M658.396 879.816 987.364 879.816 987.364 978.816 658.396 978.816Z" fill="#E9EBF5" fill-rule="evenodd"/><path d="M987.364 879.816 1763.34 879.816 1763.34 978.816 987.364 978.816Z" fill="#E9EBF5" fill-rule="evenodd"/><path d="M1763.34 879.816 2795.65 879.816 2795.65 978.816 1763.34 978.816Z" fill="#E9EBF5" fill-rule="evenodd"/><path d="M192.5 978.816 658.396 978.816 658.396 1077.82 192.5 1077.82Z" fill="#E9EBF5" fill-rule="evenodd"/><path d="M658.396 978.816 987.364 978.816 987.364 1077.82 658.396 1077.82Z" fill="#E9EBF5" fill-rule="evenodd"/><path d="M987.364 978.816 1763.34 978.816 1763.34 1077.82 987.364 1077.82Z" fill="#E9EBF5" fill-rule="evenodd"/><path d="M1763.34 978.816 2795.65 978.816 2795.65 1077.82 1763.34 1077.82Z" fill="#E9EBF5" fill-rule="evenodd"/><path d="M192.5 1077.82 658.396 1077.82 658.396 1176.82 192.5 1176.82Z" fill="#E9EBF5" fill-rule="evenodd"/><path d="M658.396 1077.82 987.364 1077.82 987.364 1176.82 658.396 1176.82Z" fill="#E9EBF5" fill-rule="evenodd"/><path d="M987.364 1077.82 1763.34 1077.82 1763.34 1176.82 987.364 1176.82Z" fill="#E9EBF5" fill-rule="evenodd"/><path d="M1763.34 1077.82 2795.65 1077.82 2795.65 1176.82 1763.34 1176.82Z" fill="#E9EBF5" fill-rule="evenodd"/><path d="M192.5 1176.82 658.396 1176.82 658.396 1275.82 192.5 1275.82Z" fill="#E9EBF5" fill-rule="evenodd"/><path d="M658.396 1176.82 987.364 1176.82 987.364 1275.82 658.396 1275.82Z" fill="#E9EBF5" fill-rule="evenodd"/><path d="M987.364 1176.82 1763.34 1176.82 1763.34 1275.82 987.364 1275.82Z" fill="#E9EBF5" fill-rule="evenodd"/><path d="M1763.34 1176.82 2795.65 1176.82 2795.65 1275.82 1763.34 1275.82Z" fill="#E9EBF5" fill-rule="evenodd"/><path d="M192.5 1275.82 658.396 1275.82 658.396 1374.82 192.5 1374.82Z" fill="#E9EBF5" fill-rule="evenodd"/><path d="M658.396 1275.82 987.364 1275.82 987.364 1374.82 658.396 1374.82Z" fill="#E9EBF5" fill-rule="evenodd"/><path d="M987.364 1275.82 1763.34 1275.82 1763.34 1374.82 987.364 1374.82Z" fill="#E9EBF5" fill-rule="evenodd"/><path d="M1763.34 1275.82 2795.65 1275.82 2795.65 1374.82 1763.34 1374.82Z" fill="#E9EBF5" fill-rule="evenodd"/><path d="M192.5 1374.82 658.396 1374.82 658.396 1473.82 192.5 1473.82Z" fill="#E9EBF5" fill-rule="evenodd"/><path d="M658.396 1374.82 987.364 1374.82 987.364 1473.82 658.396 1473.82Z" fill="#E9EBF5" fill-rule="evenodd"/><path d="M987.364 1374.82 1763.34 1374.82 1763.34 1473.82 987.364 1473.82Z" fill="#E9EBF5" fill-rule="evenodd"/><path d="M1763.34 1374.82 2795.65 1374.82 2795.65 1473.82 1763.34 1473.82Z" fill="#E9EBF5" fill-rule="evenodd"/><path d="M192.5 1473.82 658.396 1473.82 658.396 1572.82 192.5 1572.82Z" fill="#E9EBF5" fill-rule="evenodd"/><path d="M658.396 1473.82 987.364 1473.82 987.364 1572.82 658.396 1572.82Z" fill="#E9EBF5" fill-rule="evenodd"/><path d="M987.364 1473.82 1763.34 1473.82 1763.34 1572.82 987.364 1572.82Z" fill="#E9EBF5" fill-rule="evenodd"/><path d="M1763.34 1473.82 2795.65 1473.82 2795.65 1572.82 1763.34 1572.82Z" fill="#E9EBF5" fill-rule="evenodd"/><path d="M658.396 778.524 658.396 1575.11" stroke="#FFFFFF" stroke-width="4.58333" stroke-linejoin="round" stroke-miterlimit="10" fill="none" fill-rule="evenodd"/><path d="M987.364 778.524 987.364 1575.11" stroke="#FFFFFF" stroke-width="4.58333" stroke-linejoin="round" stroke-miterlimit="10" fill="none" fill-rule="evenodd"/><path d="M1763.34 778.524 1763.34 1575.11" stroke="#FFFFFF" stroke-width="4.58333" stroke-linejoin="round" stroke-miterlimit="10" fill="none" fill-rule="evenodd"/><path d="M190.208 879.816 2797.94 879.816" stroke="#FFFFFF" stroke-width="13.75" stroke-linejoin="round" stroke-miterlimit="10" fill="none" fill-rule="evenodd"/><path d="M190.208 978.816 2797.94 978.816" stroke="#FFFFFF" stroke-width="4.58333" stroke-linejoin="round" stroke-miterlimit="10" fill="none" fill-rule="evenodd"/><path d="M190.208 1077.82 2797.94 1077.82" stroke="#FFFFFF" stroke-width="4.58333" stroke-linejoin="round" stroke-miterlimit="10" fill="none" fill-rule="evenodd"/><path d="M190.208 1176.82 2797.94 1176.82" stroke="#FFFFFF" stroke-width="4.58333" stroke-linejoin="round" stroke-miterlimit="10" fill="none" fill-rule="evenodd"/><path d="M190.208 1275.82 2797.94 1275.82" stroke="#FFFFFF" stroke-width="4.58333" stroke-linejoin="round" stroke-miterlimit="10" fill="none" fill-rule="evenodd"/><path d="M190.208 1374.82 2797.94 1374.82" stroke="#FFFFFF" stroke-width="4.58333" stroke-linejoin="round" stroke-miterlimit="10" fill="none" fill-rule="evenodd"/><path d="M190.208 1473.82 2797.94 1473.82" stroke="#FFFFFF" stroke-width="4.58333" stroke-linejoin="round" stroke-miterlimit="10" fill="none" fill-rule="evenodd"/><path d="M192.5 778.524 192.5 1575.11" stroke="#FFFFFF" stroke-width="4.58333" stroke-linejoin="round" stroke-miterlimit="10" fill="none" fill-rule="evenodd"/><path d="M2795.65 778.524 2795.65 1575.11" stroke="#FFFFFF" stroke-width="4.58333" stroke-linejoin="round" stroke-miterlimit="10" fill="none" fill-rule="evenodd"/><path d="M190.208 780.816 2797.94 780.816" stroke="#FFFFFF" stroke-width="4.58333" stroke-linejoin="round" stroke-miterlimit="10" fill="none" fill-rule="evenodd"/><path d="M190.208 1572.82 2797.94 1572.82" stroke="#FFFFFF" stroke-width="4.58333" stroke-linejoin="round" stroke-miterlimit="10" fill="none" fill-rule="evenodd"/><text fill="#FFFFFF" font-family="Yu Gothic UI,Yu Gothic UI_MSFontService,sans-serif" font-weight="700" font-size="55" transform="matrix(1 0 0 1 232.948 851)">文字符号化方式<tspan font-size="55" x="465.896" y="0">エンディアン</tspan><tspan font-size="55" x="1079.38" y="0">BOM</tspan><tspan font-size="55" x="1991.55" y="0">備考</tspan><tspan fill="#000000" font-weight="400" font-size="55" x="-7.44774" y="104">UTF</tspan><tspan fill="#000000" font-weight="400" font-size="55" x="85.9377" y="104">-</tspan><tspan fill="#000000" font-weight="400" font-size="55" x="107.709" y="104">8</tspan><tspan fill="#000000" font-weight="400" font-size="55" x="458.448" y="104">N/A</tspan><tspan fill="#000000" font-weight="400" font-size="55" x="787.417" y="104">EF BB BF</tspan><tspan fill="#000000" font-weight="400" font-size="55" x="1563.39" y="104">U+FEFF </tspan><tspan fill="#000000" font-weight="400" font-size="55" x="1762.76" y="104">の</tspan><tspan fill="#000000" font-weight="400" font-size="55" x="1822.35" y="104">UTF</tspan><tspan fill="#000000" font-weight="400" font-size="55" x="1915.73" y="104">-</tspan><tspan fill="#000000" font-weight="400" font-size="55" x="1937.5" y="104">8 </tspan><tspan fill="#000000" font-weight="400" font-size="55" x="1982.19" y="104">表現で</tspan><tspan fill="#000000" font-weight="400" font-size="55" x="2151.2" y="104">3 </tspan><tspan fill="#000000" font-weight="400" font-size="55" x="2195.89" y="104">バイト</tspan><tspan fill="#000000" font-weight="400" font-size="55" x="-7.44774" y="203">UTF</tspan><tspan fill="#000000" font-weight="400" font-size="55" x="85.9377" y="203">-</tspan><tspan fill="#000000" font-weight="400" font-size="55" x="107.709" y="203">16</tspan><tspan fill="#000000" font-weight="400" font-size="55" x="458.448" y="203">ビッグ</tspan><tspan fill="#000000" font-weight="400" font-size="55" x="577.042" y="203">/</tspan><tspan fill="#000000" font-weight="400" font-size="55" x="598.24" y="203">リトル</tspan><tspan fill="#000000" font-weight="400" font-size="55" x="787.417" y="203">FE FF/FF FE</tspan><tspan fill="#000000" font-weight="400" font-size="55" x="1563.39" y="203">2 </tspan><tspan fill="#000000" font-weight="400" font-size="55" x="1608.08" y="203">バイト</tspan><tspan fill="#000000" font-weight="400" font-size="55" x="-7.44774" y="302">UTF</tspan><tspan fill="#000000" font-weight="400" font-size="55" x="85.9377" y="302">-</tspan><tspan fill="#000000" font-weight="400" font-size="55" x="107.709" y="302">16BE</tspan><tspan fill="#000000" font-weight="400" font-size="55" x="458.448" y="302">ビッグ</tspan><tspan fill="#000000" font-weight="400" font-size="55" x="787.417" y="302">－</tspan><tspan fill="#000000" font-weight="400" font-size="55" x="1563.39" y="302">付けない</tspan><tspan fill="#000000" font-weight="400" font-size="55" x="-7.44774" y="401">UTF</tspan><tspan fill="#000000" font-weight="400" font-size="55" x="85.9377" y="401">-</tspan><tspan fill="#000000" font-weight="400" font-size="55" x="107.709" y="401">16LE</tspan><tspan fill="#000000" font-weight="400" font-size="55" x="458.448" y="401">リトル</tspan><tspan fill="#000000" font-weight="400" font-size="55" x="787.417" y="401">－</tspan><tspan fill="#000000" font-weight="400" font-size="55" x="1563.39" y="401">付けない</tspan><tspan fill="#000000" font-weight="400" font-size="55" x="-7.44774" y="500">UTF</tspan><tspan fill="#000000" font-weight="400" font-size="55" x="85.9377" y="500">-</tspan><tspan fill="#000000" font-weight="400" font-size="55" x="107.709" y="500">32</tspan><tspan fill="#000000" font-weight="400" font-size="55" x="458.448" y="500">ビッグ</tspan><tspan fill="#000000" font-weight="400" font-size="55" x="577.042" y="500">/</tspan><tspan fill="#000000" font-weight="400" font-size="55" x="598.24" y="500">リトル</tspan><tspan fill="#000000" font-weight="400" font-size="55" x="787.417" y="500">00 00 FE FF/FF FE 00 00</tspan><tspan fill="#000000" font-weight="400" font-size="55" x="1563.39" y="500">4 </tspan><tspan fill="#000000" font-weight="400" font-size="55" x="1608.08" y="500">バイト</tspan><tspan fill="#000000" font-weight="400" font-size="55" x="-7.44774" y="599">UTF</tspan><tspan fill="#000000" font-weight="400" font-size="55" x="85.9377" y="599">-</tspan><tspan fill="#000000" font-weight="400" font-size="55" x="107.709" y="599">32BE</tspan><tspan fill="#000000" font-weight="400" font-size="55" x="458.448" y="599">ビッグ</tspan><tspan fill="#000000" font-weight="400" font-size="55" x="787.417" y="599">－</tspan><tspan fill="#000000" font-weight="400" font-size="55" x="1563.39" y="599">付けない</tspan><tspan fill="#000000" font-weight="400" font-size="55" x="-7.44774" y="698">UTF</tspan><tspan fill="#000000" font-weight="400" font-size="55" x="85.9377" y="698">-</tspan><tspan fill="#000000" font-weight="400" font-size="55" x="107.709" y="698">32LE</tspan><tspan fill="#000000" font-weight="400" font-size="55" x="458.448" y="698">リトル</tspan><tspan fill="#000000" font-weight="400" font-size="55" x="787.417" y="698">－</tspan><tspan fill="#000000" font-weight="400" font-size="55" x="1563.39" y="698">付けない</tspan></text><rect x="193.5" y="781.5" width="2603" height="792" stroke="#7F7F7F" stroke-width="4.58333" stroke-miterlimit="8" fill="none"/></g></svg>