<svg width="3123" height="654" xmlns="http://www.w3.org/2000/svg" xmlns:xlink="http://www.w3.org/1999/xlink" xml:space="preserve" overflow="hidden"><defs><clipPath id="clip0"><rect x="272" y="1133" width="3123" height="654"/></clipPath></defs><g clip-path="url(#clip0)" transform="translate(-272 -1133)"><rect x="274.5" y="1135.5" width="3118" height="649" stroke="#7F7F7F" stroke-width="4.58333" stroke-miterlimit="8" fill="none"/><path d="M366.667 1277.1 506.349 1277.1 506.349 1410.93 366.667 1410.93Z" fill="#E2F0D9" fill-rule="evenodd"/><path d="M506.349 1277.1 646.032 1277.1 646.032 1410.93 506.349 1410.93Z" fill="#E2F0D9" fill-rule="evenodd"/><path d="M646.032 1277.1 785.715 1277.1 785.715 1410.93 646.032 1410.93Z" fill="#E2F0D9" fill-rule="evenodd"/><path d="M785.715 1277.1 925.397 1277.1 925.397 1410.93 785.715 1410.93Z" fill="#E2F0D9" fill-rule="evenodd"/><path d="M925.397 1277.1 1065.08 1277.1 1065.08 1410.93 925.397 1410.93Z" fill="#E2F0D9" fill-rule="evenodd"/><path d="M1065.08 1277.1 1204.76 1277.1 1204.76 1410.93 1065.08 1410.93Z" fill="#FFF2CC" fill-rule="evenodd"/><path d="M1204.76 1277.1 1344.45 1277.1 1344.45 1410.93 1204.76 1410.93Z" fill="#FFF2CC" fill-rule="evenodd"/><path d="M1344.45 1277.1 1484.13 1277.1 1484.13 1410.93 1344.45 1410.93Z" fill="#FFF2CC" fill-rule="evenodd"/><path d="M1484.13 1277.1 1623.81 1277.1 1623.81 1410.93 1484.13 1410.93Z" fill="#FFF2CC" fill-rule="evenodd"/><path d="M1623.81 1277.1 1763.49 1277.1 1763.49 1410.93 1623.81 1410.93Z" fill="#FFF2CC" fill-rule="evenodd"/><path d="M1763.49 1277.1 1903.18 1277.1 1903.18 1410.93 1763.49 1410.93Z" fill="#FFF2CC" fill-rule="evenodd"/><path d="M1903.18 1277.1 2042.86 1277.1 2042.86 1410.93 1903.18 1410.93Z" fill="#FFF2CC" fill-rule="evenodd"/><path d="M2042.86 1277.1 2182.54 1277.1 2182.54 1410.93 2042.86 1410.93Z" fill="#FFF2CC" fill-rule="evenodd"/><path d="M2182.54 1277.1 2322.22 1277.1 2322.22 1410.93 2182.54 1410.93Z" fill="#FFF2CC" fill-rule="evenodd"/><path d="M2322.22 1277.1 2461.91 1277.1 2461.91 1410.93 2322.22 1410.93Z" fill="#FFF2CC" fill-rule="evenodd"/><path d="M2461.91 1277.1 2601.59 1277.1 2601.59 1410.93 2461.91 1410.93Z" fill="#FFF2CC" fill-rule="evenodd"/><path d="M2601.59 1277.1 2741.27 1277.1 2741.27 1410.93 2601.59 1410.93Z" fill="#FFF2CC" fill-rule="evenodd"/><path d="M2741.27 1277.1 2880.95 1277.1 2880.95 1410.93 2741.27 1410.93Z" fill="#FFF2CC" fill-rule="evenodd"/><path d="M2880.95 1277.1 3020.64 1277.1 3020.64 1410.93 2880.95 1410.93Z" fill="#FFF2CC" fill-rule="evenodd"/><path d="M3020.64 1277.1 3160.32 1277.1 3160.32 1410.93 3020.64 1410.93Z" fill="#FFF2CC" fill-rule="evenodd"/><path d="M3160.32 1277.1 3300 1277.1 3300 1410.93 3160.32 1410.93Z" fill="#FFF2CC" fill-rule="evenodd"/><path d="M366.667 1410.93 1065.08 1410.93 1065.08 1544.77 366.667 1544.77Z" fill="#E2F0D9" fill-rule="evenodd"/><path d="M1065.08 1410.93 3300 1410.93 3300 1544.77 1065.08 1544.77Z" fill="#FFF2CC" fill-rule="evenodd"/><path d="M506.349 1274.81 506.349 1413.23" stroke="#000000" stroke-width="4.58333" stroke-linejoin="round" stroke-miterlimit="10" fill="none" fill-rule="evenodd"/><path d="M646.032 1274.81 646.032 1413.23" stroke="#000000" stroke-width="4.58333" stroke-linejoin="round" stroke-miterlimit="10" fill="none" fill-rule="evenodd"/><path d="M785.715 1274.81 785.715 1413.23" stroke="#000000" stroke-width="4.58333" stroke-linejoin="round" stroke-miterlimit="10" fill="none" fill-rule="evenodd"/><path d="M925.397 1274.81 925.397 1413.23" stroke="#000000" stroke-width="4.58333" stroke-linejoin="round" stroke-miterlimit="10" fill="none" fill-rule="evenodd"/><path d="M1065.08 1274.81 1065.08 1547.06" stroke="#000000" stroke-width="4.58333" stroke-linejoin="round" stroke-miterlimit="10" fill="none" fill-rule="evenodd"/><path d="M1204.76 1274.81 1204.76 1413.23" stroke="#000000" stroke-width="4.58333" stroke-linejoin="round" stroke-miterlimit="10" fill="none" fill-rule="evenodd"/><path d="M1344.45 1274.81 1344.45 1413.23" stroke="#000000" stroke-width="4.58333" stroke-linejoin="round" stroke-miterlimit="10" fill="none" fill-rule="evenodd"/><path d="M1484.13 1274.81 1484.13 1413.23" stroke="#000000" stroke-width="4.58333" stroke-linejoin="round" stroke-miterlimit="10" fill="none" fill-rule="evenodd"/><path d="M1623.81 1274.81 1623.81 1413.23" stroke="#000000" stroke-width="4.58333" stroke-linejoin="round" stroke-miterlimit="10" fill="none" fill-rule="evenodd"/><path d="M1763.49 1274.81 1763.49 1413.23" stroke="#000000" stroke-width="4.58333" stroke-linejoin="round" stroke-miterlimit="10" fill="none" fill-rule="evenodd"/><path d="M1903.18 1274.81 1903.18 1413.23" stroke="#000000" stroke-width="4.58333" stroke-linejoin="round" stroke-miterlimit="10" fill="none" fill-rule="evenodd"/><path d="M2042.86 1274.81 2042.86 1413.23" stroke="#000000" stroke-width="4.58333" stroke-linejoin="round" stroke-miterlimit="10" fill="none" fill-rule="evenodd"/><path d="M2182.54 1274.81 2182.54 1413.23" stroke="#000000" stroke-width="4.58333" stroke-linejoin="round" stroke-miterlimit="10" fill="none" fill-rule="evenodd"/><path d="M2322.22 1274.81 2322.22 1413.23" stroke="#000000" stroke-width="4.58333" stroke-linejoin="round" stroke-miterlimit="10" fill="none" fill-rule="evenodd"/><path d="M2461.91 1274.81 2461.91 1413.23" stroke="#000000" stroke-width="4.58333" stroke-linejoin="round" stroke-miterlimit="10" fill="none" fill-rule="evenodd"/><path d="M2601.59 1274.81 2601.59 1413.23" stroke="#000000" stroke-width="4.58333" stroke-linejoin="round" stroke-miterlimit="10" fill="none" fill-rule="evenodd"/><path d="M2741.27 1274.81 2741.27 1413.23" stroke="#000000" stroke-width="4.58333" stroke-linejoin="round" stroke-miterlimit="10" fill="none" fill-rule="evenodd"/><path d="M2880.95 1274.81 2880.95 1413.23" stroke="#000000" stroke-width="4.58333" stroke-linejoin="round" stroke-miterlimit="10" fill="none" fill-rule="evenodd"/><path d="M3020.64 1274.81 3020.64 1413.23" stroke="#000000" stroke-width="4.58333" stroke-linejoin="round" stroke-miterlimit="10" fill="none" fill-rule="evenodd"/><path d="M3160.32 1274.81 3160.32 1413.23" stroke="#000000" stroke-width="4.58333" stroke-linejoin="round" stroke-miterlimit="10" fill="none" fill-rule="evenodd"/><path d="M364.375 1410.93 3302.29 1410.93" stroke="#000000" stroke-width="4.58333" stroke-linejoin="round" stroke-miterlimit="10" fill="none" fill-rule="evenodd"/><path d="M366.667 1274.81 366.667 1547.06" stroke="#000000" stroke-width="4.58333" stroke-linejoin="round" stroke-miterlimit="10" fill="none" fill-rule="evenodd"/><path d="M3300 1274.81 3300 1547.06" stroke="#000000" stroke-width="4.58333" stroke-linejoin="round" stroke-miterlimit="10" fill="none" fill-rule="evenodd"/><path d="M364.375 1277.1 3302.29 1277.1" stroke="#000000" stroke-width="4.58333" stroke-linejoin="round" stroke-miterlimit="10" fill="none" fill-rule="evenodd"/><path d="M364.375 1544.77 3302.29 1544.77" stroke="#000000" stroke-width="4.58333" stroke-linejoin="round" stroke-miterlimit="10" fill="none" fill-rule="evenodd"/><text font-family="Yu Gothic UI,Yu Gothic UI_MSFontService,sans-serif" font-weight="400" font-size="55" transform="matrix(1 0 0 1 406.716 1365)">20<tspan font-size="55" x="139.683" y="0">19</tspan><tspan font-size="55" x="279.365" y="0">18</tspan><tspan font-size="55" x="419.048" y="0">17</tspan><tspan font-size="55" x="558.731" y="0">16</tspan><tspan font-size="55" x="698.413" y="0">15</tspan><tspan font-size="55" x="838.096" y="0">14</tspan><tspan font-size="55" x="977.779" y="0">13</tspan><tspan font-size="55" x="1117.46" y="0">12</tspan><tspan font-size="55" x="1257.14" y="0">11</tspan><tspan font-size="55" x="1396.83" y="0">10</tspan><tspan font-size="55" x="1551.41" y="0">9</tspan><tspan font-size="55" x="1691.09" y="0">8</tspan><tspan font-size="55" x="1830.77" y="0">7</tspan><tspan font-size="55" x="1970.45" y="0">6</tspan><tspan font-size="55" x="2110.14" y="0">5</tspan><tspan font-size="55" x="2249.82" y="0">4</tspan><tspan font-size="55" x="2389.5" y="0">3</tspan><tspan font-size="55" x="2529.18" y="0">2</tspan><tspan font-size="55" x="2668.87" y="0">1</tspan><tspan font-size="55" x="2808.55" y="0">0</tspan><tspan font-size="55" x="191.136" y="134">面</tspan><tspan font-size="55" x="261.032" y="134">(plane)</tspan><tspan font-size="55" x="1597.93" y="134">区点</tspan><tspan font-size="55" x="1722.83" y="134">(row, cell)</tspan><tspan font-size="55" x="1309.02" y="-103">Code Point </tspan></text><path d="M1899 1277 1899 1730.52" stroke="#4472C4" stroke-width="13.75" stroke-miterlimit="8" fill="none" fill-rule="evenodd"/><path d="M3300 1275 3300 1728.52" stroke="#4472C4" stroke-width="13.75" stroke-miterlimit="8" fill="none" fill-rule="evenodd"/><path d="M367 1275 367 1728.52" stroke="#4472C4" stroke-width="13.75" stroke-miterlimit="8" fill="none" fill-rule="evenodd"/><path d="M389.918 1609.85 1876.49 1609.85 1876.49 1612.15 389.918 1612.15ZM394.5 1624.75 367 1611 394.5 1597.25ZM1871.9 1597.25 1899.4 1611 1871.9 1624.75Z" fill="#4472C4"/><path d="M1921.92 1609.85 3272.78 1609.85 3272.78 1612.15 1921.92 1612.15ZM1926.5 1624.75 1899 1611 1926.5 1597.25ZM3268.19 1597.25 3295.69 1611 3268.19 1624.75Z" fill="#4472C4"/><text font-family="Yu Gothic UI,Yu Gothic UI_MSFontService,sans-serif" font-weight="400" font-size="55" transform="matrix(1 0 0 1 2474.82 1682)">下位<tspan font-size="55" x="124.896" y="0">10bit</tspan><tspan font-size="55" x="-1532.4" y="3">上位</tspan><tspan font-size="55" x="-1407.51" y="3">11bit</tspan></text></g></svg>