<svg width="2660" height="1103" xmlns="http://www.w3.org/2000/svg" xmlns:xlink="http://www.w3.org/1999/xlink" xml:space="preserve" overflow="hidden"><defs><clipPath id="clip0"><rect x="185" y="911" width="2660" height="1103"/></clipPath></defs><g clip-path="url(#clip0)" transform="translate(-185 -911)"><path d="M187.917 913.733 591.938 913.733 591.938 1001.73 187.917 1001.73Z" fill="#4472C4" fill-rule="evenodd"/><path d="M591.938 913.733 1099.66 913.733 1099.66 1001.73 591.938 1001.73Z" fill="#4472C4" fill-rule="evenodd"/><path d="M1099.66 913.733 1945.97 913.733 1945.97 1001.73 1099.66 1001.73Z" fill="#4472C4" fill-rule="evenodd"/><path d="M1945.97 913.733 2835.49 913.733 2835.49 1001.73 1945.97 1001.73Z" fill="#4472C4" fill-rule="evenodd"/><path d="M187.917 1001.73 591.938 1001.73 591.938 1144.73 187.917 1144.73Z" fill="#E9EBF5" fill-rule="evenodd"/><path d="M591.938 1001.73 1099.66 1001.73 1099.66 1144.73 591.938 1144.73Z" fill="#E9EBF5" fill-rule="evenodd"/><path d="M1099.66 1001.73 1945.97 1001.73 1945.97 1144.73 1099.66 1144.73Z" fill="#E9EBF5" fill-rule="evenodd"/><path d="M1945.97 1001.73 2835.49 1001.73 2835.49 1144.73 1945.97 1144.73Z" fill="#E9EBF5" fill-rule="evenodd"/><path d="M187.917 1144.73 591.938 1144.73 591.938 1287.73 187.917 1287.73Z" fill="#E9EBF5" fill-rule="evenodd"/><path d="M591.938 1144.73 1099.66 1144.73 1099.66 1287.73 591.938 1287.73Z" fill="#E9EBF5" fill-rule="evenodd"/><path d="M1099.66 1144.73 1945.97 1144.73 1945.97 1287.73 1099.66 1287.73Z" fill="#E9EBF5" fill-rule="evenodd"/><path d="M1945.97 1144.73 2835.49 1144.73 2835.49 1287.73 1945.97 1287.73Z" fill="#E9EBF5" fill-rule="evenodd"/><path d="M187.917 1287.73 591.938 1287.73 591.938 1430.73 187.917 1430.73Z" fill="#E9EBF5" fill-rule="evenodd"/><path d="M591.938 1287.73 1099.66 1287.73 1099.66 1430.73 591.938 1430.73Z" fill="#E9EBF5" fill-rule="evenodd"/><path d="M1099.66 1287.73 1945.97 1287.73 1945.97 1430.73 1099.66 1430.73Z" fill="#E9EBF5" fill-rule="evenodd"/><path d="M1945.97 1287.73 2835.49 1287.73 2835.49 1430.73 1945.97 1430.73Z" fill="#E9EBF5" fill-rule="evenodd"/><path d="M187.917 1430.73 591.938 1430.73 591.938 1573.73 187.917 1573.73Z" fill="#E9EBF5" fill-rule="evenodd"/><path d="M591.938 1430.73 1099.66 1430.73 1099.66 1573.73 591.938 1573.73Z" fill="#E9EBF5" fill-rule="evenodd"/><path d="M1099.66 1430.73 1945.97 1430.73 1945.97 1573.73 1099.66 1573.73Z" fill="#E9EBF5" fill-rule="evenodd"/><path d="M1945.97 1430.73 2835.49 1430.73 2835.49 1573.73 1945.97 1573.73Z" fill="#E9EBF5" fill-rule="evenodd"/><path d="M187.917 1573.73 591.938 1573.73 591.938 1716.73 187.917 1716.73Z" fill="#E9EBF5" fill-rule="evenodd"/><path d="M591.938 1573.73 1099.66 1573.73 1099.66 1716.73 591.938 1716.73Z" fill="#E9EBF5" fill-rule="evenodd"/><path d="M1099.66 1573.73 1945.97 1573.73 1945.97 1716.73 1099.66 1716.73Z" fill="#E9EBF5" fill-rule="evenodd"/><path d="M1945.97 1573.73 2835.49 1573.73 2835.49 1716.73 1945.97 1716.73Z" fill="#E9EBF5" fill-rule="evenodd"/><path d="M187.917 1716.73 591.938 1716.73 591.938 1859.73 187.917 1859.73Z" fill="#E9EBF5" fill-rule="evenodd"/><path d="M591.938 1716.73 1099.66 1716.73 1099.66 1859.73 591.938 1859.73Z" fill="#E9EBF5" fill-rule="evenodd"/><path d="M1099.66 1716.73 1945.97 1716.73 1945.97 1859.73 1099.66 1859.73Z" fill="#E9EBF5" fill-rule="evenodd"/><path d="M1945.97 1716.73 2835.49 1716.73 2835.49 1859.73 1945.97 1859.73Z" fill="#E9EBF5" fill-rule="evenodd"/><path d="M187.917 1859.73 591.938 1859.73 591.938 2002.73 187.917 2002.73Z" fill="#E9EBF5" fill-rule="evenodd"/><path d="M591.938 1859.73 1099.66 1859.73 1099.66 2002.73 591.938 2002.73Z" fill="#E9EBF5" fill-rule="evenodd"/><path d="M1099.66 1859.73 1945.97 1859.73 1945.97 2002.73 1099.66 2002.73Z" fill="#E9EBF5" fill-rule="evenodd"/><path d="M1945.97 1859.73 2835.49 1859.73 2835.49 2002.73 1945.97 2002.73Z" fill="#E9EBF5" fill-rule="evenodd"/><path d="M591.938 911.441 591.938 2005.02" stroke="#FFFFFF" stroke-width="4.58333" stroke-linejoin="round" stroke-miterlimit="10" fill="none" fill-rule="evenodd"/><path d="M1099.66 911.441 1099.66 2005.02" stroke="#FFFFFF" stroke-width="4.58333" stroke-linejoin="round" stroke-miterlimit="10" fill="none" fill-rule="evenodd"/><path d="M1945.97 911.441 1945.97 2005.02" stroke="#FFFFFF" stroke-width="4.58333" stroke-linejoin="round" stroke-miterlimit="10" fill="none" fill-rule="evenodd"/><path d="M185.625 1001.73 2837.78 1001.73" stroke="#FFFFFF" stroke-width="13.75" stroke-linejoin="round" stroke-miterlimit="10" fill="none" fill-rule="evenodd"/><path d="M185.625 1144.73 2837.78 1144.73" stroke="#FFFFFF" stroke-width="4.58333" stroke-linejoin="round" stroke-miterlimit="10" fill="none" fill-rule="evenodd"/><path d="M185.625 1287.73 2837.78 1287.73" stroke="#FFFFFF" stroke-width="4.58333" stroke-linejoin="round" stroke-miterlimit="10" fill="none" fill-rule="evenodd"/><path d="M185.625 1430.73 2837.78 1430.73" stroke="#FFFFFF" stroke-width="4.58333" stroke-linejoin="round" stroke-miterlimit="10" fill="none" fill-rule="evenodd"/><path d="M185.625 1573.73 2837.78 1573.73" stroke="#FFFFFF" stroke-width="4.58333" stroke-linejoin="round" stroke-miterlimit="10" fill="none" fill-rule="evenodd"/><path d="M185.625 1716.73 2837.78 1716.73" stroke="#FFFFFF" stroke-width="4.58333" stroke-linejoin="round" stroke-miterlimit="10" fill="none" fill-rule="evenodd"/><path d="M185.625 1859.73 2837.78 1859.73" stroke="#FFFFFF" stroke-width="4.58333" stroke-linejoin="round" stroke-miterlimit="10" fill="none" fill-rule="evenodd"/><path d="M187.917 911.441 187.917 2005.02" stroke="#FFFFFF" stroke-width="4.58333" stroke-linejoin="round" stroke-miterlimit="10" fill="none" fill-rule="evenodd"/><path d="M2835.49 911.441 2835.49 2005.02" stroke="#FFFFFF" stroke-width="4.58333" stroke-linejoin="round" stroke-miterlimit="10" fill="none" fill-rule="evenodd"/><path d="M185.625 913.733 2837.78 913.733" stroke="#FFFFFF" stroke-width="4.58333" stroke-linejoin="round" stroke-miterlimit="10" fill="none" fill-rule="evenodd"/><path d="M185.625 2002.73 2837.78 2002.73" stroke="#FFFFFF" stroke-width="4.58333" stroke-linejoin="round" stroke-miterlimit="10" fill="none" fill-rule="evenodd"/><text fill="#FFFFFF" font-family="Yu Gothic UI,Yu Gothic UI_MSFontService,sans-serif" font-weight="700" font-size="46" transform="matrix(1 0 0 1 367.01 975)">面<tspan font-size="46" x="432.953" y="0">範囲</tspan><tspan font-size="46" x="1109.97" y="0">名称</tspan><tspan font-size="46" x="1912" y="0">主な文字種</tspan><tspan fill="#000000" font-weight="400" font-size="46" x="-146.094" y="120">第０面：</tspan><tspan fill="#000000" font-weight="400" font-size="46" x="37.2397" y="120">0x00</tspan><tspan fill="#000000" font-weight="400" font-size="46" x="300.036" y="120">U+0000 </tspan><tspan fill="#000000" font-weight="400" font-size="46" x="474.203" y="120">-</tspan><tspan fill="#000000" font-weight="400" font-size="46" x="505.141" y="120">U+FFFF</tspan><tspan fill="#000000" font-weight="400" font-size="46" x="1018.3" y="92">基本多言語面</tspan><tspan fill="#000000" font-weight="400" font-size="46" x="918.042" y="147">Basic Multilingual Plane</tspan><tspan fill="#000000" font-weight="400" font-size="46" x="1611.96" y="120">基本的な文字</tspan><tspan fill="#000000" font-weight="400" font-size="46" x="-146.094" y="263">第１面：</tspan><tspan fill="#000000" font-weight="400" font-size="46" x="37.2397" y="263">0x01</tspan><tspan fill="#000000" font-weight="400" font-size="46" x="275.401" y="263">U+10000 </tspan><tspan fill="#000000" font-weight="400" font-size="46" x="474.203" y="263">-</tspan><tspan fill="#000000" font-weight="400" font-size="46" x="505.141" y="263">U+1FFFF</tspan><tspan fill="#000000" font-weight="400" font-size="46" x="1018.31" y="235">追加多言語面</tspan><tspan fill="#000000" font-weight="400" font-size="46" x="815.776" y="290">Supplementary Multilingual Plane</tspan><tspan fill="#000000" font-weight="400" font-size="46" x="1611.96" y="263">古代文字や記号・絵文字類など</tspan><tspan fill="#000000" font-weight="400" font-size="46" x="-146.094" y="406">第２面：</tspan><tspan fill="#000000" font-weight="400" font-size="46" x="37.2397" y="406">0x02</tspan><tspan fill="#000000" font-weight="400" font-size="46" x="275.401" y="406">U+20000 </tspan><tspan fill="#000000" font-weight="400" font-size="46" x="474.203" y="406">-</tspan><tspan fill="#000000" font-weight="400" font-size="46" x="505.141" y="406">U+2FFFF</tspan><tspan fill="#000000" font-weight="400" font-size="46" x="1041.23" y="378">追加漢字面</tspan><tspan fill="#000000" font-weight="400" font-size="46" x="814.63" y="433">Supplementary Ideographic Plane</tspan><tspan fill="#000000" font-weight="400" font-size="46" x="1611.96" y="406">漢字専用領域</tspan><tspan fill="#000000" font-weight="400" font-size="46" x="-146.094" y="549">第３面：</tspan><tspan fill="#000000" font-weight="400" font-size="46" x="37.2397" y="549">0x03</tspan><tspan fill="#000000" font-weight="400" font-size="46" x="275.401" y="549">U+30000 </tspan><tspan fill="#000000" font-weight="400" font-size="46" x="474.203" y="549">-</tspan><tspan fill="#000000" font-weight="400" font-size="46" x="505.141" y="549">U+3FFFF</tspan><tspan fill="#000000" font-weight="400" font-size="46" x="1041.23" y="521">第三漢字面</tspan><tspan fill="#000000" font-weight="400" font-size="46" x="891.401" y="576">Tertiary Ideographic Plane</tspan><tspan fill="#000000" font-weight="400" font-size="46" x="1611.96" y="549">追加漢字面に入りきらなかった漢字など</tspan><tspan fill="#000000" font-weight="400" font-size="46" x="-146.094" y="664">第４面：</tspan><tspan fill="#000000" font-weight="400" font-size="46" x="37.2397" y="664">0x04</tspan><tspan fill="#000000" font-weight="400" font-size="46" x="132.344" y="664">～</tspan><tspan fill="#000000" font-weight="400" font-size="46" x="-146.094" y="719">第</tspan><tspan fill="#000000" font-weight="400" font-size="46" x="-100.26" y="719">13</tspan><tspan fill="#000000" font-weight="400" font-size="46" x="-50.9894" y="719">面：</tspan><tspan fill="#000000" font-weight="400" font-size="46" x="40.6772" y="719">0x0D</tspan><tspan fill="#000000" font-weight="400" font-size="46" x="271.677" y="692">U+40000 </tspan><tspan fill="#000000" font-weight="400" font-size="46" x="470.479" y="692">-</tspan><tspan fill="#000000" font-weight="400" font-size="46" x="501.417" y="692">U+DFFFF</tspan><tspan fill="#000000" font-weight="400" font-size="46" x="1087.05" y="692">未使用</tspan><tspan fill="#000000" font-weight="400" font-size="46" x="1611.96" y="692">未使用</tspan><tspan fill="#000000" font-weight="400" font-size="46" x="-146.094" y="835">第</tspan><tspan fill="#000000" font-weight="400" font-size="46" x="-100.26" y="835">14</tspan><tspan fill="#000000" font-weight="400" font-size="46" x="-50.9894" y="835">面：</tspan><tspan fill="#000000" font-weight="400" font-size="46" x="40.6772" y="835">0x0E</tspan><tspan fill="#000000" font-weight="400" font-size="46" x="277.12" y="835">U+E0000 </tspan><tspan fill="#000000" font-weight="400" font-size="46" x="474.203" y="835">-</tspan><tspan fill="#000000" font-weight="400" font-size="46" x="505.141" y="835">U+EFFFF</tspan><tspan fill="#000000" font-weight="400" font-size="46" x="995.385" y="807">追加特殊用途面</tspan><tspan fill="#000000" font-weight="400" font-size="46" x="771.948" y="862">Supplementary Special</tspan><tspan fill="#000000" font-weight="400" font-size="46" x="1232.57" y="862">-</tspan><tspan fill="#000000" font-weight="400" font-size="46" x="1250.91" y="862">purpose Plane</tspan><tspan fill="#000000" font-weight="400" font-size="46" x="1611.96" y="835">制御コード専用領域</tspan><tspan fill="#000000" font-weight="400" font-size="46" x="-146.094" y="950">第</tspan><tspan fill="#000000" font-weight="400" font-size="46" x="-100.26" y="950">15</tspan><tspan fill="#000000" font-weight="400" font-size="46" x="-50.9894" y="950">面：</tspan><tspan fill="#000000" font-weight="400" font-size="46" x="40.6772" y="950">0x0F</tspan><tspan fill="#000000" font-weight="400" font-size="46" x="133.49" y="950">～</tspan><tspan fill="#000000" font-weight="400" font-size="46" x="-146.094" y="1005">第</tspan><tspan fill="#000000" font-weight="400" font-size="46" x="-100.26" y="1005">16</tspan><tspan fill="#000000" font-weight="400" font-size="46" x="-50.9894" y="1005">面：</tspan><tspan fill="#000000" font-weight="400" font-size="46" x="40.6772" y="1005">0x10</tspan><tspan fill="#000000" font-weight="400" font-size="46" x="264.229" y="978">U+F0000 </tspan><tspan fill="#000000" font-weight="400" font-size="46" x="460.74" y="978">-</tspan><tspan fill="#000000" font-weight="400" font-size="46" x="491.677" y="978">U+10FFFF</tspan><tspan fill="#000000" font-weight="400" font-size="46" x="1087.06" y="950">私用面</tspan><tspan fill="#000000" font-weight="400" font-size="46" x="981.922" y="1005">Private Use Plane</tspan><tspan fill="#000000" font-weight="400" font-size="46" x="1611.96" y="978">BMP</tspan><tspan fill="#000000" font-weight="400" font-size="46" x="1705.34" y="978">の</tspan><tspan fill="#000000" font-weight="400" font-size="46" x="1755.19" y="978">U+E000 </tspan><tspan fill="#000000" font-weight="400" font-size="46" x="1927.64" y="978">-</tspan><tspan fill="#000000" font-weight="400" font-size="46" x="1958.57" y="978">U+F8FF </tspan><tspan fill="#000000" font-weight="400" font-size="46" x="2125.86" y="978">の領域の拡張</tspan></text><rect x="188.5" y="913.5" width="2647" height="1089" stroke="#7F7F7F" stroke-width="4.58333" stroke-miterlimit="8" fill="none"/></g></svg>