<svg width="3123" height="480" xmlns="http://www.w3.org/2000/svg" xmlns:xlink="http://www.w3.org/1999/xlink" xml:space="preserve" overflow="hidden"><defs><clipPath id="clip0"><rect x="302" y="518" width="3123" height="480"/></clipPath></defs><g clip-path="url(#clip0)" transform="translate(-302 -518)"><path d="M396.458 640.183 536.141 640.183 536.141 774.016 396.458 774.016Z" fill="#E2F0D9" fill-rule="evenodd"/><path d="M536.141 640.183 675.824 640.183 675.824 774.016 536.141 774.016Z" fill="#E2F0D9" fill-rule="evenodd"/><path d="M675.824 640.183 815.506 640.183 815.506 774.016 675.824 774.016Z" fill="#E2F0D9" fill-rule="evenodd"/><path d="M815.506 640.183 955.189 640.183 955.189 774.016 815.506 774.016Z" fill="#E2F0D9" fill-rule="evenodd"/><path d="M955.189 640.183 1094.87 640.183 1094.87 774.016 955.189 774.016Z" fill="#E2F0D9" fill-rule="evenodd"/><path d="M1094.87 640.183 1234.55 640.183 1234.55 774.016 1094.87 774.016Z" fill="#FFF2CC" fill-rule="evenodd"/><path d="M1234.55 640.183 1374.24 640.183 1374.24 774.016 1234.55 774.016Z" fill="#FFF2CC" fill-rule="evenodd"/><path d="M1374.24 640.183 1513.92 640.183 1513.92 774.016 1374.24 774.016Z" fill="#FFF2CC" fill-rule="evenodd"/><path d="M1513.92 640.183 1653.6 640.183 1653.6 774.016 1513.92 774.016Z" fill="#FFF2CC" fill-rule="evenodd"/><path d="M1653.6 640.183 1793.29 640.183 1793.29 774.016 1653.6 774.016Z" fill="#FFF2CC" fill-rule="evenodd"/><path d="M1793.29 640.183 1932.97 640.183 1932.97 774.016 1793.29 774.016Z" fill="#FFF2CC" fill-rule="evenodd"/><path d="M1932.97 640.183 2072.65 640.183 2072.65 774.016 1932.97 774.016Z" fill="#FFF2CC" fill-rule="evenodd"/><path d="M2072.65 640.183 2212.33 640.183 2212.33 774.016 2072.65 774.016Z" fill="#FFF2CC" fill-rule="evenodd"/><path d="M2212.33 640.183 2352.02 640.183 2352.02 774.016 2212.33 774.016Z" fill="#FFF2CC" fill-rule="evenodd"/><path d="M2352.02 640.183 2491.7 640.183 2491.7 774.016 2352.02 774.016Z" fill="#FFF2CC" fill-rule="evenodd"/><path d="M2491.7 640.183 2631.38 640.183 2631.38 774.016 2491.7 774.016Z" fill="#FFF2CC" fill-rule="evenodd"/><path d="M2631.38 640.183 2771.06 640.183 2771.06 774.016 2631.38 774.016Z" fill="#FFF2CC" fill-rule="evenodd"/><path d="M2771.06 640.183 2910.75 640.183 2910.75 774.016 2771.06 774.016Z" fill="#FFF2CC" fill-rule="evenodd"/><path d="M2910.75 640.183 3050.43 640.183 3050.43 774.016 2910.75 774.016Z" fill="#FFF2CC" fill-rule="evenodd"/><path d="M3050.43 640.183 3190.11 640.183 3190.11 774.016 3050.43 774.016Z" fill="#FFF2CC" fill-rule="evenodd"/><path d="M3190.11 640.183 3329.79 640.183 3329.79 774.016 3190.11 774.016Z" fill="#FFF2CC" fill-rule="evenodd"/><path d="M396.458 774.016 1094.87 774.016 1094.87 907.849 396.458 907.849Z" fill="#E2F0D9" fill-rule="evenodd"/><path d="M1094.87 774.016 2212.33 774.016 2212.33 907.849 1094.87 907.849Z" fill="#FFF2CC" fill-rule="evenodd"/><path d="M2212.33 774.016 3329.79 774.016 3329.79 907.849 2212.33 907.849Z" fill="#FFF2CC" fill-rule="evenodd"/><path d="M536.141 637.891 536.141 776.308" stroke="#000000" stroke-width="4.58333" stroke-linejoin="round" stroke-miterlimit="10" fill="none" fill-rule="evenodd"/><path d="M675.824 637.891 675.824 776.308" stroke="#000000" stroke-width="4.58333" stroke-linejoin="round" stroke-miterlimit="10" fill="none" fill-rule="evenodd"/><path d="M815.506 637.891 815.506 776.308" stroke="#000000" stroke-width="4.58333" stroke-linejoin="round" stroke-miterlimit="10" fill="none" fill-rule="evenodd"/><path d="M955.189 637.891 955.189 776.308" stroke="#000000" stroke-width="4.58333" stroke-linejoin="round" stroke-miterlimit="10" fill="none" fill-rule="evenodd"/><path d="M1094.87 637.891 1094.87 910.141" stroke="#000000" stroke-width="4.58333" stroke-linejoin="round" stroke-miterlimit="10" fill="none" fill-rule="evenodd"/><path d="M1234.55 637.891 1234.55 776.308" stroke="#000000" stroke-width="4.58333" stroke-linejoin="round" stroke-miterlimit="10" fill="none" fill-rule="evenodd"/><path d="M1374.24 637.891 1374.24 776.308" stroke="#000000" stroke-width="4.58333" stroke-linejoin="round" stroke-miterlimit="10" fill="none" fill-rule="evenodd"/><path d="M1513.92 637.891 1513.92 776.308" stroke="#000000" stroke-width="4.58333" stroke-linejoin="round" stroke-miterlimit="10" fill="none" fill-rule="evenodd"/><path d="M1653.6 637.891 1653.6 776.308" stroke="#000000" stroke-width="4.58333" stroke-linejoin="round" stroke-miterlimit="10" fill="none" fill-rule="evenodd"/><path d="M1793.29 637.891 1793.29 776.308" stroke="#000000" stroke-width="4.58333" stroke-linejoin="round" stroke-miterlimit="10" fill="none" fill-rule="evenodd"/><path d="M1932.97 637.891 1932.97 776.308" stroke="#000000" stroke-width="4.58333" stroke-linejoin="round" stroke-miterlimit="10" fill="none" fill-rule="evenodd"/><path d="M2072.65 637.891 2072.65 776.308" stroke="#000000" stroke-width="4.58333" stroke-linejoin="round" stroke-miterlimit="10" fill="none" fill-rule="evenodd"/><path d="M2212.33 637.891 2212.33 910.141" stroke="#000000" stroke-width="4.58333" stroke-linejoin="round" stroke-miterlimit="10" fill="none" fill-rule="evenodd"/><path d="M2352.02 637.891 2352.02 776.308" stroke="#000000" stroke-width="4.58333" stroke-linejoin="round" stroke-miterlimit="10" fill="none" fill-rule="evenodd"/><path d="M2491.7 637.891 2491.7 776.308" stroke="#000000" stroke-width="4.58333" stroke-linejoin="round" stroke-miterlimit="10" fill="none" fill-rule="evenodd"/><path d="M2631.38 637.891 2631.38 776.308" stroke="#000000" stroke-width="4.58333" stroke-linejoin="round" stroke-miterlimit="10" fill="none" fill-rule="evenodd"/><path d="M2771.06 637.891 2771.06 776.308" stroke="#000000" stroke-width="4.58333" stroke-linejoin="round" stroke-miterlimit="10" fill="none" fill-rule="evenodd"/><path d="M2910.75 637.891 2910.75 776.308" stroke="#000000" stroke-width="4.58333" stroke-linejoin="round" stroke-miterlimit="10" fill="none" fill-rule="evenodd"/><path d="M3050.43 637.891 3050.43 776.308" stroke="#000000" stroke-width="4.58333" stroke-linejoin="round" stroke-miterlimit="10" fill="none" fill-rule="evenodd"/><path d="M3190.11 637.891 3190.11 776.308" stroke="#000000" stroke-width="4.58333" stroke-linejoin="round" stroke-miterlimit="10" fill="none" fill-rule="evenodd"/><path d="M394.167 774.016 3332.09 774.016" stroke="#000000" stroke-width="4.58333" stroke-linejoin="round" stroke-miterlimit="10" fill="none" fill-rule="evenodd"/><path d="M396.458 637.891 396.458 910.141" stroke="#000000" stroke-width="4.58333" stroke-linejoin="round" stroke-miterlimit="10" fill="none" fill-rule="evenodd"/><path d="M3329.79 637.891 3329.79 910.141" stroke="#000000" stroke-width="4.58333" stroke-linejoin="round" stroke-miterlimit="10" fill="none" fill-rule="evenodd"/><path d="M394.167 640.183 3332.09 640.183" stroke="#000000" stroke-width="4.58333" stroke-linejoin="round" stroke-miterlimit="10" fill="none" fill-rule="evenodd"/><path d="M394.167 907.849 3332.09 907.849" stroke="#000000" stroke-width="4.58333" stroke-linejoin="round" stroke-miterlimit="10" fill="none" fill-rule="evenodd"/><text font-family="Yu Gothic UI,Yu Gothic UI_MSFontService,sans-serif" font-weight="400" font-size="55" transform="matrix(1 0 0 1 436.508 728)">20<tspan font-size="55" x="139.683" y="0">19</tspan><tspan font-size="55" x="279.365" y="0">18</tspan><tspan font-size="55" x="419.048" y="0">17</tspan><tspan font-size="55" x="558.731" y="0">16</tspan><tspan font-size="55" x="698.413" y="0">15</tspan><tspan font-size="55" x="838.096" y="0">14</tspan><tspan font-size="55" x="977.779" y="0">13</tspan><tspan font-size="55" x="1117.46" y="0">12</tspan><tspan font-size="55" x="1257.14" y="0">11</tspan><tspan font-size="55" x="1396.83" y="0">10</tspan><tspan font-size="55" x="1551.41" y="0">9</tspan><tspan font-size="55" x="1691.09" y="0">8</tspan><tspan font-size="55" x="1830.77" y="0">7</tspan><tspan font-size="55" x="1970.45" y="0">6</tspan><tspan font-size="55" x="2110.14" y="0">5</tspan><tspan font-size="55" x="2249.82" y="0">4</tspan><tspan font-size="55" x="2389.5" y="0">3</tspan><tspan font-size="55" x="2529.18" y="0">2</tspan><tspan font-size="55" x="2668.87" y="0">1</tspan><tspan font-size="55" x="2808.55" y="0">0</tspan><tspan font-size="55" x="191.136" y="134">面</tspan><tspan font-size="55" x="261.032" y="134">(plane)</tspan><tspan font-size="55" x="1120.27" y="134">区</tspan><tspan font-size="55" x="1190.17" y="134">(row)</tspan><tspan font-size="55" x="2242.89" y="134">点</tspan><tspan font-size="55" x="2312.78" y="134">(cell)</tspan></text><rect x="304.5" y="520.5" width="3118" height="475" stroke="#7F7F7F" stroke-width="4.58333" stroke-miterlimit="8" fill="none"/><text font-family="Yu Gothic UI,Yu Gothic UI_MSFontService,sans-serif" font-weight="400" font-size="55" transform="matrix(1 0 0 1 1661.46 624)">Code Point </text></g></svg>