<svg width="3412" height="994" xmlns="http://www.w3.org/2000/svg" xmlns:xlink="http://www.w3.org/1999/xlink" xml:space="preserve" overflow="hidden"><defs><clipPath id="clip0"><rect x="246" y="555" width="3412" height="994"/></clipPath><linearGradient x1="485.329" y1="872.36" x2="586.877" y2="1324.16" gradientUnits="userSpaceOnUse" spreadMethod="reflect" id="fill1"><stop offset="0" stop-color="#A8B7DF"/><stop offset="0.5" stop-color="#9AABD9"/><stop offset="1" stop-color="#879ED7"/></linearGradient><linearGradient x1="485.329" y1="872.36" x2="586.877" y2="1324.16" gradientUnits="userSpaceOnUse" spreadMethod="reflect" id="fill2"><stop offset="0" stop-color="#8793B3"/><stop offset="0.5" stop-color="#7C89AE"/><stop offset="1" stop-color="#6D7FAD"/></linearGradient></defs><g clip-path="url(#clip0)" transform="translate(-246 -555)"><path d="M767.206 1058.15 906.889 1058.15 906.889 1191.98 767.206 1191.98Z" fill="#E2F0D9" fill-rule="evenodd"/><path d="M906.889 1058.15 1046.57 1058.15 1046.57 1191.98 906.889 1191.98Z" fill="#E2F0D9" fill-rule="evenodd"/><path d="M1046.57 1058.15 1186.25 1058.15 1186.25 1191.98 1046.57 1191.98Z" fill="#E2F0D9" fill-rule="evenodd"/><path d="M1186.25 1058.15 1325.94 1058.15 1325.94 1191.98 1186.25 1191.98Z" fill="#E2F0D9" fill-rule="evenodd"/><path d="M1325.94 1058.15 1465.62 1058.15 1465.62 1191.98 1325.94 1191.98Z" fill="#FFF2CC" fill-rule="evenodd"/><path d="M1465.62 1058.15 1605.3 1058.15 1605.3 1191.98 1465.62 1191.98Z" fill="#FFF2CC" fill-rule="evenodd"/><path d="M1605.3 1058.15 1744.99 1058.15 1744.99 1191.98 1605.3 1191.98Z" fill="#FFF2CC" fill-rule="evenodd"/><path d="M1744.99 1058.15 1884.67 1058.15 1884.67 1191.98 1744.99 1191.98Z" fill="#FFF2CC" fill-rule="evenodd"/><path d="M1884.67 1058.15 2024.35 1058.15 2024.35 1191.98 1884.67 1191.98Z" fill="#FFF2CC" fill-rule="evenodd"/><path d="M2024.35 1058.15 2164.03 1058.15 2164.03 1191.98 2024.35 1191.98Z" fill="#FFF2CC" fill-rule="evenodd"/><path d="M2164.03 1058.15 2303.72 1058.15 2303.72 1191.98 2164.03 1191.98Z" fill="#FFF2CC" fill-rule="evenodd"/><path d="M2303.72 1058.15 2443.4 1058.15 2443.4 1191.98 2303.72 1191.98Z" fill="#FFF2CC" fill-rule="evenodd"/><path d="M2443.4 1058.15 2583.08 1058.15 2583.08 1191.98 2443.4 1191.98Z" fill="#FFF2CC" fill-rule="evenodd"/><path d="M2583.08 1058.15 2722.76 1058.15 2722.76 1191.98 2583.08 1191.98Z" fill="#FFF2CC" fill-rule="evenodd"/><path d="M2722.76 1058.15 2862.45 1058.15 2862.45 1191.98 2722.76 1191.98Z" fill="#FFF2CC" fill-rule="evenodd"/><path d="M2862.45 1058.15 3002.13 1058.15 3002.13 1191.98 2862.45 1191.98Z" fill="#FFF2CC" fill-rule="evenodd"/><path d="M3002.13 1058.15 3141.81 1058.15 3141.81 1191.98 3002.13 1191.98Z" fill="#FFF2CC" fill-rule="evenodd"/><path d="M3141.81 1058.15 3281.49 1058.15 3281.49 1191.98 3141.81 1191.98Z" fill="#FFF2CC" fill-rule="evenodd"/><path d="M3281.49 1058.15 3421.18 1058.15 3421.18 1191.98 3281.49 1191.98Z" fill="#FFF2CC" fill-rule="evenodd"/><path d="M3421.18 1058.15 3560.86 1058.15 3560.86 1191.98 3421.18 1191.98Z" fill="#FFF2CC" fill-rule="evenodd"/><path d="M767.206 1191.98 1325.94 1191.98 1325.94 1325.82 767.206 1325.82Z" fill="#E2F0D9" fill-rule="evenodd"/><path d="M1325.94 1191.98 3560.86 1191.98 3560.86 1325.82 1325.94 1325.82Z" fill="#FFF2CC" fill-rule="evenodd"/><path d="M906.889 1055.86 906.889 1194.28" stroke="#000000" stroke-width="4.58333" stroke-linejoin="round" stroke-miterlimit="10" fill="none" fill-rule="evenodd"/><path d="M1046.57 1055.86 1046.57 1194.28" stroke="#000000" stroke-width="4.58333" stroke-linejoin="round" stroke-miterlimit="10" fill="none" fill-rule="evenodd"/><path d="M1186.25 1055.86 1186.25 1194.28" stroke="#000000" stroke-width="4.58333" stroke-linejoin="round" stroke-miterlimit="10" fill="none" fill-rule="evenodd"/><path d="M1325.94 1055.86 1325.94 1328.11" stroke="#000000" stroke-width="4.58333" stroke-linejoin="round" stroke-miterlimit="10" fill="none" fill-rule="evenodd"/><path d="M1465.62 1055.86 1465.62 1194.28" stroke="#000000" stroke-width="4.58333" stroke-linejoin="round" stroke-miterlimit="10" fill="none" fill-rule="evenodd"/><path d="M1605.3 1055.86 1605.3 1194.28" stroke="#000000" stroke-width="4.58333" stroke-linejoin="round" stroke-miterlimit="10" fill="none" fill-rule="evenodd"/><path d="M1744.99 1055.86 1744.99 1194.28" stroke="#000000" stroke-width="4.58333" stroke-linejoin="round" stroke-miterlimit="10" fill="none" fill-rule="evenodd"/><path d="M1884.67 1055.86 1884.67 1194.28" stroke="#000000" stroke-width="4.58333" stroke-linejoin="round" stroke-miterlimit="10" fill="none" fill-rule="evenodd"/><path d="M2024.35 1055.86 2024.35 1194.28" stroke="#000000" stroke-width="4.58333" stroke-linejoin="round" stroke-miterlimit="10" fill="none" fill-rule="evenodd"/><path d="M2164.03 1055.86 2164.03 1194.28" stroke="#000000" stroke-width="4.58333" stroke-linejoin="round" stroke-miterlimit="10" fill="none" fill-rule="evenodd"/><path d="M2303.72 1055.86 2303.72 1194.28" stroke="#000000" stroke-width="4.58333" stroke-linejoin="round" stroke-miterlimit="10" fill="none" fill-rule="evenodd"/><path d="M2443.4 1055.86 2443.4 1194.28" stroke="#000000" stroke-width="4.58333" stroke-linejoin="round" stroke-miterlimit="10" fill="none" fill-rule="evenodd"/><path d="M2583.08 1055.86 2583.08 1194.28" stroke="#000000" stroke-width="4.58333" stroke-linejoin="round" stroke-miterlimit="10" fill="none" fill-rule="evenodd"/><path d="M2722.76 1055.86 2722.76 1194.28" stroke="#000000" stroke-width="4.58333" stroke-linejoin="round" stroke-miterlimit="10" fill="none" fill-rule="evenodd"/><path d="M2862.45 1055.86 2862.45 1194.28" stroke="#000000" stroke-width="4.58333" stroke-linejoin="round" stroke-miterlimit="10" fill="none" fill-rule="evenodd"/><path d="M3002.13 1055.86 3002.13 1194.28" stroke="#000000" stroke-width="4.58333" stroke-linejoin="round" stroke-miterlimit="10" fill="none" fill-rule="evenodd"/><path d="M3141.81 1055.86 3141.81 1194.28" stroke="#000000" stroke-width="4.58333" stroke-linejoin="round" stroke-miterlimit="10" fill="none" fill-rule="evenodd"/><path d="M3281.49 1055.86 3281.49 1194.28" stroke="#000000" stroke-width="4.58333" stroke-linejoin="round" stroke-miterlimit="10" fill="none" fill-rule="evenodd"/><path d="M3421.18 1055.86 3421.18 1194.28" stroke="#000000" stroke-width="4.58333" stroke-linejoin="round" stroke-miterlimit="10" fill="none" fill-rule="evenodd"/><path d="M764.915 1191.98 3563.15 1191.98" stroke="#000000" stroke-width="4.58333" stroke-linejoin="round" stroke-miterlimit="10" fill="none" fill-rule="evenodd"/><path d="M767.206 1055.86 767.206 1328.11" stroke="#000000" stroke-width="4.58333" stroke-linejoin="round" stroke-miterlimit="10" fill="none" fill-rule="evenodd"/><path d="M3560.86 1055.86 3560.86 1328.11" stroke="#000000" stroke-width="4.58333" stroke-linejoin="round" stroke-miterlimit="10" fill="none" fill-rule="evenodd"/><path d="M764.915 1058.15 3563.15 1058.15" stroke="#000000" stroke-width="4.58333" stroke-linejoin="round" stroke-miterlimit="10" fill="none" fill-rule="evenodd"/><path d="M764.915 1325.82 3563.15 1325.82" stroke="#000000" stroke-width="4.58333" stroke-linejoin="round" stroke-miterlimit="10" fill="none" fill-rule="evenodd"/><text font-family="Yu Gothic UI,Yu Gothic UI_MSFontService,sans-serif" font-weight="400" font-size="55" transform="matrix(1 0 0 1 807.256 1146)">19<tspan font-size="55" x="139.683" y="0">18</tspan><tspan font-size="55" x="279.365" y="0">17</tspan><tspan font-size="55" x="419.048" y="0">16</tspan><tspan font-size="55" x="558.731" y="0">15</tspan><tspan font-size="55" x="698.413" y="0">14</tspan><tspan font-size="55" x="838.096" y="0">13</tspan><tspan font-size="55" x="977.779" y="0">12</tspan><tspan font-size="55" x="1117.46" y="0">11</tspan><tspan font-size="55" x="1257.14" y="0">10</tspan><tspan font-size="55" x="1411.72" y="0">9</tspan><tspan font-size="55" x="1551.41" y="0">8</tspan><tspan font-size="55" x="1691.09" y="0">7</tspan><tspan font-size="55" x="1830.77" y="0">6</tspan><tspan font-size="55" x="1970.45" y="0">5</tspan><tspan font-size="55" x="2110.14" y="0">4</tspan><tspan font-size="55" x="2249.82" y="0">3</tspan><tspan font-size="55" x="2389.5" y="0">2</tspan><tspan font-size="55" x="2529.18" y="0">1</tspan><tspan font-size="55" x="2668.87" y="0">0</tspan><tspan font-size="55" x="95.5134" y="134">面</tspan><tspan font-size="55" x="165.409" y="134">(plane</tspan><tspan font-size="55" x="314.94" y="134">-</tspan><tspan font-size="55" x="336.711" y="134">1)</tspan><tspan font-size="55" x="1458.25" y="134">区点</tspan><tspan font-size="55" x="1583.15" y="134">(row, cell)</tspan></text><rect x="248.5" y="557.5" width="3407" height="989" stroke="#7F7F7F" stroke-width="4.58333" stroke-miterlimit="8" fill="none"/><path d="M629.221 699.163 768.904 699.163 768.904 832.996 629.221 832.996Z" fill="#E2F0D9" fill-rule="evenodd"/><path d="M768.904 699.163 908.587 699.163 908.587 832.996 768.904 832.996Z" fill="#E2F0D9" fill-rule="evenodd"/><path d="M908.587 699.163 1048.27 699.163 1048.27 832.996 908.587 832.996Z" fill="#E2F0D9" fill-rule="evenodd"/><path d="M1048.27 699.163 1187.95 699.163 1187.95 832.996 1048.27 832.996Z" fill="#E2F0D9" fill-rule="evenodd"/><path d="M1187.95 699.163 1327.63 699.163 1327.63 832.996 1187.95 832.996Z" fill="#E2F0D9" fill-rule="evenodd"/><path d="M1327.63 699.163 1467.32 699.163 1467.32 832.996 1327.63 832.996Z" fill="#FFF2CC" fill-rule="evenodd"/><path d="M1467.32 699.163 1607 699.163 1607 832.996 1467.32 832.996Z" fill="#FFF2CC" fill-rule="evenodd"/><path d="M1607 699.163 1746.68 699.163 1746.68 832.996 1607 832.996Z" fill="#FFF2CC" fill-rule="evenodd"/><path d="M1746.68 699.163 1886.37 699.163 1886.37 832.996 1746.68 832.996Z" fill="#FFF2CC" fill-rule="evenodd"/><path d="M1886.37 699.163 2026.05 699.163 2026.05 832.996 1886.37 832.996Z" fill="#FFF2CC" fill-rule="evenodd"/><path d="M2026.05 699.163 2165.73 699.163 2165.73 832.996 2026.05 832.996Z" fill="#FFF2CC" fill-rule="evenodd"/><path d="M2165.73 699.163 2305.41 699.163 2305.41 832.996 2165.73 832.996Z" fill="#FFF2CC" fill-rule="evenodd"/><path d="M2305.41 699.163 2445.1 699.163 2445.1 832.996 2305.41 832.996Z" fill="#FFF2CC" fill-rule="evenodd"/><path d="M2445.1 699.163 2584.78 699.163 2584.78 832.996 2445.1 832.996Z" fill="#FFF2CC" fill-rule="evenodd"/><path d="M2584.78 699.163 2724.46 699.163 2724.46 832.996 2584.78 832.996Z" fill="#FFF2CC" fill-rule="evenodd"/><path d="M2724.46 699.163 2864.14 699.163 2864.14 832.996 2724.46 832.996Z" fill="#FFF2CC" fill-rule="evenodd"/><path d="M2864.14 699.163 3003.83 699.163 3003.83 832.996 2864.14 832.996Z" fill="#FFF2CC" fill-rule="evenodd"/><path d="M3003.83 699.163 3143.51 699.163 3143.51 832.996 3003.83 832.996Z" fill="#FFF2CC" fill-rule="evenodd"/><path d="M3143.51 699.163 3283.19 699.163 3283.19 832.996 3143.51 832.996Z" fill="#FFF2CC" fill-rule="evenodd"/><path d="M3283.19 699.163 3422.88 699.163 3422.88 832.996 3283.19 832.996Z" fill="#FFF2CC" fill-rule="evenodd"/><path d="M3422.88 699.163 3562.56 699.163 3562.56 832.996 3422.88 832.996Z" fill="#FFF2CC" fill-rule="evenodd"/><path d="M629.221 832.996 1327.63 832.996 1327.63 966.83 629.221 966.83Z" fill="#E2F0D9" fill-rule="evenodd"/><path d="M1327.63 832.996 3562.56 832.996 3562.56 966.83 1327.63 966.83Z" fill="#FFF2CC" fill-rule="evenodd"/><path d="M768.904 696.871 768.904 835.288" stroke="#000000" stroke-width="4.58333" stroke-linejoin="round" stroke-miterlimit="10" fill="none" fill-rule="evenodd"/><path d="M908.587 696.871 908.587 835.288" stroke="#000000" stroke-width="4.58333" stroke-linejoin="round" stroke-miterlimit="10" fill="none" fill-rule="evenodd"/><path d="M1048.27 696.871 1048.27 835.288" stroke="#000000" stroke-width="4.58333" stroke-linejoin="round" stroke-miterlimit="10" fill="none" fill-rule="evenodd"/><path d="M1187.95 696.871 1187.95 835.288" stroke="#000000" stroke-width="4.58333" stroke-linejoin="round" stroke-miterlimit="10" fill="none" fill-rule="evenodd"/><path d="M1327.63 696.871 1327.63 969.121" stroke="#000000" stroke-width="4.58333" stroke-linejoin="round" stroke-miterlimit="10" fill="none" fill-rule="evenodd"/><path d="M1467.32 696.871 1467.32 835.288" stroke="#000000" stroke-width="4.58333" stroke-linejoin="round" stroke-miterlimit="10" fill="none" fill-rule="evenodd"/><path d="M1607 696.871 1607 835.288" stroke="#000000" stroke-width="4.58333" stroke-linejoin="round" stroke-miterlimit="10" fill="none" fill-rule="evenodd"/><path d="M1746.68 696.871 1746.68 835.288" stroke="#000000" stroke-width="4.58333" stroke-linejoin="round" stroke-miterlimit="10" fill="none" fill-rule="evenodd"/><path d="M1886.37 696.871 1886.37 835.288" stroke="#000000" stroke-width="4.58333" stroke-linejoin="round" stroke-miterlimit="10" fill="none" fill-rule="evenodd"/><path d="M2026.05 696.871 2026.05 835.288" stroke="#000000" stroke-width="4.58333" stroke-linejoin="round" stroke-miterlimit="10" fill="none" fill-rule="evenodd"/><path d="M2165.73 696.871 2165.73 835.288" stroke="#000000" stroke-width="4.58333" stroke-linejoin="round" stroke-miterlimit="10" fill="none" fill-rule="evenodd"/><path d="M2305.41 696.871 2305.41 835.288" stroke="#000000" stroke-width="4.58333" stroke-linejoin="round" stroke-miterlimit="10" fill="none" fill-rule="evenodd"/><path d="M2445.1 696.871 2445.1 835.288" stroke="#000000" stroke-width="4.58333" stroke-linejoin="round" stroke-miterlimit="10" fill="none" fill-rule="evenodd"/><path d="M2584.78 696.871 2584.78 835.288" stroke="#000000" stroke-width="4.58333" stroke-linejoin="round" stroke-miterlimit="10" fill="none" fill-rule="evenodd"/><path d="M2724.46 696.871 2724.46 835.288" stroke="#000000" stroke-width="4.58333" stroke-linejoin="round" stroke-miterlimit="10" fill="none" fill-rule="evenodd"/><path d="M2864.14 696.871 2864.14 835.288" stroke="#000000" stroke-width="4.58333" stroke-linejoin="round" stroke-miterlimit="10" fill="none" fill-rule="evenodd"/><path d="M3003.83 696.871 3003.83 835.288" stroke="#000000" stroke-width="4.58333" stroke-linejoin="round" stroke-miterlimit="10" fill="none" fill-rule="evenodd"/><path d="M3143.51 696.871 3143.51 835.288" stroke="#000000" stroke-width="4.58333" stroke-linejoin="round" stroke-miterlimit="10" fill="none" fill-rule="evenodd"/><path d="M3283.19 696.871 3283.19 835.288" stroke="#000000" stroke-width="4.58333" stroke-linejoin="round" stroke-miterlimit="10" fill="none" fill-rule="evenodd"/><path d="M3422.88 696.871 3422.88 835.288" stroke="#000000" stroke-width="4.58333" stroke-linejoin="round" stroke-miterlimit="10" fill="none" fill-rule="evenodd"/><path d="M626.93 832.996 3564.85 832.996" stroke="#000000" stroke-width="4.58333" stroke-linejoin="round" stroke-miterlimit="10" fill="none" fill-rule="evenodd"/><path d="M629.221 696.871 629.221 969.121" stroke="#000000" stroke-width="4.58333" stroke-linejoin="round" stroke-miterlimit="10" fill="none" fill-rule="evenodd"/><path d="M3562.56 696.871 3562.56 969.121" stroke="#000000" stroke-width="4.58333" stroke-linejoin="round" stroke-miterlimit="10" fill="none" fill-rule="evenodd"/><path d="M626.93 699.163 3564.85 699.163" stroke="#000000" stroke-width="4.58333" stroke-linejoin="round" stroke-miterlimit="10" fill="none" fill-rule="evenodd"/><path d="M626.93 966.83 3564.85 966.83" stroke="#000000" stroke-width="4.58333" stroke-linejoin="round" stroke-miterlimit="10" fill="none" fill-rule="evenodd"/><text font-family="Yu Gothic UI,Yu Gothic UI_MSFontService,sans-serif" font-weight="400" font-size="55" transform="matrix(1 0 0 1 669.271 787)">20<tspan font-size="55" x="139.683" y="0">19</tspan><tspan font-size="55" x="279.365" y="0">18</tspan><tspan font-size="55" x="419.048" y="0">17</tspan><tspan font-size="55" x="558.731" y="0">16</tspan><tspan font-size="55" x="698.413" y="0">15</tspan><tspan font-size="55" x="838.096" y="0">14</tspan><tspan font-size="55" x="977.779" y="0">13</tspan><tspan font-size="55" x="1117.46" y="0">12</tspan><tspan font-size="55" x="1257.14" y="0">11</tspan><tspan font-size="55" x="1396.83" y="0">10</tspan><tspan font-size="55" x="1551.41" y="0">9</tspan><tspan font-size="55" x="1691.09" y="0">8</tspan><tspan font-size="55" x="1830.77" y="0">7</tspan><tspan font-size="55" x="1970.45" y="0">6</tspan><tspan font-size="55" x="2110.14" y="0">5</tspan><tspan font-size="55" x="2249.82" y="0">4</tspan><tspan font-size="55" x="2389.5" y="0">3</tspan><tspan font-size="55" x="2529.18" y="0">2</tspan><tspan font-size="55" x="2668.87" y="0">1</tspan><tspan font-size="55" x="2808.55" y="0">0</tspan><tspan font-size="55" x="191.136" y="134">面</tspan><tspan font-size="55" x="261.032" y="134">(plane)</tspan><tspan font-size="55" x="1597.93" y="134">区点</tspan><tspan font-size="55" x="1722.83" y="134">(row, cell)</tspan><tspan font-size="55" x="1309.02" y="-103">Code Point </tspan></text><path d="M2164 699 2164 1488.45" stroke="#4472C4" stroke-width="13.75" stroke-miterlimit="8" fill="none" fill-rule="evenodd"/><path d="M3563 697 3563 1488.74" stroke="#4472C4" stroke-width="13.75" stroke-miterlimit="8" fill="none" fill-rule="evenodd"/><path d="M629 697 629 966.958" stroke="#4472C4" stroke-width="13.75" stroke-miterlimit="8" fill="none" fill-rule="evenodd"/><path d="M767 1054 767 1488.57" stroke="#4472C4" stroke-width="13.75" stroke-miterlimit="8" fill="none" fill-rule="evenodd"/><path d="M629 969 766.985 1058.03" stroke="#4472C4" stroke-width="2.29167" stroke-miterlimit="8" fill="none" fill-rule="evenodd"/><path d="M0 0 0.000360892 89.0293" stroke="#4472C4" stroke-width="2.29167" stroke-miterlimit="8" fill="none" fill-rule="evenodd" transform="matrix(-1 0 0 1 1327 969)"/><path d="M789.916 1399.85 2138.5 1399.85 2138.5 1402.15 789.916 1402.15ZM794.5 1414.75 767 1401 794.5 1387.25ZM2133.92 1387.25 2161.42 1401 2133.92 1414.75Z" fill="#4472C4"/><path d="M22.9158-1.14583 1371.37-1.14548 1371.37 1.14619 22.9158 1.14584ZM27.5 13.75 0 0 27.5-13.75ZM1366.78-13.7496 1394.28 0.000360892 1366.78 13.7504Z" fill="#4472C4" transform="matrix(1 0 0 -1 2164 1401)"/><text font-family="Yu Gothic UI,Yu Gothic UI_MSFontService,sans-serif" font-weight="400" font-size="55" transform="matrix(1 0 0 1 1143.48 1469)">上位<tspan font-size="55" x="124.896" y="0">10bit = </tspan><tspan font-size="55" x="316.25" y="0">ハイサロゲート</tspan><tspan font-size="55" x="1443.48" y="-1">下位</tspan><tspan font-size="55" x="1568.38" y="-1">10bit = </tspan><tspan font-size="55" x="1759.73" y="-1">ローサロゲート</tspan></text><path d="M463.848 1091.38C484.745 1184.36 544.526 1256.23 609.19 1266.11L605.408 1249.28 648.084 1281.85 620.537 1316.6 616.755 1299.77C552.09 1289.88 492.31 1218.02 471.412 1125.04Z" fill="url(#fill1)" fill-rule="evenodd"/><path d="M560.211 890.886C490.167 906.629 450.108 1001.09 468.089 1108.11 436.729 997.264 469.682 886.371 541.691 860.423 545.283 859.128 548.938 858.063 552.646 857.23Z" fill="url(#fill2)" fill-rule="evenodd"/><path d="M463.848 1091.38C484.745 1184.36 544.526 1256.23 609.19 1266.11L605.408 1249.28 648.084 1281.85 620.537 1316.6 616.755 1299.77C552.09 1289.88 492.31 1218.02 471.412 1125.04L463.848 1091.38C438.538 978.776 478.294 873.941 552.646 857.23L560.211 890.886C490.167 906.629 450.108 1001.09 468.089 1108.11" stroke="#4472C4" stroke-width="2.29167" stroke-miterlimit="8" fill="none" fill-rule="evenodd"/><text font-family="Yu Gothic UI,Yu Gothic UI_MSFontService,sans-serif" font-weight="400" font-size="55" transform="matrix(-1.83697e-16 -1 1 -1.83697e-16 425.809 1326)">CodePoint<tspan font-size="55" x="268" y="4.92308e-14">–</tspan><tspan font-size="55" x="311" y="5.71298e-14">0x10000</tspan></text></g></svg>