<svg width="1956" height="317" xmlns="http://www.w3.org/2000/svg" xmlns:xlink="http://www.w3.org/1999/xlink" xml:space="preserve" overflow="hidden"><defs><clipPath id="clip0"><rect x="786" y="867" width="1956" height="317"/></clipPath><linearGradient x1="1619.5" y1="1009" x2="1619.5" y2="1165" gradientUnits="userSpaceOnUse" spreadMethod="reflect" id="fill1"><stop offset="0" stop-color="#B1CBE9"/><stop offset="0.5" stop-color="#A3C1E5"/><stop offset="1" stop-color="#92B9E4"/></linearGradient><linearGradient x1="1619.5" y1="1009" x2="1619.5" y2="1165" gradientUnits="userSpaceOnUse" spreadMethod="reflect" id="fill2"><stop offset="0" stop-color="#8EA3BB"/><stop offset="0.5" stop-color="#839BB8"/><stop offset="1" stop-color="#7595B7"/></linearGradient><linearGradient x1="1619.5" y1="1009" x2="1619.5" y2="1165" gradientUnits="userSpaceOnUse" spreadMethod="reflect" id="fill3"><stop offset="0" stop-color="#C0D5ED"/><stop offset="0.5" stop-color="#B5CDEA"/><stop offset="1" stop-color="#A7C7E9"/></linearGradient><linearGradient x1="1756" y1="1009" x2="1756" y2="1165" gradientUnits="userSpaceOnUse" spreadMethod="reflect" id="fill4"><stop offset="0" stop-color="#B1CBE9"/><stop offset="0.5" stop-color="#A3C1E5"/><stop offset="1" stop-color="#92B9E4"/></linearGradient><linearGradient x1="1756" y1="1009" x2="1756" y2="1165" gradientUnits="userSpaceOnUse" spreadMethod="reflect" id="fill5"><stop offset="0" stop-color="#8EA3BB"/><stop offset="0.5" stop-color="#839BB8"/><stop offset="1" stop-color="#7595B7"/></linearGradient><linearGradient x1="1756" y1="1009" x2="1756" y2="1165" gradientUnits="userSpaceOnUse" spreadMethod="reflect" id="fill6"><stop offset="0" stop-color="#C0D5ED"/><stop offset="0.5" stop-color="#B5CDEA"/><stop offset="1" stop-color="#A7C7E9"/></linearGradient><linearGradient x1="1699" y1="886" x2="1699" y2="990" gradientUnits="userSpaceOnUse" spreadMethod="reflect" id="fill7"><stop offset="0" stop-color="#B1CBE9"/><stop offset="0.5" stop-color="#A3C1E5"/><stop offset="1" stop-color="#92B9E4"/></linearGradient><linearGradient x1="1699" y1="886" x2="1699" y2="990" gradientUnits="userSpaceOnUse" spreadMethod="reflect" id="fill8"><stop offset="0" stop-color="#8EA3BB"/><stop offset="0.5" stop-color="#839BB8"/><stop offset="1" stop-color="#7595B7"/></linearGradient><linearGradient x1="877" y1="1009" x2="877" y2="1165" gradientUnits="userSpaceOnUse" spreadMethod="reflect" id="fill9"><stop offset="0" stop-color="#B5D5A7"/><stop offset="0.5" stop-color="#AACE99"/><stop offset="1" stop-color="#9CCA86"/></linearGradient><linearGradient x1="877" y1="1009" x2="877" y2="1165" gradientUnits="userSpaceOnUse" spreadMethod="reflect" id="fill10"><stop offset="0" stop-color="#92AB86"/><stop offset="0.5" stop-color="#89A67B"/><stop offset="1" stop-color="#7DA26C"/></linearGradient><linearGradient x1="877" y1="1009" x2="877" y2="1165" gradientUnits="userSpaceOnUse" spreadMethod="reflect" id="fill11"><stop offset="0" stop-color="#C4DDB8"/><stop offset="0.5" stop-color="#BBD8AD"/><stop offset="1" stop-color="#AFD49E"/></linearGradient><linearGradient x1="1013" y1="1009" x2="1013" y2="1165" gradientUnits="userSpaceOnUse" spreadMethod="reflect" id="fill12"><stop offset="0" stop-color="#B5D5A7"/><stop offset="0.5" stop-color="#AACE99"/><stop offset="1" stop-color="#9CCA86"/></linearGradient><linearGradient x1="1013" y1="1009" x2="1013" y2="1165" gradientUnits="userSpaceOnUse" spreadMethod="reflect" id="fill13"><stop offset="0" stop-color="#92AB86"/><stop offset="0.5" stop-color="#89A67B"/><stop offset="1" stop-color="#7DA26C"/></linearGradient><linearGradient x1="1013" y1="1009" x2="1013" y2="1165" gradientUnits="userSpaceOnUse" spreadMethod="reflect" id="fill14"><stop offset="0" stop-color="#C4DDB8"/><stop offset="0.5" stop-color="#BBD8AD"/><stop offset="1" stop-color="#AFD49E"/></linearGradient><linearGradient x1="903" y1="887" x2="903" y2="991" gradientUnits="userSpaceOnUse" spreadMethod="reflect" id="fill15"><stop offset="0" stop-color="#B5D5A7"/><stop offset="0.5" stop-color="#AACE99"/><stop offset="1" stop-color="#9CCA86"/></linearGradient><linearGradient x1="903" y1="887" x2="903" y2="991" gradientUnits="userSpaceOnUse" spreadMethod="reflect" id="fill16"><stop offset="0" stop-color="#92AB86"/><stop offset="0.5" stop-color="#89A67B"/><stop offset="1" stop-color="#7DA26C"/></linearGradient><linearGradient x1="1037" y1="887" x2="1037" y2="991" gradientUnits="userSpaceOnUse" spreadMethod="reflect" id="fill17"><stop offset="0" stop-color="#B5D5A7"/><stop offset="0.5" stop-color="#AACE99"/><stop offset="1" stop-color="#9CCA86"/></linearGradient><linearGradient x1="1037" y1="887" x2="1037" y2="991" gradientUnits="userSpaceOnUse" spreadMethod="reflect" id="fill18"><stop offset="0" stop-color="#92AB86"/><stop offset="0.5" stop-color="#89A67B"/><stop offset="1" stop-color="#7DA26C"/></linearGradient><linearGradient x1="1181" y1="1009" x2="1181" y2="1165" gradientUnits="userSpaceOnUse" spreadMethod="reflect" id="fill19"><stop offset="0" stop-color="#FFDD9C"/><stop offset="0.5" stop-color="#FFD78E"/><stop offset="1" stop-color="#FFD479"/></linearGradient><linearGradient x1="1181" y1="1009" x2="1181" y2="1165" gradientUnits="userSpaceOnUse" spreadMethod="reflect" id="fill20"><stop offset="0" stop-color="#CDB27D"/><stop offset="0.5" stop-color="#CDAD72"/><stop offset="1" stop-color="#CDAA61"/></linearGradient><linearGradient x1="1181" y1="1009" x2="1181" y2="1165" gradientUnits="userSpaceOnUse" spreadMethod="reflect" id="fill21"><stop offset="0" stop-color="#FFE4AF"/><stop offset="0.5" stop-color="#FFDFA4"/><stop offset="1" stop-color="#FFDC93"/></linearGradient><linearGradient x1="1316" y1="1009" x2="1316" y2="1165" gradientUnits="userSpaceOnUse" spreadMethod="reflect" id="fill22"><stop offset="0" stop-color="#FFDD9C"/><stop offset="0.5" stop-color="#FFD78E"/><stop offset="1" stop-color="#FFD479"/></linearGradient><linearGradient x1="1316" y1="1009" x2="1316" y2="1165" gradientUnits="userSpaceOnUse" spreadMethod="reflect" id="fill23"><stop offset="0" stop-color="#CDB27D"/><stop offset="0.5" stop-color="#CDAD72"/><stop offset="1" stop-color="#CDAA61"/></linearGradient><linearGradient x1="1316" y1="1009" x2="1316" y2="1165" gradientUnits="userSpaceOnUse" spreadMethod="reflect" id="fill24"><stop offset="0" stop-color="#FFE4AF"/><stop offset="0.5" stop-color="#FFDFA4"/><stop offset="1" stop-color="#FFDC93"/></linearGradient><linearGradient x1="1452" y1="1009" x2="1452" y2="1165" gradientUnits="userSpaceOnUse" spreadMethod="reflect" id="fill25"><stop offset="0" stop-color="#FFDD9C"/><stop offset="0.5" stop-color="#FFD78E"/><stop offset="1" stop-color="#FFD479"/></linearGradient><linearGradient x1="1452" y1="1009" x2="1452" y2="1165" gradientUnits="userSpaceOnUse" spreadMethod="reflect" id="fill26"><stop offset="0" stop-color="#CDB27D"/><stop offset="0.5" stop-color="#CDAD72"/><stop offset="1" stop-color="#CDAA61"/></linearGradient><linearGradient x1="1452" y1="1009" x2="1452" y2="1165" gradientUnits="userSpaceOnUse" spreadMethod="reflect" id="fill27"><stop offset="0" stop-color="#FFE4AF"/><stop offset="0.5" stop-color="#FFDFA4"/><stop offset="1" stop-color="#FFDC93"/></linearGradient><linearGradient x1="1198" y1="888" x2="1198" y2="992" gradientUnits="userSpaceOnUse" spreadMethod="reflect" id="fill28"><stop offset="0" stop-color="#FFDD9C"/><stop offset="0.5" stop-color="#FFD78E"/><stop offset="1" stop-color="#FFD479"/></linearGradient><linearGradient x1="1198" y1="888" x2="1198" y2="992" gradientUnits="userSpaceOnUse" spreadMethod="reflect" id="fill29"><stop offset="0" stop-color="#CDB27D"/><stop offset="0.5" stop-color="#CDAD72"/><stop offset="1" stop-color="#CDAA61"/></linearGradient><linearGradient x1="1334" y1="888" x2="1334" y2="992" gradientUnits="userSpaceOnUse" spreadMethod="reflect" id="fill30"><stop offset="0" stop-color="#FFDD9C"/><stop offset="0.5" stop-color="#FFD78E"/><stop offset="1" stop-color="#FFD479"/></linearGradient><linearGradient x1="1334" y1="888" x2="1334" y2="992" gradientUnits="userSpaceOnUse" spreadMethod="reflect" id="fill31"><stop offset="0" stop-color="#CDB27D"/><stop offset="0.5" stop-color="#CDAD72"/><stop offset="1" stop-color="#CDAA61"/></linearGradient><linearGradient x1="1464" y1="889" x2="1464" y2="993" gradientUnits="userSpaceOnUse" spreadMethod="reflect" id="fill32"><stop offset="0" stop-color="#FFDD9C"/><stop offset="0.5" stop-color="#FFD78E"/><stop offset="1" stop-color="#FFD479"/></linearGradient><linearGradient x1="1464" y1="889" x2="1464" y2="993" gradientUnits="userSpaceOnUse" spreadMethod="reflect" id="fill33"><stop offset="0" stop-color="#CDB27D"/><stop offset="0.5" stop-color="#CDAD72"/><stop offset="1" stop-color="#CDAA61"/></linearGradient><linearGradient x1="2220" y1="1004" x2="2220" y2="1160" gradientUnits="userSpaceOnUse" spreadMethod="reflect" id="fill34"><stop offset="0" stop-color="#FFDD9C"/><stop offset="0.5" stop-color="#FFD78E"/><stop offset="1" stop-color="#FFD479"/></linearGradient><linearGradient x1="2220" y1="1004" x2="2220" y2="1160" gradientUnits="userSpaceOnUse" spreadMethod="reflect" id="fill35"><stop offset="0" stop-color="#CDB27D"/><stop offset="0.5" stop-color="#CDAD72"/><stop offset="1" stop-color="#CDAA61"/></linearGradient><linearGradient x1="2220" y1="1004" x2="2220" y2="1160" gradientUnits="userSpaceOnUse" spreadMethod="reflect" id="fill36"><stop offset="0" stop-color="#FFE4AF"/><stop offset="0.5" stop-color="#FFDFA4"/><stop offset="1" stop-color="#FFDC93"/></linearGradient><linearGradient x1="2355.5" y1="1004" x2="2355.5" y2="1160" gradientUnits="userSpaceOnUse" spreadMethod="reflect" id="fill37"><stop offset="0" stop-color="#FFDD9C"/><stop offset="0.5" stop-color="#FFD78E"/><stop offset="1" stop-color="#FFD479"/></linearGradient><linearGradient x1="2355.5" y1="1004" x2="2355.5" y2="1160" gradientUnits="userSpaceOnUse" spreadMethod="reflect" id="fill38"><stop offset="0" stop-color="#CDB27D"/><stop offset="0.5" stop-color="#CDAD72"/><stop offset="1" stop-color="#CDAA61"/></linearGradient><linearGradient x1="2355.5" y1="1004" x2="2355.5" y2="1160" gradientUnits="userSpaceOnUse" spreadMethod="reflect" id="fill39"><stop offset="0" stop-color="#FFE4AF"/><stop offset="0.5" stop-color="#FFDFA4"/><stop offset="1" stop-color="#FFDC93"/></linearGradient><linearGradient x1="2491.5" y1="1004" x2="2491.5" y2="1160" gradientUnits="userSpaceOnUse" spreadMethod="reflect" id="fill40"><stop offset="0" stop-color="#FFDD9C"/><stop offset="0.5" stop-color="#FFD78E"/><stop offset="1" stop-color="#FFD479"/></linearGradient><linearGradient x1="2491.5" y1="1004" x2="2491.5" y2="1160" gradientUnits="userSpaceOnUse" spreadMethod="reflect" id="fill41"><stop offset="0" stop-color="#CDB27D"/><stop offset="0.5" stop-color="#CDAD72"/><stop offset="1" stop-color="#CDAA61"/></linearGradient><linearGradient x1="2491.5" y1="1004" x2="2491.5" y2="1160" gradientUnits="userSpaceOnUse" spreadMethod="reflect" id="fill42"><stop offset="0" stop-color="#FFE4AF"/><stop offset="0.5" stop-color="#FFDFA4"/><stop offset="1" stop-color="#FFDC93"/></linearGradient><linearGradient x1="2237" y1="883" x2="2237" y2="987" gradientUnits="userSpaceOnUse" spreadMethod="reflect" id="fill43"><stop offset="0" stop-color="#FFDD9C"/><stop offset="0.5" stop-color="#FFD78E"/><stop offset="1" stop-color="#FFD479"/></linearGradient><linearGradient x1="2237" y1="883" x2="2237" y2="987" gradientUnits="userSpaceOnUse" spreadMethod="reflect" id="fill44"><stop offset="0" stop-color="#CDB27D"/><stop offset="0.5" stop-color="#CDAD72"/><stop offset="1" stop-color="#CDAA61"/></linearGradient><linearGradient x1="2373" y1="883" x2="2373" y2="987" gradientUnits="userSpaceOnUse" spreadMethod="reflect" id="fill45"><stop offset="0" stop-color="#FFDD9C"/><stop offset="0.5" stop-color="#FFD78E"/><stop offset="1" stop-color="#FFD479"/></linearGradient><linearGradient x1="2373" y1="883" x2="2373" y2="987" gradientUnits="userSpaceOnUse" spreadMethod="reflect" id="fill46"><stop offset="0" stop-color="#CDB27D"/><stop offset="0.5" stop-color="#CDAD72"/><stop offset="1" stop-color="#CDAA61"/></linearGradient><linearGradient x1="2503.5" y1="884" x2="2503.5" y2="988" gradientUnits="userSpaceOnUse" spreadMethod="reflect" id="fill47"><stop offset="0" stop-color="#FFDD9C"/><stop offset="0.5" stop-color="#FFD78E"/><stop offset="1" stop-color="#FFD479"/></linearGradient><linearGradient x1="2503.5" y1="884" x2="2503.5" y2="988" gradientUnits="userSpaceOnUse" spreadMethod="reflect" id="fill48"><stop offset="0" stop-color="#CDB27D"/><stop offset="0.5" stop-color="#CDAD72"/><stop offset="1" stop-color="#CDAA61"/></linearGradient><linearGradient x1="1917" y1="1007" x2="1917" y2="1163" gradientUnits="userSpaceOnUse" spreadMethod="reflect" id="fill49"><stop offset="0" stop-color="#B1CBE9"/><stop offset="0.5" stop-color="#A3C1E5"/><stop offset="1" stop-color="#92B9E4"/></linearGradient><linearGradient x1="1917" y1="1007" x2="1917" y2="1163" gradientUnits="userSpaceOnUse" spreadMethod="reflect" id="fill50"><stop offset="0" stop-color="#8EA3BB"/><stop offset="0.5" stop-color="#839BB8"/><stop offset="1" stop-color="#7595B7"/></linearGradient><linearGradient x1="1917" y1="1007" x2="1917" y2="1163" gradientUnits="userSpaceOnUse" spreadMethod="reflect" id="fill51"><stop offset="0" stop-color="#C0D5ED"/><stop offset="0.5" stop-color="#B5CDEA"/><stop offset="1" stop-color="#A7C7E9"/></linearGradient><linearGradient x1="2053" y1="1007" x2="2053" y2="1163" gradientUnits="userSpaceOnUse" spreadMethod="reflect" id="fill52"><stop offset="0" stop-color="#B1CBE9"/><stop offset="0.5" stop-color="#A3C1E5"/><stop offset="1" stop-color="#92B9E4"/></linearGradient><linearGradient x1="2053" y1="1007" x2="2053" y2="1163" gradientUnits="userSpaceOnUse" spreadMethod="reflect" id="fill53"><stop offset="0" stop-color="#8EA3BB"/><stop offset="0.5" stop-color="#839BB8"/><stop offset="1" stop-color="#7595B7"/></linearGradient><linearGradient x1="2053" y1="1007" x2="2053" y2="1163" gradientUnits="userSpaceOnUse" spreadMethod="reflect" id="fill54"><stop offset="0" stop-color="#C0D5ED"/><stop offset="0.5" stop-color="#B5CDEA"/><stop offset="1" stop-color="#A7C7E9"/></linearGradient><linearGradient x1="1997" y1="884" x2="1997" y2="988" gradientUnits="userSpaceOnUse" spreadMethod="reflect" id="fill55"><stop offset="0" stop-color="#B1CBE9"/><stop offset="0.5" stop-color="#A3C1E5"/><stop offset="1" stop-color="#92B9E4"/></linearGradient><linearGradient x1="1997" y1="884" x2="1997" y2="988" gradientUnits="userSpaceOnUse" spreadMethod="reflect" id="fill56"><stop offset="0" stop-color="#8EA3BB"/><stop offset="0.5" stop-color="#839BB8"/><stop offset="1" stop-color="#7595B7"/></linearGradient><linearGradient x1="2660" y1="1004" x2="2660" y2="1160" gradientUnits="userSpaceOnUse" spreadMethod="reflect" id="fill57"><stop offset="0" stop-color="#B5D5A7"/><stop offset="0.5" stop-color="#AACE99"/><stop offset="1" stop-color="#9CCA86"/></linearGradient><linearGradient x1="2660" y1="1004" x2="2660" y2="1160" gradientUnits="userSpaceOnUse" spreadMethod="reflect" id="fill58"><stop offset="0" stop-color="#92AB86"/><stop offset="0.5" stop-color="#89A67B"/><stop offset="1" stop-color="#7DA26C"/></linearGradient><linearGradient x1="2660" y1="1004" x2="2660" y2="1160" gradientUnits="userSpaceOnUse" spreadMethod="reflect" id="fill59"><stop offset="0" stop-color="#C4DDB8"/><stop offset="0.5" stop-color="#BBD8AD"/><stop offset="1" stop-color="#AFD49E"/></linearGradient><linearGradient x1="2686" y1="882" x2="2686" y2="986" gradientUnits="userSpaceOnUse" spreadMethod="reflect" id="fill60"><stop offset="0" stop-color="#B5D5A7"/><stop offset="0.5" stop-color="#AACE99"/><stop offset="1" stop-color="#9CCA86"/></linearGradient><linearGradient x1="2686" y1="882" x2="2686" y2="986" gradientUnits="userSpaceOnUse" spreadMethod="reflect" id="fill61"><stop offset="0" stop-color="#92AB86"/><stop offset="0.5" stop-color="#89A67B"/><stop offset="1" stop-color="#7DA26C"/></linearGradient></defs><g clip-path="url(#clip0)" transform="translate(-786 -867)"><rect x="1542" y="1047.75" width="116.25" height="117.25" fill="url(#fill1)"/><path d="M1658.25 1047.75 1697 1009 1697 1126.25 1658.25 1165Z" fill="url(#fill2)" fill-rule="evenodd"/><path d="M1542 1047.75 1580.75 1009 1697 1009 1658.25 1047.75Z" fill="url(#fill3)" fill-rule="evenodd"/><path d="M1542 1047.75 1580.75 1009 1697 1009 1697 1126.25 1658.25 1165 1542 1165ZM1542 1047.75 1658.25 1047.75 1697 1009M1658.25 1047.75 1658.25 1165" stroke="#5B9BD5" stroke-width="2.29167" stroke-miterlimit="8" fill="none" fill-rule="evenodd"/><text font-family="Yu Gothic UI,Yu Gothic UI_MSFontService,sans-serif" font-weight="400" font-size="55" transform="matrix(1 0 0 1 1575.17 1107)">24<tspan font-size="37" x="-13.6295" y="46">(8bit)</tspan></text><rect x="1678" y="1048" width="117" height="117" fill="url(#fill4)"/><path d="M1795 1048 1834 1009 1834 1126 1795 1165Z" fill="url(#fill5)" fill-rule="evenodd"/><path d="M1678 1048 1717 1009 1834 1009 1795 1048Z" fill="url(#fill6)" fill-rule="evenodd"/><path d="M1678 1048 1717 1009 1834 1009 1834 1126 1795 1165 1678 1165ZM1678 1048 1795 1048 1834 1009M1795 1048 1795 1165" stroke="#5B9BD5" stroke-width="2.29167" stroke-miterlimit="8" fill="none" fill-rule="evenodd"/><text font-family="Yu Gothic UI,Yu Gothic UI_MSFontService,sans-serif" font-weight="400" font-size="55" transform="matrix(1 0 0 1 1712.66 1107)">4<tspan font-size="55" x="29.7918" y="0">F</tspan><tspan font-size="37" x="-15.062" y="46">(8bit)</tspan></text><path d="M1647 886 1751 886 1751 972.666 1733.67 990 1647 990Z" fill="url(#fill7)" fill-rule="evenodd"/><path d="M1733.67 990 1737.13 976.133 1751 972.666Z" fill="url(#fill8)" fill-rule="evenodd"/><path d="M1733.67 990 1737.13 976.133 1751 972.666 1733.67 990 1647 990 1647 886 1751 886 1751 972.666" stroke="#5B9BD5" stroke-width="2.29167" stroke-miterlimit="8" fill="none" fill-rule="evenodd"/><text font-family="Yu Gothic UI,Yu Gothic UI_MSFontService,sans-serif" font-weight="400" font-size="64" transform="matrix(1 0 0 1 1671.34 953)">ã¯</text><rect x="799" y="1048" width="117" height="117" fill="url(#fill9)"/><path d="M916 1048 955 1009 955 1126 916 1165Z" fill="url(#fill10)" fill-rule="evenodd"/><path d="M799 1048 838 1009 955 1009 916 1048Z" fill="url(#fill11)" fill-rule="evenodd"/><path d="M799 1048 838 1009 955 1009 955 1126 916 1165 799 1165ZM799 1048 916 1048 955 1009M916 1048 916 1165" stroke="#70AD47" stroke-width="2.29167" stroke-miterlimit="8" fill="none" fill-rule="evenodd"/><text font-family="Yu Gothic UI,Yu Gothic UI_MSFontService,sans-serif" font-weight="400" font-size="55" transform="matrix(1 0 0 1 832.805 1107)">48<tspan font-size="37" x="-13.6295" y="46">(8bit)</tspan></text><rect x="935" y="1048" width="117" height="117" fill="url(#fill12)"/><path d="M1052 1048 1091 1009 1091 1126 1052 1165Z" fill="url(#fill13)" fill-rule="evenodd"/><path d="M935 1048 974 1009 1091 1009 1052 1048Z" fill="url(#fill14)" fill-rule="evenodd"/><path d="M935 1048 974 1009 1091 1009 1091 1126 1052 1165 935 1165ZM935 1048 1052 1048 1091 1009M1052 1048 1052 1165" stroke="#70AD47" stroke-width="2.29167" stroke-miterlimit="8" fill="none" fill-rule="evenodd"/><text font-family="Yu Gothic UI,Yu Gothic UI_MSFontService,sans-serif" font-weight="400" font-size="55" transform="matrix(1 0 0 1 968.856 1107)">69<tspan font-size="37" x="-13.6295" y="46">(8bit)</tspan></text><path d="M851 887 955 887 955 973.666 937.666 991 851 991Z" fill="url(#fill15)" fill-rule="evenodd"/><path d="M937.666 991 941.133 977.133 955 973.666Z" fill="url(#fill16)" fill-rule="evenodd"/><path d="M937.666 991 941.133 977.133 955 973.666 937.666 991 851 991 851 887 955 887 955 973.666" stroke="#70AD47" stroke-width="2.29167" stroke-miterlimit="8" fill="none" fill-rule="evenodd"/><text font-family="Yu Gothic UI,Yu Gothic UI_MSFontService,sans-serif" font-weight="400" font-size="64" transform="matrix(1 0 0 1 880.213 954)">H</text><path d="M985 887 1089 887 1089 973.666 1071.67 991 985 991Z" fill="url(#fill17)" fill-rule="evenodd"/><path d="M1071.67 991 1075.13 977.133 1089 973.666Z" fill="url(#fill18)" fill-rule="evenodd"/><path d="M1071.67 991 1075.13 977.133 1089 973.666 1071.67 991 985 991 985 887 1089 887 1089 973.666" stroke="#70AD47" stroke-width="2.29167" stroke-miterlimit="8" fill="none" fill-rule="evenodd"/><text font-family="Yu Gothic UI,Yu Gothic UI_MSFontService,sans-serif" font-weight="400" font-size="64" transform="matrix(1 0 0 1 1029.32 954)">i</text><rect x="1103" y="1048" width="117" height="117" fill="url(#fill19)"/><path d="M1220 1048 1259 1009 1259 1126 1220 1165Z" fill="url(#fill20)" fill-rule="evenodd"/><path d="M1103 1048 1142 1009 1259 1009 1220 1048Z" fill="url(#fill21)" fill-rule="evenodd"/><path d="M1103 1048 1142 1009 1259 1009 1259 1126 1220 1165 1103 1165ZM1103 1048 1220 1048 1259 1009M1220 1048 1220 1165" stroke="#FFC000" stroke-width="2.29167" stroke-miterlimit="8" fill="none" fill-rule="evenodd"/><text font-family="Yu Gothic UI,Yu Gothic UI_MSFontService,sans-serif" font-weight="400" font-size="55" transform="matrix(1 0 0 1 1135.46 1107)">1B<tspan font-size="37" x="-12.7699" y="46">(8bit)</tspan></text><rect x="1238" y="1048" width="117" height="117" fill="url(#fill22)"/><path d="M1355 1048 1394 1009 1394 1126 1355 1165Z" fill="url(#fill23)" fill-rule="evenodd"/><path d="M1238 1048 1277 1009 1394 1009 1355 1048Z" fill="url(#fill24)" fill-rule="evenodd"/><path d="M1238 1048 1277 1009 1394 1009 1394 1126 1355 1165 1238 1165ZM1238 1048 1355 1048 1394 1009M1355 1048 1355 1165" stroke="#FFC000" stroke-width="2.29167" stroke-miterlimit="8" fill="none" fill-rule="evenodd"/><text font-family="Yu Gothic UI,Yu Gothic UI_MSFontService,sans-serif" font-weight="400" font-size="55" transform="matrix(1 0 0 1 1271.92 1107)">24<tspan font-size="37" x="-13.6294" y="46">(8bit)</tspan></text><rect x="1374" y="1048" width="117" height="117" fill="url(#fill25)"/><path d="M1491 1048 1530 1009 1530 1126 1491 1165Z" fill="url(#fill26)" fill-rule="evenodd"/><path d="M1374 1048 1413 1009 1530 1009 1491 1048Z" fill="url(#fill27)" fill-rule="evenodd"/><path d="M1374 1048 1413 1009 1530 1009 1530 1126 1491 1165 1374 1165ZM1374 1048 1491 1048 1530 1009M1491 1048 1491 1165" stroke="#FFC000" stroke-width="2.29167" stroke-miterlimit="8" fill="none" fill-rule="evenodd"/><text font-family="Yu Gothic UI,Yu Gothic UI_MSFontService,sans-serif" font-weight="400" font-size="55" transform="matrix(1 0 0 1 1407.97 1107)">42<tspan font-size="37" x="-13.6294" y="46">(8bit)</tspan></text><path d="M1146 888 1250 888 1250 974.666 1232.67 992 1146 992Z" fill="url(#fill28)" fill-rule="evenodd"/><path d="M1232.67 992 1236.13 978.133 1250 974.666Z" fill="url(#fill29)" fill-rule="evenodd"/><path d="M1232.67 992 1236.13 978.133 1250 974.666 1232.67 992 1146 992 1146 888 1250 888 1250 974.666" stroke="#FFC000" stroke-width="2.29167" stroke-miterlimit="8" fill="none" fill-rule="evenodd"/><text font-family="Yu Gothic UI,Yu Gothic UI_MSFontService,sans-serif" font-weight="400" font-size="37" transform="matrix(1 0 0 1 1167.63 949)">ESC</text><path d="M1282 888 1386 888 1386 974.666 1368.67 992 1282 992Z" fill="url(#fill30)" fill-rule="evenodd"/><path d="M1368.67 992 1372.13 978.133 1386 974.666Z" fill="url(#fill31)" fill-rule="evenodd"/><path d="M1368.67 992 1372.13 978.133 1386 974.666 1368.67 992 1282 992 1282 888 1386 888 1386 974.666" stroke="#FFC000" stroke-width="2.29167" stroke-miterlimit="8" fill="none" fill-rule="evenodd"/><text font-family="Yu Gothic UI,Yu Gothic UI_MSFontService,sans-serif" font-weight="400" font-size="64" transform="matrix(1 0 0 1 1317.02 955)">$</text><path d="M1412 889 1516 889 1516 975.667 1498.67 993 1412 993Z" fill="url(#fill32)" fill-rule="evenodd"/><path d="M1498.67 993 1502.13 979.133 1516 975.667Z" fill="url(#fill33)" fill-rule="evenodd"/><path d="M1498.67 993 1502.13 979.133 1516 975.667 1498.67 993 1412 993 1412 889 1516 889 1516 975.667" stroke="#FFC000" stroke-width="2.29167" stroke-miterlimit="8" fill="none" fill-rule="evenodd"/><text font-family="Yu Gothic UI,Yu Gothic UI_MSFontService,sans-serif" font-weight="400" font-size="64" transform="matrix(1 0 0 1 1445.93 956)">B</text><rect x="2142" y="1043" width="117" height="117" fill="url(#fill34)"/><path d="M2259 1043 2298 1004 2298 1121 2259 1160Z" fill="url(#fill35)" fill-rule="evenodd"/><path d="M2142 1043 2181 1004 2298 1004 2259 1043Z" fill="url(#fill36)" fill-rule="evenodd"/><path d="M2142 1043 2181 1004 2298 1004 2298 1121 2259 1160 2142 1160ZM2142 1043 2259 1043 2298 1004M2259 1043 2259 1160" stroke="#FFC000" stroke-width="2.29167" stroke-miterlimit="8" fill="none" fill-rule="evenodd"/><text font-family="Yu Gothic UI,Yu Gothic UI_MSFontService,sans-serif" font-weight="400" font-size="55" transform="matrix(1 0 0 1 2174.68 1102)">1B<tspan font-size="37" x="-12.7698" y="47">(8bit)</tspan></text><rect x="2278" y="1042.75" width="116.25" height="117.25" fill="url(#fill37)"/><path d="M2394.25 1042.75 2433 1004 2433 1121.25 2394.25 1160Z" fill="url(#fill38)" fill-rule="evenodd"/><path d="M2278 1042.75 2316.75 1004 2433 1004 2394.25 1042.75Z" fill="url(#fill39)" fill-rule="evenodd"/><path d="M2278 1042.75 2316.75 1004 2433 1004 2433 1121.25 2394.25 1160 2278 1160ZM2278 1042.75 2394.25 1042.75 2433 1004M2394.25 1042.75 2394.25 1160" stroke="#FFC000" stroke-width="2.29167" stroke-miterlimit="8" fill="none" fill-rule="evenodd"/><text font-family="Yu Gothic UI,Yu Gothic UI_MSFontService,sans-serif" font-weight="400" font-size="55" transform="matrix(1 0 0 1 2311.14 1102)">28<tspan font-size="37" x="-13.6294" y="47">(8bit)</tspan></text><rect x="2414" y="1042.75" width="116.25" height="117.25" fill="url(#fill40)"/><path d="M2530.25 1042.75 2569 1004 2569 1121.25 2530.25 1160Z" fill="url(#fill41)" fill-rule="evenodd"/><path d="M2414 1042.75 2452.75 1004 2569 1004 2530.25 1042.75Z" fill="url(#fill42)" fill-rule="evenodd"/><path d="M2414 1042.75 2452.75 1004 2569 1004 2569 1121.25 2530.25 1160 2414 1160ZM2414 1042.75 2530.25 1042.75 2569 1004M2530.25 1042.75 2530.25 1160" stroke="#FFC000" stroke-width="2.29167" stroke-miterlimit="8" fill="none" fill-rule="evenodd"/><text font-family="Yu Gothic UI,Yu Gothic UI_MSFontService,sans-serif" font-weight="400" font-size="55" transform="matrix(1 0 0 1 2447.19 1102)">42<tspan font-size="37" x="-13.6294" y="47">(8bit)</tspan></text><path d="M2185 883 2289 883 2289 969.667 2271.67 987 2185 987Z" fill="url(#fill43)" fill-rule="evenodd"/><path d="M2271.67 987 2275.13 973.133 2289 969.667Z" fill="url(#fill44)" fill-rule="evenodd"/><path d="M2271.67 987 2275.13 973.133 2289 969.667 2271.67 987 2185 987 2185 883 2289 883 2289 969.667" stroke="#FFC000" stroke-width="2.29167" stroke-miterlimit="8" fill="none" fill-rule="evenodd"/><text font-family="Yu Gothic UI,Yu Gothic UI_MSFontService,sans-serif" font-weight="400" font-size="37" transform="matrix(1 0 0 1 2206.86 944)">ESC</text><path d="M2321 883 2425 883 2425 969.667 2407.67 987 2321 987Z" fill="url(#fill45)" fill-rule="evenodd"/><path d="M2407.67 987 2411.13 973.133 2425 969.667Z" fill="url(#fill46)" fill-rule="evenodd"/><path d="M2407.67 987 2411.13 973.133 2425 969.667 2407.67 987 2321 987 2321 883 2425 883 2425 969.667" stroke="#FFC000" stroke-width="2.29167" stroke-miterlimit="8" fill="none" fill-rule="evenodd"/><text font-family="Yu Gothic UI,Yu Gothic UI_MSFontService,sans-serif" font-weight="400" font-size="64" transform="matrix(1 0 0 1 2363.7 950)">(</text><path d="M2452 884 2555 884 2555 970.833 2537.83 988 2452 988Z" fill="url(#fill47)" fill-rule="evenodd"/><path d="M2537.83 988 2541.27 974.266 2555 970.833Z" fill="url(#fill48)" fill-rule="evenodd"/><path d="M2537.83 988 2541.27 974.266 2555 970.833 2537.83 988 2452 988 2452 884 2555 884 2555 970.833" stroke="#FFC000" stroke-width="2.29167" stroke-miterlimit="8" fill="none" fill-rule="evenodd"/><text font-family="Yu Gothic UI,Yu Gothic UI_MSFontService,sans-serif" font-weight="400" font-size="64" transform="matrix(1 0 0 1 2485.15 951)">B</text><rect x="1839" y="1046" width="117" height="117" fill="url(#fill49)"/><path d="M1956 1046 1995 1007 1995 1124 1956 1163Z" fill="url(#fill50)" fill-rule="evenodd"/><path d="M1839 1046 1878 1007 1995 1007 1956 1046Z" fill="url(#fill51)" fill-rule="evenodd"/><path d="M1839 1046 1878 1007 1995 1007 1995 1124 1956 1163 1839 1163ZM1839 1046 1956 1046 1995 1007M1956 1046 1956 1163" stroke="#5B9BD5" stroke-width="2.29167" stroke-miterlimit="8" fill="none" fill-rule="evenodd"/><text font-family="Yu Gothic UI,Yu Gothic UI_MSFontService,sans-serif" font-weight="400" font-size="55" transform="matrix(1 0 0 1 1873.05 1106)">24<tspan font-size="37" x="-13.6294" y="46">(8bit)</tspan></text><rect x="1975" y="1046" width="117" height="117" fill="url(#fill52)"/><path d="M2092 1046 2131 1007 2131 1124 2092 1163Z" fill="url(#fill53)" fill-rule="evenodd"/><path d="M1975 1046 2014 1007 2131 1007 2092 1046Z" fill="url(#fill54)" fill-rule="evenodd"/><path d="M1975 1046 2014 1007 2131 1007 2131 1124 2092 1163 1975 1163ZM1975 1046 2092 1046 2131 1007M2092 1046 2092 1163" stroke="#5B9BD5" stroke-width="2.29167" stroke-miterlimit="8" fill="none" fill-rule="evenodd"/><text font-family="Yu Gothic UI,Yu Gothic UI_MSFontService,sans-serif" font-weight="400" font-size="55" transform="matrix(1 0 0 1 2009.1 1106)">24<tspan font-size="37" x="-13.6298" y="46">(8bit)</tspan></text><path d="M1945 884 2049 884 2049 970.667 2031.67 988 1945 988Z" fill="url(#fill55)" fill-rule="evenodd"/><path d="M2031.67 988 2035.13 974.133 2049 970.667Z" fill="url(#fill56)" fill-rule="evenodd"/><path d="M2031.67 988 2035.13 974.133 2049 970.667 2031.67 988 1945 988 1945 884 2049 884 2049 970.667" stroke="#5B9BD5" stroke-width="2.29167" stroke-miterlimit="8" fill="none" fill-rule="evenodd"/><text font-family="Yu Gothic UI,Yu Gothic UI_MSFontService,sans-serif" font-weight="400" font-size="64" transform="matrix(1 0 0 1 1970.65 951)">ã„</text><rect x="2582" y="1043" width="117" height="117" fill="url(#fill57)"/><path d="M2699 1043 2738 1004 2738 1121 2699 1160Z" fill="url(#fill58)" fill-rule="evenodd"/><path d="M2582 1043 2621 1004 2738 1004 2699 1043Z" fill="url(#fill59)" fill-rule="evenodd"/><path d="M2582 1043 2621 1004 2738 1004 2738 1121 2699 1160 2582 1160ZM2582 1043 2699 1043 2738 1004M2699 1043 2699 1160" stroke="#70AD47" stroke-width="2.29167" stroke-miterlimit="8" fill="none" fill-rule="evenodd"/><text font-family="Yu Gothic UI,Yu Gothic UI_MSFontService,sans-serif" font-weight="400" font-size="55" transform="matrix(1 0 0 1 2615.67 1102)">21<tspan font-size="37" x="-13.6294" y="47">(8bit)</tspan></text><path d="M2634 882 2738 882 2738 968.666 2720.67 986 2634 986Z" fill="url(#fill60)" fill-rule="evenodd"/><path d="M2720.67 986 2724.13 972.133 2738 968.666Z" fill="url(#fill61)" fill-rule="evenodd"/><path d="M2720.67 986 2724.13 972.133 2738 968.666 2720.67 986 2634 986 2634 882 2738 882 2738 968.666" stroke="#70AD47" stroke-width="2.29167" stroke-miterlimit="8" fill="none" fill-rule="evenodd"/><text font-family="Yu Gothic UI,Yu Gothic UI_MSFontService,sans-serif" font-weight="400" font-size="64" transform="matrix(1 0 0 1 2676.82 949)">!</text></g></svg>