<svg width="1865" height="393" xmlns="http://www.w3.org/2000/svg" xmlns:xlink="http://www.w3.org/1999/xlink" xml:space="preserve" overflow="hidden"><defs><clipPath id="clip0"><rect x="625" y="484" width="1865" height="393"/></clipPath><linearGradient x1="716" y1="622" x2="716" y2="777" gradientUnits="userSpaceOnUse" spreadMethod="reflect" id="fill1"><stop offset="0" stop-color="#B1CBE9"/><stop offset="0.5" stop-color="#A3C1E5"/><stop offset="1" stop-color="#92B9E4"/></linearGradient><linearGradient x1="716" y1="622" x2="716" y2="777" gradientUnits="userSpaceOnUse" spreadMethod="reflect" id="fill2"><stop offset="0" stop-color="#8EA3BB"/><stop offset="0.5" stop-color="#839BB8"/><stop offset="1" stop-color="#7595B7"/></linearGradient><linearGradient x1="716" y1="622" x2="716" y2="777" gradientUnits="userSpaceOnUse" spreadMethod="reflect" id="fill3"><stop offset="0" stop-color="#C0D5ED"/><stop offset="0.5" stop-color="#B5CDEA"/><stop offset="1" stop-color="#A7C7E9"/></linearGradient><linearGradient x1="852" y1="622" x2="852" y2="777" gradientUnits="userSpaceOnUse" spreadMethod="reflect" id="fill4"><stop offset="0" stop-color="#B1CBE9"/><stop offset="0.5" stop-color="#A3C1E5"/><stop offset="1" stop-color="#92B9E4"/></linearGradient><linearGradient x1="852" y1="622" x2="852" y2="777" gradientUnits="userSpaceOnUse" spreadMethod="reflect" id="fill5"><stop offset="0" stop-color="#8EA3BB"/><stop offset="0.5" stop-color="#839BB8"/><stop offset="1" stop-color="#7595B7"/></linearGradient><linearGradient x1="852" y1="622" x2="852" y2="777" gradientUnits="userSpaceOnUse" spreadMethod="reflect" id="fill6"><stop offset="0" stop-color="#C0D5ED"/><stop offset="0.5" stop-color="#B5CDEA"/><stop offset="1" stop-color="#A7C7E9"/></linearGradient><linearGradient x1="795" y1="499" x2="795" y2="603" gradientUnits="userSpaceOnUse" spreadMethod="reflect" id="fill7"><stop offset="0" stop-color="#B5D5A7"/><stop offset="0.5" stop-color="#AACE99"/><stop offset="1" stop-color="#9CCA86"/></linearGradient><linearGradient x1="795" y1="499" x2="795" y2="603" gradientUnits="userSpaceOnUse" spreadMethod="reflect" id="fill8"><stop offset="0" stop-color="#92AB86"/><stop offset="0.5" stop-color="#89A67B"/><stop offset="1" stop-color="#7DA26C"/></linearGradient><linearGradient x1="1106" y1="622" x2="1106" y2="777" gradientUnits="userSpaceOnUse" spreadMethod="reflect" id="fill9"><stop offset="0" stop-color="#B1CBE9"/><stop offset="0.5" stop-color="#A3C1E5"/><stop offset="1" stop-color="#92B9E4"/></linearGradient><linearGradient x1="1106" y1="622" x2="1106" y2="777" gradientUnits="userSpaceOnUse" spreadMethod="reflect" id="fill10"><stop offset="0" stop-color="#8EA3BB"/><stop offset="0.5" stop-color="#839BB8"/><stop offset="1" stop-color="#7595B7"/></linearGradient><linearGradient x1="1106" y1="622" x2="1106" y2="777" gradientUnits="userSpaceOnUse" spreadMethod="reflect" id="fill11"><stop offset="0" stop-color="#C0D5ED"/><stop offset="0.5" stop-color="#B5CDEA"/><stop offset="1" stop-color="#A7C7E9"/></linearGradient><linearGradient x1="1242" y1="622" x2="1242" y2="777" gradientUnits="userSpaceOnUse" spreadMethod="reflect" id="fill12"><stop offset="0" stop-color="#B1CBE9"/><stop offset="0.5" stop-color="#A3C1E5"/><stop offset="1" stop-color="#92B9E4"/></linearGradient><linearGradient x1="1242" y1="622" x2="1242" y2="777" gradientUnits="userSpaceOnUse" spreadMethod="reflect" id="fill13"><stop offset="0" stop-color="#8EA3BB"/><stop offset="0.5" stop-color="#839BB8"/><stop offset="1" stop-color="#7595B7"/></linearGradient><linearGradient x1="1242" y1="622" x2="1242" y2="777" gradientUnits="userSpaceOnUse" spreadMethod="reflect" id="fill14"><stop offset="0" stop-color="#C0D5ED"/><stop offset="0.5" stop-color="#B5CDEA"/><stop offset="1" stop-color="#A7C7E9"/></linearGradient><linearGradient x1="1185" y1="499" x2="1185" y2="603" gradientUnits="userSpaceOnUse" spreadMethod="reflect" id="fill15"><stop offset="0" stop-color="#B5D5A7"/><stop offset="0.5" stop-color="#AACE99"/><stop offset="1" stop-color="#9CCA86"/></linearGradient><linearGradient x1="1185" y1="499" x2="1185" y2="603" gradientUnits="userSpaceOnUse" spreadMethod="reflect" id="fill16"><stop offset="0" stop-color="#92AB86"/><stop offset="0.5" stop-color="#89A67B"/><stop offset="1" stop-color="#7DA26C"/></linearGradient><linearGradient x1="1495" y1="622" x2="1495" y2="777" gradientUnits="userSpaceOnUse" spreadMethod="reflect" id="fill17"><stop offset="0" stop-color="#B1CBE9"/><stop offset="0.5" stop-color="#A3C1E5"/><stop offset="1" stop-color="#92B9E4"/></linearGradient><linearGradient x1="1495" y1="622" x2="1495" y2="777" gradientUnits="userSpaceOnUse" spreadMethod="reflect" id="fill18"><stop offset="0" stop-color="#8EA3BB"/><stop offset="0.5" stop-color="#839BB8"/><stop offset="1" stop-color="#7595B7"/></linearGradient><linearGradient x1="1495" y1="622" x2="1495" y2="777" gradientUnits="userSpaceOnUse" spreadMethod="reflect" id="fill19"><stop offset="0" stop-color="#C0D5ED"/><stop offset="0.5" stop-color="#B5CDEA"/><stop offset="1" stop-color="#A7C7E9"/></linearGradient><linearGradient x1="1631.5" y1="622" x2="1631.5" y2="777" gradientUnits="userSpaceOnUse" spreadMethod="reflect" id="fill20"><stop offset="0" stop-color="#B1CBE9"/><stop offset="0.5" stop-color="#A3C1E5"/><stop offset="1" stop-color="#92B9E4"/></linearGradient><linearGradient x1="1631.5" y1="622" x2="1631.5" y2="777" gradientUnits="userSpaceOnUse" spreadMethod="reflect" id="fill21"><stop offset="0" stop-color="#8EA3BB"/><stop offset="0.5" stop-color="#839BB8"/><stop offset="1" stop-color="#7595B7"/></linearGradient><linearGradient x1="1631.5" y1="622" x2="1631.5" y2="777" gradientUnits="userSpaceOnUse" spreadMethod="reflect" id="fill22"><stop offset="0" stop-color="#C0D5ED"/><stop offset="0.5" stop-color="#B5CDEA"/><stop offset="1" stop-color="#A7C7E9"/></linearGradient><linearGradient x1="1575" y1="499" x2="1575" y2="603" gradientUnits="userSpaceOnUse" spreadMethod="reflect" id="fill23"><stop offset="0" stop-color="#B5D5A7"/><stop offset="0.5" stop-color="#AACE99"/><stop offset="1" stop-color="#9CCA86"/></linearGradient><linearGradient x1="1575" y1="499" x2="1575" y2="603" gradientUnits="userSpaceOnUse" spreadMethod="reflect" id="fill24"><stop offset="0" stop-color="#92AB86"/><stop offset="0.5" stop-color="#89A67B"/><stop offset="1" stop-color="#7DA26C"/></linearGradient><linearGradient x1="1885" y1="622" x2="1885" y2="777" gradientUnits="userSpaceOnUse" spreadMethod="reflect" id="fill25"><stop offset="0" stop-color="#B1CBE9"/><stop offset="0.5" stop-color="#A3C1E5"/><stop offset="1" stop-color="#92B9E4"/></linearGradient><linearGradient x1="1885" y1="622" x2="1885" y2="777" gradientUnits="userSpaceOnUse" spreadMethod="reflect" id="fill26"><stop offset="0" stop-color="#8EA3BB"/><stop offset="0.5" stop-color="#839BB8"/><stop offset="1" stop-color="#7595B7"/></linearGradient><linearGradient x1="1885" y1="622" x2="1885" y2="777" gradientUnits="userSpaceOnUse" spreadMethod="reflect" id="fill27"><stop offset="0" stop-color="#C0D5ED"/><stop offset="0.5" stop-color="#B5CDEA"/><stop offset="1" stop-color="#A7C7E9"/></linearGradient><linearGradient x1="2021" y1="622" x2="2021" y2="777" gradientUnits="userSpaceOnUse" spreadMethod="reflect" id="fill28"><stop offset="0" stop-color="#B1CBE9"/><stop offset="0.5" stop-color="#A3C1E5"/><stop offset="1" stop-color="#92B9E4"/></linearGradient><linearGradient x1="2021" y1="622" x2="2021" y2="777" gradientUnits="userSpaceOnUse" spreadMethod="reflect" id="fill29"><stop offset="0" stop-color="#8EA3BB"/><stop offset="0.5" stop-color="#839BB8"/><stop offset="1" stop-color="#7595B7"/></linearGradient><linearGradient x1="2021" y1="622" x2="2021" y2="777" gradientUnits="userSpaceOnUse" spreadMethod="reflect" id="fill30"><stop offset="0" stop-color="#C0D5ED"/><stop offset="0.5" stop-color="#B5CDEA"/><stop offset="1" stop-color="#A7C7E9"/></linearGradient><linearGradient x1="1964.5" y1="499" x2="1964.5" y2="603" gradientUnits="userSpaceOnUse" spreadMethod="reflect" id="fill31"><stop offset="0" stop-color="#B5D5A7"/><stop offset="0.5" stop-color="#AACE99"/><stop offset="1" stop-color="#9CCA86"/></linearGradient><linearGradient x1="1964.5" y1="499" x2="1964.5" y2="603" gradientUnits="userSpaceOnUse" spreadMethod="reflect" id="fill32"><stop offset="0" stop-color="#92AB86"/><stop offset="0.5" stop-color="#89A67B"/><stop offset="1" stop-color="#7DA26C"/></linearGradient><linearGradient x1="2275" y1="622" x2="2275" y2="777" gradientUnits="userSpaceOnUse" spreadMethod="reflect" id="fill33"><stop offset="0" stop-color="#B1CBE9"/><stop offset="0.5" stop-color="#A3C1E5"/><stop offset="1" stop-color="#92B9E4"/></linearGradient><linearGradient x1="2275" y1="622" x2="2275" y2="777" gradientUnits="userSpaceOnUse" spreadMethod="reflect" id="fill34"><stop offset="0" stop-color="#8EA3BB"/><stop offset="0.5" stop-color="#839BB8"/><stop offset="1" stop-color="#7595B7"/></linearGradient><linearGradient x1="2275" y1="622" x2="2275" y2="777" gradientUnits="userSpaceOnUse" spreadMethod="reflect" id="fill35"><stop offset="0" stop-color="#C0D5ED"/><stop offset="0.5" stop-color="#B5CDEA"/><stop offset="1" stop-color="#A7C7E9"/></linearGradient><linearGradient x1="2411" y1="622" x2="2411" y2="777" gradientUnits="userSpaceOnUse" spreadMethod="reflect" id="fill36"><stop offset="0" stop-color="#B1CBE9"/><stop offset="0.5" stop-color="#A3C1E5"/><stop offset="1" stop-color="#92B9E4"/></linearGradient><linearGradient x1="2411" y1="622" x2="2411" y2="777" gradientUnits="userSpaceOnUse" spreadMethod="reflect" id="fill37"><stop offset="0" stop-color="#8EA3BB"/><stop offset="0.5" stop-color="#839BB8"/><stop offset="1" stop-color="#7595B7"/></linearGradient><linearGradient x1="2411" y1="622" x2="2411" y2="777" gradientUnits="userSpaceOnUse" spreadMethod="reflect" id="fill38"><stop offset="0" stop-color="#C0D5ED"/><stop offset="0.5" stop-color="#B5CDEA"/><stop offset="1" stop-color="#A7C7E9"/></linearGradient><linearGradient x1="2354" y1="499" x2="2354" y2="603" gradientUnits="userSpaceOnUse" spreadMethod="reflect" id="fill39"><stop offset="0" stop-color="#B5D5A7"/><stop offset="0.5" stop-color="#AACE99"/><stop offset="1" stop-color="#9CCA86"/></linearGradient><linearGradient x1="2354" y1="499" x2="2354" y2="603" gradientUnits="userSpaceOnUse" spreadMethod="reflect" id="fill40"><stop offset="0" stop-color="#92AB86"/><stop offset="0.5" stop-color="#89A67B"/><stop offset="1" stop-color="#7DA26C"/></linearGradient></defs><g clip-path="url(#clip0)" transform="translate(-625 -484)"><rect x="638" y="660.75" width="117.25" height="116.25" fill="url(#fill1)"/><path d="M755.25 660.75 794 622 794 738.25 755.25 777Z" fill="url(#fill2)" fill-rule="evenodd"/><path d="M638 660.75 676.75 622 794 622 755.25 660.75Z" fill="url(#fill3)" fill-rule="evenodd"/><path d="M638 660.75 676.75 622 794 622 794 738.25 755.25 777 638 777ZM638 660.75 755.25 660.75 794 622M755.25 660.75 755.25 777" stroke="#5B9BD5" stroke-width="2.29167" stroke-miterlimit="8" fill="none" fill-rule="evenodd"/><text font-family="Yu Gothic UI,Yu Gothic UI_MSFontService,sans-serif" font-weight="400" font-size="55" transform="matrix(1 0 0 1 671.551 720)">30<tspan font-size="37" x="-13.6298" y="46">(8bit)</tspan></text><rect x="774" y="660.75" width="117.25" height="116.25" fill="url(#fill4)"/><path d="M891.25 660.75 930 622 930 738.25 891.25 777Z" fill="url(#fill5)" fill-rule="evenodd"/><path d="M774 660.75 812.75 622 930 622 891.25 660.75Z" fill="url(#fill6)" fill-rule="evenodd"/><path d="M774 660.75 812.75 622 930 622 930 738.25 891.25 777 774 777ZM774 660.75 891.25 660.75 930 622M891.25 660.75 891.25 777" stroke="#5B9BD5" stroke-width="2.29167" stroke-miterlimit="8" fill="none" fill-rule="evenodd"/><text font-family="Yu Gothic UI,Yu Gothic UI_MSFontService,sans-serif" font-weight="400" font-size="55" transform="matrix(1 0 0 1 807.602 720)">53<tspan font-size="37" x="-13.6298" y="46">(8bit)</tspan></text><path d="M743 499 847 499 847 585.667 829.666 603 743 603Z" fill="url(#fill7)" fill-rule="evenodd"/><path d="M829.666 603 833.133 589.133 847 585.667Z" fill="url(#fill8)" fill-rule="evenodd"/><path d="M829.666 603 833.133 589.133 847 585.667 829.666 603 743 603 743 499 847 499 847 585.667" stroke="#70AD47" stroke-width="2.29167" stroke-miterlimit="8" fill="none" fill-rule="evenodd"/><text font-family="Yu Gothic UI,Yu Gothic UI_MSFontService,sans-serif" font-weight="400" font-size="64" transform="matrix(1 0 0 1 774.307 566)">こ</text><path d="M890 786C890 790.695 889.366 794.5 888.583 794.5L766.417 794.5C765.634 794.5 765 798.306 765 803 765 798.306 764.366 794.5 763.583 794.5L641.417 794.5C640.634 794.5 640 790.695 640 786" stroke="#4472C4" stroke-width="2.29167" stroke-miterlimit="8" fill="none" fill-rule="evenodd"/><text font-family="Yu Gothic UI,Yu Gothic UI_MSFontService,sans-serif" font-weight="400" font-size="37" transform="matrix(1 0 0 1 712.832 847)">(16bit)</text><rect x="1028" y="660.75" width="117.25" height="116.25" fill="url(#fill9)"/><path d="M1145.25 660.75 1184 622 1184 738.25 1145.25 777Z" fill="url(#fill10)" fill-rule="evenodd"/><path d="M1028 660.75 1066.75 622 1184 622 1145.25 660.75Z" fill="url(#fill11)" fill-rule="evenodd"/><path d="M1028 660.75 1066.75 622 1184 622 1184 738.25 1145.25 777 1028 777ZM1028 660.75 1145.25 660.75 1184 622M1145.25 660.75 1145.25 777" stroke="#5B9BD5" stroke-width="2.29167" stroke-miterlimit="8" fill="none" fill-rule="evenodd"/><text font-family="Yu Gothic UI,Yu Gothic UI_MSFontService,sans-serif" font-weight="400" font-size="55" transform="matrix(1 0 0 1 1061.31 720)">30<tspan font-size="37" x="-13.6299" y="46">(8bit)</tspan></text><rect x="1164" y="660.75" width="117.25" height="116.25" fill="url(#fill12)"/><path d="M1281.25 660.75 1320 622 1320 738.25 1281.25 777Z" fill="url(#fill13)" fill-rule="evenodd"/><path d="M1164 660.75 1202.75 622 1320 622 1281.25 660.75Z" fill="url(#fill14)" fill-rule="evenodd"/><path d="M1164 660.75 1202.75 622 1320 622 1320 738.25 1281.25 777 1164 777ZM1164 660.75 1281.25 660.75 1320 622M1281.25 660.75 1281.25 777" stroke="#5B9BD5" stroke-width="2.29167" stroke-miterlimit="8" fill="none" fill-rule="evenodd"/><text font-family="Yu Gothic UI,Yu Gothic UI_MSFontService,sans-serif" font-weight="400" font-size="55" transform="matrix(1 0 0 1 1197.37 720)">93<tspan font-size="37" x="-13.6299" y="46">(8bit)</tspan></text><path d="M1133 499 1237 499 1237 585.667 1219.67 603 1133 603Z" fill="url(#fill15)" fill-rule="evenodd"/><path d="M1219.67 603 1223.13 589.133 1237 585.667Z" fill="url(#fill16)" fill-rule="evenodd"/><path d="M1219.67 603 1223.13 589.133 1237 585.667 1219.67 603 1133 603 1133 499 1237 499 1237 585.667" stroke="#70AD47" stroke-width="2.29167" stroke-miterlimit="8" fill="none" fill-rule="evenodd"/><text font-family="Yu Gothic UI,Yu Gothic UI_MSFontService,sans-serif" font-weight="400" font-size="64" transform="matrix(1 0 0 1 1158.91 566)">ん</text><path d="M1280 786C1280 790.695 1279.37 794.5 1278.58 794.5L1155.92 794.5C1155.13 794.5 1154.5 798.306 1154.5 803 1154.5 798.306 1153.87 794.5 1153.08 794.5L1030.42 794.5C1029.63 794.5 1029 790.695 1029 786" stroke="#4472C4" stroke-width="2.29167" stroke-miterlimit="8" fill="none" fill-rule="evenodd"/><text font-family="Yu Gothic UI,Yu Gothic UI_MSFontService,sans-serif" font-weight="400" font-size="37" transform="matrix(1 0 0 1 1102.6 847)">(16bit)</text><rect x="1417" y="660.75" width="117.25" height="116.25" fill="url(#fill17)"/><path d="M1534.25 660.75 1573 622 1573 738.25 1534.25 777Z" fill="url(#fill18)" fill-rule="evenodd"/><path d="M1417 660.75 1455.75 622 1573 622 1534.25 660.75Z" fill="url(#fill19)" fill-rule="evenodd"/><path d="M1417 660.75 1455.75 622 1573 622 1573 738.25 1534.25 777 1417 777ZM1417 660.75 1534.25 660.75 1573 622M1534.25 660.75 1534.25 777" stroke="#5B9BD5" stroke-width="2.29167" stroke-miterlimit="8" fill="none" fill-rule="evenodd"/><text font-family="Yu Gothic UI,Yu Gothic UI_MSFontService,sans-serif" font-weight="400" font-size="55" transform="matrix(1 0 0 1 1451.08 720)">30<tspan font-size="37" x="-13.6299" y="46">(8bit)</tspan></text><rect x="1554" y="660.75" width="116.25" height="116.25" fill="url(#fill20)"/><path d="M1670.25 660.75 1709 622 1709 738.25 1670.25 777Z" fill="url(#fill21)" fill-rule="evenodd"/><path d="M1554 660.75 1592.75 622 1709 622 1670.25 660.75Z" fill="url(#fill22)" fill-rule="evenodd"/><path d="M1554 660.75 1592.75 622 1709 622 1709 738.25 1670.25 777 1554 777ZM1554 660.75 1670.25 660.75 1709 622M1670.25 660.75 1670.25 777" stroke="#5B9BD5" stroke-width="2.29167" stroke-miterlimit="8" fill="none" fill-rule="evenodd"/><text font-family="Yu Gothic UI,Yu Gothic UI_MSFontService,sans-serif" font-weight="400" font-size="55" transform="matrix(1 0 0 1 1587.13 720)">68<tspan font-size="37" x="-13.6298" y="46">(8bit)</tspan></text><path d="M1523 499 1627 499 1627 585.666 1609.67 603 1523 603Z" fill="url(#fill23)" fill-rule="evenodd"/><path d="M1609.67 603 1613.13 589.133 1627 585.666Z" fill="url(#fill24)" fill-rule="evenodd"/><path d="M1609.67 603 1613.13 589.133 1627 585.666 1609.67 603 1523 603 1523 499 1627 499 1627 585.666" stroke="#70AD47" stroke-width="2.29167" stroke-miterlimit="8" fill="none" fill-rule="evenodd"/><text font-family="Yu Gothic UI,Yu Gothic UI_MSFontService,sans-serif" font-weight="400" font-size="64" transform="matrix(1 0 0 1 1549.82 566)">に</text><path d="M1670 786C1670 790.695 1669.37 794.5 1668.58 794.5L1545.92 794.5C1545.13 794.5 1544.5 798.306 1544.5 803 1544.5 798.306 1543.87 794.5 1543.08 794.5L1420.42 794.5C1419.63 794.5 1419 790.695 1419 786" stroke="#4472C4" stroke-width="2.29167" stroke-miterlimit="8" fill="none" fill-rule="evenodd"/><text font-family="Yu Gothic UI,Yu Gothic UI_MSFontService,sans-serif" font-weight="400" font-size="37" transform="matrix(1 0 0 1 1492.36 847)">(16bit)</text><rect x="1807" y="660.75" width="117.25" height="116.25" fill="url(#fill25)"/><path d="M1924.25 660.75 1963 622 1963 738.25 1924.25 777Z" fill="url(#fill26)" fill-rule="evenodd"/><path d="M1807 660.75 1845.75 622 1963 622 1924.25 660.75Z" fill="url(#fill27)" fill-rule="evenodd"/><path d="M1807 660.75 1845.75 622 1963 622 1963 738.25 1924.25 777 1807 777ZM1807 660.75 1924.25 660.75 1963 622M1924.25 660.75 1924.25 777" stroke="#5B9BD5" stroke-width="2.29167" stroke-miterlimit="8" fill="none" fill-rule="evenodd"/><text font-family="Yu Gothic UI,Yu Gothic UI_MSFontService,sans-serif" font-weight="400" font-size="55" transform="matrix(1 0 0 1 1840.84 720)">30<tspan font-size="37" x="-13.6296" y="46">(8bit)</tspan></text><rect x="1943" y="660.75" width="117.25" height="116.25" fill="url(#fill28)"/><path d="M2060.25 660.75 2099 622 2099 738.25 2060.25 777Z" fill="url(#fill29)" fill-rule="evenodd"/><path d="M1943 660.75 1981.75 622 2099 622 2060.25 660.75Z" fill="url(#fill30)" fill-rule="evenodd"/><path d="M1943 660.75 1981.75 622 2099 622 2099 738.25 2060.25 777 1943 777ZM1943 660.75 2060.25 660.75 2099 622M2060.25 660.75 2060.25 777" stroke="#5B9BD5" stroke-width="2.29167" stroke-miterlimit="8" fill="none" fill-rule="evenodd"/><text font-family="Yu Gothic UI,Yu Gothic UI_MSFontService,sans-serif" font-weight="400" font-size="55" transform="matrix(1 0 0 1 1976.89 720)">61<tspan font-size="37" x="-13.6298" y="46">(8bit)</tspan></text><path d="M1913 499 2016 499 2016 585.833 1998.83 603 1913 603Z" fill="url(#fill31)" fill-rule="evenodd"/><path d="M1998.83 603 2002.27 589.266 2016 585.833Z" fill="url(#fill32)" fill-rule="evenodd"/><path d="M1998.83 603 2002.27 589.266 2016 585.833 1998.83 603 1913 603 1913 499 2016 499 2016 585.833" stroke="#70AD47" stroke-width="2.29167" stroke-miterlimit="8" fill="none" fill-rule="evenodd"/><text font-family="Yu Gothic UI,Yu Gothic UI_MSFontService,sans-serif" font-weight="400" font-size="64" transform="matrix(1 0 0 1 1940.45 566)">ち</text><path d="M2059 786C2059 790.695 2058.37 794.5 2057.58 794.5L1935.42 794.5C1934.63 794.5 1934 798.306 1934 803 1934 798.306 1933.37 794.5 1932.58 794.5L1810.42 794.5C1809.63 794.5 1809 790.695 1809 786" stroke="#4472C4" stroke-width="2.29167" stroke-miterlimit="8" fill="none" fill-rule="evenodd"/><text font-family="Yu Gothic UI,Yu Gothic UI_MSFontService,sans-serif" font-weight="400" font-size="37" transform="matrix(1 0 0 1 1882.12 847)">(16bit)</text><rect x="2197" y="660.75" width="117.25" height="116.25" fill="url(#fill33)"/><path d="M2314.25 660.75 2353 622 2353 738.25 2314.25 777Z" fill="url(#fill34)" fill-rule="evenodd"/><path d="M2197 660.75 2235.75 622 2353 622 2314.25 660.75Z" fill="url(#fill35)" fill-rule="evenodd"/><path d="M2197 660.75 2235.75 622 2353 622 2353 738.25 2314.25 777 2197 777ZM2197 660.75 2314.25 660.75 2353 622M2314.25 660.75 2314.25 777" stroke="#5B9BD5" stroke-width="2.29167" stroke-miterlimit="8" fill="none" fill-rule="evenodd"/><text font-family="Yu Gothic UI,Yu Gothic UI_MSFontService,sans-serif" font-weight="400" font-size="55" transform="matrix(1 0 0 1 2230.61 720)">30<tspan font-size="37" x="-13.6296" y="46">(8bit)</tspan></text><rect x="2333" y="660.75" width="117.25" height="116.25" fill="url(#fill36)"/><path d="M2450.25 660.75 2489 622 2489 738.25 2450.25 777Z" fill="url(#fill37)" fill-rule="evenodd"/><path d="M2333 660.75 2371.75 622 2489 622 2450.25 660.75Z" fill="url(#fill38)" fill-rule="evenodd"/><path d="M2333 660.75 2371.75 622 2489 622 2489 738.25 2450.25 777 2333 777ZM2333 660.75 2450.25 660.75 2489 622M2450.25 660.75 2450.25 777" stroke="#5B9BD5" stroke-width="2.29167" stroke-miterlimit="8" fill="none" fill-rule="evenodd"/><text font-family="Yu Gothic UI,Yu Gothic UI_MSFontService,sans-serif" font-weight="400" font-size="55" transform="matrix(1 0 0 1 2368.09 720)">6F<tspan font-size="37" x="-15.062" y="46">(8bit)</tspan></text><path d="M2302 499 2406 499 2406 585.666 2388.67 603 2302 603Z" fill="url(#fill39)" fill-rule="evenodd"/><path d="M2388.67 603 2392.13 589.133 2406 585.666Z" fill="url(#fill40)" fill-rule="evenodd"/><path d="M2388.67 603 2392.13 589.133 2406 585.666 2388.67 603 2302 603 2302 499 2406 499 2406 585.666" stroke="#70AD47" stroke-width="2.29167" stroke-miterlimit="8" fill="none" fill-rule="evenodd"/><text font-family="Yu Gothic UI,Yu Gothic UI_MSFontService,sans-serif" font-weight="400" font-size="64" transform="matrix(1 0 0 1 2326.77 566)">は</text><path d="M2449 786C2449 790.695 2448.37 794.5 2447.58 794.5L2325.42 794.5C2324.63 794.5 2324 798.306 2324 803 2324 798.306 2323.37 794.5 2322.58 794.5L2200.42 794.5C2199.63 794.5 2199 790.695 2199 786" stroke="#4472C4" stroke-width="2.29167" stroke-miterlimit="8" fill="none" fill-rule="evenodd"/><text font-family="Yu Gothic UI,Yu Gothic UI_MSFontService,sans-serif" font-weight="400" font-size="37" transform="matrix(1 0 0 1 2271.89 847)">(16bit)</text></g></svg>