<svg width="1812" height="267" xmlns="http://www.w3.org/2000/svg" xmlns:xlink="http://www.w3.org/1999/xlink" xml:space="preserve" overflow="hidden"><defs><clipPath id="clip0"><rect x="422" y="483" width="1812" height="267"/></clipPath><linearGradient x1="553.5" y1="485" x2="553.5" y2="746" gradientUnits="userSpaceOnUse" spreadMethod="reflect" id="fill1"><stop offset="0" stop-color="#B5D5A7"/><stop offset="0.5" stop-color="#AACE99"/><stop offset="1" stop-color="#9CCA86"/></linearGradient><linearGradient x1="553.5" y1="485" x2="553.5" y2="746" gradientUnits="userSpaceOnUse" spreadMethod="reflect" id="fill2"><stop offset="0" stop-color="#92AB86"/><stop offset="0.5" stop-color="#89A67B"/><stop offset="1" stop-color="#7DA26C"/></linearGradient><linearGradient x1="929.5" y1="487" x2="929.5" y2="749" gradientUnits="userSpaceOnUse" spreadMethod="reflect" id="fill3"><stop offset="0" stop-color="#B5D5A7"/><stop offset="0.5" stop-color="#AACE99"/><stop offset="1" stop-color="#9CCA86"/></linearGradient><linearGradient x1="929.5" y1="487" x2="929.5" y2="749" gradientUnits="userSpaceOnUse" spreadMethod="reflect" id="fill4"><stop offset="0" stop-color="#92AB86"/><stop offset="0.5" stop-color="#89A67B"/><stop offset="1" stop-color="#7DA26C"/></linearGradient><linearGradient x1="1332.5" y1="484" x2="1332.5" y2="745" gradientUnits="userSpaceOnUse" spreadMethod="reflect" id="fill5"><stop offset="0" stop-color="#B5D5A7"/><stop offset="0.5" stop-color="#AACE99"/><stop offset="1" stop-color="#9CCA86"/></linearGradient><linearGradient x1="1332.5" y1="484" x2="1332.5" y2="745" gradientUnits="userSpaceOnUse" spreadMethod="reflect" id="fill6"><stop offset="0" stop-color="#92AB86"/><stop offset="0.5" stop-color="#89A67B"/><stop offset="1" stop-color="#7DA26C"/></linearGradient><linearGradient x1="1721.5" y1="486" x2="1721.5" y2="747" gradientUnits="userSpaceOnUse" spreadMethod="reflect" id="fill7"><stop offset="0" stop-color="#B5D5A7"/><stop offset="0.5" stop-color="#AACE99"/><stop offset="1" stop-color="#9CCA86"/></linearGradient><linearGradient x1="1721.5" y1="486" x2="1721.5" y2="747" gradientUnits="userSpaceOnUse" spreadMethod="reflect" id="fill8"><stop offset="0" stop-color="#92AB86"/><stop offset="0.5" stop-color="#89A67B"/><stop offset="1" stop-color="#7DA26C"/></linearGradient><linearGradient x1="2099.5" y1="486" x2="2099.5" y2="747" gradientUnits="userSpaceOnUse" spreadMethod="reflect" id="fill9"><stop offset="0" stop-color="#B5D5A7"/><stop offset="0.5" stop-color="#AACE99"/><stop offset="1" stop-color="#9CCA86"/></linearGradient><linearGradient x1="2099.5" y1="486" x2="2099.5" y2="747" gradientUnits="userSpaceOnUse" spreadMethod="reflect" id="fill10"><stop offset="0" stop-color="#92AB86"/><stop offset="0.5" stop-color="#89A67B"/><stop offset="1" stop-color="#7DA26C"/></linearGradient></defs><g clip-path="url(#clip0)" transform="translate(-422 -483)"><path d="M423 485 684 485 684 702.499 640.499 746 423 746Z" fill="url(#fill1)" fill-rule="evenodd"/><path d="M640.499 746 649.199 711.199 684 702.499Z" fill="url(#fill2)" fill-rule="evenodd"/><path d="M640.499 746 649.199 711.199 684 702.499 640.499 746 423 746 423 485 684 485 684 702.499" stroke="#70AD47" stroke-width="2.29167" stroke-miterlimit="8" fill="none" fill-rule="evenodd"/><text font-family="Yu Gothic UI,Yu Gothic UI_MSFontService,sans-serif" font-weight="400" font-size="55" transform="matrix(1 0 0 1 535.311 582)">こ<tspan font-size="55" x="-69.025" y="66">(04</tspan>-<tspan font-size="55" x="28.9438" y="66">19)</tspan></text><path d="M799 487 1060 487 1060 705.499 1016.5 749 799 749Z" fill="url(#fill3)" fill-rule="evenodd"/><path d="M1016.5 749 1025.2 714.199 1060 705.499Z" fill="url(#fill4)" fill-rule="evenodd"/><path d="M1016.5 749 1025.2 714.199 1060 705.499 1016.5 749 799 749 799 487 1060 487 1060 705.499" stroke="#70AD47" stroke-width="2.29167" stroke-miterlimit="8" fill="none" fill-rule="evenodd"/><text font-family="Yu Gothic UI,Yu Gothic UI_MSFontService,sans-serif" font-weight="400" font-size="55" transform="matrix(1 0 0 1 907.133 584)">ん<tspan font-size="55" x="-64.7396" y="66">(04</tspan><tspan font-size="55" x="11.4583" y="66">-</tspan><tspan font-size="55" x="33.2292" y="66">83)</tspan></text><path d="M1202 484 1463 484 1463 701.499 1419.5 745 1202 745Z" fill="url(#fill5)" fill-rule="evenodd"/><path d="M1419.5 745 1428.2 710.199 1463 701.499Z" fill="url(#fill6)" fill-rule="evenodd"/><path d="M1419.5 745 1428.2 710.199 1463 701.499 1419.5 745 1202 745 1202 484 1463 484 1463 701.499" stroke="#70AD47" stroke-width="2.29167" stroke-miterlimit="8" fill="none" fill-rule="evenodd"/><text font-family="Yu Gothic UI,Yu Gothic UI_MSFontService,sans-serif" font-weight="400" font-size="55" transform="matrix(1 0 0 1 1311.4 580)">に<tspan font-size="55" x="-65.5875" y="66">(04</tspan><tspan font-size="55" x="10.6105" y="66">-</tspan><tspan font-size="55" x="32.3812" y="66">43)</tspan></text><path d="M1591 486 1852 486 1852 703.5 1808.5 747.001 1591 747.001Z" fill="url(#fill7)" fill-rule="evenodd"/><path d="M1808.5 747.001 1817.2 712.2 1852 703.5Z" fill="url(#fill8)" fill-rule="evenodd"/><path d="M1808.5 747.001 1817.2 712.2 1852 703.5 1808.5 747.001 1591 747.001 1591 486 1852 486 1852 703.5" stroke="#70AD47" stroke-width="2.29167" stroke-miterlimit="8" fill="none" fill-rule="evenodd"/><text font-family="Yu Gothic UI,Yu Gothic UI_MSFontService,sans-serif" font-weight="400" font-size="55" transform="matrix(1 0 0 1 1700.94 583)">ち<tspan font-size="55" x="-66.4584" y="66">(04</tspan><tspan font-size="55" x="9.73962" y="66">-</tspan><tspan font-size="55" x="31.5104" y="66">33)</tspan></text><path d="M1969 486 2230 486 2230 703.499 2186.5 747 1969 747Z" fill="url(#fill9)" fill-rule="evenodd"/><path d="M2186.5 747 2195.2 712.199 2230 703.499Z" fill="url(#fill10)" fill-rule="evenodd"/><path d="M2186.5 747 2195.2 712.199 2230 703.499 2186.5 747 1969 747 1969 486 2230 486 2230 703.499" stroke="#70AD47" stroke-width="2.29167" stroke-miterlimit="8" fill="none" fill-rule="evenodd"/><text font-family="Yu Gothic UI,Yu Gothic UI_MSFontService,sans-serif" font-weight="400" font-size="55" transform="matrix(1 0 0 1 2075.92 583)">は<tspan font-size="55" x="-63.5938" y="66">(04</tspan><tspan font-size="55" x="12.6042" y="66">-</tspan><tspan font-size="55" x="34.375" y="66">47)</tspan></text></g></svg>