<svg width="3175" height="393" xmlns="http://www.w3.org/2000/svg" xmlns:xlink="http://www.w3.org/1999/xlink" xml:space="preserve" overflow="hidden"><defs><clipPath id="clip0"><rect x="152" y="1173" width="3175" height="393"/></clipPath><linearGradient x1="243" y1="1311" x2="243" y2="1466" gradientUnits="userSpaceOnUse" spreadMethod="reflect" id="fill1"><stop offset="0" stop-color="#B1CBE9"/><stop offset="0.5" stop-color="#A3C1E5"/><stop offset="1" stop-color="#92B9E4"/></linearGradient><linearGradient x1="243" y1="1311" x2="243" y2="1466" gradientUnits="userSpaceOnUse" spreadMethod="reflect" id="fill2"><stop offset="0" stop-color="#8EA3BB"/><stop offset="0.5" stop-color="#839BB8"/><stop offset="1" stop-color="#7595B7"/></linearGradient><linearGradient x1="243" y1="1311" x2="243" y2="1466" gradientUnits="userSpaceOnUse" spreadMethod="reflect" id="fill3"><stop offset="0" stop-color="#C0D5ED"/><stop offset="0.5" stop-color="#B5CDEA"/><stop offset="1" stop-color="#A7C7E9"/></linearGradient><linearGradient x1="379" y1="1311" x2="379" y2="1466" gradientUnits="userSpaceOnUse" spreadMethod="reflect" id="fill4"><stop offset="0" stop-color="#B1CBE9"/><stop offset="0.5" stop-color="#A3C1E5"/><stop offset="1" stop-color="#92B9E4"/></linearGradient><linearGradient x1="379" y1="1311" x2="379" y2="1466" gradientUnits="userSpaceOnUse" spreadMethod="reflect" id="fill5"><stop offset="0" stop-color="#8EA3BB"/><stop offset="0.5" stop-color="#839BB8"/><stop offset="1" stop-color="#7595B7"/></linearGradient><linearGradient x1="379" y1="1311" x2="379" y2="1466" gradientUnits="userSpaceOnUse" spreadMethod="reflect" id="fill6"><stop offset="0" stop-color="#C0D5ED"/><stop offset="0.5" stop-color="#B5CDEA"/><stop offset="1" stop-color="#A7C7E9"/></linearGradient><linearGradient x1="515" y1="1311" x2="515" y2="1466" gradientUnits="userSpaceOnUse" spreadMethod="reflect" id="fill7"><stop offset="0" stop-color="#B1CBE9"/><stop offset="0.5" stop-color="#A3C1E5"/><stop offset="1" stop-color="#92B9E4"/></linearGradient><linearGradient x1="515" y1="1311" x2="515" y2="1466" gradientUnits="userSpaceOnUse" spreadMethod="reflect" id="fill8"><stop offset="0" stop-color="#8EA3BB"/><stop offset="0.5" stop-color="#839BB8"/><stop offset="1" stop-color="#7595B7"/></linearGradient><linearGradient x1="515" y1="1311" x2="515" y2="1466" gradientUnits="userSpaceOnUse" spreadMethod="reflect" id="fill9"><stop offset="0" stop-color="#C0D5ED"/><stop offset="0.5" stop-color="#B5CDEA"/><stop offset="1" stop-color="#A7C7E9"/></linearGradient><linearGradient x1="650" y1="1311" x2="650" y2="1466" gradientUnits="userSpaceOnUse" spreadMethod="reflect" id="fill10"><stop offset="0" stop-color="#B1CBE9"/><stop offset="0.5" stop-color="#A3C1E5"/><stop offset="1" stop-color="#92B9E4"/></linearGradient><linearGradient x1="650" y1="1311" x2="650" y2="1466" gradientUnits="userSpaceOnUse" spreadMethod="reflect" id="fill11"><stop offset="0" stop-color="#8EA3BB"/><stop offset="0.5" stop-color="#839BB8"/><stop offset="1" stop-color="#7595B7"/></linearGradient><linearGradient x1="650" y1="1311" x2="650" y2="1466" gradientUnits="userSpaceOnUse" spreadMethod="reflect" id="fill12"><stop offset="0" stop-color="#C0D5ED"/><stop offset="0.5" stop-color="#B5CDEA"/><stop offset="1" stop-color="#A7C7E9"/></linearGradient><linearGradient x1="456" y1="1188" x2="456" y2="1292" gradientUnits="userSpaceOnUse" spreadMethod="reflect" id="fill13"><stop offset="0" stop-color="#B5D5A7"/><stop offset="0.5" stop-color="#AACE99"/><stop offset="1" stop-color="#9CCA86"/></linearGradient><linearGradient x1="456" y1="1188" x2="456" y2="1292" gradientUnits="userSpaceOnUse" spreadMethod="reflect" id="fill14"><stop offset="0" stop-color="#92AB86"/><stop offset="0.5" stop-color="#89A67B"/><stop offset="1" stop-color="#7DA26C"/></linearGradient><linearGradient x1="892.5" y1="1311" x2="892.5" y2="1466" gradientUnits="userSpaceOnUse" spreadMethod="reflect" id="fill15"><stop offset="0" stop-color="#B1CBE9"/><stop offset="0.5" stop-color="#A3C1E5"/><stop offset="1" stop-color="#92B9E4"/></linearGradient><linearGradient x1="892.5" y1="1311" x2="892.5" y2="1466" gradientUnits="userSpaceOnUse" spreadMethod="reflect" id="fill16"><stop offset="0" stop-color="#8EA3BB"/><stop offset="0.5" stop-color="#839BB8"/><stop offset="1" stop-color="#7595B7"/></linearGradient><linearGradient x1="892.5" y1="1311" x2="892.5" y2="1466" gradientUnits="userSpaceOnUse" spreadMethod="reflect" id="fill17"><stop offset="0" stop-color="#C0D5ED"/><stop offset="0.5" stop-color="#B5CDEA"/><stop offset="1" stop-color="#A7C7E9"/></linearGradient><linearGradient x1="1028.5" y1="1311" x2="1028.5" y2="1466" gradientUnits="userSpaceOnUse" spreadMethod="reflect" id="fill18"><stop offset="0" stop-color="#B1CBE9"/><stop offset="0.5" stop-color="#A3C1E5"/><stop offset="1" stop-color="#92B9E4"/></linearGradient><linearGradient x1="1028.5" y1="1311" x2="1028.5" y2="1466" gradientUnits="userSpaceOnUse" spreadMethod="reflect" id="fill19"><stop offset="0" stop-color="#8EA3BB"/><stop offset="0.5" stop-color="#839BB8"/><stop offset="1" stop-color="#7595B7"/></linearGradient><linearGradient x1="1028.5" y1="1311" x2="1028.5" y2="1466" gradientUnits="userSpaceOnUse" spreadMethod="reflect" id="fill20"><stop offset="0" stop-color="#C0D5ED"/><stop offset="0.5" stop-color="#B5CDEA"/><stop offset="1" stop-color="#A7C7E9"/></linearGradient><linearGradient x1="1164" y1="1311" x2="1164" y2="1466" gradientUnits="userSpaceOnUse" spreadMethod="reflect" id="fill21"><stop offset="0" stop-color="#B1CBE9"/><stop offset="0.5" stop-color="#A3C1E5"/><stop offset="1" stop-color="#92B9E4"/></linearGradient><linearGradient x1="1164" y1="1311" x2="1164" y2="1466" gradientUnits="userSpaceOnUse" spreadMethod="reflect" id="fill22"><stop offset="0" stop-color="#8EA3BB"/><stop offset="0.5" stop-color="#839BB8"/><stop offset="1" stop-color="#7595B7"/></linearGradient><linearGradient x1="1164" y1="1311" x2="1164" y2="1466" gradientUnits="userSpaceOnUse" spreadMethod="reflect" id="fill23"><stop offset="0" stop-color="#C0D5ED"/><stop offset="0.5" stop-color="#B5CDEA"/><stop offset="1" stop-color="#A7C7E9"/></linearGradient><linearGradient x1="1299" y1="1311" x2="1299" y2="1466" gradientUnits="userSpaceOnUse" spreadMethod="reflect" id="fill24"><stop offset="0" stop-color="#B1CBE9"/><stop offset="0.5" stop-color="#A3C1E5"/><stop offset="1" stop-color="#92B9E4"/></linearGradient><linearGradient x1="1299" y1="1311" x2="1299" y2="1466" gradientUnits="userSpaceOnUse" spreadMethod="reflect" id="fill25"><stop offset="0" stop-color="#8EA3BB"/><stop offset="0.5" stop-color="#839BB8"/><stop offset="1" stop-color="#7595B7"/></linearGradient><linearGradient x1="1299" y1="1311" x2="1299" y2="1466" gradientUnits="userSpaceOnUse" spreadMethod="reflect" id="fill26"><stop offset="0" stop-color="#C0D5ED"/><stop offset="0.5" stop-color="#B5CDEA"/><stop offset="1" stop-color="#A7C7E9"/></linearGradient><linearGradient x1="1106" y1="1188" x2="1106" y2="1292" gradientUnits="userSpaceOnUse" spreadMethod="reflect" id="fill27"><stop offset="0" stop-color="#B5D5A7"/><stop offset="0.5" stop-color="#AACE99"/><stop offset="1" stop-color="#9CCA86"/></linearGradient><linearGradient x1="1106" y1="1188" x2="1106" y2="1292" gradientUnits="userSpaceOnUse" spreadMethod="reflect" id="fill28"><stop offset="0" stop-color="#92AB86"/><stop offset="0.5" stop-color="#89A67B"/><stop offset="1" stop-color="#7DA26C"/></linearGradient><linearGradient x1="1542" y1="1311" x2="1542" y2="1466" gradientUnits="userSpaceOnUse" spreadMethod="reflect" id="fill29"><stop offset="0" stop-color="#B1CBE9"/><stop offset="0.5" stop-color="#A3C1E5"/><stop offset="1" stop-color="#92B9E4"/></linearGradient><linearGradient x1="1542" y1="1311" x2="1542" y2="1466" gradientUnits="userSpaceOnUse" spreadMethod="reflect" id="fill30"><stop offset="0" stop-color="#8EA3BB"/><stop offset="0.5" stop-color="#839BB8"/><stop offset="1" stop-color="#7595B7"/></linearGradient><linearGradient x1="1542" y1="1311" x2="1542" y2="1466" gradientUnits="userSpaceOnUse" spreadMethod="reflect" id="fill31"><stop offset="0" stop-color="#C0D5ED"/><stop offset="0.5" stop-color="#B5CDEA"/><stop offset="1" stop-color="#A7C7E9"/></linearGradient><linearGradient x1="1678" y1="1311" x2="1678" y2="1466" gradientUnits="userSpaceOnUse" spreadMethod="reflect" id="fill32"><stop offset="0" stop-color="#B1CBE9"/><stop offset="0.5" stop-color="#A3C1E5"/><stop offset="1" stop-color="#92B9E4"/></linearGradient><linearGradient x1="1678" y1="1311" x2="1678" y2="1466" gradientUnits="userSpaceOnUse" spreadMethod="reflect" id="fill33"><stop offset="0" stop-color="#8EA3BB"/><stop offset="0.5" stop-color="#839BB8"/><stop offset="1" stop-color="#7595B7"/></linearGradient><linearGradient x1="1678" y1="1311" x2="1678" y2="1466" gradientUnits="userSpaceOnUse" spreadMethod="reflect" id="fill34"><stop offset="0" stop-color="#C0D5ED"/><stop offset="0.5" stop-color="#B5CDEA"/><stop offset="1" stop-color="#A7C7E9"/></linearGradient><linearGradient x1="1814" y1="1311" x2="1814" y2="1466" gradientUnits="userSpaceOnUse" spreadMethod="reflect" id="fill35"><stop offset="0" stop-color="#B1CBE9"/><stop offset="0.5" stop-color="#A3C1E5"/><stop offset="1" stop-color="#92B9E4"/></linearGradient><linearGradient x1="1814" y1="1311" x2="1814" y2="1466" gradientUnits="userSpaceOnUse" spreadMethod="reflect" id="fill36"><stop offset="0" stop-color="#8EA3BB"/><stop offset="0.5" stop-color="#839BB8"/><stop offset="1" stop-color="#7595B7"/></linearGradient><linearGradient x1="1814" y1="1311" x2="1814" y2="1466" gradientUnits="userSpaceOnUse" spreadMethod="reflect" id="fill37"><stop offset="0" stop-color="#C0D5ED"/><stop offset="0.5" stop-color="#B5CDEA"/><stop offset="1" stop-color="#A7C7E9"/></linearGradient><linearGradient x1="1949" y1="1311" x2="1949" y2="1466" gradientUnits="userSpaceOnUse" spreadMethod="reflect" id="fill38"><stop offset="0" stop-color="#B1CBE9"/><stop offset="0.5" stop-color="#A3C1E5"/><stop offset="1" stop-color="#92B9E4"/></linearGradient><linearGradient x1="1949" y1="1311" x2="1949" y2="1466" gradientUnits="userSpaceOnUse" spreadMethod="reflect" id="fill39"><stop offset="0" stop-color="#8EA3BB"/><stop offset="0.5" stop-color="#839BB8"/><stop offset="1" stop-color="#7595B7"/></linearGradient><linearGradient x1="1949" y1="1311" x2="1949" y2="1466" gradientUnits="userSpaceOnUse" spreadMethod="reflect" id="fill40"><stop offset="0" stop-color="#C0D5ED"/><stop offset="0.5" stop-color="#B5CDEA"/><stop offset="1" stop-color="#A7C7E9"/></linearGradient><linearGradient x1="1755" y1="1188" x2="1755" y2="1292" gradientUnits="userSpaceOnUse" spreadMethod="reflect" id="fill41"><stop offset="0" stop-color="#B5D5A7"/><stop offset="0.5" stop-color="#AACE99"/><stop offset="1" stop-color="#9CCA86"/></linearGradient><linearGradient x1="1755" y1="1188" x2="1755" y2="1292" gradientUnits="userSpaceOnUse" spreadMethod="reflect" id="fill42"><stop offset="0" stop-color="#92AB86"/><stop offset="0.5" stop-color="#89A67B"/><stop offset="1" stop-color="#7DA26C"/></linearGradient><linearGradient x1="2192" y1="1311" x2="2192" y2="1466" gradientUnits="userSpaceOnUse" spreadMethod="reflect" id="fill43"><stop offset="0" stop-color="#B1CBE9"/><stop offset="0.5" stop-color="#A3C1E5"/><stop offset="1" stop-color="#92B9E4"/></linearGradient><linearGradient x1="2192" y1="1311" x2="2192" y2="1466" gradientUnits="userSpaceOnUse" spreadMethod="reflect" id="fill44"><stop offset="0" stop-color="#8EA3BB"/><stop offset="0.5" stop-color="#839BB8"/><stop offset="1" stop-color="#7595B7"/></linearGradient><linearGradient x1="2192" y1="1311" x2="2192" y2="1466" gradientUnits="userSpaceOnUse" spreadMethod="reflect" id="fill45"><stop offset="0" stop-color="#C0D5ED"/><stop offset="0.5" stop-color="#B5CDEA"/><stop offset="1" stop-color="#A7C7E9"/></linearGradient><linearGradient x1="2328" y1="1311" x2="2328" y2="1466" gradientUnits="userSpaceOnUse" spreadMethod="reflect" id="fill46"><stop offset="0" stop-color="#B1CBE9"/><stop offset="0.5" stop-color="#A3C1E5"/><stop offset="1" stop-color="#92B9E4"/></linearGradient><linearGradient x1="2328" y1="1311" x2="2328" y2="1466" gradientUnits="userSpaceOnUse" spreadMethod="reflect" id="fill47"><stop offset="0" stop-color="#8EA3BB"/><stop offset="0.5" stop-color="#839BB8"/><stop offset="1" stop-color="#7595B7"/></linearGradient><linearGradient x1="2328" y1="1311" x2="2328" y2="1466" gradientUnits="userSpaceOnUse" spreadMethod="reflect" id="fill48"><stop offset="0" stop-color="#C0D5ED"/><stop offset="0.5" stop-color="#B5CDEA"/><stop offset="1" stop-color="#A7C7E9"/></linearGradient><linearGradient x1="2463.5" y1="1311" x2="2463.5" y2="1466" gradientUnits="userSpaceOnUse" spreadMethod="reflect" id="fill49"><stop offset="0" stop-color="#B1CBE9"/><stop offset="0.5" stop-color="#A3C1E5"/><stop offset="1" stop-color="#92B9E4"/></linearGradient><linearGradient x1="2463.5" y1="1311" x2="2463.5" y2="1466" gradientUnits="userSpaceOnUse" spreadMethod="reflect" id="fill50"><stop offset="0" stop-color="#8EA3BB"/><stop offset="0.5" stop-color="#839BB8"/><stop offset="1" stop-color="#7595B7"/></linearGradient><linearGradient x1="2463.5" y1="1311" x2="2463.5" y2="1466" gradientUnits="userSpaceOnUse" spreadMethod="reflect" id="fill51"><stop offset="0" stop-color="#C0D5ED"/><stop offset="0.5" stop-color="#B5CDEA"/><stop offset="1" stop-color="#A7C7E9"/></linearGradient><linearGradient x1="2598.5" y1="1311" x2="2598.5" y2="1466" gradientUnits="userSpaceOnUse" spreadMethod="reflect" id="fill52"><stop offset="0" stop-color="#B1CBE9"/><stop offset="0.5" stop-color="#A3C1E5"/><stop offset="1" stop-color="#92B9E4"/></linearGradient><linearGradient x1="2598.5" y1="1311" x2="2598.5" y2="1466" gradientUnits="userSpaceOnUse" spreadMethod="reflect" id="fill53"><stop offset="0" stop-color="#8EA3BB"/><stop offset="0.5" stop-color="#839BB8"/><stop offset="1" stop-color="#7595B7"/></linearGradient><linearGradient x1="2598.5" y1="1311" x2="2598.5" y2="1466" gradientUnits="userSpaceOnUse" spreadMethod="reflect" id="fill54"><stop offset="0" stop-color="#C0D5ED"/><stop offset="0.5" stop-color="#B5CDEA"/><stop offset="1" stop-color="#A7C7E9"/></linearGradient><linearGradient x1="2405" y1="1188" x2="2405" y2="1292" gradientUnits="userSpaceOnUse" spreadMethod="reflect" id="fill55"><stop offset="0" stop-color="#B5D5A7"/><stop offset="0.5" stop-color="#AACE99"/><stop offset="1" stop-color="#9CCA86"/></linearGradient><linearGradient x1="2405" y1="1188" x2="2405" y2="1292" gradientUnits="userSpaceOnUse" spreadMethod="reflect" id="fill56"><stop offset="0" stop-color="#92AB86"/><stop offset="0.5" stop-color="#89A67B"/><stop offset="1" stop-color="#7DA26C"/></linearGradient><linearGradient x1="2841" y1="1311" x2="2841" y2="1466" gradientUnits="userSpaceOnUse" spreadMethod="reflect" id="fill57"><stop offset="0" stop-color="#B1CBE9"/><stop offset="0.5" stop-color="#A3C1E5"/><stop offset="1" stop-color="#92B9E4"/></linearGradient><linearGradient x1="2841" y1="1311" x2="2841" y2="1466" gradientUnits="userSpaceOnUse" spreadMethod="reflect" id="fill58"><stop offset="0" stop-color="#8EA3BB"/><stop offset="0.5" stop-color="#839BB8"/><stop offset="1" stop-color="#7595B7"/></linearGradient><linearGradient x1="2841" y1="1311" x2="2841" y2="1466" gradientUnits="userSpaceOnUse" spreadMethod="reflect" id="fill59"><stop offset="0" stop-color="#C0D5ED"/><stop offset="0.5" stop-color="#B5CDEA"/><stop offset="1" stop-color="#A7C7E9"/></linearGradient><linearGradient x1="2977" y1="1311" x2="2977" y2="1466" gradientUnits="userSpaceOnUse" spreadMethod="reflect" id="fill60"><stop offset="0" stop-color="#B1CBE9"/><stop offset="0.5" stop-color="#A3C1E5"/><stop offset="1" stop-color="#92B9E4"/></linearGradient><linearGradient x1="2977" y1="1311" x2="2977" y2="1466" gradientUnits="userSpaceOnUse" spreadMethod="reflect" id="fill61"><stop offset="0" stop-color="#8EA3BB"/><stop offset="0.5" stop-color="#839BB8"/><stop offset="1" stop-color="#7595B7"/></linearGradient><linearGradient x1="2977" y1="1311" x2="2977" y2="1466" gradientUnits="userSpaceOnUse" spreadMethod="reflect" id="fill62"><stop offset="0" stop-color="#C0D5ED"/><stop offset="0.5" stop-color="#B5CDEA"/><stop offset="1" stop-color="#A7C7E9"/></linearGradient><linearGradient x1="3113" y1="1311" x2="3113" y2="1466" gradientUnits="userSpaceOnUse" spreadMethod="reflect" id="fill63"><stop offset="0" stop-color="#B1CBE9"/><stop offset="0.5" stop-color="#A3C1E5"/><stop offset="1" stop-color="#92B9E4"/></linearGradient><linearGradient x1="3113" y1="1311" x2="3113" y2="1466" gradientUnits="userSpaceOnUse" spreadMethod="reflect" id="fill64"><stop offset="0" stop-color="#8EA3BB"/><stop offset="0.5" stop-color="#839BB8"/><stop offset="1" stop-color="#7595B7"/></linearGradient><linearGradient x1="3113" y1="1311" x2="3113" y2="1466" gradientUnits="userSpaceOnUse" spreadMethod="reflect" id="fill65"><stop offset="0" stop-color="#C0D5ED"/><stop offset="0.5" stop-color="#B5CDEA"/><stop offset="1" stop-color="#A7C7E9"/></linearGradient><linearGradient x1="3248" y1="1311" x2="3248" y2="1466" gradientUnits="userSpaceOnUse" spreadMethod="reflect" id="fill66"><stop offset="0" stop-color="#B1CBE9"/><stop offset="0.5" stop-color="#A3C1E5"/><stop offset="1" stop-color="#92B9E4"/></linearGradient><linearGradient x1="3248" y1="1311" x2="3248" y2="1466" gradientUnits="userSpaceOnUse" spreadMethod="reflect" id="fill67"><stop offset="0" stop-color="#8EA3BB"/><stop offset="0.5" stop-color="#839BB8"/><stop offset="1" stop-color="#7595B7"/></linearGradient><linearGradient x1="3248" y1="1311" x2="3248" y2="1466" gradientUnits="userSpaceOnUse" spreadMethod="reflect" id="fill68"><stop offset="0" stop-color="#C0D5ED"/><stop offset="0.5" stop-color="#B5CDEA"/><stop offset="1" stop-color="#A7C7E9"/></linearGradient><linearGradient x1="3055" y1="1188" x2="3055" y2="1292" gradientUnits="userSpaceOnUse" spreadMethod="reflect" id="fill69"><stop offset="0" stop-color="#B5D5A7"/><stop offset="0.5" stop-color="#AACE99"/><stop offset="1" stop-color="#9CCA86"/></linearGradient><linearGradient x1="3055" y1="1188" x2="3055" y2="1292" gradientUnits="userSpaceOnUse" spreadMethod="reflect" id="fill70"><stop offset="0" stop-color="#92AB86"/><stop offset="0.5" stop-color="#89A67B"/><stop offset="1" stop-color="#7DA26C"/></linearGradient></defs><g clip-path="url(#clip0)" transform="translate(-152 -1173)"><rect x="165" y="1349.75" width="117.25" height="116.25" fill="url(#fill1)"/><path d="M282.25 1349.75 321 1311 321 1427.25 282.25 1466Z" fill="url(#fill2)" fill-rule="evenodd"/><path d="M165 1349.75 203.75 1311 321 1311 282.25 1349.75Z" fill="url(#fill3)" fill-rule="evenodd"/><path d="M165 1349.75 203.75 1311 321 1311 321 1427.25 282.25 1466 165 1466ZM165 1349.75 282.25 1349.75 321 1311M282.25 1349.75 282.25 1466" stroke="#5B9BD5" stroke-width="2.29167" stroke-miterlimit="8" fill="none" fill-rule="evenodd"/><text font-family="Yu Gothic UI,Yu Gothic UI_MSFontService,sans-serif" font-weight="400" font-size="55" transform="matrix(1 0 0 1 198.533 1409)">53<tspan font-size="37" x="-13.6295" y="46">(8bit)</tspan></text><rect x="301" y="1349.75" width="117.25" height="116.25" fill="url(#fill4)"/><path d="M418.25 1349.75 457 1311 457 1427.25 418.25 1466Z" fill="url(#fill5)" fill-rule="evenodd"/><path d="M301 1349.75 339.75 1311 457 1311 418.25 1349.75Z" fill="url(#fill6)" fill-rule="evenodd"/><path d="M301 1349.75 339.75 1311 457 1311 457 1427.25 418.25 1466 301 1466ZM301 1349.75 418.25 1349.75 457 1311M418.25 1349.75 418.25 1466" stroke="#5B9BD5" stroke-width="2.29167" stroke-miterlimit="8" fill="none" fill-rule="evenodd"/><text font-family="Yu Gothic UI,Yu Gothic UI_MSFontService,sans-serif" font-weight="400" font-size="55" transform="matrix(1 0 0 1 334.011 1409)">30<tspan font-size="37" x="-13.0571" y="46">(8bit)</tspan></text><rect x="437" y="1349.75" width="117.25" height="116.25" fill="url(#fill7)"/><path d="M554.25 1349.75 593 1311 593 1427.25 554.25 1466Z" fill="url(#fill8)" fill-rule="evenodd"/><path d="M437 1349.75 475.75 1311 593 1311 554.25 1349.75Z" fill="url(#fill9)" fill-rule="evenodd"/><path d="M437 1349.75 475.75 1311 593 1311 593 1427.25 554.25 1466 437 1466ZM437 1349.75 554.25 1349.75 593 1311M554.25 1349.75 554.25 1466" stroke="#5B9BD5" stroke-width="2.29167" stroke-miterlimit="8" fill="none" fill-rule="evenodd"/><text font-family="Yu Gothic UI,Yu Gothic UI_MSFontService,sans-serif" font-weight="400" font-size="55" transform="matrix(1 0 0 1 470.339 1409)">00<tspan font-size="37" x="-13.6298" y="46">(8bit)</tspan></text><rect x="572" y="1349.75" width="117.25" height="116.25" fill="url(#fill10)"/><path d="M689.25 1349.75 728 1311 728 1427.25 689.25 1466Z" fill="url(#fill11)" fill-rule="evenodd"/><path d="M572 1349.75 610.75 1311 728 1311 689.25 1349.75Z" fill="url(#fill12)" fill-rule="evenodd"/><path d="M572 1349.75 610.75 1311 728 1311 728 1427.25 689.25 1466 572 1466ZM572 1349.75 689.25 1349.75 728 1311M689.25 1349.75 689.25 1466" stroke="#5B9BD5" stroke-width="2.29167" stroke-miterlimit="8" fill="none" fill-rule="evenodd"/><text font-family="Yu Gothic UI,Yu Gothic UI_MSFontService,sans-serif" font-weight="400" font-size="55" transform="matrix(1 0 0 1 605.312 1409)">00<tspan font-size="37" x="-13.6298" y="46">(8bit)</tspan></text><path d="M687 1475C687 1479.69 686.366 1483.5 685.584 1483.5L426.417 1483.5C425.634 1483.5 425 1487.31 425 1492 425 1487.31 424.366 1483.5 423.583 1483.5L164.417 1483.5C163.634 1483.5 163 1479.69 163 1475" stroke="#4472C4" stroke-width="2.29167" stroke-miterlimit="8" fill="none" fill-rule="evenodd"/><text font-family="Yu Gothic UI,Yu Gothic UI_MSFontService,sans-serif" font-weight="400" font-size="37" transform="matrix(1 0 0 1 374.236 1536)">(32bit)</text><path d="M404 1188 508 1188 508 1274.67 490.666 1292 404 1292Z" fill="url(#fill13)" fill-rule="evenodd"/><path d="M490.666 1292 494.133 1278.13 508 1274.67Z" fill="url(#fill14)" fill-rule="evenodd"/><path d="M490.666 1292 494.133 1278.13 508 1274.67 490.666 1292 404 1292 404 1188 508 1188 508 1274.67" stroke="#70AD47" stroke-width="2.29167" stroke-miterlimit="8" fill="none" fill-rule="evenodd"/><text font-family="Yu Gothic UI,Yu Gothic UI_MSFontService,sans-serif" font-weight="400" font-size="64" transform="matrix(1 0 0 1 435.29 1255)">こ</text><rect x="815" y="1349.75" width="116.25" height="116.25" fill="url(#fill15)"/><path d="M931.25 1349.75 970 1311 970 1427.25 931.25 1466Z" fill="url(#fill16)" fill-rule="evenodd"/><path d="M815 1349.75 853.75 1311 970 1311 931.25 1349.75Z" fill="url(#fill17)" fill-rule="evenodd"/><path d="M815 1349.75 853.75 1311 970 1311 970 1427.25 931.25 1466 815 1466ZM815 1349.75 931.25 1349.75 970 1311M931.25 1349.75 931.25 1466" stroke="#5B9BD5" stroke-width="2.29167" stroke-miterlimit="8" fill="none" fill-rule="evenodd"/><text font-family="Yu Gothic UI,Yu Gothic UI_MSFontService,sans-serif" font-weight="400" font-size="55" transform="matrix(1 0 0 1 848.139 1409)">93<tspan font-size="37" x="-13.6298" y="46">(8bit)</tspan></text><rect x="951" y="1349.75" width="116.25" height="116.25" fill="url(#fill18)"/><path d="M1067.25 1349.75 1106 1311 1106 1427.25 1067.25 1466Z" fill="url(#fill19)" fill-rule="evenodd"/><path d="M951 1349.75 989.75 1311 1106 1311 1067.25 1349.75Z" fill="url(#fill20)" fill-rule="evenodd"/><path d="M951 1349.75 989.75 1311 1106 1311 1106 1427.25 1067.25 1466 951 1466ZM951 1349.75 1067.25 1349.75 1106 1311M1067.25 1349.75 1067.25 1466" stroke="#5B9BD5" stroke-width="2.29167" stroke-miterlimit="8" fill="none" fill-rule="evenodd"/><text font-family="Yu Gothic UI,Yu Gothic UI_MSFontService,sans-serif" font-weight="400" font-size="55" transform="matrix(1 0 0 1 984.19 1409)">3<tspan font-size="55" x="29.7917" y="0">0</tspan><tspan font-size="37" x="-13.6298" y="46">(8bit)</tspan></text><rect x="1086" y="1349.75" width="117.25" height="116.25" fill="url(#fill21)"/><path d="M1203.25 1349.75 1242 1311 1242 1427.25 1203.25 1466Z" fill="url(#fill22)" fill-rule="evenodd"/><path d="M1086 1349.75 1124.75 1311 1242 1311 1203.25 1349.75Z" fill="url(#fill23)" fill-rule="evenodd"/><path d="M1086 1349.75 1124.75 1311 1242 1311 1242 1427.25 1203.25 1466 1086 1466ZM1086 1349.75 1203.25 1349.75 1242 1311M1203.25 1349.75 1203.25 1466" stroke="#5B9BD5" stroke-width="2.29167" stroke-miterlimit="8" fill="none" fill-rule="evenodd"/><text font-family="Yu Gothic UI,Yu Gothic UI_MSFontService,sans-serif" font-weight="400" font-size="55" transform="matrix(1 0 0 1 1119.95 1409)">00<tspan font-size="37" x="-13.6299" y="46">(8bit)</tspan></text><rect x="1221" y="1349.75" width="117.25" height="116.25" fill="url(#fill24)"/><path d="M1338.25 1349.75 1377 1311 1377 1427.25 1338.25 1466Z" fill="url(#fill25)" fill-rule="evenodd"/><path d="M1221 1349.75 1259.75 1311 1377 1311 1338.25 1349.75Z" fill="url(#fill26)" fill-rule="evenodd"/><path d="M1221 1349.75 1259.75 1311 1377 1311 1377 1427.25 1338.25 1466 1221 1466ZM1221 1349.75 1338.25 1349.75 1377 1311M1338.25 1349.75 1338.25 1466" stroke="#5B9BD5" stroke-width="2.29167" stroke-miterlimit="8" fill="none" fill-rule="evenodd"/><text font-family="Yu Gothic UI,Yu Gothic UI_MSFontService,sans-serif" font-weight="400" font-size="55" transform="matrix(1 0 0 1 1254.92 1409)">00<tspan font-size="37" x="-13.6301" y="46">(8bit)</tspan></text><path d="M1337 1475C1337 1479.69 1336.37 1483.5 1335.58 1483.5L1075.92 1483.5C1075.13 1483.5 1074.5 1487.31 1074.5 1492 1074.5 1487.31 1073.87 1483.5 1073.08 1483.5L813.416 1483.5C812.634 1483.5 812 1479.69 812 1475" stroke="#4472C4" stroke-width="2.29167" stroke-miterlimit="8" fill="none" fill-rule="evenodd"/><text font-family="Yu Gothic UI,Yu Gothic UI_MSFontService,sans-serif" font-weight="400" font-size="37" transform="matrix(1 0 0 1 1023.84 1536)">(32bit)</text><path d="M1054 1188 1158 1188 1158 1274.67 1140.67 1292 1054 1292Z" fill="url(#fill27)" fill-rule="evenodd"/><path d="M1140.67 1292 1144.13 1278.13 1158 1274.67Z" fill="url(#fill28)" fill-rule="evenodd"/><path d="M1140.67 1292 1144.13 1278.13 1158 1274.67 1140.67 1292 1054 1292 1054 1188 1158 1188 1158 1274.67" stroke="#70AD47" stroke-width="2.29167" stroke-miterlimit="8" fill="none" fill-rule="evenodd"/><text font-family="Yu Gothic UI,Yu Gothic UI_MSFontService,sans-serif" font-weight="400" font-size="64" transform="matrix(1 0 0 1 1079.74 1255)">ん</text><rect x="1464" y="1349.75" width="117.25" height="116.25" fill="url(#fill29)"/><path d="M1581.25 1349.75 1620 1311 1620 1427.25 1581.25 1466Z" fill="url(#fill30)" fill-rule="evenodd"/><path d="M1464 1349.75 1502.75 1311 1620 1311 1581.25 1349.75Z" fill="url(#fill31)" fill-rule="evenodd"/><path d="M1464 1349.75 1502.75 1311 1620 1311 1620 1427.25 1581.25 1466 1464 1466ZM1464 1349.75 1581.25 1349.75 1620 1311M1581.25 1349.75 1581.25 1466" stroke="#5B9BD5" stroke-width="2.29167" stroke-miterlimit="8" fill="none" fill-rule="evenodd"/><text font-family="Yu Gothic UI,Yu Gothic UI_MSFontService,sans-serif" font-weight="400" font-size="55" transform="matrix(1 0 0 1 1497.75 1409)">68<tspan font-size="37" x="-13.6299" y="46">(8bit)</tspan></text><rect x="1600" y="1349.75" width="117.25" height="116.25" fill="url(#fill32)"/><path d="M1717.25 1349.75 1756 1311 1756 1427.25 1717.25 1466Z" fill="url(#fill33)" fill-rule="evenodd"/><path d="M1600 1349.75 1638.75 1311 1756 1311 1717.25 1349.75Z" fill="url(#fill34)" fill-rule="evenodd"/><path d="M1600 1349.75 1638.75 1311 1756 1311 1756 1427.25 1717.25 1466 1600 1466ZM1600 1349.75 1717.25 1349.75 1756 1311M1717.25 1349.75 1717.25 1466" stroke="#5B9BD5" stroke-width="2.29167" stroke-miterlimit="8" fill="none" fill-rule="evenodd"/><text font-family="Yu Gothic UI,Yu Gothic UI_MSFontService,sans-serif" font-weight="400" font-size="55" transform="matrix(1 0 0 1 1633.8 1409)">3<tspan font-size="55" x="29.7918" y="0">0</tspan><tspan font-size="37" x="-13.6298" y="46">(8bit)</tspan></text><rect x="1736" y="1349.75" width="117.25" height="116.25" fill="url(#fill35)"/><path d="M1853.25 1349.75 1892 1311 1892 1427.25 1853.25 1466Z" fill="url(#fill36)" fill-rule="evenodd"/><path d="M1736 1349.75 1774.75 1311 1892 1311 1853.25 1349.75Z" fill="url(#fill37)" fill-rule="evenodd"/><path d="M1736 1349.75 1774.75 1311 1892 1311 1892 1427.25 1853.25 1466 1736 1466ZM1736 1349.75 1853.25 1349.75 1892 1311M1853.25 1349.75 1853.25 1466" stroke="#5B9BD5" stroke-width="2.29167" stroke-miterlimit="8" fill="none" fill-rule="evenodd"/><text font-family="Yu Gothic UI,Yu Gothic UI_MSFontService,sans-serif" font-weight="400" font-size="55" transform="matrix(1 0 0 1 1769.55 1409)">00<tspan font-size="37" x="-13.6298" y="46">(8bit)</tspan></text><rect x="1871" y="1349.75" width="117.25" height="116.25" fill="url(#fill38)"/><path d="M1988.25 1349.75 2027 1311 2027 1427.25 1988.25 1466Z" fill="url(#fill39)" fill-rule="evenodd"/><path d="M1871 1349.75 1909.75 1311 2027 1311 1988.25 1349.75Z" fill="url(#fill40)" fill-rule="evenodd"/><path d="M1871 1349.75 1909.75 1311 2027 1311 2027 1427.25 1988.25 1466 1871 1466ZM1871 1349.75 1988.25 1349.75 2027 1311M1988.25 1349.75 1988.25 1466" stroke="#5B9BD5" stroke-width="2.29167" stroke-miterlimit="8" fill="none" fill-rule="evenodd"/><text font-family="Yu Gothic UI,Yu Gothic UI_MSFontService,sans-serif" font-weight="400" font-size="55" transform="matrix(1 0 0 1 1904.52 1409)">00<tspan font-size="37" x="-13.6298" y="46">(8bit)</tspan></text><path d="M1987 1475C1987 1479.69 1986.37 1483.5 1985.58 1483.5L1725.92 1483.5C1725.13 1483.5 1724.5 1487.31 1724.5 1492 1724.5 1487.31 1723.87 1483.5 1723.08 1483.5L1463.42 1483.5C1462.63 1483.5 1462 1479.69 1462 1475" stroke="#4472C4" stroke-width="2.29167" stroke-miterlimit="8" fill="none" fill-rule="evenodd"/><text font-family="Yu Gothic UI,Yu Gothic UI_MSFontService,sans-serif" font-weight="400" font-size="37" transform="matrix(1 0 0 1 1673.45 1536)">(32bit)</text><path d="M1703 1188 1807 1188 1807 1274.67 1789.67 1292 1703 1292Z" fill="url(#fill41)" fill-rule="evenodd"/><path d="M1789.67 1292 1793.13 1278.13 1807 1274.67Z" fill="url(#fill42)" fill-rule="evenodd"/><path d="M1789.67 1292 1793.13 1278.13 1807 1274.67 1789.67 1292 1703 1292 1703 1188 1807 1188 1807 1274.67" stroke="#70AD47" stroke-width="2.29167" stroke-miterlimit="8" fill="none" fill-rule="evenodd"/><text font-family="Yu Gothic UI,Yu Gothic UI_MSFontService,sans-serif" font-weight="400" font-size="64" transform="matrix(1 0 0 1 1730.49 1255)">に</text><rect x="2114" y="1349.75" width="117.25" height="116.25" fill="url(#fill43)"/><path d="M2231.25 1349.75 2270 1311 2270 1427.25 2231.25 1466Z" fill="url(#fill44)" fill-rule="evenodd"/><path d="M2114 1349.75 2152.75 1311 2270 1311 2231.25 1349.75Z" fill="url(#fill45)" fill-rule="evenodd"/><path d="M2114 1349.75 2152.75 1311 2270 1311 2270 1427.25 2231.25 1466 2114 1466ZM2114 1349.75 2231.25 1349.75 2270 1311M2231.25 1349.75 2231.25 1466" stroke="#5B9BD5" stroke-width="2.29167" stroke-miterlimit="8" fill="none" fill-rule="evenodd"/><text font-family="Yu Gothic UI,Yu Gothic UI_MSFontService,sans-serif" font-weight="400" font-size="55" transform="matrix(1 0 0 1 2147.35 1409)">61<tspan font-size="37" x="-13.6299" y="46">(8bit)</tspan></text><rect x="2250" y="1349.75" width="117.25" height="116.25" fill="url(#fill46)"/><path d="M2367.25 1349.75 2406 1311 2406 1427.25 2367.25 1466Z" fill="url(#fill47)" fill-rule="evenodd"/><path d="M2250 1349.75 2288.75 1311 2406 1311 2367.25 1349.75Z" fill="url(#fill48)" fill-rule="evenodd"/><path d="M2250 1349.75 2288.75 1311 2406 1311 2406 1427.25 2367.25 1466 2250 1466ZM2250 1349.75 2367.25 1349.75 2406 1311M2367.25 1349.75 2367.25 1466" stroke="#5B9BD5" stroke-width="2.29167" stroke-miterlimit="8" fill="none" fill-rule="evenodd"/><text font-family="Yu Gothic UI,Yu Gothic UI_MSFontService,sans-serif" font-weight="400" font-size="55" transform="matrix(1 0 0 1 2283.4 1409)">3<tspan font-size="55" x="29.7918" y="0">0</tspan><tspan font-size="37" x="-13.6299" y="46">(8bit)</tspan></text><rect x="2386" y="1349.75" width="116.25" height="116.25" fill="url(#fill49)"/><path d="M2502.25 1349.75 2541 1311 2541 1427.25 2502.25 1466Z" fill="url(#fill50)" fill-rule="evenodd"/><path d="M2386 1349.75 2424.75 1311 2541 1311 2502.25 1349.75Z" fill="url(#fill51)" fill-rule="evenodd"/><path d="M2386 1349.75 2424.75 1311 2541 1311 2541 1427.25 2502.25 1466 2386 1466ZM2386 1349.75 2502.25 1349.75 2541 1311M2502.25 1349.75 2502.25 1466" stroke="#5B9BD5" stroke-width="2.29167" stroke-miterlimit="8" fill="none" fill-rule="evenodd"/><text font-family="Yu Gothic UI,Yu Gothic UI_MSFontService,sans-serif" font-weight="400" font-size="55" transform="matrix(1 0 0 1 2419.16 1409)">00<tspan font-size="37" x="-13.6299" y="46">(8bit)</tspan></text><rect x="2521" y="1349.75" width="116.25" height="116.25" fill="url(#fill52)"/><path d="M2637.25 1349.75 2676 1311 2676 1427.25 2637.25 1466Z" fill="url(#fill53)" fill-rule="evenodd"/><path d="M2521 1349.75 2559.75 1311 2676 1311 2637.25 1349.75Z" fill="url(#fill54)" fill-rule="evenodd"/><path d="M2521 1349.75 2559.75 1311 2676 1311 2676 1427.25 2637.25 1466 2521 1466ZM2521 1349.75 2637.25 1349.75 2676 1311M2637.25 1349.75 2637.25 1466" stroke="#5B9BD5" stroke-width="2.29167" stroke-miterlimit="8" fill="none" fill-rule="evenodd"/><text font-family="Yu Gothic UI,Yu Gothic UI_MSFontService,sans-serif" font-weight="400" font-size="55" transform="matrix(1 0 0 1 2554.13 1409)">00<tspan font-size="37" x="-13.6296" y="46">(8bit)</tspan></text><path d="M2636 1475C2636 1479.69 2635.37 1483.5 2634.58 1483.5L2375.42 1483.5C2374.63 1483.5 2374 1487.31 2374 1492 2374 1487.31 2373.37 1483.5 2372.58 1483.5L2113.42 1483.5C2112.63 1483.5 2112 1479.69 2112 1475" stroke="#4472C4" stroke-width="2.29167" stroke-miterlimit="8" fill="none" fill-rule="evenodd"/><text font-family="Yu Gothic UI,Yu Gothic UI_MSFontService,sans-serif" font-weight="400" font-size="37" transform="matrix(1 0 0 1 2323.05 1536)">(32bit)</text><path d="M2353 1188 2457 1188 2457 1274.67 2439.67 1292 2353 1292Z" fill="url(#fill55)" fill-rule="evenodd"/><path d="M2439.67 1292 2443.13 1278.13 2457 1274.67Z" fill="url(#fill56)" fill-rule="evenodd"/><path d="M2439.67 1292 2443.13 1278.13 2457 1274.67 2439.67 1292 2353 1292 2353 1188 2457 1188 2457 1274.67" stroke="#70AD47" stroke-width="2.29167" stroke-miterlimit="8" fill="none" fill-rule="evenodd"/><text font-family="Yu Gothic UI,Yu Gothic UI_MSFontService,sans-serif" font-weight="400" font-size="64" transform="matrix(1 0 0 1 2380.96 1255)">ち</text><rect x="2763" y="1349.75" width="117.25" height="116.25" fill="url(#fill57)"/><path d="M2880.25 1349.75 2919 1311 2919 1427.25 2880.25 1466Z" fill="url(#fill58)" fill-rule="evenodd"/><path d="M2763 1349.75 2801.75 1311 2919 1311 2880.25 1349.75Z" fill="url(#fill59)" fill-rule="evenodd"/><path d="M2763 1349.75 2801.75 1311 2919 1311 2919 1427.25 2880.25 1466 2763 1466ZM2763 1349.75 2880.25 1349.75 2919 1311M2880.25 1349.75 2880.25 1466" stroke="#5B9BD5" stroke-width="2.29167" stroke-miterlimit="8" fill="none" fill-rule="evenodd"/><text font-family="Yu Gothic UI,Yu Gothic UI_MSFontService,sans-serif" font-weight="400" font-size="55" transform="matrix(1 0 0 1 2798.45 1409)">6F<tspan font-size="37" x="-15.062" y="46">(8bit)</tspan></text><rect x="2899" y="1349.75" width="117.25" height="116.25" fill="url(#fill60)"/><path d="M3016.25 1349.75 3055 1311 3055 1427.25 3016.25 1466Z" fill="url(#fill61)" fill-rule="evenodd"/><path d="M2899 1349.75 2937.75 1311 3055 1311 3016.25 1349.75Z" fill="url(#fill62)" fill-rule="evenodd"/><path d="M2899 1349.75 2937.75 1311 3055 1311 3055 1427.25 3016.25 1466 2899 1466ZM2899 1349.75 3016.25 1349.75 3055 1311M3016.25 1349.75 3016.25 1466" stroke="#5B9BD5" stroke-width="2.29167" stroke-miterlimit="8" fill="none" fill-rule="evenodd"/><text font-family="Yu Gothic UI,Yu Gothic UI_MSFontService,sans-serif" font-weight="400" font-size="55" transform="matrix(1 0 0 1 2933.07 1409)">3<tspan font-size="55" x="29.7915" y="0">0</tspan><tspan font-size="37" x="-13.6299" y="46">(8bit)</tspan></text><rect x="3035" y="1349.75" width="117.25" height="116.25" fill="url(#fill63)"/><path d="M3152.25 1349.75 3191 1311 3191 1427.25 3152.25 1466Z" fill="url(#fill64)" fill-rule="evenodd"/><path d="M3035 1349.75 3073.75 1311 3191 1311 3152.25 1349.75Z" fill="url(#fill65)" fill-rule="evenodd"/><path d="M3035 1349.75 3073.75 1311 3191 1311 3191 1427.25 3152.25 1466 3035 1466ZM3035 1349.75 3152.25 1349.75 3191 1311M3152.25 1349.75 3152.25 1466" stroke="#5B9BD5" stroke-width="2.29167" stroke-miterlimit="8" fill="none" fill-rule="evenodd"/><text font-family="Yu Gothic UI,Yu Gothic UI_MSFontService,sans-serif" font-weight="400" font-size="55" transform="matrix(1 0 0 1 3068.82 1409)">00<tspan font-size="37" x="-13.6299" y="46">(8bit)</tspan></text><rect x="3170" y="1349.75" width="117.25" height="116.25" fill="url(#fill66)"/><path d="M3287.25 1349.75 3326 1311 3326 1427.25 3287.25 1466Z" fill="url(#fill67)" fill-rule="evenodd"/><path d="M3170 1349.75 3208.75 1311 3326 1311 3287.25 1349.75Z" fill="url(#fill68)" fill-rule="evenodd"/><path d="M3170 1349.75 3208.75 1311 3326 1311 3326 1427.25 3287.25 1466 3170 1466ZM3170 1349.75 3287.25 1349.75 3326 1311M3287.25 1349.75 3287.25 1466" stroke="#5B9BD5" stroke-width="2.29167" stroke-miterlimit="8" fill="none" fill-rule="evenodd"/><text font-family="Yu Gothic UI,Yu Gothic UI_MSFontService,sans-serif" font-weight="400" font-size="55" transform="matrix(1 0 0 1 3203.79 1409)">00<tspan font-size="37" x="-13.6299" y="46">(8bit)</tspan></text><path d="M3286 1475C3286 1479.69 3285.37 1483.5 3284.58 1483.5L3024.92 1483.5C3024.13 1483.5 3023.5 1487.31 3023.5 1492 3023.5 1487.31 3022.87 1483.5 3022.08 1483.5L2762.42 1483.5C2761.63 1483.5 2761 1479.69 2761 1475" stroke="#4472C4" stroke-width="2.29167" stroke-miterlimit="8" fill="none" fill-rule="evenodd"/><text font-family="Yu Gothic UI,Yu Gothic UI_MSFontService,sans-serif" font-weight="400" font-size="37" transform="matrix(1 0 0 1 2972.72 1536)">(32bit)</text><path d="M3003 1188 3107 1188 3107 1274.67 3089.67 1292 3003 1292Z" fill="url(#fill69)" fill-rule="evenodd"/><path d="M3089.67 1292 3093.13 1278.13 3107 1274.67Z" fill="url(#fill70)" fill-rule="evenodd"/><path d="M3089.67 1292 3093.13 1278.13 3107 1274.67 3089.67 1292 3003 1292 3003 1188 3107 1188 3107 1274.67" stroke="#70AD47" stroke-width="2.29167" stroke-miterlimit="8" fill="none" fill-rule="evenodd"/><text font-family="Yu Gothic UI,Yu Gothic UI_MSFontService,sans-serif" font-weight="400" font-size="64" transform="matrix(1 0 0 1 3027.18 1255)">は</text></g></svg>