<svg width="2401" height="314" xmlns="http://www.w3.org/2000/svg" xmlns:xlink="http://www.w3.org/1999/xlink" xml:space="preserve" overflow="hidden"><defs><clipPath id="clip0"><rect x="307" y="853" width="2401" height="314"/></clipPath><linearGradient x1="398" y1="992" x2="398" y2="1148" gradientUnits="userSpaceOnUse" spreadMethod="reflect" id="fill1"><stop offset="0" stop-color="#B1CBE9"/><stop offset="0.5" stop-color="#A3C1E5"/><stop offset="1" stop-color="#92B9E4"/></linearGradient><linearGradient x1="398" y1="992" x2="398" y2="1148" gradientUnits="userSpaceOnUse" spreadMethod="reflect" id="fill2"><stop offset="0" stop-color="#8EA3BB"/><stop offset="0.5" stop-color="#839BB8"/><stop offset="1" stop-color="#7595B7"/></linearGradient><linearGradient x1="398" y1="992" x2="398" y2="1148" gradientUnits="userSpaceOnUse" spreadMethod="reflect" id="fill3"><stop offset="0" stop-color="#C0D5ED"/><stop offset="0.5" stop-color="#B5CDEA"/><stop offset="1" stop-color="#A7C7E9"/></linearGradient><linearGradient x1="534" y1="992" x2="534" y2="1148" gradientUnits="userSpaceOnUse" spreadMethod="reflect" id="fill4"><stop offset="0" stop-color="#B1CBE9"/><stop offset="0.5" stop-color="#A3C1E5"/><stop offset="1" stop-color="#92B9E4"/></linearGradient><linearGradient x1="534" y1="992" x2="534" y2="1148" gradientUnits="userSpaceOnUse" spreadMethod="reflect" id="fill5"><stop offset="0" stop-color="#8EA3BB"/><stop offset="0.5" stop-color="#839BB8"/><stop offset="1" stop-color="#7595B7"/></linearGradient><linearGradient x1="534" y1="992" x2="534" y2="1148" gradientUnits="userSpaceOnUse" spreadMethod="reflect" id="fill6"><stop offset="0" stop-color="#C0D5ED"/><stop offset="0.5" stop-color="#B5CDEA"/><stop offset="1" stop-color="#A7C7E9"/></linearGradient><linearGradient x1="670" y1="992" x2="670" y2="1148" gradientUnits="userSpaceOnUse" spreadMethod="reflect" id="fill7"><stop offset="0" stop-color="#B1CBE9"/><stop offset="0.5" stop-color="#A3C1E5"/><stop offset="1" stop-color="#92B9E4"/></linearGradient><linearGradient x1="670" y1="992" x2="670" y2="1148" gradientUnits="userSpaceOnUse" spreadMethod="reflect" id="fill8"><stop offset="0" stop-color="#8EA3BB"/><stop offset="0.5" stop-color="#839BB8"/><stop offset="1" stop-color="#7595B7"/></linearGradient><linearGradient x1="670" y1="992" x2="670" y2="1148" gradientUnits="userSpaceOnUse" spreadMethod="reflect" id="fill9"><stop offset="0" stop-color="#C0D5ED"/><stop offset="0.5" stop-color="#B5CDEA"/><stop offset="1" stop-color="#A7C7E9"/></linearGradient><linearGradient x1="886.5" y1="992" x2="886.5" y2="1148" gradientUnits="userSpaceOnUse" spreadMethod="reflect" id="fill10"><stop offset="0" stop-color="#B1CBE9"/><stop offset="0.5" stop-color="#A3C1E5"/><stop offset="1" stop-color="#92B9E4"/></linearGradient><linearGradient x1="886.5" y1="992" x2="886.5" y2="1148" gradientUnits="userSpaceOnUse" spreadMethod="reflect" id="fill11"><stop offset="0" stop-color="#8EA3BB"/><stop offset="0.5" stop-color="#839BB8"/><stop offset="1" stop-color="#7595B7"/></linearGradient><linearGradient x1="886.5" y1="992" x2="886.5" y2="1148" gradientUnits="userSpaceOnUse" spreadMethod="reflect" id="fill12"><stop offset="0" stop-color="#C0D5ED"/><stop offset="0.5" stop-color="#B5CDEA"/><stop offset="1" stop-color="#A7C7E9"/></linearGradient><linearGradient x1="1023" y1="992" x2="1023" y2="1148" gradientUnits="userSpaceOnUse" spreadMethod="reflect" id="fill13"><stop offset="0" stop-color="#B1CBE9"/><stop offset="0.5" stop-color="#A3C1E5"/><stop offset="1" stop-color="#92B9E4"/></linearGradient><linearGradient x1="1023" y1="992" x2="1023" y2="1148" gradientUnits="userSpaceOnUse" spreadMethod="reflect" id="fill14"><stop offset="0" stop-color="#8EA3BB"/><stop offset="0.5" stop-color="#839BB8"/><stop offset="1" stop-color="#7595B7"/></linearGradient><linearGradient x1="1023" y1="992" x2="1023" y2="1148" gradientUnits="userSpaceOnUse" spreadMethod="reflect" id="fill15"><stop offset="0" stop-color="#C0D5ED"/><stop offset="0.5" stop-color="#B5CDEA"/><stop offset="1" stop-color="#A7C7E9"/></linearGradient><linearGradient x1="1158" y1="992" x2="1158" y2="1148" gradientUnits="userSpaceOnUse" spreadMethod="reflect" id="fill16"><stop offset="0" stop-color="#B1CBE9"/><stop offset="0.5" stop-color="#A3C1E5"/><stop offset="1" stop-color="#92B9E4"/></linearGradient><linearGradient x1="1158" y1="992" x2="1158" y2="1148" gradientUnits="userSpaceOnUse" spreadMethod="reflect" id="fill17"><stop offset="0" stop-color="#8EA3BB"/><stop offset="0.5" stop-color="#839BB8"/><stop offset="1" stop-color="#7595B7"/></linearGradient><linearGradient x1="1158" y1="992" x2="1158" y2="1148" gradientUnits="userSpaceOnUse" spreadMethod="reflect" id="fill18"><stop offset="0" stop-color="#C0D5ED"/><stop offset="0.5" stop-color="#B5CDEA"/><stop offset="1" stop-color="#A7C7E9"/></linearGradient><linearGradient x1="1378" y1="992" x2="1378" y2="1148" gradientUnits="userSpaceOnUse" spreadMethod="reflect" id="fill19"><stop offset="0" stop-color="#B1CBE9"/><stop offset="0.5" stop-color="#A3C1E5"/><stop offset="1" stop-color="#92B9E4"/></linearGradient><linearGradient x1="1378" y1="992" x2="1378" y2="1148" gradientUnits="userSpaceOnUse" spreadMethod="reflect" id="fill20"><stop offset="0" stop-color="#8EA3BB"/><stop offset="0.5" stop-color="#839BB8"/><stop offset="1" stop-color="#7595B7"/></linearGradient><linearGradient x1="1378" y1="992" x2="1378" y2="1148" gradientUnits="userSpaceOnUse" spreadMethod="reflect" id="fill21"><stop offset="0" stop-color="#C0D5ED"/><stop offset="0.5" stop-color="#B5CDEA"/><stop offset="1" stop-color="#A7C7E9"/></linearGradient><linearGradient x1="1514" y1="992" x2="1514" y2="1148" gradientUnits="userSpaceOnUse" spreadMethod="reflect" id="fill22"><stop offset="0" stop-color="#B1CBE9"/><stop offset="0.5" stop-color="#A3C1E5"/><stop offset="1" stop-color="#92B9E4"/></linearGradient><linearGradient x1="1514" y1="992" x2="1514" y2="1148" gradientUnits="userSpaceOnUse" spreadMethod="reflect" id="fill23"><stop offset="0" stop-color="#8EA3BB"/><stop offset="0.5" stop-color="#839BB8"/><stop offset="1" stop-color="#7595B7"/></linearGradient><linearGradient x1="1514" y1="992" x2="1514" y2="1148" gradientUnits="userSpaceOnUse" spreadMethod="reflect" id="fill24"><stop offset="0" stop-color="#C0D5ED"/><stop offset="0.5" stop-color="#B5CDEA"/><stop offset="1" stop-color="#A7C7E9"/></linearGradient><linearGradient x1="1650" y1="992" x2="1650" y2="1148" gradientUnits="userSpaceOnUse" spreadMethod="reflect" id="fill25"><stop offset="0" stop-color="#B1CBE9"/><stop offset="0.5" stop-color="#A3C1E5"/><stop offset="1" stop-color="#92B9E4"/></linearGradient><linearGradient x1="1650" y1="992" x2="1650" y2="1148" gradientUnits="userSpaceOnUse" spreadMethod="reflect" id="fill26"><stop offset="0" stop-color="#8EA3BB"/><stop offset="0.5" stop-color="#839BB8"/><stop offset="1" stop-color="#7595B7"/></linearGradient><linearGradient x1="1650" y1="992" x2="1650" y2="1148" gradientUnits="userSpaceOnUse" spreadMethod="reflect" id="fill27"><stop offset="0" stop-color="#C0D5ED"/><stop offset="0.5" stop-color="#B5CDEA"/><stop offset="1" stop-color="#A7C7E9"/></linearGradient><linearGradient x1="1867" y1="992" x2="1867" y2="1148" gradientUnits="userSpaceOnUse" spreadMethod="reflect" id="fill28"><stop offset="0" stop-color="#B1CBE9"/><stop offset="0.5" stop-color="#A3C1E5"/><stop offset="1" stop-color="#92B9E4"/></linearGradient><linearGradient x1="1867" y1="992" x2="1867" y2="1148" gradientUnits="userSpaceOnUse" spreadMethod="reflect" id="fill29"><stop offset="0" stop-color="#8EA3BB"/><stop offset="0.5" stop-color="#839BB8"/><stop offset="1" stop-color="#7595B7"/></linearGradient><linearGradient x1="1867" y1="992" x2="1867" y2="1148" gradientUnits="userSpaceOnUse" spreadMethod="reflect" id="fill30"><stop offset="0" stop-color="#C0D5ED"/><stop offset="0.5" stop-color="#B5CDEA"/><stop offset="1" stop-color="#A7C7E9"/></linearGradient><linearGradient x1="2003" y1="992" x2="2003" y2="1148" gradientUnits="userSpaceOnUse" spreadMethod="reflect" id="fill31"><stop offset="0" stop-color="#B1CBE9"/><stop offset="0.5" stop-color="#A3C1E5"/><stop offset="1" stop-color="#92B9E4"/></linearGradient><linearGradient x1="2003" y1="992" x2="2003" y2="1148" gradientUnits="userSpaceOnUse" spreadMethod="reflect" id="fill32"><stop offset="0" stop-color="#8EA3BB"/><stop offset="0.5" stop-color="#839BB8"/><stop offset="1" stop-color="#7595B7"/></linearGradient><linearGradient x1="2003" y1="992" x2="2003" y2="1148" gradientUnits="userSpaceOnUse" spreadMethod="reflect" id="fill33"><stop offset="0" stop-color="#C0D5ED"/><stop offset="0.5" stop-color="#B5CDEA"/><stop offset="1" stop-color="#A7C7E9"/></linearGradient><linearGradient x1="2139" y1="992" x2="2139" y2="1148" gradientUnits="userSpaceOnUse" spreadMethod="reflect" id="fill34"><stop offset="0" stop-color="#B1CBE9"/><stop offset="0.5" stop-color="#A3C1E5"/><stop offset="1" stop-color="#92B9E4"/></linearGradient><linearGradient x1="2139" y1="992" x2="2139" y2="1148" gradientUnits="userSpaceOnUse" spreadMethod="reflect" id="fill35"><stop offset="0" stop-color="#8EA3BB"/><stop offset="0.5" stop-color="#839BB8"/><stop offset="1" stop-color="#7595B7"/></linearGradient><linearGradient x1="2139" y1="992" x2="2139" y2="1148" gradientUnits="userSpaceOnUse" spreadMethod="reflect" id="fill36"><stop offset="0" stop-color="#C0D5ED"/><stop offset="0.5" stop-color="#B5CDEA"/><stop offset="1" stop-color="#A7C7E9"/></linearGradient><linearGradient x1="2358" y1="992" x2="2358" y2="1148" gradientUnits="userSpaceOnUse" spreadMethod="reflect" id="fill37"><stop offset="0" stop-color="#B1CBE9"/><stop offset="0.5" stop-color="#A3C1E5"/><stop offset="1" stop-color="#92B9E4"/></linearGradient><linearGradient x1="2358" y1="992" x2="2358" y2="1148" gradientUnits="userSpaceOnUse" spreadMethod="reflect" id="fill38"><stop offset="0" stop-color="#8EA3BB"/><stop offset="0.5" stop-color="#839BB8"/><stop offset="1" stop-color="#7595B7"/></linearGradient><linearGradient x1="2358" y1="992" x2="2358" y2="1148" gradientUnits="userSpaceOnUse" spreadMethod="reflect" id="fill39"><stop offset="0" stop-color="#C0D5ED"/><stop offset="0.5" stop-color="#B5CDEA"/><stop offset="1" stop-color="#A7C7E9"/></linearGradient><linearGradient x1="2494" y1="992" x2="2494" y2="1148" gradientUnits="userSpaceOnUse" spreadMethod="reflect" id="fill40"><stop offset="0" stop-color="#B1CBE9"/><stop offset="0.5" stop-color="#A3C1E5"/><stop offset="1" stop-color="#92B9E4"/></linearGradient><linearGradient x1="2494" y1="992" x2="2494" y2="1148" gradientUnits="userSpaceOnUse" spreadMethod="reflect" id="fill41"><stop offset="0" stop-color="#8EA3BB"/><stop offset="0.5" stop-color="#839BB8"/><stop offset="1" stop-color="#7595B7"/></linearGradient><linearGradient x1="2494" y1="992" x2="2494" y2="1148" gradientUnits="userSpaceOnUse" spreadMethod="reflect" id="fill42"><stop offset="0" stop-color="#C0D5ED"/><stop offset="0.5" stop-color="#B5CDEA"/><stop offset="1" stop-color="#A7C7E9"/></linearGradient><linearGradient x1="2629" y1="992" x2="2629" y2="1148" gradientUnits="userSpaceOnUse" spreadMethod="reflect" id="fill43"><stop offset="0" stop-color="#B1CBE9"/><stop offset="0.5" stop-color="#A3C1E5"/><stop offset="1" stop-color="#92B9E4"/></linearGradient><linearGradient x1="2629" y1="992" x2="2629" y2="1148" gradientUnits="userSpaceOnUse" spreadMethod="reflect" id="fill44"><stop offset="0" stop-color="#8EA3BB"/><stop offset="0.5" stop-color="#839BB8"/><stop offset="1" stop-color="#7595B7"/></linearGradient><linearGradient x1="2629" y1="992" x2="2629" y2="1148" gradientUnits="userSpaceOnUse" spreadMethod="reflect" id="fill45"><stop offset="0" stop-color="#C0D5ED"/><stop offset="0.5" stop-color="#B5CDEA"/><stop offset="1" stop-color="#A7C7E9"/></linearGradient><linearGradient x1="566" y1="870" x2="566" y2="974" gradientUnits="userSpaceOnUse" spreadMethod="reflect" id="fill46"><stop offset="0" stop-color="#B5D5A7"/><stop offset="0.5" stop-color="#AACE99"/><stop offset="1" stop-color="#9CCA86"/></linearGradient><linearGradient x1="566" y1="870" x2="566" y2="974" gradientUnits="userSpaceOnUse" spreadMethod="reflect" id="fill47"><stop offset="0" stop-color="#92AB86"/><stop offset="0.5" stop-color="#89A67B"/><stop offset="1" stop-color="#7DA26C"/></linearGradient><linearGradient x1="1040" y1="868" x2="1040" y2="972" gradientUnits="userSpaceOnUse" spreadMethod="reflect" id="fill48"><stop offset="0" stop-color="#B5D5A7"/><stop offset="0.5" stop-color="#AACE99"/><stop offset="1" stop-color="#9CCA86"/></linearGradient><linearGradient x1="1040" y1="868" x2="1040" y2="972" gradientUnits="userSpaceOnUse" spreadMethod="reflect" id="fill49"><stop offset="0" stop-color="#92AB86"/><stop offset="0.5" stop-color="#89A67B"/><stop offset="1" stop-color="#7DA26C"/></linearGradient><linearGradient x1="1527" y1="868" x2="1527" y2="972" gradientUnits="userSpaceOnUse" spreadMethod="reflect" id="fill50"><stop offset="0" stop-color="#B5D5A7"/><stop offset="0.5" stop-color="#AACE99"/><stop offset="1" stop-color="#9CCA86"/></linearGradient><linearGradient x1="1527" y1="868" x2="1527" y2="972" gradientUnits="userSpaceOnUse" spreadMethod="reflect" id="fill51"><stop offset="0" stop-color="#92AB86"/><stop offset="0.5" stop-color="#89A67B"/><stop offset="1" stop-color="#7DA26C"/></linearGradient><linearGradient x1="2022" y1="870" x2="2022" y2="974" gradientUnits="userSpaceOnUse" spreadMethod="reflect" id="fill52"><stop offset="0" stop-color="#B5D5A7"/><stop offset="0.5" stop-color="#AACE99"/><stop offset="1" stop-color="#9CCA86"/></linearGradient><linearGradient x1="2022" y1="870" x2="2022" y2="974" gradientUnits="userSpaceOnUse" spreadMethod="reflect" id="fill53"><stop offset="0" stop-color="#92AB86"/><stop offset="0.5" stop-color="#89A67B"/><stop offset="1" stop-color="#7DA26C"/></linearGradient><linearGradient x1="2509" y1="870" x2="2509" y2="974" gradientUnits="userSpaceOnUse" spreadMethod="reflect" id="fill54"><stop offset="0" stop-color="#B5D5A7"/><stop offset="0.5" stop-color="#AACE99"/><stop offset="1" stop-color="#9CCA86"/></linearGradient><linearGradient x1="2509" y1="870" x2="2509" y2="974" gradientUnits="userSpaceOnUse" spreadMethod="reflect" id="fill55"><stop offset="0" stop-color="#92AB86"/><stop offset="0.5" stop-color="#89A67B"/><stop offset="1" stop-color="#7DA26C"/></linearGradient></defs><g clip-path="url(#clip0)" transform="translate(-307 -853)"><rect x="320" y="1031" width="117" height="117" fill="url(#fill1)"/><path d="M437 1031 476 992 476 1109 437 1148Z" fill="url(#fill2)" fill-rule="evenodd"/><path d="M320 1031 359 992 476 992 437 1031Z" fill="url(#fill3)" fill-rule="evenodd"/><path d="M320 1031 359 992 476 992 476 1109 437 1148 320 1148ZM320 1031 437 1031 476 992M437 1031 437 1148" stroke="#5B9BD5" stroke-width="2.29167" stroke-miterlimit="8" fill="none" fill-rule="evenodd"/><text font-family="Yu Gothic UI,Yu Gothic UI_MSFontService,sans-serif" font-weight="400" font-size="55" transform="matrix(1 0 0 1 354.348 1091)">E3<tspan font-size="37" x="-14.4891" y="46">(8bit)</tspan></text><rect x="456" y="1031" width="117" height="117" fill="url(#fill4)"/><path d="M573 1031 612 992 612 1109 573 1148Z" fill="url(#fill5)" fill-rule="evenodd"/><path d="M456 1031 495 992 612 992 573 1031Z" fill="url(#fill6)" fill-rule="evenodd"/><path d="M456 1031 495 992 612 992 612 1109 573 1148 456 1148ZM456 1031 573 1031 612 992M573 1031 573 1148" stroke="#5B9BD5" stroke-width="2.29167" stroke-miterlimit="8" fill="none" fill-rule="evenodd"/><text font-family="Yu Gothic UI,Yu Gothic UI_MSFontService,sans-serif" font-weight="400" font-size="55" transform="matrix(1 0 0 1 489.54 1091)">81<tspan font-size="37" x="-13.6298" y="46">(8bit)</tspan></text><rect x="592" y="1031" width="117" height="117" fill="url(#fill7)"/><path d="M709 1031 748 992 748 1109 709 1148Z" fill="url(#fill8)" fill-rule="evenodd"/><path d="M592 1031 631 992 748 992 709 1031Z" fill="url(#fill9)" fill-rule="evenodd"/><path d="M592 1031 631 992 748 992 748 1109 709 1148 592 1148ZM592 1031 709 1031 748 992M709 1031 709 1148" stroke="#5B9BD5" stroke-width="2.29167" stroke-miterlimit="8" fill="none" fill-rule="evenodd"/><text font-family="Yu Gothic UI,Yu Gothic UI_MSFontService,sans-serif" font-weight="400" font-size="55" transform="matrix(1 0 0 1 625.295 1091)">93<tspan font-size="37" x="-13.6298" y="46">(8bit)</tspan></text><rect x="809" y="1030.75" width="116.25" height="117.25" fill="url(#fill10)"/><path d="M925.25 1030.75 964 992 964 1109.25 925.25 1148Z" fill="url(#fill11)" fill-rule="evenodd"/><path d="M809 1030.75 847.75 992 964 992 925.25 1030.75Z" fill="url(#fill12)" fill-rule="evenodd"/><path d="M809 1030.75 847.75 992 964 992 964 1109.25 925.25 1148 809 1148ZM809 1030.75 925.25 1030.75 964 992M925.25 1030.75 925.25 1148" stroke="#5B9BD5" stroke-width="2.29167" stroke-miterlimit="8" fill="none" fill-rule="evenodd"/><text font-family="Yu Gothic UI,Yu Gothic UI_MSFontService,sans-serif" font-weight="400" font-size="55" transform="matrix(1 0 0 1 843.055 1091)">E3<tspan font-size="37" x="-14.4891" y="46">(8bit)</tspan></text><rect x="945" y="1031" width="117" height="117" fill="url(#fill13)"/><path d="M1062 1031 1101 992 1101 1109 1062 1148Z" fill="url(#fill14)" fill-rule="evenodd"/><path d="M945 1031 984 992 1101 992 1062 1031Z" fill="url(#fill15)" fill-rule="evenodd"/><path d="M945 1031 984 992 1101 992 1101 1109 1062 1148 945 1148ZM945 1031 1062 1031 1101 992M1062 1031 1062 1148" stroke="#5B9BD5" stroke-width="2.29167" stroke-miterlimit="8" fill="none" fill-rule="evenodd"/><text font-family="Yu Gothic UI,Yu Gothic UI_MSFontService,sans-serif" font-weight="400" font-size="55" transform="matrix(1 0 0 1 978.247 1091)">82<tspan font-size="37" x="-13.6298" y="46">(8bit)</tspan></text><rect x="1080" y="1031" width="117" height="117" fill="url(#fill16)"/><path d="M1197 1031 1236 992 1236 1109 1197 1148Z" fill="url(#fill17)" fill-rule="evenodd"/><path d="M1080 1031 1119 992 1236 992 1197 1031Z" fill="url(#fill18)" fill-rule="evenodd"/><path d="M1080 1031 1119 992 1236 992 1236 1109 1197 1148 1080 1148ZM1080 1031 1197 1031 1236 992M1197 1031 1197 1148" stroke="#5B9BD5" stroke-width="2.29167" stroke-miterlimit="8" fill="none" fill-rule="evenodd"/><text font-family="Yu Gothic UI,Yu Gothic UI_MSFontService,sans-serif" font-weight="400" font-size="55" transform="matrix(1 0 0 1 1114 1091)">93<tspan font-size="37" x="-13.6298" y="46">(8bit)</tspan></text><rect x="1300" y="1031" width="117" height="117" fill="url(#fill19)"/><path d="M1417 1031 1456 992 1456 1109 1417 1148Z" fill="url(#fill20)" fill-rule="evenodd"/><path d="M1300 1031 1339 992 1456 992 1417 1031Z" fill="url(#fill21)" fill-rule="evenodd"/><path d="M1300 1031 1339 992 1456 992 1456 1109 1417 1148 1300 1148ZM1300 1031 1417 1031 1456 992M1417 1031 1417 1148" stroke="#5B9BD5" stroke-width="2.29167" stroke-miterlimit="8" fill="none" fill-rule="evenodd"/><text font-family="Yu Gothic UI,Yu Gothic UI_MSFontService,sans-serif" font-weight="400" font-size="55" transform="matrix(1 0 0 1 1334.63 1091)">E3<tspan font-size="37" x="-14.4891" y="46">(8bit)</tspan></text><rect x="1436" y="1031" width="117" height="117" fill="url(#fill22)"/><path d="M1553 1031 1592 992 1592 1109 1553 1148Z" fill="url(#fill23)" fill-rule="evenodd"/><path d="M1436 1031 1475 992 1592 992 1553 1031Z" fill="url(#fill24)" fill-rule="evenodd"/><path d="M1436 1031 1475 992 1592 992 1592 1109 1553 1148 1436 1148ZM1436 1031 1553 1031 1592 992M1553 1031 1553 1148" stroke="#5B9BD5" stroke-width="2.29167" stroke-miterlimit="8" fill="none" fill-rule="evenodd"/><text font-family="Yu Gothic UI,Yu Gothic UI_MSFontService,sans-serif" font-weight="400" font-size="55" transform="matrix(1 0 0 1 1469.83 1091)">81<tspan font-size="37" x="-13.6298" y="46">(8bit)</tspan></text><rect x="1572" y="1031" width="117" height="117" fill="url(#fill25)"/><path d="M1689 1031 1728 992 1728 1109 1689 1148Z" fill="url(#fill26)" fill-rule="evenodd"/><path d="M1572 1031 1611 992 1728 992 1689 1031Z" fill="url(#fill27)" fill-rule="evenodd"/><path d="M1572 1031 1611 992 1728 992 1728 1109 1689 1148 1572 1148ZM1572 1031 1689 1031 1728 992M1689 1031 1689 1148" stroke="#5B9BD5" stroke-width="2.29167" stroke-miterlimit="8" fill="none" fill-rule="evenodd"/><text font-family="Yu Gothic UI,Yu Gothic UI_MSFontService,sans-serif" font-weight="400" font-size="55" transform="matrix(1 0 0 1 1601.86 1091)">AB<tspan font-size="37" x="-9.90576" y="46">(8bit)</tspan></text><rect x="1789" y="1031" width="117" height="117" fill="url(#fill28)"/><path d="M1906 1031 1945 992 1945 1109 1906 1148Z" fill="url(#fill29)" fill-rule="evenodd"/><path d="M1789 1031 1828 992 1945 992 1906 1031Z" fill="url(#fill30)" fill-rule="evenodd"/><path d="M1789 1031 1828 992 1945 992 1945 1109 1906 1148 1789 1148ZM1789 1031 1906 1031 1945 992M1906 1031 1906 1148" stroke="#5B9BD5" stroke-width="2.29167" stroke-miterlimit="8" fill="none" fill-rule="evenodd"/><text font-family="Yu Gothic UI,Yu Gothic UI_MSFontService,sans-serif" font-weight="400" font-size="55" transform="matrix(1 0 0 1 1823.79 1091)">E3<tspan font-size="37" x="-14.4891" y="46">(8bit)</tspan></text><rect x="1925" y="1031" width="117" height="117" fill="url(#fill31)"/><path d="M2042 1031 2081 992 2081 1109 2042 1148Z" fill="url(#fill32)" fill-rule="evenodd"/><path d="M1925 1031 1964 992 2081 992 2042 1031Z" fill="url(#fill33)" fill-rule="evenodd"/><path d="M1925 1031 1964 992 2081 992 2081 1109 2042 1148 1925 1148ZM1925 1031 2042 1031 2081 992M2042 1031 2042 1148" stroke="#5B9BD5" stroke-width="2.29167" stroke-miterlimit="8" fill="none" fill-rule="evenodd"/><text font-family="Yu Gothic UI,Yu Gothic UI_MSFontService,sans-serif" font-weight="400" font-size="55" transform="matrix(1 0 0 1 1958.98 1091)">81<tspan font-size="37" x="-13.6299" y="46">(8bit)</tspan></text><rect x="2061" y="1031" width="117" height="117" fill="url(#fill34)"/><path d="M2178 1031 2217 992 2217 1109 2178 1148Z" fill="url(#fill35)" fill-rule="evenodd"/><path d="M2061 1031 2100 992 2217 992 2178 1031Z" fill="url(#fill36)" fill-rule="evenodd"/><path d="M2061 1031 2100 992 2217 992 2217 1109 2178 1148 2061 1148ZM2061 1031 2178 1031 2217 992M2178 1031 2178 1148" stroke="#5B9BD5" stroke-width="2.29167" stroke-miterlimit="8" fill="none" fill-rule="evenodd"/><text font-family="Yu Gothic UI,Yu Gothic UI_MSFontService,sans-serif" font-weight="400" font-size="55" transform="matrix(1 0 0 1 2091.87 1091)">A1<tspan font-size="37" x="-10.7651" y="46">(8bit)</tspan></text><rect x="2280" y="1031" width="117" height="117" fill="url(#fill37)"/><path d="M2397 1031 2436 992 2436 1109 2397 1148Z" fill="url(#fill38)" fill-rule="evenodd"/><path d="M2280 1031 2319 992 2436 992 2397 1031Z" fill="url(#fill39)" fill-rule="evenodd"/><path d="M2280 1031 2319 992 2436 992 2436 1109 2397 1148 2280 1148ZM2280 1031 2397 1031 2436 992M2397 1031 2397 1148" stroke="#5B9BD5" stroke-width="2.29167" stroke-miterlimit="8" fill="none" fill-rule="evenodd"/><text font-family="Yu Gothic UI,Yu Gothic UI_MSFontService,sans-serif" font-weight="400" font-size="55" transform="matrix(1 0 0 1 2314.12 1091)">E3<tspan font-size="37" x="-14.489" y="46">(8bit)</tspan></text><rect x="2416" y="1031" width="117" height="117" fill="url(#fill40)"/><path d="M2533 1031 2572 992 2572 1109 2533 1148Z" fill="url(#fill41)" fill-rule="evenodd"/><path d="M2416 1031 2455 992 2572 992 2533 1031Z" fill="url(#fill42)" fill-rule="evenodd"/><path d="M2416 1031 2455 992 2572 992 2572 1109 2533 1148 2416 1148ZM2416 1031 2533 1031 2572 992M2533 1031 2533 1148" stroke="#5B9BD5" stroke-width="2.29167" stroke-miterlimit="8" fill="none" fill-rule="evenodd"/><text font-family="Yu Gothic UI,Yu Gothic UI_MSFontService,sans-serif" font-weight="400" font-size="55" transform="matrix(1 0 0 1 2449.31 1091)">81<tspan font-size="37" x="-13.6299" y="46">(8bit)</tspan></text><rect x="2551" y="1031" width="117" height="117" fill="url(#fill43)"/><path d="M2668 1031 2707 992 2707 1109 2668 1148Z" fill="url(#fill44)" fill-rule="evenodd"/><path d="M2551 1031 2590 992 2707 992 2668 1031Z" fill="url(#fill45)" fill-rule="evenodd"/><path d="M2551 1031 2590 992 2707 992 2707 1109 2668 1148 2551 1148ZM2551 1031 2668 1031 2707 992M2668 1031 2668 1148" stroke="#5B9BD5" stroke-width="2.29167" stroke-miterlimit="8" fill="none" fill-rule="evenodd"/><text font-family="Yu Gothic UI,Yu Gothic UI_MSFontService,sans-serif" font-weight="400" font-size="55" transform="matrix(1 0 0 1 2583.63 1091)">AF<tspan font-size="37" x="-12.1973" y="46">(8bit)</tspan></text><path d="M514 870 618 870 618 956.667 600.666 974 514 974Z" fill="url(#fill46)" fill-rule="evenodd"/><path d="M600.666 974 604.133 960.133 618 956.667Z" fill="url(#fill47)" fill-rule="evenodd"/><path d="M600.666 974 604.133 960.133 618 956.667 600.666 974 514 974 514 870 618 870 618 956.667" stroke="#70AD47" stroke-width="2.29167" stroke-miterlimit="8" fill="none" fill-rule="evenodd"/><text font-family="Yu Gothic UI,Yu Gothic UI_MSFontService,sans-serif" font-weight="400" font-size="64" transform="matrix(1 0 0 1 544.719 937)">こ</text><path d="M988 868 1092 868 1092 954.666 1074.67 972 988 972Z" fill="url(#fill48)" fill-rule="evenodd"/><path d="M1074.67 972 1078.13 958.133 1092 954.666Z" fill="url(#fill49)" fill-rule="evenodd"/><path d="M1074.67 972 1078.13 958.133 1092 954.666 1074.67 972 988 972 988 868 1092 868 1092 954.666" stroke="#70AD47" stroke-width="2.29167" stroke-miterlimit="8" fill="none" fill-rule="evenodd"/><text font-family="Yu Gothic UI,Yu Gothic UI_MSFontService,sans-serif" font-weight="400" font-size="64" transform="matrix(1 0 0 1 1013.73 934)">ん</text><path d="M1475 868 1579 868 1579 954.667 1561.67 972 1475 972Z" fill="url(#fill50)" fill-rule="evenodd"/><path d="M1561.67 972 1565.13 958.133 1579 954.667Z" fill="url(#fill51)" fill-rule="evenodd"/><path d="M1561.67 972 1565.13 958.133 1579 954.667 1561.67 972 1475 972 1475 868 1579 868 1579 954.667" stroke="#70AD47" stroke-width="2.29167" stroke-miterlimit="8" fill="none" fill-rule="evenodd"/><text font-family="Yu Gothic UI,Yu Gothic UI_MSFontService,sans-serif" font-weight="400" font-size="64" transform="matrix(1 0 0 1 1501.64 934)">に</text><path d="M1970 870 2074 870 2074 956.666 2056.67 974 1970 974Z" fill="url(#fill52)" fill-rule="evenodd"/><path d="M2056.67 974 2060.13 960.133 2074 956.666Z" fill="url(#fill53)" fill-rule="evenodd"/><path d="M2056.67 974 2060.13 960.133 2074 956.666 2056.67 974 1970 974 1970 870 2074 870 2074 956.666" stroke="#70AD47" stroke-width="2.29167" stroke-miterlimit="8" fill="none" fill-rule="evenodd"/><text font-family="Yu Gothic UI,Yu Gothic UI_MSFontService,sans-serif" font-weight="400" font-size="64" transform="matrix(1 0 0 1 1998.06 937)">ち</text><path d="M2457 870 2561 870 2561 956.666 2543.67 974 2457 974Z" fill="url(#fill54)" fill-rule="evenodd"/><path d="M2543.67 974 2547.13 960.133 2561 956.666Z" fill="url(#fill55)" fill-rule="evenodd"/><path d="M2543.67 974 2547.13 960.133 2561 956.666 2543.67 974 2457 974 2457 870 2561 870 2561 956.666" stroke="#70AD47" stroke-width="2.29167" stroke-miterlimit="8" fill="none" fill-rule="evenodd"/><text font-family="Yu Gothic UI,Yu Gothic UI_MSFontService,sans-serif" font-weight="400" font-size="64" transform="matrix(1 0 0 1 2481.38 937)">は</text></g></svg>