<svg width="2200" height="471" xmlns="http://www.w3.org/2000/svg" xmlns:xlink="http://www.w3.org/1999/xlink" xml:space="preserve" overflow="hidden"><defs><clipPath id="clip0"><rect x="1519" y="1372" width="2200" height="471"/></clipPath><linearGradient x1="1742.5" y1="1439" x2="1742.5" y2="1828" gradientUnits="userSpaceOnUse" spreadMethod="reflect" id="fill1"><stop offset="0" stop-color="#B1CBE9"/><stop offset="0.5" stop-color="#A3C1E5"/><stop offset="1" stop-color="#92B9E4"/></linearGradient><linearGradient x1="1742.5" y1="1439" x2="1742.5" y2="1828" gradientUnits="userSpaceOnUse" spreadMethod="reflect" id="fill2"><stop offset="0" stop-color="#8EA3BB"/><stop offset="0.5" stop-color="#839BB8"/><stop offset="1" stop-color="#7595B7"/></linearGradient><linearGradient x1="1742.5" y1="1439" x2="1742.5" y2="1828" gradientUnits="userSpaceOnUse" spreadMethod="reflect" id="fill3"><stop offset="0" stop-color="#C0D5ED"/><stop offset="0.5" stop-color="#B5CDEA"/><stop offset="1" stop-color="#A7C7E9"/></linearGradient><linearGradient x1="1742.5" y1="1387" x2="1742.5" y2="1491" gradientUnits="userSpaceOnUse" spreadMethod="reflect" id="fill4"><stop offset="0" stop-color="#B5D5A7"/><stop offset="0.5" stop-color="#AACE99"/><stop offset="1" stop-color="#9CCA86"/></linearGradient><linearGradient x1="1742.5" y1="1387" x2="1742.5" y2="1491" gradientUnits="userSpaceOnUse" spreadMethod="reflect" id="fill5"><stop offset="0" stop-color="#92AB86"/><stop offset="0.5" stop-color="#89A67B"/><stop offset="1" stop-color="#7DA26C"/></linearGradient><linearGradient x1="2188" y1="1439" x2="2188" y2="1828" gradientUnits="userSpaceOnUse" spreadMethod="reflect" id="fill6"><stop offset="0" stop-color="#B1CBE9"/><stop offset="0.5" stop-color="#A3C1E5"/><stop offset="1" stop-color="#92B9E4"/></linearGradient><linearGradient x1="2188" y1="1439" x2="2188" y2="1828" gradientUnits="userSpaceOnUse" spreadMethod="reflect" id="fill7"><stop offset="0" stop-color="#8EA3BB"/><stop offset="0.5" stop-color="#839BB8"/><stop offset="1" stop-color="#7595B7"/></linearGradient><linearGradient x1="2188" y1="1439" x2="2188" y2="1828" gradientUnits="userSpaceOnUse" spreadMethod="reflect" id="fill8"><stop offset="0" stop-color="#C0D5ED"/><stop offset="0.5" stop-color="#B5CDEA"/><stop offset="1" stop-color="#A7C7E9"/></linearGradient><linearGradient x1="2188" y1="1387" x2="2188" y2="1491" gradientUnits="userSpaceOnUse" spreadMethod="reflect" id="fill9"><stop offset="0" stop-color="#B5D5A7"/><stop offset="0.5" stop-color="#AACE99"/><stop offset="1" stop-color="#9CCA86"/></linearGradient><linearGradient x1="2188" y1="1387" x2="2188" y2="1491" gradientUnits="userSpaceOnUse" spreadMethod="reflect" id="fill10"><stop offset="0" stop-color="#92AB86"/><stop offset="0.5" stop-color="#89A67B"/><stop offset="1" stop-color="#7DA26C"/></linearGradient><linearGradient x1="2633" y1="1439" x2="2633" y2="1828" gradientUnits="userSpaceOnUse" spreadMethod="reflect" id="fill11"><stop offset="0" stop-color="#B1CBE9"/><stop offset="0.5" stop-color="#A3C1E5"/><stop offset="1" stop-color="#92B9E4"/></linearGradient><linearGradient x1="2633" y1="1439" x2="2633" y2="1828" gradientUnits="userSpaceOnUse" spreadMethod="reflect" id="fill12"><stop offset="0" stop-color="#8EA3BB"/><stop offset="0.5" stop-color="#839BB8"/><stop offset="1" stop-color="#7595B7"/></linearGradient><linearGradient x1="2633" y1="1439" x2="2633" y2="1828" gradientUnits="userSpaceOnUse" spreadMethod="reflect" id="fill13"><stop offset="0" stop-color="#C0D5ED"/><stop offset="0.5" stop-color="#B5CDEA"/><stop offset="1" stop-color="#A7C7E9"/></linearGradient><linearGradient x1="2633" y1="1387" x2="2633" y2="1491" gradientUnits="userSpaceOnUse" spreadMethod="reflect" id="fill14"><stop offset="0" stop-color="#B5D5A7"/><stop offset="0.5" stop-color="#AACE99"/><stop offset="1" stop-color="#9CCA86"/></linearGradient><linearGradient x1="2633" y1="1387" x2="2633" y2="1491" gradientUnits="userSpaceOnUse" spreadMethod="reflect" id="fill15"><stop offset="0" stop-color="#92AB86"/><stop offset="0.5" stop-color="#89A67B"/><stop offset="1" stop-color="#7DA26C"/></linearGradient><linearGradient x1="3078" y1="1439" x2="3078" y2="1828" gradientUnits="userSpaceOnUse" spreadMethod="reflect" id="fill16"><stop offset="0" stop-color="#B1CBE9"/><stop offset="0.5" stop-color="#A3C1E5"/><stop offset="1" stop-color="#92B9E4"/></linearGradient><linearGradient x1="3078" y1="1439" x2="3078" y2="1828" gradientUnits="userSpaceOnUse" spreadMethod="reflect" id="fill17"><stop offset="0" stop-color="#8EA3BB"/><stop offset="0.5" stop-color="#839BB8"/><stop offset="1" stop-color="#7595B7"/></linearGradient><linearGradient x1="3078" y1="1439" x2="3078" y2="1828" gradientUnits="userSpaceOnUse" spreadMethod="reflect" id="fill18"><stop offset="0" stop-color="#C0D5ED"/><stop offset="0.5" stop-color="#B5CDEA"/><stop offset="1" stop-color="#A7C7E9"/></linearGradient><linearGradient x1="3078" y1="1387" x2="3078" y2="1491" gradientUnits="userSpaceOnUse" spreadMethod="reflect" id="fill19"><stop offset="0" stop-color="#B5D5A7"/><stop offset="0.5" stop-color="#AACE99"/><stop offset="1" stop-color="#9CCA86"/></linearGradient><linearGradient x1="3078" y1="1387" x2="3078" y2="1491" gradientUnits="userSpaceOnUse" spreadMethod="reflect" id="fill20"><stop offset="0" stop-color="#92AB86"/><stop offset="0.5" stop-color="#89A67B"/><stop offset="1" stop-color="#7DA26C"/></linearGradient><linearGradient x1="3523" y1="1439" x2="3523" y2="1828" gradientUnits="userSpaceOnUse" spreadMethod="reflect" id="fill21"><stop offset="0" stop-color="#B1CBE9"/><stop offset="0.5" stop-color="#A3C1E5"/><stop offset="1" stop-color="#92B9E4"/></linearGradient><linearGradient x1="3523" y1="1439" x2="3523" y2="1828" gradientUnits="userSpaceOnUse" spreadMethod="reflect" id="fill22"><stop offset="0" stop-color="#8EA3BB"/><stop offset="0.5" stop-color="#839BB8"/><stop offset="1" stop-color="#7595B7"/></linearGradient><linearGradient x1="3523" y1="1439" x2="3523" y2="1828" gradientUnits="userSpaceOnUse" spreadMethod="reflect" id="fill23"><stop offset="0" stop-color="#C0D5ED"/><stop offset="0.5" stop-color="#B5CDEA"/><stop offset="1" stop-color="#A7C7E9"/></linearGradient><linearGradient x1="3523" y1="1387" x2="3523" y2="1491" gradientUnits="userSpaceOnUse" spreadMethod="reflect" id="fill24"><stop offset="0" stop-color="#B5D5A7"/><stop offset="0.5" stop-color="#AACE99"/><stop offset="1" stop-color="#9CCA86"/></linearGradient><linearGradient x1="3523" y1="1387" x2="3523" y2="1491" gradientUnits="userSpaceOnUse" spreadMethod="reflect" id="fill25"><stop offset="0" stop-color="#92AB86"/><stop offset="0.5" stop-color="#89A67B"/><stop offset="1" stop-color="#7DA26C"/></linearGradient></defs><g clip-path="url(#clip0)" transform="translate(-1519 -1372)"><rect x="1548" y="1536.25" width="291.75" height="291.75" fill="url(#fill1)"/><path d="M1839.75 1536.25 1937 1439 1937 1730.75 1839.75 1828Z" fill="url(#fill2)" fill-rule="evenodd"/><path d="M1548 1536.25 1645.25 1439 1937 1439 1839.75 1536.25Z" fill="url(#fill3)" fill-rule="evenodd"/><path d="M1548 1536.25 1645.25 1439 1937 1439 1937 1730.75 1839.75 1828 1548 1828ZM1548 1536.25 1839.75 1536.25 1937 1439M1839.75 1536.25 1839.75 1828" stroke="#5B9BD5" stroke-width="2.29167" stroke-miterlimit="8" fill="none" fill-rule="evenodd"/><path d="M1691 1387 1794 1387 1794 1473.83 1776.83 1491 1691 1491Z" fill="url(#fill4)" fill-rule="evenodd"/><path d="M1776.83 1491 1780.27 1477.27 1794 1473.83Z" fill="url(#fill5)" fill-rule="evenodd"/><path d="M1776.83 1491 1780.27 1477.27 1794 1473.83 1776.83 1491 1691 1491 1691 1387 1794 1387 1794 1473.83" stroke="#70AD47" stroke-width="2.29167" stroke-miterlimit="8" fill="none" fill-rule="evenodd"/><text font-family="Yu Gothic UI,Yu Gothic UI_MSFontService,sans-serif" font-weight="400" font-size="64" transform="matrix(1 0 0 1 1721.57 1453)">こ</text><rect x="1993" y="1536.25" width="292.75" height="291.75" fill="url(#fill6)"/><path d="M2285.75 1536.25 2383 1439 2383 1730.75 2285.75 1828Z" fill="url(#fill7)" fill-rule="evenodd"/><path d="M1993 1536.25 2090.25 1439 2383 1439 2285.75 1536.25Z" fill="url(#fill8)" fill-rule="evenodd"/><path d="M1993 1536.25 2090.25 1439 2383 1439 2383 1730.75 2285.75 1828 1993 1828ZM1993 1536.25 2285.75 1536.25 2383 1439M2285.75 1536.25 2285.75 1828" stroke="#5B9BD5" stroke-width="2.29167" stroke-miterlimit="8" fill="none" fill-rule="evenodd"/><path d="M2136 1387 2240 1387 2240 1473.67 2222.67 1491 2136 1491Z" fill="url(#fill9)" fill-rule="evenodd"/><path d="M2222.67 1491 2226.13 1477.13 2240 1473.67Z" fill="url(#fill10)" fill-rule="evenodd"/><path d="M2222.67 1491 2226.13 1477.13 2240 1473.67 2222.67 1491 2136 1491 2136 1387 2240 1387 2240 1473.67" stroke="#70AD47" stroke-width="2.29167" stroke-miterlimit="8" fill="none" fill-rule="evenodd"/><text font-family="Yu Gothic UI,Yu Gothic UI_MSFontService,sans-serif" font-weight="400" font-size="64" transform="matrix(1 0 0 1 2161.64 1453)">ん</text><rect x="2438" y="1536.25" width="292.75" height="291.75" fill="url(#fill11)"/><path d="M2730.75 1536.25 2828 1439 2828 1730.75 2730.75 1828Z" fill="url(#fill12)" fill-rule="evenodd"/><path d="M2438 1536.25 2535.25 1439 2828 1439 2730.75 1536.25Z" fill="url(#fill13)" fill-rule="evenodd"/><path d="M2438 1536.25 2535.25 1439 2828 1439 2828 1730.75 2730.75 1828 2438 1828ZM2438 1536.25 2730.75 1536.25 2828 1439M2730.75 1536.25 2730.75 1828" stroke="#5B9BD5" stroke-width="2.29167" stroke-miterlimit="8" fill="none" fill-rule="evenodd"/><path d="M2581 1387 2685 1387 2685 1473.67 2667.67 1491 2581 1491Z" fill="url(#fill14)" fill-rule="evenodd"/><path d="M2667.67 1491 2671.13 1477.13 2685 1473.67Z" fill="url(#fill15)" fill-rule="evenodd"/><path d="M2667.67 1491 2671.13 1477.13 2685 1473.67 2667.67 1491 2581 1491 2581 1387 2685 1387 2685 1473.67" stroke="#70AD47" stroke-width="2.29167" stroke-miterlimit="8" fill="none" fill-rule="evenodd"/><text font-family="Yu Gothic UI,Yu Gothic UI_MSFontService,sans-serif" font-weight="400" font-size="64" transform="matrix(1 0 0 1 2608 1453)">に</text><rect x="2883" y="1536.25" width="292.75" height="291.75" fill="url(#fill16)"/><path d="M3175.75 1536.25 3273 1439 3273 1730.75 3175.75 1828Z" fill="url(#fill17)" fill-rule="evenodd"/><path d="M2883 1536.25 2980.25 1439 3273 1439 3175.75 1536.25Z" fill="url(#fill18)" fill-rule="evenodd"/><path d="M2883 1536.25 2980.25 1439 3273 1439 3273 1730.75 3175.75 1828 2883 1828ZM2883 1536.25 3175.75 1536.25 3273 1439M3175.75 1536.25 3175.75 1828" stroke="#5B9BD5" stroke-width="2.29167" stroke-miterlimit="8" fill="none" fill-rule="evenodd"/><path d="M3026 1387 3130 1387 3130 1473.67 3112.67 1491 3026 1491Z" fill="url(#fill19)" fill-rule="evenodd"/><path d="M3112.67 1491 3116.13 1477.13 3130 1473.67Z" fill="url(#fill20)" fill-rule="evenodd"/><path d="M3112.67 1491 3116.13 1477.13 3130 1473.67 3112.67 1491 3026 1491 3026 1387 3130 1387 3130 1473.67" stroke="#70AD47" stroke-width="2.29167" stroke-miterlimit="8" fill="none" fill-rule="evenodd"/><text font-family="Yu Gothic UI,Yu Gothic UI_MSFontService,sans-serif" font-weight="400" font-size="64" transform="matrix(1 0 0 1 3054.08 1453)">ち</text><rect x="3328" y="1536.25" width="292.75" height="291.75" fill="url(#fill21)"/><path d="M3620.75 1536.25 3718 1439 3718 1730.75 3620.75 1828Z" fill="url(#fill22)" fill-rule="evenodd"/><path d="M3328 1536.25 3425.25 1439 3718 1439 3620.75 1536.25Z" fill="url(#fill23)" fill-rule="evenodd"/><path d="M3328 1536.25 3425.25 1439 3718 1439 3718 1730.75 3620.75 1828 3328 1828ZM3328 1536.25 3620.75 1536.25 3718 1439M3620.75 1536.25 3620.75 1828" stroke="#5B9BD5" stroke-width="2.29167" stroke-miterlimit="8" fill="none" fill-rule="evenodd"/><path d="M3471 1387 3575 1387 3575 1473.67 3557.67 1491 3471 1491Z" fill="url(#fill24)" fill-rule="evenodd"/><path d="M3557.67 1491 3561.13 1477.13 3575 1473.67Z" fill="url(#fill25)" fill-rule="evenodd"/><path d="M3557.67 1491 3561.13 1477.13 3575 1473.67 3557.67 1491 3471 1491 3471 1387 3575 1387 3575 1473.67" stroke="#70AD47" stroke-width="2.29167" stroke-miterlimit="8" fill="none" fill-rule="evenodd"/><text font-family="Yu Gothic UI,Yu Gothic UI_MSFontService,sans-serif" font-weight="400" font-size="64" transform="matrix(1 0 0 1 3495.86 1453)">は<tspan font-size="55" x="-1943.74" y="177">00 00 30 53</tspan><tspan font-size="55" x="-1494.64" y="177">00 00 30 93</tspan><tspan font-size="55" x="-1053.3" y="177">00 00 30 68</tspan><tspan font-size="55" x="-605.836" y="177">00 00 30 61</tspan><tspan font-size="55" x="-163.602" y="177">00 00 30 6F</tspan><tspan font-size="37" x="-1774.86" y="359">(32bit)</tspan><tspan font-size="37" x="-1329.02" y="359">(32bit)</tspan><tspan font-size="37" x="-883.804" y="359">(32bit)</tspan><tspan font-size="37" x="-440.74" y="359">(32bit)</tspan><tspan font-size="37" x="2.32422" y="355">(32bit)</tspan></text></g></svg>