<svg width="2176" height="392" xmlns="http://www.w3.org/2000/svg" xmlns:xlink="http://www.w3.org/1999/xlink" xml:space="preserve" overflow="hidden"><defs><clipPath id="clip0"><rect x="1546" y="730" width="2176" height="392"/></clipPath><linearGradient x1="1742.5" y1="731" x2="1742.5" y2="1121" gradientUnits="userSpaceOnUse" spreadMethod="reflect" id="fill1"><stop offset="0" stop-color="#B5D5A7"/><stop offset="0.5" stop-color="#AACE99"/><stop offset="1" stop-color="#9CCA86"/></linearGradient><linearGradient x1="1742.5" y1="731" x2="1742.5" y2="1121" gradientUnits="userSpaceOnUse" spreadMethod="reflect" id="fill2"><stop offset="0" stop-color="#92AB86"/><stop offset="0.5" stop-color="#89A67B"/><stop offset="1" stop-color="#7DA26C"/></linearGradient><linearGradient x1="2188" y1="731" x2="2188" y2="1121" gradientUnits="userSpaceOnUse" spreadMethod="reflect" id="fill3"><stop offset="0" stop-color="#B5D5A7"/><stop offset="0.5" stop-color="#AACE99"/><stop offset="1" stop-color="#9CCA86"/></linearGradient><linearGradient x1="2188" y1="731" x2="2188" y2="1121" gradientUnits="userSpaceOnUse" spreadMethod="reflect" id="fill4"><stop offset="0" stop-color="#92AB86"/><stop offset="0.5" stop-color="#89A67B"/><stop offset="1" stop-color="#7DA26C"/></linearGradient><linearGradient x1="2633" y1="731" x2="2633" y2="1121" gradientUnits="userSpaceOnUse" spreadMethod="reflect" id="fill5"><stop offset="0" stop-color="#B5D5A7"/><stop offset="0.5" stop-color="#AACE99"/><stop offset="1" stop-color="#9CCA86"/></linearGradient><linearGradient x1="2633" y1="731" x2="2633" y2="1121" gradientUnits="userSpaceOnUse" spreadMethod="reflect" id="fill6"><stop offset="0" stop-color="#92AB86"/><stop offset="0.5" stop-color="#89A67B"/><stop offset="1" stop-color="#7DA26C"/></linearGradient><linearGradient x1="3078" y1="731" x2="3078" y2="1121" gradientUnits="userSpaceOnUse" spreadMethod="reflect" id="fill7"><stop offset="0" stop-color="#B5D5A7"/><stop offset="0.5" stop-color="#AACE99"/><stop offset="1" stop-color="#9CCA86"/></linearGradient><linearGradient x1="3078" y1="731" x2="3078" y2="1121" gradientUnits="userSpaceOnUse" spreadMethod="reflect" id="fill8"><stop offset="0" stop-color="#92AB86"/><stop offset="0.5" stop-color="#89A67B"/><stop offset="1" stop-color="#7DA26C"/></linearGradient><linearGradient x1="3523" y1="731" x2="3523" y2="1121" gradientUnits="userSpaceOnUse" spreadMethod="reflect" id="fill9"><stop offset="0" stop-color="#B5D5A7"/><stop offset="0.5" stop-color="#AACE99"/><stop offset="1" stop-color="#9CCA86"/></linearGradient><linearGradient x1="3523" y1="731" x2="3523" y2="1121" gradientUnits="userSpaceOnUse" spreadMethod="reflect" id="fill10"><stop offset="0" stop-color="#92AB86"/><stop offset="0.5" stop-color="#89A67B"/><stop offset="1" stop-color="#7DA26C"/></linearGradient></defs><g clip-path="url(#clip0)" transform="translate(-1546 -730)"><path d="M1548 731 1937 731 1937 1056.17 1872.17 1121 1548 1121Z" fill="url(#fill1)" fill-rule="evenodd"/><path d="M1872.17 1121 1885.13 1069.13 1937 1056.17Z" fill="url(#fill2)" fill-rule="evenodd"/><path d="M1872.17 1121 1885.13 1069.13 1937 1056.17 1872.17 1121 1548 1121 1548 731 1937 731 1937 1056.17" stroke="#70AD47" stroke-width="2.29167" stroke-miterlimit="8" fill="none" fill-rule="evenodd"/><text font-family="Yu Gothic UI,Yu Gothic UI_MSFontService,sans-serif" font-weight="400" font-size="73" transform="matrix(1 0 0 1 1718.72 877)">こ<tspan font-size="73" x="-128.058" y="88">(U+3053)</tspan></text><path d="M1993 731 2383 731 2383 1056 2318 1121 1993 1121Z" fill="url(#fill3)" fill-rule="evenodd"/><path d="M2318 1121 2331 1069 2383 1056Z" fill="url(#fill4)" fill-rule="evenodd"/><path d="M2318 1121 2331 1069 2383 1056 2318 1121 1993 1121 1993 731 2383 731 2383 1056" stroke="#70AD47" stroke-width="2.29167" stroke-miterlimit="8" fill="none" fill-rule="evenodd"/><text font-family="Yu Gothic UI,Yu Gothic UI_MSFontService,sans-serif" font-weight="400" font-size="73" transform="matrix(1 0 0 1 2157.91 877)">ん<tspan font-size="73" x="-122.031" y="88">(U+3093)</tspan></text><path d="M2438 731 2828 731 2828 1056 2763 1121 2438 1121Z" fill="url(#fill5)" fill-rule="evenodd"/><path d="M2763 1121 2776 1069 2828 1056Z" fill="url(#fill6)" fill-rule="evenodd"/><path d="M2763 1121 2776 1069 2828 1056 2763 1121 2438 1121 2438 731 2828 731 2828 1056" stroke="#70AD47" stroke-width="2.29167" stroke-miterlimit="8" fill="none" fill-rule="evenodd"/><text font-family="Yu Gothic UI,Yu Gothic UI_MSFontService,sans-serif" font-weight="400" font-size="73" transform="matrix(1 0 0 1 2604.28 877)">に<tspan font-size="73" x="-123.177" y="88">(U+3068)</tspan></text><path d="M2883 731 3273 731 3273 1056 3208 1121 2883 1121Z" fill="url(#fill7)" fill-rule="evenodd"/><path d="M3208 1121 3221 1069 3273 1056Z" fill="url(#fill8)" fill-rule="evenodd"/><path d="M3208 1121 3221 1069 3273 1056 3208 1121 2883 1121 2883 731 3273 731 3273 1056" stroke="#70AD47" stroke-width="2.29167" stroke-miterlimit="8" fill="none" fill-rule="evenodd"/><text font-family="Yu Gothic UI,Yu Gothic UI_MSFontService,sans-serif" font-weight="400" font-size="73" transform="matrix(1 0 0 1 3050.64 877)">ち<tspan font-size="73" x="-124.323" y="88">(U+3061)</tspan></text><path d="M3328 731 3718 731 3718 1056 3653 1121 3328 1121Z" fill="url(#fill9)" fill-rule="evenodd"/><path d="M3653 1121 3666 1069 3718 1056Z" fill="url(#fill10)" fill-rule="evenodd"/><path d="M3653 1121 3666 1069 3718 1056 3653 1121 3328 1121 3328 731 3718 731 3718 1056" stroke="#70AD47" stroke-width="2.29167" stroke-miterlimit="8" fill="none" fill-rule="evenodd"/><text font-family="Yu Gothic UI,Yu Gothic UI_MSFontService,sans-serif" font-weight="400" font-size="73" transform="matrix(1 0 0 1 3492.15 877)">は<tspan font-size="73" x="-118.892" y="88">(U+306F)</tspan></text></g></svg>