<svg width="3175" height="393" xmlns="http://www.w3.org/2000/svg" xmlns:xlink="http://www.w3.org/1999/xlink" xml:space="preserve" overflow="hidden"><defs><clipPath id="clip0"><rect x="143" y="675" width="3175" height="393"/></clipPath><linearGradient x1="234" y1="812" x2="234" y2="968" gradientUnits="userSpaceOnUse" spreadMethod="reflect" id="fill1"><stop offset="0" stop-color="#B1CBE9"/><stop offset="0.5" stop-color="#A3C1E5"/><stop offset="1" stop-color="#92B9E4"/></linearGradient><linearGradient x1="234" y1="812" x2="234" y2="968" gradientUnits="userSpaceOnUse" spreadMethod="reflect" id="fill2"><stop offset="0" stop-color="#8EA3BB"/><stop offset="0.5" stop-color="#839BB8"/><stop offset="1" stop-color="#7595B7"/></linearGradient><linearGradient x1="234" y1="812" x2="234" y2="968" gradientUnits="userSpaceOnUse" spreadMethod="reflect" id="fill3"><stop offset="0" stop-color="#C0D5ED"/><stop offset="0.5" stop-color="#B5CDEA"/><stop offset="1" stop-color="#A7C7E9"/></linearGradient><linearGradient x1="370" y1="812" x2="370" y2="968" gradientUnits="userSpaceOnUse" spreadMethod="reflect" id="fill4"><stop offset="0" stop-color="#B1CBE9"/><stop offset="0.5" stop-color="#A3C1E5"/><stop offset="1" stop-color="#92B9E4"/></linearGradient><linearGradient x1="370" y1="812" x2="370" y2="968" gradientUnits="userSpaceOnUse" spreadMethod="reflect" id="fill5"><stop offset="0" stop-color="#8EA3BB"/><stop offset="0.5" stop-color="#839BB8"/><stop offset="1" stop-color="#7595B7"/></linearGradient><linearGradient x1="370" y1="812" x2="370" y2="968" gradientUnits="userSpaceOnUse" spreadMethod="reflect" id="fill6"><stop offset="0" stop-color="#C0D5ED"/><stop offset="0.5" stop-color="#B5CDEA"/><stop offset="1" stop-color="#A7C7E9"/></linearGradient><linearGradient x1="506" y1="812" x2="506" y2="968" gradientUnits="userSpaceOnUse" spreadMethod="reflect" id="fill7"><stop offset="0" stop-color="#B1CBE9"/><stop offset="0.5" stop-color="#A3C1E5"/><stop offset="1" stop-color="#92B9E4"/></linearGradient><linearGradient x1="506" y1="812" x2="506" y2="968" gradientUnits="userSpaceOnUse" spreadMethod="reflect" id="fill8"><stop offset="0" stop-color="#8EA3BB"/><stop offset="0.5" stop-color="#839BB8"/><stop offset="1" stop-color="#7595B7"/></linearGradient><linearGradient x1="506" y1="812" x2="506" y2="968" gradientUnits="userSpaceOnUse" spreadMethod="reflect" id="fill9"><stop offset="0" stop-color="#C0D5ED"/><stop offset="0.5" stop-color="#B5CDEA"/><stop offset="1" stop-color="#A7C7E9"/></linearGradient><linearGradient x1="640.5" y1="812" x2="640.5" y2="968" gradientUnits="userSpaceOnUse" spreadMethod="reflect" id="fill10"><stop offset="0" stop-color="#B1CBE9"/><stop offset="0.5" stop-color="#A3C1E5"/><stop offset="1" stop-color="#92B9E4"/></linearGradient><linearGradient x1="640.5" y1="812" x2="640.5" y2="968" gradientUnits="userSpaceOnUse" spreadMethod="reflect" id="fill11"><stop offset="0" stop-color="#8EA3BB"/><stop offset="0.5" stop-color="#839BB8"/><stop offset="1" stop-color="#7595B7"/></linearGradient><linearGradient x1="640.5" y1="812" x2="640.5" y2="968" gradientUnits="userSpaceOnUse" spreadMethod="reflect" id="fill12"><stop offset="0" stop-color="#C0D5ED"/><stop offset="0.5" stop-color="#B5CDEA"/><stop offset="1" stop-color="#A7C7E9"/></linearGradient><linearGradient x1="447" y1="690" x2="447" y2="794" gradientUnits="userSpaceOnUse" spreadMethod="reflect" id="fill13"><stop offset="0" stop-color="#B5D5A7"/><stop offset="0.5" stop-color="#AACE99"/><stop offset="1" stop-color="#9CCA86"/></linearGradient><linearGradient x1="447" y1="690" x2="447" y2="794" gradientUnits="userSpaceOnUse" spreadMethod="reflect" id="fill14"><stop offset="0" stop-color="#92AB86"/><stop offset="0.5" stop-color="#89A67B"/><stop offset="1" stop-color="#7DA26C"/></linearGradient><linearGradient x1="883" y1="812" x2="883" y2="968" gradientUnits="userSpaceOnUse" spreadMethod="reflect" id="fill15"><stop offset="0" stop-color="#B1CBE9"/><stop offset="0.5" stop-color="#A3C1E5"/><stop offset="1" stop-color="#92B9E4"/></linearGradient><linearGradient x1="883" y1="812" x2="883" y2="968" gradientUnits="userSpaceOnUse" spreadMethod="reflect" id="fill16"><stop offset="0" stop-color="#8EA3BB"/><stop offset="0.5" stop-color="#839BB8"/><stop offset="1" stop-color="#7595B7"/></linearGradient><linearGradient x1="883" y1="812" x2="883" y2="968" gradientUnits="userSpaceOnUse" spreadMethod="reflect" id="fill17"><stop offset="0" stop-color="#C0D5ED"/><stop offset="0.5" stop-color="#B5CDEA"/><stop offset="1" stop-color="#A7C7E9"/></linearGradient><linearGradient x1="1019" y1="812" x2="1019" y2="968" gradientUnits="userSpaceOnUse" spreadMethod="reflect" id="fill18"><stop offset="0" stop-color="#B1CBE9"/><stop offset="0.5" stop-color="#A3C1E5"/><stop offset="1" stop-color="#92B9E4"/></linearGradient><linearGradient x1="1019" y1="812" x2="1019" y2="968" gradientUnits="userSpaceOnUse" spreadMethod="reflect" id="fill19"><stop offset="0" stop-color="#8EA3BB"/><stop offset="0.5" stop-color="#839BB8"/><stop offset="1" stop-color="#7595B7"/></linearGradient><linearGradient x1="1019" y1="812" x2="1019" y2="968" gradientUnits="userSpaceOnUse" spreadMethod="reflect" id="fill20"><stop offset="0" stop-color="#C0D5ED"/><stop offset="0.5" stop-color="#B5CDEA"/><stop offset="1" stop-color="#A7C7E9"/></linearGradient><linearGradient x1="1155" y1="812" x2="1155" y2="968" gradientUnits="userSpaceOnUse" spreadMethod="reflect" id="fill21"><stop offset="0" stop-color="#B1CBE9"/><stop offset="0.5" stop-color="#A3C1E5"/><stop offset="1" stop-color="#92B9E4"/></linearGradient><linearGradient x1="1155" y1="812" x2="1155" y2="968" gradientUnits="userSpaceOnUse" spreadMethod="reflect" id="fill22"><stop offset="0" stop-color="#8EA3BB"/><stop offset="0.5" stop-color="#839BB8"/><stop offset="1" stop-color="#7595B7"/></linearGradient><linearGradient x1="1155" y1="812" x2="1155" y2="968" gradientUnits="userSpaceOnUse" spreadMethod="reflect" id="fill23"><stop offset="0" stop-color="#C0D5ED"/><stop offset="0.5" stop-color="#B5CDEA"/><stop offset="1" stop-color="#A7C7E9"/></linearGradient><linearGradient x1="1290" y1="812" x2="1290" y2="968" gradientUnits="userSpaceOnUse" spreadMethod="reflect" id="fill24"><stop offset="0" stop-color="#B1CBE9"/><stop offset="0.5" stop-color="#A3C1E5"/><stop offset="1" stop-color="#92B9E4"/></linearGradient><linearGradient x1="1290" y1="812" x2="1290" y2="968" gradientUnits="userSpaceOnUse" spreadMethod="reflect" id="fill25"><stop offset="0" stop-color="#8EA3BB"/><stop offset="0.5" stop-color="#839BB8"/><stop offset="1" stop-color="#7595B7"/></linearGradient><linearGradient x1="1290" y1="812" x2="1290" y2="968" gradientUnits="userSpaceOnUse" spreadMethod="reflect" id="fill26"><stop offset="0" stop-color="#C0D5ED"/><stop offset="0.5" stop-color="#B5CDEA"/><stop offset="1" stop-color="#A7C7E9"/></linearGradient><linearGradient x1="1097" y1="690" x2="1097" y2="794" gradientUnits="userSpaceOnUse" spreadMethod="reflect" id="fill27"><stop offset="0" stop-color="#B5D5A7"/><stop offset="0.5" stop-color="#AACE99"/><stop offset="1" stop-color="#9CCA86"/></linearGradient><linearGradient x1="1097" y1="690" x2="1097" y2="794" gradientUnits="userSpaceOnUse" spreadMethod="reflect" id="fill28"><stop offset="0" stop-color="#92AB86"/><stop offset="0.5" stop-color="#89A67B"/><stop offset="1" stop-color="#7DA26C"/></linearGradient><linearGradient x1="1533" y1="812" x2="1533" y2="968" gradientUnits="userSpaceOnUse" spreadMethod="reflect" id="fill29"><stop offset="0" stop-color="#B1CBE9"/><stop offset="0.5" stop-color="#A3C1E5"/><stop offset="1" stop-color="#92B9E4"/></linearGradient><linearGradient x1="1533" y1="812" x2="1533" y2="968" gradientUnits="userSpaceOnUse" spreadMethod="reflect" id="fill30"><stop offset="0" stop-color="#8EA3BB"/><stop offset="0.5" stop-color="#839BB8"/><stop offset="1" stop-color="#7595B7"/></linearGradient><linearGradient x1="1533" y1="812" x2="1533" y2="968" gradientUnits="userSpaceOnUse" spreadMethod="reflect" id="fill31"><stop offset="0" stop-color="#C0D5ED"/><stop offset="0.5" stop-color="#B5CDEA"/><stop offset="1" stop-color="#A7C7E9"/></linearGradient><linearGradient x1="1669" y1="812" x2="1669" y2="968" gradientUnits="userSpaceOnUse" spreadMethod="reflect" id="fill32"><stop offset="0" stop-color="#B1CBE9"/><stop offset="0.5" stop-color="#A3C1E5"/><stop offset="1" stop-color="#92B9E4"/></linearGradient><linearGradient x1="1669" y1="812" x2="1669" y2="968" gradientUnits="userSpaceOnUse" spreadMethod="reflect" id="fill33"><stop offset="0" stop-color="#8EA3BB"/><stop offset="0.5" stop-color="#839BB8"/><stop offset="1" stop-color="#7595B7"/></linearGradient><linearGradient x1="1669" y1="812" x2="1669" y2="968" gradientUnits="userSpaceOnUse" spreadMethod="reflect" id="fill34"><stop offset="0" stop-color="#C0D5ED"/><stop offset="0.5" stop-color="#B5CDEA"/><stop offset="1" stop-color="#A7C7E9"/></linearGradient><linearGradient x1="1805" y1="812" x2="1805" y2="968" gradientUnits="userSpaceOnUse" spreadMethod="reflect" id="fill35"><stop offset="0" stop-color="#B1CBE9"/><stop offset="0.5" stop-color="#A3C1E5"/><stop offset="1" stop-color="#92B9E4"/></linearGradient><linearGradient x1="1805" y1="812" x2="1805" y2="968" gradientUnits="userSpaceOnUse" spreadMethod="reflect" id="fill36"><stop offset="0" stop-color="#8EA3BB"/><stop offset="0.5" stop-color="#839BB8"/><stop offset="1" stop-color="#7595B7"/></linearGradient><linearGradient x1="1805" y1="812" x2="1805" y2="968" gradientUnits="userSpaceOnUse" spreadMethod="reflect" id="fill37"><stop offset="0" stop-color="#C0D5ED"/><stop offset="0.5" stop-color="#B5CDEA"/><stop offset="1" stop-color="#A7C7E9"/></linearGradient><linearGradient x1="1940" y1="812" x2="1940" y2="968" gradientUnits="userSpaceOnUse" spreadMethod="reflect" id="fill38"><stop offset="0" stop-color="#B1CBE9"/><stop offset="0.5" stop-color="#A3C1E5"/><stop offset="1" stop-color="#92B9E4"/></linearGradient><linearGradient x1="1940" y1="812" x2="1940" y2="968" gradientUnits="userSpaceOnUse" spreadMethod="reflect" id="fill39"><stop offset="0" stop-color="#8EA3BB"/><stop offset="0.5" stop-color="#839BB8"/><stop offset="1" stop-color="#7595B7"/></linearGradient><linearGradient x1="1940" y1="812" x2="1940" y2="968" gradientUnits="userSpaceOnUse" spreadMethod="reflect" id="fill40"><stop offset="0" stop-color="#C0D5ED"/><stop offset="0.5" stop-color="#B5CDEA"/><stop offset="1" stop-color="#A7C7E9"/></linearGradient><linearGradient x1="1746" y1="690" x2="1746" y2="794" gradientUnits="userSpaceOnUse" spreadMethod="reflect" id="fill41"><stop offset="0" stop-color="#B5D5A7"/><stop offset="0.5" stop-color="#AACE99"/><stop offset="1" stop-color="#9CCA86"/></linearGradient><linearGradient x1="1746" y1="690" x2="1746" y2="794" gradientUnits="userSpaceOnUse" spreadMethod="reflect" id="fill42"><stop offset="0" stop-color="#92AB86"/><stop offset="0.5" stop-color="#89A67B"/><stop offset="1" stop-color="#7DA26C"/></linearGradient><linearGradient x1="2183" y1="812" x2="2183" y2="968" gradientUnits="userSpaceOnUse" spreadMethod="reflect" id="fill43"><stop offset="0" stop-color="#B1CBE9"/><stop offset="0.5" stop-color="#A3C1E5"/><stop offset="1" stop-color="#92B9E4"/></linearGradient><linearGradient x1="2183" y1="812" x2="2183" y2="968" gradientUnits="userSpaceOnUse" spreadMethod="reflect" id="fill44"><stop offset="0" stop-color="#8EA3BB"/><stop offset="0.5" stop-color="#839BB8"/><stop offset="1" stop-color="#7595B7"/></linearGradient><linearGradient x1="2183" y1="812" x2="2183" y2="968" gradientUnits="userSpaceOnUse" spreadMethod="reflect" id="fill45"><stop offset="0" stop-color="#C0D5ED"/><stop offset="0.5" stop-color="#B5CDEA"/><stop offset="1" stop-color="#A7C7E9"/></linearGradient><linearGradient x1="2319" y1="812" x2="2319" y2="968" gradientUnits="userSpaceOnUse" spreadMethod="reflect" id="fill46"><stop offset="0" stop-color="#B1CBE9"/><stop offset="0.5" stop-color="#A3C1E5"/><stop offset="1" stop-color="#92B9E4"/></linearGradient><linearGradient x1="2319" y1="812" x2="2319" y2="968" gradientUnits="userSpaceOnUse" spreadMethod="reflect" id="fill47"><stop offset="0" stop-color="#8EA3BB"/><stop offset="0.5" stop-color="#839BB8"/><stop offset="1" stop-color="#7595B7"/></linearGradient><linearGradient x1="2319" y1="812" x2="2319" y2="968" gradientUnits="userSpaceOnUse" spreadMethod="reflect" id="fill48"><stop offset="0" stop-color="#C0D5ED"/><stop offset="0.5" stop-color="#B5CDEA"/><stop offset="1" stop-color="#A7C7E9"/></linearGradient><linearGradient x1="2454" y1="812" x2="2454" y2="968" gradientUnits="userSpaceOnUse" spreadMethod="reflect" id="fill49"><stop offset="0" stop-color="#B1CBE9"/><stop offset="0.5" stop-color="#A3C1E5"/><stop offset="1" stop-color="#92B9E4"/></linearGradient><linearGradient x1="2454" y1="812" x2="2454" y2="968" gradientUnits="userSpaceOnUse" spreadMethod="reflect" id="fill50"><stop offset="0" stop-color="#8EA3BB"/><stop offset="0.5" stop-color="#839BB8"/><stop offset="1" stop-color="#7595B7"/></linearGradient><linearGradient x1="2454" y1="812" x2="2454" y2="968" gradientUnits="userSpaceOnUse" spreadMethod="reflect" id="fill51"><stop offset="0" stop-color="#C0D5ED"/><stop offset="0.5" stop-color="#B5CDEA"/><stop offset="1" stop-color="#A7C7E9"/></linearGradient><linearGradient x1="2589" y1="812" x2="2589" y2="968" gradientUnits="userSpaceOnUse" spreadMethod="reflect" id="fill52"><stop offset="0" stop-color="#B1CBE9"/><stop offset="0.5" stop-color="#A3C1E5"/><stop offset="1" stop-color="#92B9E4"/></linearGradient><linearGradient x1="2589" y1="812" x2="2589" y2="968" gradientUnits="userSpaceOnUse" spreadMethod="reflect" id="fill53"><stop offset="0" stop-color="#8EA3BB"/><stop offset="0.5" stop-color="#839BB8"/><stop offset="1" stop-color="#7595B7"/></linearGradient><linearGradient x1="2589" y1="812" x2="2589" y2="968" gradientUnits="userSpaceOnUse" spreadMethod="reflect" id="fill54"><stop offset="0" stop-color="#C0D5ED"/><stop offset="0.5" stop-color="#B5CDEA"/><stop offset="1" stop-color="#A7C7E9"/></linearGradient><linearGradient x1="2396" y1="690" x2="2396" y2="794" gradientUnits="userSpaceOnUse" spreadMethod="reflect" id="fill55"><stop offset="0" stop-color="#B5D5A7"/><stop offset="0.5" stop-color="#AACE99"/><stop offset="1" stop-color="#9CCA86"/></linearGradient><linearGradient x1="2396" y1="690" x2="2396" y2="794" gradientUnits="userSpaceOnUse" spreadMethod="reflect" id="fill56"><stop offset="0" stop-color="#92AB86"/><stop offset="0.5" stop-color="#89A67B"/><stop offset="1" stop-color="#7DA26C"/></linearGradient><linearGradient x1="2832" y1="812" x2="2832" y2="968" gradientUnits="userSpaceOnUse" spreadMethod="reflect" id="fill57"><stop offset="0" stop-color="#B1CBE9"/><stop offset="0.5" stop-color="#A3C1E5"/><stop offset="1" stop-color="#92B9E4"/></linearGradient><linearGradient x1="2832" y1="812" x2="2832" y2="968" gradientUnits="userSpaceOnUse" spreadMethod="reflect" id="fill58"><stop offset="0" stop-color="#8EA3BB"/><stop offset="0.5" stop-color="#839BB8"/><stop offset="1" stop-color="#7595B7"/></linearGradient><linearGradient x1="2832" y1="812" x2="2832" y2="968" gradientUnits="userSpaceOnUse" spreadMethod="reflect" id="fill59"><stop offset="0" stop-color="#C0D5ED"/><stop offset="0.5" stop-color="#B5CDEA"/><stop offset="1" stop-color="#A7C7E9"/></linearGradient><linearGradient x1="2968" y1="812" x2="2968" y2="968" gradientUnits="userSpaceOnUse" spreadMethod="reflect" id="fill60"><stop offset="0" stop-color="#B1CBE9"/><stop offset="0.5" stop-color="#A3C1E5"/><stop offset="1" stop-color="#92B9E4"/></linearGradient><linearGradient x1="2968" y1="812" x2="2968" y2="968" gradientUnits="userSpaceOnUse" spreadMethod="reflect" id="fill61"><stop offset="0" stop-color="#8EA3BB"/><stop offset="0.5" stop-color="#839BB8"/><stop offset="1" stop-color="#7595B7"/></linearGradient><linearGradient x1="2968" y1="812" x2="2968" y2="968" gradientUnits="userSpaceOnUse" spreadMethod="reflect" id="fill62"><stop offset="0" stop-color="#C0D5ED"/><stop offset="0.5" stop-color="#B5CDEA"/><stop offset="1" stop-color="#A7C7E9"/></linearGradient><linearGradient x1="3104" y1="812" x2="3104" y2="968" gradientUnits="userSpaceOnUse" spreadMethod="reflect" id="fill63"><stop offset="0" stop-color="#B1CBE9"/><stop offset="0.5" stop-color="#A3C1E5"/><stop offset="1" stop-color="#92B9E4"/></linearGradient><linearGradient x1="3104" y1="812" x2="3104" y2="968" gradientUnits="userSpaceOnUse" spreadMethod="reflect" id="fill64"><stop offset="0" stop-color="#8EA3BB"/><stop offset="0.5" stop-color="#839BB8"/><stop offset="1" stop-color="#7595B7"/></linearGradient><linearGradient x1="3104" y1="812" x2="3104" y2="968" gradientUnits="userSpaceOnUse" spreadMethod="reflect" id="fill65"><stop offset="0" stop-color="#C0D5ED"/><stop offset="0.5" stop-color="#B5CDEA"/><stop offset="1" stop-color="#A7C7E9"/></linearGradient><linearGradient x1="3239" y1="812" x2="3239" y2="968" gradientUnits="userSpaceOnUse" spreadMethod="reflect" id="fill66"><stop offset="0" stop-color="#B1CBE9"/><stop offset="0.5" stop-color="#A3C1E5"/><stop offset="1" stop-color="#92B9E4"/></linearGradient><linearGradient x1="3239" y1="812" x2="3239" y2="968" gradientUnits="userSpaceOnUse" spreadMethod="reflect" id="fill67"><stop offset="0" stop-color="#8EA3BB"/><stop offset="0.5" stop-color="#839BB8"/><stop offset="1" stop-color="#7595B7"/></linearGradient><linearGradient x1="3239" y1="812" x2="3239" y2="968" gradientUnits="userSpaceOnUse" spreadMethod="reflect" id="fill68"><stop offset="0" stop-color="#C0D5ED"/><stop offset="0.5" stop-color="#B5CDEA"/><stop offset="1" stop-color="#A7C7E9"/></linearGradient><linearGradient x1="3046" y1="690" x2="3046" y2="794" gradientUnits="userSpaceOnUse" spreadMethod="reflect" id="fill69"><stop offset="0" stop-color="#B5D5A7"/><stop offset="0.5" stop-color="#AACE99"/><stop offset="1" stop-color="#9CCA86"/></linearGradient><linearGradient x1="3046" y1="690" x2="3046" y2="794" gradientUnits="userSpaceOnUse" spreadMethod="reflect" id="fill70"><stop offset="0" stop-color="#92AB86"/><stop offset="0.5" stop-color="#89A67B"/><stop offset="1" stop-color="#7DA26C"/></linearGradient></defs><g clip-path="url(#clip0)" transform="translate(-143 -675)"><rect x="156" y="851" width="117" height="117" fill="url(#fill1)"/><path d="M273 851 312 812 312 929 273 968Z" fill="url(#fill2)" fill-rule="evenodd"/><path d="M156 851 195 812 312 812 273 851Z" fill="url(#fill3)" fill-rule="evenodd"/><path d="M156 851 195 812 312 812 312 929 273 968 156 968ZM156 851 273 851 312 812M273 851 273 968" stroke="#5B9BD5" stroke-width="2.29167" stroke-miterlimit="8" fill="none" fill-rule="evenodd"/><text font-family="Yu Gothic UI,Yu Gothic UI_MSFontService,sans-serif" font-weight="400" font-size="55" transform="matrix(1 0 0 1 189.421 911)">00<tspan font-size="37" x="-13.6298" y="46">(8bit)</tspan></text><rect x="292" y="851" width="117" height="117" fill="url(#fill4)"/><path d="M409 851 448 812 448 929 409 968Z" fill="url(#fill5)" fill-rule="evenodd"/><path d="M292 851 331 812 448 812 409 851Z" fill="url(#fill6)" fill-rule="evenodd"/><path d="M292 851 331 812 448 812 448 929 409 968 292 968ZM292 851 409 851 448 812M409 851 409 968" stroke="#5B9BD5" stroke-width="2.29167" stroke-miterlimit="8" fill="none" fill-rule="evenodd"/><text font-family="Yu Gothic UI,Yu Gothic UI_MSFontService,sans-serif" font-weight="400" font-size="55" transform="matrix(1 0 0 1 325.471 911)">00<tspan font-size="37" x="-13.6298" y="46">(8bit)</tspan></text><rect x="428" y="851" width="117" height="117" fill="url(#fill7)"/><path d="M545 851 584 812 584 929 545 968Z" fill="url(#fill8)" fill-rule="evenodd"/><path d="M428 851 467 812 584 812 545 851Z" fill="url(#fill9)" fill-rule="evenodd"/><path d="M428 851 467 812 584 812 584 929 545 968 428 968ZM428 851 545 851 584 812M545 851 545 968" stroke="#5B9BD5" stroke-width="2.29167" stroke-miterlimit="8" fill="none" fill-rule="evenodd"/><text font-family="Yu Gothic UI,Yu Gothic UI_MSFontService,sans-serif" font-weight="400" font-size="55" transform="matrix(1 0 0 1 461.227 911)">30<tspan font-size="37" x="-13.6298" y="46">(8bit)</tspan></text><rect x="563" y="850.75" width="116.25" height="117.25" fill="url(#fill10)"/><path d="M679.25 850.75 718 812 718 929.25 679.25 968Z" fill="url(#fill11)" fill-rule="evenodd"/><path d="M563 850.75 601.75 812 718 812 679.25 850.75Z" fill="url(#fill12)" fill-rule="evenodd"/><path d="M563 850.75 601.75 812 718 812 718 929.25 679.25 968 563 968ZM563 850.75 679.25 850.75 718 812M679.25 850.75 679.25 968" stroke="#5B9BD5" stroke-width="2.29167" stroke-miterlimit="8" fill="none" fill-rule="evenodd"/><text font-family="Yu Gothic UI,Yu Gothic UI_MSFontService,sans-serif" font-weight="400" font-size="55" transform="matrix(1 0 0 1 596.2 911)">5<tspan font-size="55" x="29.7917" y="0">3</tspan><tspan font-size="37" x="-13.6298" y="46">(8bit)</tspan></text><path d="M678 977C678 981.418 677.403 985 676.666 985L417.333 985C416.597 985 416 988.582 416 993 416 988.582 415.403 985 414.666 985L155.333 985C154.597 985 154 981.418 154 977" stroke="#4472C4" stroke-width="2.29167" stroke-miterlimit="8" fill="none" fill-rule="evenodd"/><text font-family="Yu Gothic UI,Yu Gothic UI_MSFontService,sans-serif" font-weight="400" font-size="37" transform="matrix(1 0 0 1 365.123 1038)">(32bit)</text><path d="M395 690 499 690 499 776.666 481.666 794 395 794Z" fill="url(#fill13)" fill-rule="evenodd"/><path d="M481.666 794 485.133 780.133 499 776.666Z" fill="url(#fill14)" fill-rule="evenodd"/><path d="M481.666 794 485.133 780.133 499 776.666 481.666 794 395 794 395 690 499 690 499 776.666" stroke="#70AD47" stroke-width="2.29167" stroke-miterlimit="8" fill="none" fill-rule="evenodd"/><text font-family="Yu Gothic UI,Yu Gothic UI_MSFontService,sans-serif" font-weight="400" font-size="64" transform="matrix(1 0 0 1 426.178 757)">こ</text><rect x="805" y="851" width="117" height="117" fill="url(#fill15)"/><path d="M922 851 961 812 961 929 922 968Z" fill="url(#fill16)" fill-rule="evenodd"/><path d="M805 851 844 812 961 812 922 851Z" fill="url(#fill17)" fill-rule="evenodd"/><path d="M805 851 844 812 961 812 961 929 922 968 805 968ZM805 851 922 851 961 812M922 851 922 968" stroke="#5B9BD5" stroke-width="2.29167" stroke-miterlimit="8" fill="none" fill-rule="evenodd"/><text font-family="Yu Gothic UI,Yu Gothic UI_MSFontService,sans-serif" font-weight="400" font-size="55" transform="matrix(1 0 0 1 839.027 911)">00<tspan font-size="37" x="-13.6298" y="46">(8bit)</tspan></text><rect x="941" y="851" width="117" height="117" fill="url(#fill18)"/><path d="M1058 851 1097 812 1097 929 1058 968Z" fill="url(#fill19)" fill-rule="evenodd"/><path d="M941 851 980 812 1097 812 1058 851Z" fill="url(#fill20)" fill-rule="evenodd"/><path d="M941 851 980 812 1097 812 1097 929 1058 968 941 968ZM941 851 1058 851 1097 812M1058 851 1058 968" stroke="#5B9BD5" stroke-width="2.29167" stroke-miterlimit="8" fill="none" fill-rule="evenodd"/><text font-family="Yu Gothic UI,Yu Gothic UI_MSFontService,sans-serif" font-weight="400" font-size="55" transform="matrix(1 0 0 1 975.078 911)">00<tspan font-size="37" x="-13.6298" y="46">(8bit)</tspan></text><rect x="1077" y="851" width="117" height="117" fill="url(#fill21)"/><path d="M1194 851 1233 812 1233 929 1194 968Z" fill="url(#fill22)" fill-rule="evenodd"/><path d="M1077 851 1116 812 1233 812 1194 851Z" fill="url(#fill23)" fill-rule="evenodd"/><path d="M1077 851 1116 812 1233 812 1233 929 1194 968 1077 968ZM1077 851 1194 851 1233 812M1194 851 1194 968" stroke="#5B9BD5" stroke-width="2.29167" stroke-miterlimit="8" fill="none" fill-rule="evenodd"/><text font-family="Yu Gothic UI,Yu Gothic UI_MSFontService,sans-serif" font-weight="400" font-size="55" transform="matrix(1 0 0 1 1110.83 911)">30<tspan font-size="37" x="-13.6299" y="46">(8bit)</tspan></text><rect x="1212" y="851" width="117" height="117" fill="url(#fill24)"/><path d="M1329 851 1368 812 1368 929 1329 968Z" fill="url(#fill25)" fill-rule="evenodd"/><path d="M1212 851 1251 812 1368 812 1329 851Z" fill="url(#fill26)" fill-rule="evenodd"/><path d="M1212 851 1251 812 1368 812 1368 929 1329 968 1212 968ZM1212 851 1329 851 1368 812M1329 851 1329 968" stroke="#5B9BD5" stroke-width="2.29167" stroke-miterlimit="8" fill="none" fill-rule="evenodd"/><text font-family="Yu Gothic UI,Yu Gothic UI_MSFontService,sans-serif" font-weight="400" font-size="55" transform="matrix(1 0 0 1 1245.81 911)">93<tspan font-size="37" x="-13.6303" y="46">(8bit)</tspan></text><path d="M1328 977C1328 981.418 1327.4 985 1326.67 985L1066.83 985C1066.1 985 1065.5 988.582 1065.5 993.001 1065.5 988.582 1064.9 985 1064.17 985L804.333 985C803.597 985 803 981.418 803 977" stroke="#4472C4" stroke-width="2.29167" stroke-miterlimit="8" fill="none" fill-rule="evenodd"/><text font-family="Yu Gothic UI,Yu Gothic UI_MSFontService,sans-serif" font-weight="400" font-size="37" transform="matrix(1 0 0 1 1014.73 1038)">(32bit)</text><path d="M1045 690 1149 690 1149 776.666 1131.67 794 1045 794Z" fill="url(#fill27)" fill-rule="evenodd"/><path d="M1131.67 794 1135.13 780.133 1149 776.666Z" fill="url(#fill28)" fill-rule="evenodd"/><path d="M1131.67 794 1135.13 780.133 1149 776.666 1131.67 794 1045 794 1045 690 1149 690 1149 776.666" stroke="#70AD47" stroke-width="2.29167" stroke-miterlimit="8" fill="none" fill-rule="evenodd"/><text font-family="Yu Gothic UI,Yu Gothic UI_MSFontService,sans-serif" font-weight="400" font-size="64" transform="matrix(1 0 0 1 1070.63 757)">ん</text><rect x="1455" y="851" width="117" height="117" fill="url(#fill29)"/><path d="M1572 851 1611 812 1611 929 1572 968Z" fill="url(#fill30)" fill-rule="evenodd"/><path d="M1455 851 1494 812 1611 812 1572 851Z" fill="url(#fill31)" fill-rule="evenodd"/><path d="M1455 851 1494 812 1611 812 1611 929 1572 968 1455 968ZM1455 851 1572 851 1611 812M1572 851 1572 968" stroke="#5B9BD5" stroke-width="2.29167" stroke-miterlimit="8" fill="none" fill-rule="evenodd"/><text font-family="Yu Gothic UI,Yu Gothic UI_MSFontService,sans-serif" font-weight="400" font-size="55" transform="matrix(1 0 0 1 1488.63 911)">00<tspan font-size="37" x="-13.6299" y="46">(8bit)</tspan></text><rect x="1591" y="851" width="117" height="117" fill="url(#fill32)"/><path d="M1708 851 1747 812 1747 929 1708 968Z" fill="url(#fill33)" fill-rule="evenodd"/><path d="M1591 851 1630 812 1747 812 1708 851Z" fill="url(#fill34)" fill-rule="evenodd"/><path d="M1591 851 1630 812 1747 812 1747 929 1708 968 1591 968ZM1591 851 1708 851 1747 812M1708 851 1708 968" stroke="#5B9BD5" stroke-width="2.29167" stroke-miterlimit="8" fill="none" fill-rule="evenodd"/><text font-family="Yu Gothic UI,Yu Gothic UI_MSFontService,sans-serif" font-weight="400" font-size="55" transform="matrix(1 0 0 1 1624.68 911)">00<tspan font-size="37" x="-13.6299" y="46">(8bit)</tspan></text><rect x="1727" y="851" width="117" height="117" fill="url(#fill35)"/><path d="M1844 851 1883 812 1883 929 1844 968Z" fill="url(#fill36)" fill-rule="evenodd"/><path d="M1727 851 1766 812 1883 812 1844 851Z" fill="url(#fill37)" fill-rule="evenodd"/><path d="M1727 851 1766 812 1883 812 1883 929 1844 968 1727 968ZM1727 851 1844 851 1883 812M1844 851 1844 968" stroke="#5B9BD5" stroke-width="2.29167" stroke-miterlimit="8" fill="none" fill-rule="evenodd"/><text font-family="Yu Gothic UI,Yu Gothic UI_MSFontService,sans-serif" font-weight="400" font-size="55" transform="matrix(1 0 0 1 1760.44 911)">30<tspan font-size="37" x="-13.6298" y="46">(8bit)</tspan></text><rect x="1862" y="851" width="117" height="117" fill="url(#fill38)"/><path d="M1979 851 2018 812 2018 929 1979 968Z" fill="url(#fill39)" fill-rule="evenodd"/><path d="M1862 851 1901 812 2018 812 1979 851Z" fill="url(#fill40)" fill-rule="evenodd"/><path d="M1862 851 1901 812 2018 812 2018 929 1979 968 1862 968ZM1862 851 1979 851 2018 812M1979 851 1979 968" stroke="#5B9BD5" stroke-width="2.29167" stroke-miterlimit="8" fill="none" fill-rule="evenodd"/><text font-family="Yu Gothic UI,Yu Gothic UI_MSFontService,sans-serif" font-weight="400" font-size="55" transform="matrix(1 0 0 1 1895.41 911)">68<tspan font-size="37" x="-13.6298" y="46">(8bit)</tspan></text><path d="M1977 977C1977 981.418 1976.4 985 1975.67 985L1716.33 985C1715.6 985 1715 988.582 1715 993 1715 988.582 1714.4 985 1713.67 985L1454.33 985C1453.6 985 1453 981.418 1453 977" stroke="#4472C4" stroke-width="2.29167" stroke-miterlimit="8" fill="none" fill-rule="evenodd"/><text font-family="Yu Gothic UI,Yu Gothic UI_MSFontService,sans-serif" font-weight="400" font-size="37" transform="matrix(1 0 0 1 1664.34 1038)">(32bit)</text><path d="M1694 690 1798 690 1798 776.666 1780.67 794 1694 794Z" fill="url(#fill41)" fill-rule="evenodd"/><path d="M1780.67 794 1784.13 780.133 1798 776.666Z" fill="url(#fill42)" fill-rule="evenodd"/><path d="M1780.67 794 1784.13 780.133 1798 776.666 1780.67 794 1694 794 1694 690 1798 690 1798 776.666" stroke="#70AD47" stroke-width="2.29167" stroke-miterlimit="8" fill="none" fill-rule="evenodd"/><text font-family="Yu Gothic UI,Yu Gothic UI_MSFontService,sans-serif" font-weight="400" font-size="64" transform="matrix(1 0 0 1 1721.38 757)">に</text><rect x="2105" y="851" width="117" height="117" fill="url(#fill43)"/><path d="M2222 851 2261 812 2261 929 2222 968Z" fill="url(#fill44)" fill-rule="evenodd"/><path d="M2105 851 2144 812 2261 812 2222 851Z" fill="url(#fill45)" fill-rule="evenodd"/><path d="M2105 851 2144 812 2261 812 2261 929 2222 968 2105 968ZM2105 851 2222 851 2261 812M2222 851 2222 968" stroke="#5B9BD5" stroke-width="2.29167" stroke-miterlimit="8" fill="none" fill-rule="evenodd"/><text font-family="Yu Gothic UI,Yu Gothic UI_MSFontService,sans-serif" font-weight="400" font-size="55" transform="matrix(1 0 0 1 2138.24 911)">00<tspan font-size="37" x="-13.6299" y="46">(8bit)</tspan></text><rect x="2241" y="851" width="117" height="117" fill="url(#fill46)"/><path d="M2358 851 2397 812 2397 929 2358 968Z" fill="url(#fill47)" fill-rule="evenodd"/><path d="M2241 851 2280 812 2397 812 2358 851Z" fill="url(#fill48)" fill-rule="evenodd"/><path d="M2241 851 2280 812 2397 812 2397 929 2358 968 2241 968ZM2241 851 2358 851 2397 812M2358 851 2358 968" stroke="#5B9BD5" stroke-width="2.29167" stroke-miterlimit="8" fill="none" fill-rule="evenodd"/><text font-family="Yu Gothic UI,Yu Gothic UI_MSFontService,sans-serif" font-weight="400" font-size="55" transform="matrix(1 0 0 1 2274.29 911)">00<tspan font-size="37" x="-13.6299" y="46">(8bit)</tspan></text><rect x="2376" y="851" width="117" height="117" fill="url(#fill49)"/><path d="M2493 851 2532 812 2532 929 2493 968Z" fill="url(#fill50)" fill-rule="evenodd"/><path d="M2376 851 2415 812 2532 812 2493 851Z" fill="url(#fill51)" fill-rule="evenodd"/><path d="M2376 851 2415 812 2532 812 2532 929 2493 968 2376 968ZM2376 851 2493 851 2532 812M2493 851 2493 968" stroke="#5B9BD5" stroke-width="2.29167" stroke-miterlimit="8" fill="none" fill-rule="evenodd"/><text font-family="Yu Gothic UI,Yu Gothic UI_MSFontService,sans-serif" font-weight="400" font-size="55" transform="matrix(1 0 0 1 2410.05 911)">30<tspan font-size="37" x="-13.6299" y="46">(8bit)</tspan></text><rect x="2511" y="851" width="117" height="117" fill="url(#fill52)"/><path d="M2628 851 2667 812 2667 929 2628 968Z" fill="url(#fill53)" fill-rule="evenodd"/><path d="M2511 851 2550 812 2667 812 2628 851Z" fill="url(#fill54)" fill-rule="evenodd"/><path d="M2511 851 2550 812 2667 812 2667 929 2628 968 2511 968ZM2511 851 2628 851 2667 812M2628 851 2628 968" stroke="#5B9BD5" stroke-width="2.29167" stroke-miterlimit="8" fill="none" fill-rule="evenodd"/><text font-family="Yu Gothic UI,Yu Gothic UI_MSFontService,sans-serif" font-weight="400" font-size="55" transform="matrix(1 0 0 1 2545.02 911)">61<tspan font-size="37" x="-13.6296" y="46">(8bit)</tspan></text><path d="M2627 977C2627 981.418 2626.4 985 2625.67 985L2366.33 985C2365.6 985 2365 988.582 2365 993 2365 988.582 2364.4 985 2363.67 985L2104.33 985C2103.6 985 2103 981.418 2103 977" stroke="#4472C4" stroke-width="2.29167" stroke-miterlimit="8" fill="none" fill-rule="evenodd"/><text font-family="Yu Gothic UI,Yu Gothic UI_MSFontService,sans-serif" font-weight="400" font-size="37" transform="matrix(1 0 0 1 2313.94 1038)">(32bit)</text><path d="M2344 690 2448 690 2448 776.666 2430.67 794 2344 794Z" fill="url(#fill55)" fill-rule="evenodd"/><path d="M2430.67 794 2434.13 780.133 2448 776.666Z" fill="url(#fill56)" fill-rule="evenodd"/><path d="M2430.67 794 2434.13 780.133 2448 776.666 2430.67 794 2344 794 2344 690 2448 690 2448 776.666" stroke="#70AD47" stroke-width="2.29167" stroke-miterlimit="8" fill="none" fill-rule="evenodd"/><text font-family="Yu Gothic UI,Yu Gothic UI_MSFontService,sans-serif" font-weight="400" font-size="64" transform="matrix(1 0 0 1 2371.85 757)">ち</text><rect x="2754" y="851" width="117" height="117" fill="url(#fill57)"/><path d="M2871 851 2910 812 2910 929 2871 968Z" fill="url(#fill58)" fill-rule="evenodd"/><path d="M2754 851 2793 812 2910 812 2871 851Z" fill="url(#fill59)" fill-rule="evenodd"/><path d="M2754 851 2793 812 2910 812 2910 929 2871 968 2754 968ZM2754 851 2871 851 2910 812M2871 851 2871 968" stroke="#5B9BD5" stroke-width="2.29167" stroke-miterlimit="8" fill="none" fill-rule="evenodd"/><text font-family="Yu Gothic UI,Yu Gothic UI_MSFontService,sans-serif" font-weight="400" font-size="55" transform="matrix(1 0 0 1 2787.9 911)">00<tspan font-size="37" x="-13.6299" y="46">(8bit)</tspan></text><rect x="2890" y="851" width="117" height="117" fill="url(#fill60)"/><path d="M3007 851 3046 812 3046 929 3007 968Z" fill="url(#fill61)" fill-rule="evenodd"/><path d="M2890 851 2929 812 3046 812 3007 851Z" fill="url(#fill62)" fill-rule="evenodd"/><path d="M2890 851 2929 812 3046 812 3046 929 3007 968 2890 968ZM2890 851 3007 851 3046 812M3007 851 3007 968" stroke="#5B9BD5" stroke-width="2.29167" stroke-miterlimit="8" fill="none" fill-rule="evenodd"/><text font-family="Yu Gothic UI,Yu Gothic UI_MSFontService,sans-serif" font-weight="400" font-size="55" transform="matrix(1 0 0 1 2923.95 911)">00<tspan font-size="37" x="-13.6299" y="46">(8bit)</tspan></text><rect x="3026" y="851" width="117" height="117" fill="url(#fill63)"/><path d="M3143 851 3182 812 3182 929 3143 968Z" fill="url(#fill64)" fill-rule="evenodd"/><path d="M3026 851 3065 812 3182 812 3143 851Z" fill="url(#fill65)" fill-rule="evenodd"/><path d="M3026 851 3065 812 3182 812 3182 929 3143 968 3026 968ZM3026 851 3143 851 3182 812M3143 851 3143 968" stroke="#5B9BD5" stroke-width="2.29167" stroke-miterlimit="8" fill="none" fill-rule="evenodd"/><text font-family="Yu Gothic UI,Yu Gothic UI_MSFontService,sans-serif" font-weight="400" font-size="55" transform="matrix(1 0 0 1 3059.71 911)">30<tspan font-size="37" x="-13.6299" y="46">(8bit)</tspan></text><rect x="3161" y="851" width="117" height="117" fill="url(#fill66)"/><path d="M3278 851 3317 812 3317 929 3278 968Z" fill="url(#fill67)" fill-rule="evenodd"/><path d="M3161 851 3200 812 3317 812 3278 851Z" fill="url(#fill68)" fill-rule="evenodd"/><path d="M3161 851 3200 812 3317 812 3317 929 3278 968 3161 968ZM3161 851 3278 851 3317 812M3278 851 3278 968" stroke="#5B9BD5" stroke-width="2.29167" stroke-miterlimit="8" fill="none" fill-rule="evenodd"/><text font-family="Yu Gothic UI,Yu Gothic UI_MSFontService,sans-serif" font-weight="400" font-size="55" transform="matrix(1 0 0 1 3196.11 911)">6F<tspan font-size="37" x="-15.062" y="46">(8bit)</tspan></text><path d="M3277 977C3277 981.418 3276.4 985 3275.67 985L3015.83 985C3015.1 985 3014.5 988.582 3014.5 993.001 3014.5 988.582 3013.9 985 3013.17 985L2753.33 985C2752.6 985 2752 981.418 2752 977" stroke="#4472C4" stroke-width="2.29167" stroke-miterlimit="8" fill="none" fill-rule="evenodd"/><text font-family="Yu Gothic UI,Yu Gothic UI_MSFontService,sans-serif" font-weight="400" font-size="37" transform="matrix(1 0 0 1 2963.61 1038)">(32bit)</text><path d="M2994 690 3098 690 3098 776.666 3080.67 794 2994 794Z" fill="url(#fill69)" fill-rule="evenodd"/><path d="M3080.67 794 3084.13 780.133 3098 776.666Z" fill="url(#fill70)" fill-rule="evenodd"/><path d="M3080.67 794 3084.13 780.133 3098 776.666 3080.67 794 2994 794 2994 690 3098 690 3098 776.666" stroke="#70AD47" stroke-width="2.29167" stroke-miterlimit="8" fill="none" fill-rule="evenodd"/><text font-family="Yu Gothic UI,Yu Gothic UI_MSFontService,sans-serif" font-weight="400" font-size="64" transform="matrix(1 0 0 1 3018.07 757)">は</text></g></svg>