<svg width="1865" height="394" xmlns="http://www.w3.org/2000/svg" xmlns:xlink="http://www.w3.org/1999/xlink" xml:space="preserve" overflow="hidden"><defs><clipPath id="clip0"><rect x="618" y="1082" width="1865" height="394"/></clipPath><linearGradient x1="709" y1="1220" x2="709" y2="1376" gradientUnits="userSpaceOnUse" spreadMethod="reflect" id="fill1"><stop offset="0" stop-color="#B1CBE9"/><stop offset="0.5" stop-color="#A3C1E5"/><stop offset="1" stop-color="#92B9E4"/></linearGradient><linearGradient x1="709" y1="1220" x2="709" y2="1376" gradientUnits="userSpaceOnUse" spreadMethod="reflect" id="fill2"><stop offset="0" stop-color="#8EA3BB"/><stop offset="0.5" stop-color="#839BB8"/><stop offset="1" stop-color="#7595B7"/></linearGradient><linearGradient x1="709" y1="1220" x2="709" y2="1376" gradientUnits="userSpaceOnUse" spreadMethod="reflect" id="fill3"><stop offset="0" stop-color="#C0D5ED"/><stop offset="0.5" stop-color="#B5CDEA"/><stop offset="1" stop-color="#A7C7E9"/></linearGradient><linearGradient x1="845" y1="1220" x2="845" y2="1376" gradientUnits="userSpaceOnUse" spreadMethod="reflect" id="fill4"><stop offset="0" stop-color="#B1CBE9"/><stop offset="0.5" stop-color="#A3C1E5"/><stop offset="1" stop-color="#92B9E4"/></linearGradient><linearGradient x1="845" y1="1220" x2="845" y2="1376" gradientUnits="userSpaceOnUse" spreadMethod="reflect" id="fill5"><stop offset="0" stop-color="#8EA3BB"/><stop offset="0.5" stop-color="#839BB8"/><stop offset="1" stop-color="#7595B7"/></linearGradient><linearGradient x1="845" y1="1220" x2="845" y2="1376" gradientUnits="userSpaceOnUse" spreadMethod="reflect" id="fill6"><stop offset="0" stop-color="#C0D5ED"/><stop offset="0.5" stop-color="#B5CDEA"/><stop offset="1" stop-color="#A7C7E9"/></linearGradient><linearGradient x1="789" y1="1097" x2="789" y2="1201" gradientUnits="userSpaceOnUse" spreadMethod="reflect" id="fill7"><stop offset="0" stop-color="#B5D5A7"/><stop offset="0.5" stop-color="#AACE99"/><stop offset="1" stop-color="#9CCA86"/></linearGradient><linearGradient x1="789" y1="1097" x2="789" y2="1201" gradientUnits="userSpaceOnUse" spreadMethod="reflect" id="fill8"><stop offset="0" stop-color="#92AB86"/><stop offset="0.5" stop-color="#89A67B"/><stop offset="1" stop-color="#7DA26C"/></linearGradient><linearGradient x1="1099" y1="1220" x2="1099" y2="1376" gradientUnits="userSpaceOnUse" spreadMethod="reflect" id="fill9"><stop offset="0" stop-color="#B1CBE9"/><stop offset="0.5" stop-color="#A3C1E5"/><stop offset="1" stop-color="#92B9E4"/></linearGradient><linearGradient x1="1099" y1="1220" x2="1099" y2="1376" gradientUnits="userSpaceOnUse" spreadMethod="reflect" id="fill10"><stop offset="0" stop-color="#8EA3BB"/><stop offset="0.5" stop-color="#839BB8"/><stop offset="1" stop-color="#7595B7"/></linearGradient><linearGradient x1="1099" y1="1220" x2="1099" y2="1376" gradientUnits="userSpaceOnUse" spreadMethod="reflect" id="fill11"><stop offset="0" stop-color="#C0D5ED"/><stop offset="0.5" stop-color="#B5CDEA"/><stop offset="1" stop-color="#A7C7E9"/></linearGradient><linearGradient x1="1235" y1="1220" x2="1235" y2="1376" gradientUnits="userSpaceOnUse" spreadMethod="reflect" id="fill12"><stop offset="0" stop-color="#B1CBE9"/><stop offset="0.5" stop-color="#A3C1E5"/><stop offset="1" stop-color="#92B9E4"/></linearGradient><linearGradient x1="1235" y1="1220" x2="1235" y2="1376" gradientUnits="userSpaceOnUse" spreadMethod="reflect" id="fill13"><stop offset="0" stop-color="#8EA3BB"/><stop offset="0.5" stop-color="#839BB8"/><stop offset="1" stop-color="#7595B7"/></linearGradient><linearGradient x1="1235" y1="1220" x2="1235" y2="1376" gradientUnits="userSpaceOnUse" spreadMethod="reflect" id="fill14"><stop offset="0" stop-color="#C0D5ED"/><stop offset="0.5" stop-color="#B5CDEA"/><stop offset="1" stop-color="#A7C7E9"/></linearGradient><linearGradient x1="1178" y1="1097" x2="1178" y2="1201" gradientUnits="userSpaceOnUse" spreadMethod="reflect" id="fill15"><stop offset="0" stop-color="#B5D5A7"/><stop offset="0.5" stop-color="#AACE99"/><stop offset="1" stop-color="#9CCA86"/></linearGradient><linearGradient x1="1178" y1="1097" x2="1178" y2="1201" gradientUnits="userSpaceOnUse" spreadMethod="reflect" id="fill16"><stop offset="0" stop-color="#92AB86"/><stop offset="0.5" stop-color="#89A67B"/><stop offset="1" stop-color="#7DA26C"/></linearGradient><linearGradient x1="1489" y1="1220" x2="1489" y2="1376" gradientUnits="userSpaceOnUse" spreadMethod="reflect" id="fill17"><stop offset="0" stop-color="#B1CBE9"/><stop offset="0.5" stop-color="#A3C1E5"/><stop offset="1" stop-color="#92B9E4"/></linearGradient><linearGradient x1="1489" y1="1220" x2="1489" y2="1376" gradientUnits="userSpaceOnUse" spreadMethod="reflect" id="fill18"><stop offset="0" stop-color="#8EA3BB"/><stop offset="0.5" stop-color="#839BB8"/><stop offset="1" stop-color="#7595B7"/></linearGradient><linearGradient x1="1489" y1="1220" x2="1489" y2="1376" gradientUnits="userSpaceOnUse" spreadMethod="reflect" id="fill19"><stop offset="0" stop-color="#C0D5ED"/><stop offset="0.5" stop-color="#B5CDEA"/><stop offset="1" stop-color="#A7C7E9"/></linearGradient><linearGradient x1="1625" y1="1220" x2="1625" y2="1376" gradientUnits="userSpaceOnUse" spreadMethod="reflect" id="fill20"><stop offset="0" stop-color="#B1CBE9"/><stop offset="0.5" stop-color="#A3C1E5"/><stop offset="1" stop-color="#92B9E4"/></linearGradient><linearGradient x1="1625" y1="1220" x2="1625" y2="1376" gradientUnits="userSpaceOnUse" spreadMethod="reflect" id="fill21"><stop offset="0" stop-color="#8EA3BB"/><stop offset="0.5" stop-color="#839BB8"/><stop offset="1" stop-color="#7595B7"/></linearGradient><linearGradient x1="1625" y1="1220" x2="1625" y2="1376" gradientUnits="userSpaceOnUse" spreadMethod="reflect" id="fill22"><stop offset="0" stop-color="#C0D5ED"/><stop offset="0.5" stop-color="#B5CDEA"/><stop offset="1" stop-color="#A7C7E9"/></linearGradient><linearGradient x1="1568" y1="1097" x2="1568" y2="1201" gradientUnits="userSpaceOnUse" spreadMethod="reflect" id="fill23"><stop offset="0" stop-color="#B5D5A7"/><stop offset="0.5" stop-color="#AACE99"/><stop offset="1" stop-color="#9CCA86"/></linearGradient><linearGradient x1="1568" y1="1097" x2="1568" y2="1201" gradientUnits="userSpaceOnUse" spreadMethod="reflect" id="fill24"><stop offset="0" stop-color="#92AB86"/><stop offset="0.5" stop-color="#89A67B"/><stop offset="1" stop-color="#7DA26C"/></linearGradient><linearGradient x1="1878.5" y1="1220" x2="1878.5" y2="1376" gradientUnits="userSpaceOnUse" spreadMethod="reflect" id="fill25"><stop offset="0" stop-color="#B1CBE9"/><stop offset="0.5" stop-color="#A3C1E5"/><stop offset="1" stop-color="#92B9E4"/></linearGradient><linearGradient x1="1878.5" y1="1220" x2="1878.5" y2="1376" gradientUnits="userSpaceOnUse" spreadMethod="reflect" id="fill26"><stop offset="0" stop-color="#8EA3BB"/><stop offset="0.5" stop-color="#839BB8"/><stop offset="1" stop-color="#7595B7"/></linearGradient><linearGradient x1="1878.5" y1="1220" x2="1878.5" y2="1376" gradientUnits="userSpaceOnUse" spreadMethod="reflect" id="fill27"><stop offset="0" stop-color="#C0D5ED"/><stop offset="0.5" stop-color="#B5CDEA"/><stop offset="1" stop-color="#A7C7E9"/></linearGradient><linearGradient x1="2015" y1="1220" x2="2015" y2="1376" gradientUnits="userSpaceOnUse" spreadMethod="reflect" id="fill28"><stop offset="0" stop-color="#B1CBE9"/><stop offset="0.5" stop-color="#A3C1E5"/><stop offset="1" stop-color="#92B9E4"/></linearGradient><linearGradient x1="2015" y1="1220" x2="2015" y2="1376" gradientUnits="userSpaceOnUse" spreadMethod="reflect" id="fill29"><stop offset="0" stop-color="#8EA3BB"/><stop offset="0.5" stop-color="#839BB8"/><stop offset="1" stop-color="#7595B7"/></linearGradient><linearGradient x1="2015" y1="1220" x2="2015" y2="1376" gradientUnits="userSpaceOnUse" spreadMethod="reflect" id="fill30"><stop offset="0" stop-color="#C0D5ED"/><stop offset="0.5" stop-color="#B5CDEA"/><stop offset="1" stop-color="#A7C7E9"/></linearGradient><linearGradient x1="1958" y1="1097" x2="1958" y2="1201" gradientUnits="userSpaceOnUse" spreadMethod="reflect" id="fill31"><stop offset="0" stop-color="#B5D5A7"/><stop offset="0.5" stop-color="#AACE99"/><stop offset="1" stop-color="#9CCA86"/></linearGradient><linearGradient x1="1958" y1="1097" x2="1958" y2="1201" gradientUnits="userSpaceOnUse" spreadMethod="reflect" id="fill32"><stop offset="0" stop-color="#92AB86"/><stop offset="0.5" stop-color="#89A67B"/><stop offset="1" stop-color="#7DA26C"/></linearGradient><linearGradient x1="2268" y1="1220" x2="2268" y2="1376" gradientUnits="userSpaceOnUse" spreadMethod="reflect" id="fill33"><stop offset="0" stop-color="#B1CBE9"/><stop offset="0.5" stop-color="#A3C1E5"/><stop offset="1" stop-color="#92B9E4"/></linearGradient><linearGradient x1="2268" y1="1220" x2="2268" y2="1376" gradientUnits="userSpaceOnUse" spreadMethod="reflect" id="fill34"><stop offset="0" stop-color="#8EA3BB"/><stop offset="0.5" stop-color="#839BB8"/><stop offset="1" stop-color="#7595B7"/></linearGradient><linearGradient x1="2268" y1="1220" x2="2268" y2="1376" gradientUnits="userSpaceOnUse" spreadMethod="reflect" id="fill35"><stop offset="0" stop-color="#C0D5ED"/><stop offset="0.5" stop-color="#B5CDEA"/><stop offset="1" stop-color="#A7C7E9"/></linearGradient><linearGradient x1="2404" y1="1220" x2="2404" y2="1376" gradientUnits="userSpaceOnUse" spreadMethod="reflect" id="fill36"><stop offset="0" stop-color="#B1CBE9"/><stop offset="0.5" stop-color="#A3C1E5"/><stop offset="1" stop-color="#92B9E4"/></linearGradient><linearGradient x1="2404" y1="1220" x2="2404" y2="1376" gradientUnits="userSpaceOnUse" spreadMethod="reflect" id="fill37"><stop offset="0" stop-color="#8EA3BB"/><stop offset="0.5" stop-color="#839BB8"/><stop offset="1" stop-color="#7595B7"/></linearGradient><linearGradient x1="2404" y1="1220" x2="2404" y2="1376" gradientUnits="userSpaceOnUse" spreadMethod="reflect" id="fill38"><stop offset="0" stop-color="#C0D5ED"/><stop offset="0.5" stop-color="#B5CDEA"/><stop offset="1" stop-color="#A7C7E9"/></linearGradient><linearGradient x1="2348" y1="1097" x2="2348" y2="1201" gradientUnits="userSpaceOnUse" spreadMethod="reflect" id="fill39"><stop offset="0" stop-color="#B5D5A7"/><stop offset="0.5" stop-color="#AACE99"/><stop offset="1" stop-color="#9CCA86"/></linearGradient><linearGradient x1="2348" y1="1097" x2="2348" y2="1201" gradientUnits="userSpaceOnUse" spreadMethod="reflect" id="fill40"><stop offset="0" stop-color="#92AB86"/><stop offset="0.5" stop-color="#89A67B"/><stop offset="1" stop-color="#7DA26C"/></linearGradient></defs><g clip-path="url(#clip0)" transform="translate(-618 -1082)"><rect x="631" y="1259" width="117" height="117" fill="url(#fill1)"/><path d="M748 1259 787 1220 787 1337 748 1376Z" fill="url(#fill2)" fill-rule="evenodd"/><path d="M631 1259 670 1220 787 1220 748 1259Z" fill="url(#fill3)" fill-rule="evenodd"/><path d="M631 1259 670 1220 787 1220 787 1337 748 1376 631 1376ZM631 1259 748 1259 787 1220M748 1259 748 1376" stroke="#5B9BD5" stroke-width="2.29167" stroke-miterlimit="8" fill="none" fill-rule="evenodd"/><text font-family="Yu Gothic UI,Yu Gothic UI_MSFontService,sans-serif" font-weight="400" font-size="55" transform="matrix(1 0 0 1 664.876 1318)">53<tspan font-size="37" x="-13.6298" y="46">(8bit)</tspan></text><rect x="767" y="1259" width="117" height="117" fill="url(#fill4)"/><path d="M884 1259 923 1220 923 1337 884 1376Z" fill="url(#fill5)" fill-rule="evenodd"/><path d="M767 1259 806 1220 923 1220 884 1259Z" fill="url(#fill6)" fill-rule="evenodd"/><path d="M767 1259 806 1220 923 1220 923 1337 884 1376 767 1376ZM767 1259 884 1259 923 1220M884 1259 884 1376" stroke="#5B9BD5" stroke-width="2.29167" stroke-miterlimit="8" fill="none" fill-rule="evenodd"/><text font-family="Yu Gothic UI,Yu Gothic UI_MSFontService,sans-serif" font-weight="400" font-size="55" transform="matrix(1 0 0 1 800.927 1318)">30<tspan font-size="37" x="-13.6298" y="46">(8bit)</tspan></text><path d="M737 1097 841 1097 841 1183.67 823.666 1201 737 1201Z" fill="url(#fill7)" fill-rule="evenodd"/><path d="M823.666 1201 827.133 1187.13 841 1183.67Z" fill="url(#fill8)" fill-rule="evenodd"/><path d="M823.666 1201 827.133 1187.13 841 1183.67 823.666 1201 737 1201 737 1097 841 1097 841 1183.67" stroke="#70AD47" stroke-width="2.29167" stroke-miterlimit="8" fill="none" fill-rule="evenodd"/><text font-family="Yu Gothic UI,Yu Gothic UI_MSFontService,sans-serif" font-weight="400" font-size="64" transform="matrix(1 0 0 1 767.631 1164)">こ</text><path d="M883 1385C883 1389.42 882.403 1393 881.667 1393L759.333 1393C758.597 1393 758 1396.58 758 1401 758 1396.58 757.403 1393 756.666 1393L634.333 1393C633.597 1393 633 1389.42 633 1385" stroke="#4472C4" stroke-width="2.29167" stroke-miterlimit="8" fill="none" fill-rule="evenodd"/><text font-family="Yu Gothic UI,Yu Gothic UI_MSFontService,sans-serif" font-weight="400" font-size="37" transform="matrix(1 0 0 1 706.157 1445)">(16bit)</text><rect x="1021" y="1259" width="117" height="117" fill="url(#fill9)"/><path d="M1138 1259 1177 1220 1177 1337 1138 1376Z" fill="url(#fill10)" fill-rule="evenodd"/><path d="M1021 1259 1060 1220 1177 1220 1138 1259Z" fill="url(#fill11)" fill-rule="evenodd"/><path d="M1021 1259 1060 1220 1177 1220 1177 1337 1138 1376 1021 1376ZM1021 1259 1138 1259 1177 1220M1138 1259 1138 1376" stroke="#5B9BD5" stroke-width="2.29167" stroke-miterlimit="8" fill="none" fill-rule="evenodd"/><text font-family="Yu Gothic UI,Yu Gothic UI_MSFontService,sans-serif" font-weight="400" font-size="55" transform="matrix(1 0 0 1 1054.64 1318)">93<tspan font-size="37" x="-13.6296" y="46">(8bit)</tspan></text><rect x="1157" y="1259" width="117" height="117" fill="url(#fill12)"/><path d="M1274 1259 1313 1220 1313 1337 1274 1376Z" fill="url(#fill13)" fill-rule="evenodd"/><path d="M1157 1259 1196 1220 1313 1220 1274 1259Z" fill="url(#fill14)" fill-rule="evenodd"/><path d="M1157 1259 1196 1220 1313 1220 1313 1337 1274 1376 1157 1376ZM1157 1259 1274 1259 1313 1220M1274 1259 1274 1376" stroke="#5B9BD5" stroke-width="2.29167" stroke-miterlimit="8" fill="none" fill-rule="evenodd"/><text font-family="Yu Gothic UI,Yu Gothic UI_MSFontService,sans-serif" font-weight="400" font-size="55" transform="matrix(1 0 0 1 1190.69 1318)">30<tspan font-size="37" x="-13.6299" y="46">(8bit)</tspan></text><path d="M1126 1097 1230 1097 1230 1183.67 1212.67 1201 1126 1201Z" fill="url(#fill15)" fill-rule="evenodd"/><path d="M1212.67 1201 1216.13 1187.13 1230 1183.67Z" fill="url(#fill16)" fill-rule="evenodd"/><path d="M1212.67 1201 1216.13 1187.13 1230 1183.67 1212.67 1201 1126 1201 1126 1097 1230 1097 1230 1183.67" stroke="#70AD47" stroke-width="2.29167" stroke-miterlimit="8" fill="none" fill-rule="evenodd"/><text font-family="Yu Gothic UI,Yu Gothic UI_MSFontService,sans-serif" font-weight="400" font-size="64" transform="matrix(1 0 0 1 1152.24 1164)">ん</text><path d="M1273 1385C1273 1389.42 1272.4 1393 1271.67 1393L1149.33 1393C1148.6 1393 1148 1396.58 1148 1401 1148 1396.58 1147.4 1393 1146.67 1393L1024.33 1393C1023.6 1393 1023 1389.42 1023 1385" stroke="#4472C4" stroke-width="2.29167" stroke-miterlimit="8" fill="none" fill-rule="evenodd"/><text font-family="Yu Gothic UI,Yu Gothic UI_MSFontService,sans-serif" font-weight="400" font-size="37" transform="matrix(1 0 0 1 1095.92 1445)">(16bit)</text><rect x="1411" y="1259" width="117" height="117" fill="url(#fill17)"/><path d="M1528 1259 1567 1220 1567 1337 1528 1376Z" fill="url(#fill18)" fill-rule="evenodd"/><path d="M1411 1259 1450 1220 1567 1220 1528 1259Z" fill="url(#fill19)" fill-rule="evenodd"/><path d="M1411 1259 1450 1220 1567 1220 1567 1337 1528 1376 1411 1376ZM1411 1259 1528 1259 1567 1220M1528 1259 1528 1376" stroke="#5B9BD5" stroke-width="2.29167" stroke-miterlimit="8" fill="none" fill-rule="evenodd"/><text font-family="Yu Gothic UI,Yu Gothic UI_MSFontService,sans-serif" font-weight="400" font-size="55" transform="matrix(1 0 0 1 1444.4 1318)">68<tspan font-size="37" x="-13.6296" y="46">(8bit)</tspan></text><rect x="1547" y="1259" width="117" height="117" fill="url(#fill20)"/><path d="M1664 1259 1703 1220 1703 1337 1664 1376Z" fill="url(#fill21)" fill-rule="evenodd"/><path d="M1547 1259 1586 1220 1703 1220 1664 1259Z" fill="url(#fill22)" fill-rule="evenodd"/><path d="M1547 1259 1586 1220 1703 1220 1703 1337 1664 1376 1547 1376ZM1547 1259 1664 1259 1703 1220M1664 1259 1664 1376" stroke="#5B9BD5" stroke-width="2.29167" stroke-miterlimit="8" fill="none" fill-rule="evenodd"/><text font-family="Yu Gothic UI,Yu Gothic UI_MSFontService,sans-serif" font-weight="400" font-size="55" transform="matrix(1 0 0 1 1580.45 1318)">30<tspan font-size="37" x="-13.6298" y="46">(8bit)</tspan></text><path d="M1516 1097 1620 1097 1620 1183.67 1602.67 1201 1516 1201Z" fill="url(#fill23)" fill-rule="evenodd"/><path d="M1602.67 1201 1606.13 1187.13 1620 1183.67Z" fill="url(#fill24)" fill-rule="evenodd"/><path d="M1602.67 1201 1606.13 1187.13 1620 1183.67 1602.67 1201 1516 1201 1516 1097 1620 1097 1620 1183.67" stroke="#70AD47" stroke-width="2.29167" stroke-miterlimit="8" fill="none" fill-rule="evenodd"/><text font-family="Yu Gothic UI,Yu Gothic UI_MSFontService,sans-serif" font-weight="400" font-size="64" transform="matrix(1 0 0 1 1543.15 1164)">に</text><path d="M1663 1385C1663 1389.42 1662.4 1393 1661.67 1393L1538.83 1393C1538.1 1393 1537.5 1396.58 1537.5 1401 1537.5 1396.58 1536.9 1393 1536.17 1393L1413.33 1393C1412.6 1393 1412 1389.42 1412 1385" stroke="#4472C4" stroke-width="2.29167" stroke-miterlimit="8" fill="none" fill-rule="evenodd"/><text font-family="Yu Gothic UI,Yu Gothic UI_MSFontService,sans-serif" font-weight="400" font-size="37" transform="matrix(1 0 0 1 1485.68 1445)">(16bit)</text><rect x="1801" y="1258.75" width="116.25" height="117.25" fill="url(#fill25)"/><path d="M1917.25 1258.75 1956 1220 1956 1337.25 1917.25 1376Z" fill="url(#fill26)" fill-rule="evenodd"/><path d="M1801 1258.75 1839.75 1220 1956 1220 1917.25 1258.75Z" fill="url(#fill27)" fill-rule="evenodd"/><path d="M1801 1258.75 1839.75 1220 1956 1220 1956 1337.25 1917.25 1376 1801 1376ZM1801 1258.75 1917.25 1258.75 1956 1220M1917.25 1258.75 1917.25 1376" stroke="#5B9BD5" stroke-width="2.29167" stroke-miterlimit="8" fill="none" fill-rule="evenodd"/><text font-family="Yu Gothic UI,Yu Gothic UI_MSFontService,sans-serif" font-weight="400" font-size="55" transform="matrix(1 0 0 1 1834.17 1318)">61<tspan font-size="37" x="-13.6296" y="46">(8bit)</tspan></text><rect x="1937" y="1259" width="117" height="117" fill="url(#fill28)"/><path d="M2054 1259 2093 1220 2093 1337 2054 1376Z" fill="url(#fill29)" fill-rule="evenodd"/><path d="M1937 1259 1976 1220 2093 1220 2054 1259Z" fill="url(#fill30)" fill-rule="evenodd"/><path d="M1937 1259 1976 1220 2093 1220 2093 1337 2054 1376 1937 1376ZM1937 1259 2054 1259 2093 1220M2054 1259 2054 1376" stroke="#5B9BD5" stroke-width="2.29167" stroke-miterlimit="8" fill="none" fill-rule="evenodd"/><text font-family="Yu Gothic UI,Yu Gothic UI_MSFontService,sans-serif" font-weight="400" font-size="55" transform="matrix(1 0 0 1 1970.22 1318)">30<tspan font-size="37" x="-13.6298" y="46">(8bit)</tspan></text><path d="M1906 1097 2010 1097 2010 1183.67 1992.67 1201 1906 1201Z" fill="url(#fill31)" fill-rule="evenodd"/><path d="M1992.67 1201 1996.13 1187.13 2010 1183.67Z" fill="url(#fill32)" fill-rule="evenodd"/><path d="M1992.67 1201 1996.13 1187.13 2010 1183.67 1992.67 1201 1906 1201 1906 1097 2010 1097 2010 1183.67" stroke="#70AD47" stroke-width="2.29167" stroke-miterlimit="8" fill="none" fill-rule="evenodd"/><text font-family="Yu Gothic UI,Yu Gothic UI_MSFontService,sans-serif" font-weight="400" font-size="64" transform="matrix(1 0 0 1 1933.77 1164)">ち</text><path d="M2053 1385C2053 1389.42 2052.4 1393 2051.67 1393L1928.83 1393C1928.1 1393 1927.5 1396.58 1927.5 1401 1927.5 1396.58 1926.9 1393 1926.17 1393L1803.33 1393C1802.6 1393 1802 1389.42 1802 1385" stroke="#4472C4" stroke-width="2.29167" stroke-miterlimit="8" fill="none" fill-rule="evenodd"/><text font-family="Yu Gothic UI,Yu Gothic UI_MSFontService,sans-serif" font-weight="400" font-size="37" transform="matrix(1 0 0 1 1875.45 1445)">(16bit)</text><rect x="2190" y="1259" width="117" height="117" fill="url(#fill33)"/><path d="M2307 1259 2346 1220 2346 1337 2307 1376Z" fill="url(#fill34)" fill-rule="evenodd"/><path d="M2190 1259 2229 1220 2346 1220 2307 1259Z" fill="url(#fill35)" fill-rule="evenodd"/><path d="M2190 1259 2229 1220 2346 1220 2346 1337 2307 1376 2190 1376ZM2190 1259 2307 1259 2346 1220M2307 1259 2307 1376" stroke="#5B9BD5" stroke-width="2.29167" stroke-miterlimit="8" fill="none" fill-rule="evenodd"/><text font-family="Yu Gothic UI,Yu Gothic UI_MSFontService,sans-serif" font-weight="400" font-size="55" transform="matrix(1 0 0 1 2225.36 1318)">6F<tspan font-size="37" x="-15.062" y="46">(8bit)</tspan></text><rect x="2326" y="1259" width="117" height="117" fill="url(#fill36)"/><path d="M2443 1259 2482 1220 2482 1337 2443 1376Z" fill="url(#fill37)" fill-rule="evenodd"/><path d="M2326 1259 2365 1220 2482 1220 2443 1259Z" fill="url(#fill38)" fill-rule="evenodd"/><path d="M2326 1259 2365 1220 2482 1220 2482 1337 2443 1376 2326 1376ZM2326 1259 2443 1259 2482 1220M2443 1259 2443 1376" stroke="#5B9BD5" stroke-width="2.29167" stroke-miterlimit="8" fill="none" fill-rule="evenodd"/><text font-family="Yu Gothic UI,Yu Gothic UI_MSFontService,sans-serif" font-weight="400" font-size="55" transform="matrix(1 0 0 1 2359.98 1318)">30<tspan font-size="37" x="-13.6299" y="46">(8bit)</tspan></text><path d="M2296 1097 2400 1097 2400 1183.67 2382.67 1201 2296 1201Z" fill="url(#fill39)" fill-rule="evenodd"/><path d="M2382.67 1201 2386.13 1187.13 2400 1183.67Z" fill="url(#fill40)" fill-rule="evenodd"/><path d="M2382.67 1201 2386.13 1187.13 2400 1183.67 2382.67 1201 2296 1201 2296 1097 2400 1097 2400 1183.67" stroke="#70AD47" stroke-width="2.29167" stroke-miterlimit="8" fill="none" fill-rule="evenodd"/><text font-family="Yu Gothic UI,Yu Gothic UI_MSFontService,sans-serif" font-weight="400" font-size="64" transform="matrix(1 0 0 1 2320.1 1164)">は</text><path d="M2442 1385C2442 1389.42 2441.4 1393 2440.67 1393L2318.33 1393C2317.6 1393 2317 1396.58 2317 1401 2317 1396.58 2316.4 1393 2315.67 1393L2193.33 1393C2192.6 1393 2192 1389.42 2192 1385" stroke="#4472C4" stroke-width="2.29167" stroke-miterlimit="8" fill="none" fill-rule="evenodd"/><text font-family="Yu Gothic UI,Yu Gothic UI_MSFontService,sans-serif" font-weight="400" font-size="37" transform="matrix(1 0 0 1 2265.21 1445)">(16bit)</text></g></svg>