<svg width="2045" height="340" xmlns="http://www.w3.org/2000/svg" xmlns:xlink="http://www.w3.org/1999/xlink" xml:space="preserve" overflow="hidden"><defs><clipPath id="clip0"><rect x="1520" y="1909" width="2045" height="340"/></clipPath><linearGradient x1="1653" y1="1976" x2="1653" y2="2236" gradientUnits="userSpaceOnUse" spreadMethod="reflect" id="fill1"><stop offset="0" stop-color="#B1CBE9"/><stop offset="0.5" stop-color="#A3C1E5"/><stop offset="1" stop-color="#92B9E4"/></linearGradient><linearGradient x1="1653" y1="1976" x2="1653" y2="2236" gradientUnits="userSpaceOnUse" spreadMethod="reflect" id="fill2"><stop offset="0" stop-color="#8EA3BB"/><stop offset="0.5" stop-color="#839BB8"/><stop offset="1" stop-color="#7595B7"/></linearGradient><linearGradient x1="1653" y1="1976" x2="1653" y2="2236" gradientUnits="userSpaceOnUse" spreadMethod="reflect" id="fill3"><stop offset="0" stop-color="#C0D5ED"/><stop offset="0.5" stop-color="#B5CDEA"/><stop offset="1" stop-color="#A7C7E9"/></linearGradient><linearGradient x1="1655" y1="1924" x2="1655" y2="2028" gradientUnits="userSpaceOnUse" spreadMethod="reflect" id="fill4"><stop offset="0" stop-color="#B5D5A7"/><stop offset="0.5" stop-color="#AACE99"/><stop offset="1" stop-color="#9CCA86"/></linearGradient><linearGradient x1="1655" y1="1924" x2="1655" y2="2028" gradientUnits="userSpaceOnUse" spreadMethod="reflect" id="fill5"><stop offset="0" stop-color="#92AB86"/><stop offset="0.5" stop-color="#89A67B"/><stop offset="1" stop-color="#7DA26C"/></linearGradient><linearGradient x1="2098" y1="1976" x2="2098" y2="2236" gradientUnits="userSpaceOnUse" spreadMethod="reflect" id="fill6"><stop offset="0" stop-color="#B1CBE9"/><stop offset="0.5" stop-color="#A3C1E5"/><stop offset="1" stop-color="#92B9E4"/></linearGradient><linearGradient x1="2098" y1="1976" x2="2098" y2="2236" gradientUnits="userSpaceOnUse" spreadMethod="reflect" id="fill7"><stop offset="0" stop-color="#8EA3BB"/><stop offset="0.5" stop-color="#839BB8"/><stop offset="1" stop-color="#7595B7"/></linearGradient><linearGradient x1="2098" y1="1976" x2="2098" y2="2236" gradientUnits="userSpaceOnUse" spreadMethod="reflect" id="fill8"><stop offset="0" stop-color="#C0D5ED"/><stop offset="0.5" stop-color="#B5CDEA"/><stop offset="1" stop-color="#A7C7E9"/></linearGradient><linearGradient x1="2101" y1="1924" x2="2101" y2="2028" gradientUnits="userSpaceOnUse" spreadMethod="reflect" id="fill9"><stop offset="0" stop-color="#B5D5A7"/><stop offset="0.5" stop-color="#AACE99"/><stop offset="1" stop-color="#9CCA86"/></linearGradient><linearGradient x1="2101" y1="1924" x2="2101" y2="2028" gradientUnits="userSpaceOnUse" spreadMethod="reflect" id="fill10"><stop offset="0" stop-color="#92AB86"/><stop offset="0.5" stop-color="#89A67B"/><stop offset="1" stop-color="#7DA26C"/></linearGradient><linearGradient x1="2543" y1="1976" x2="2543" y2="2236" gradientUnits="userSpaceOnUse" spreadMethod="reflect" id="fill11"><stop offset="0" stop-color="#B1CBE9"/><stop offset="0.5" stop-color="#A3C1E5"/><stop offset="1" stop-color="#92B9E4"/></linearGradient><linearGradient x1="2543" y1="1976" x2="2543" y2="2236" gradientUnits="userSpaceOnUse" spreadMethod="reflect" id="fill12"><stop offset="0" stop-color="#8EA3BB"/><stop offset="0.5" stop-color="#839BB8"/><stop offset="1" stop-color="#7595B7"/></linearGradient><linearGradient x1="2543" y1="1976" x2="2543" y2="2236" gradientUnits="userSpaceOnUse" spreadMethod="reflect" id="fill13"><stop offset="0" stop-color="#C0D5ED"/><stop offset="0.5" stop-color="#B5CDEA"/><stop offset="1" stop-color="#A7C7E9"/></linearGradient><linearGradient x1="2546" y1="1924" x2="2546" y2="2028" gradientUnits="userSpaceOnUse" spreadMethod="reflect" id="fill14"><stop offset="0" stop-color="#B5D5A7"/><stop offset="0.5" stop-color="#AACE99"/><stop offset="1" stop-color="#9CCA86"/></linearGradient><linearGradient x1="2546" y1="1924" x2="2546" y2="2028" gradientUnits="userSpaceOnUse" spreadMethod="reflect" id="fill15"><stop offset="0" stop-color="#92AB86"/><stop offset="0.5" stop-color="#89A67B"/><stop offset="1" stop-color="#7DA26C"/></linearGradient><linearGradient x1="2989" y1="1976" x2="2989" y2="2236" gradientUnits="userSpaceOnUse" spreadMethod="reflect" id="fill16"><stop offset="0" stop-color="#B1CBE9"/><stop offset="0.5" stop-color="#A3C1E5"/><stop offset="1" stop-color="#92B9E4"/></linearGradient><linearGradient x1="2989" y1="1976" x2="2989" y2="2236" gradientUnits="userSpaceOnUse" spreadMethod="reflect" id="fill17"><stop offset="0" stop-color="#8EA3BB"/><stop offset="0.5" stop-color="#839BB8"/><stop offset="1" stop-color="#7595B7"/></linearGradient><linearGradient x1="2989" y1="1976" x2="2989" y2="2236" gradientUnits="userSpaceOnUse" spreadMethod="reflect" id="fill18"><stop offset="0" stop-color="#C0D5ED"/><stop offset="0.5" stop-color="#B5CDEA"/><stop offset="1" stop-color="#A7C7E9"/></linearGradient><linearGradient x1="2991" y1="1924" x2="2991" y2="2028" gradientUnits="userSpaceOnUse" spreadMethod="reflect" id="fill19"><stop offset="0" stop-color="#B5D5A7"/><stop offset="0.5" stop-color="#AACE99"/><stop offset="1" stop-color="#9CCA86"/></linearGradient><linearGradient x1="2991" y1="1924" x2="2991" y2="2028" gradientUnits="userSpaceOnUse" spreadMethod="reflect" id="fill20"><stop offset="0" stop-color="#92AB86"/><stop offset="0.5" stop-color="#89A67B"/><stop offset="1" stop-color="#7DA26C"/></linearGradient><linearGradient x1="3434" y1="1976" x2="3434" y2="2236" gradientUnits="userSpaceOnUse" spreadMethod="reflect" id="fill21"><stop offset="0" stop-color="#B1CBE9"/><stop offset="0.5" stop-color="#A3C1E5"/><stop offset="1" stop-color="#92B9E4"/></linearGradient><linearGradient x1="3434" y1="1976" x2="3434" y2="2236" gradientUnits="userSpaceOnUse" spreadMethod="reflect" id="fill22"><stop offset="0" stop-color="#8EA3BB"/><stop offset="0.5" stop-color="#839BB8"/><stop offset="1" stop-color="#7595B7"/></linearGradient><linearGradient x1="3434" y1="1976" x2="3434" y2="2236" gradientUnits="userSpaceOnUse" spreadMethod="reflect" id="fill23"><stop offset="0" stop-color="#C0D5ED"/><stop offset="0.5" stop-color="#B5CDEA"/><stop offset="1" stop-color="#A7C7E9"/></linearGradient><linearGradient x1="3436" y1="1924" x2="3436" y2="2028" gradientUnits="userSpaceOnUse" spreadMethod="reflect" id="fill24"><stop offset="0" stop-color="#B5D5A7"/><stop offset="0.5" stop-color="#AACE99"/><stop offset="1" stop-color="#9CCA86"/></linearGradient><linearGradient x1="3436" y1="1924" x2="3436" y2="2028" gradientUnits="userSpaceOnUse" spreadMethod="reflect" id="fill25"><stop offset="0" stop-color="#92AB86"/><stop offset="0.5" stop-color="#89A67B"/><stop offset="1" stop-color="#7DA26C"/></linearGradient></defs><g clip-path="url(#clip0)" transform="translate(-1520 -1909)"><rect x="1523" y="2041" width="195" height="195" fill="url(#fill1)"/><path d="M1718 2041 1783 1976 1783 2171 1718 2236Z" fill="url(#fill2)" fill-rule="evenodd"/><path d="M1523 2041 1588 1976 1783 1976 1718 2041Z" fill="url(#fill3)" fill-rule="evenodd"/><path d="M1523 2041 1588 1976 1783 1976 1783 2171 1718 2236 1523 2236ZM1523 2041 1718 2041 1783 1976M1718 2041 1718 2236" stroke="#5B9BD5" stroke-width="2.29167" stroke-miterlimit="8" fill="none" fill-rule="evenodd"/><path d="M1603 1924 1707 1924 1707 2010.67 1689.67 2028 1603 2028Z" fill="url(#fill4)" fill-rule="evenodd"/><path d="M1689.67 2028 1693.13 2014.13 1707 2010.67Z" fill="url(#fill5)" fill-rule="evenodd"/><path d="M1689.67 2028 1693.13 2014.13 1707 2010.67 1689.67 2028 1603 2028 1603 1924 1707 1924 1707 2010.67" stroke="#70AD47" stroke-width="2.29167" stroke-miterlimit="8" fill="none" fill-rule="evenodd"/><text font-family="Yu Gothic UI,Yu Gothic UI_MSFontService,sans-serif" font-weight="400" font-size="64" transform="matrix(1 0 0 1 1634.55 1991)">こ</text><rect x="1968" y="2041" width="195" height="195" fill="url(#fill6)"/><path d="M2163 2041 2228 1976 2228 2171 2163 2236Z" fill="url(#fill7)" fill-rule="evenodd"/><path d="M1968 2041 2033 1976 2228 1976 2163 2041Z" fill="url(#fill8)" fill-rule="evenodd"/><path d="M1968 2041 2033 1976 2228 1976 2228 2171 2163 2236 1968 2236ZM1968 2041 2163 2041 2228 1976M2163 2041 2163 2236" stroke="#5B9BD5" stroke-width="2.29167" stroke-miterlimit="8" fill="none" fill-rule="evenodd"/><path d="M2049 1924 2153 1924 2153 2010.67 2135.67 2028 2049 2028Z" fill="url(#fill9)" fill-rule="evenodd"/><path d="M2135.67 2028 2139.13 2014.13 2153 2010.67Z" fill="url(#fill10)" fill-rule="evenodd"/><path d="M2135.67 2028 2139.13 2014.13 2153 2010.67 2135.67 2028 2049 2028 2049 1924 2153 1924 2153 2010.67" stroke="#70AD47" stroke-width="2.29167" stroke-miterlimit="8" fill="none" fill-rule="evenodd"/><text font-family="Yu Gothic UI,Yu Gothic UI_MSFontService,sans-serif" font-weight="400" font-size="64" transform="matrix(1 0 0 1 2074.61 1991)">ん</text><rect x="2413" y="2041" width="195" height="195" fill="url(#fill11)"/><path d="M2608 2041 2673 1976 2673 2171 2608 2236Z" fill="url(#fill12)" fill-rule="evenodd"/><path d="M2413 2041 2478 1976 2673 1976 2608 2041Z" fill="url(#fill13)" fill-rule="evenodd"/><path d="M2413 2041 2478 1976 2673 1976 2673 2171 2608 2236 2413 2236ZM2413 2041 2608 2041 2673 1976M2608 2041 2608 2236" stroke="#5B9BD5" stroke-width="2.29167" stroke-miterlimit="8" fill="none" fill-rule="evenodd"/><path d="M2494 1924 2598 1924 2598 2010.67 2580.67 2028 2494 2028Z" fill="url(#fill14)" fill-rule="evenodd"/><path d="M2580.67 2028 2584.13 2014.13 2598 2010.67Z" fill="url(#fill15)" fill-rule="evenodd"/><path d="M2580.67 2028 2584.13 2014.13 2598 2010.67 2580.67 2028 2494 2028 2494 1924 2598 1924 2598 2010.67" stroke="#70AD47" stroke-width="2.29167" stroke-miterlimit="8" fill="none" fill-rule="evenodd"/><text font-family="Yu Gothic UI,Yu Gothic UI_MSFontService,sans-serif" font-weight="400" font-size="64" transform="matrix(1 0 0 1 2520.97 1991)">に</text><rect x="2859" y="2041" width="195" height="195" fill="url(#fill16)"/><path d="M3054 2041 3119 1976 3119 2171 3054 2236Z" fill="url(#fill17)" fill-rule="evenodd"/><path d="M2859 2041 2924 1976 3119 1976 3054 2041Z" fill="url(#fill18)" fill-rule="evenodd"/><path d="M2859 2041 2924 1976 3119 1976 3119 2171 3054 2236 2859 2236ZM2859 2041 3054 2041 3119 1976M3054 2041 3054 2236" stroke="#5B9BD5" stroke-width="2.29167" stroke-miterlimit="8" fill="none" fill-rule="evenodd"/><path d="M2939 1924 3043 1924 3043 2010.67 3025.67 2028 2939 2028Z" fill="url(#fill19)" fill-rule="evenodd"/><path d="M3025.67 2028 3029.13 2014.13 3043 2010.67Z" fill="url(#fill20)" fill-rule="evenodd"/><path d="M3025.67 2028 3029.13 2014.13 3043 2010.67 3025.67 2028 2939 2028 2939 1924 3043 1924 3043 2010.67" stroke="#70AD47" stroke-width="2.29167" stroke-miterlimit="8" fill="none" fill-rule="evenodd"/><text font-family="Yu Gothic UI,Yu Gothic UI_MSFontService,sans-serif" font-weight="400" font-size="64" transform="matrix(1 0 0 1 2967.05 1991)">ち</text><rect x="3304" y="2041" width="195" height="195" fill="url(#fill21)"/><path d="M3499 2041 3564 1976 3564 2171 3499 2236Z" fill="url(#fill22)" fill-rule="evenodd"/><path d="M3304 2041 3369 1976 3564 1976 3499 2041Z" fill="url(#fill23)" fill-rule="evenodd"/><path d="M3304 2041 3369 1976 3564 1976 3564 2171 3499 2236 3304 2236ZM3304 2041 3499 2041 3564 1976M3499 2041 3499 2236" stroke="#5B9BD5" stroke-width="2.29167" stroke-miterlimit="8" fill="none" fill-rule="evenodd"/><path d="M3384 1924 3488 1924 3488 2010.67 3470.67 2028 3384 2028Z" fill="url(#fill24)" fill-rule="evenodd"/><path d="M3470.67 2028 3474.13 2014.13 3488 2010.67Z" fill="url(#fill25)" fill-rule="evenodd"/><path d="M3470.67 2028 3474.13 2014.13 3488 2010.67 3470.67 2028 3384 2028 3384 1924 3488 1924 3488 2010.67" stroke="#70AD47" stroke-width="2.29167" stroke-miterlimit="8" fill="none" fill-rule="evenodd"/><text font-family="Yu Gothic UI,Yu Gothic UI_MSFontService,sans-serif" font-weight="400" font-size="64" transform="matrix(1 0 0 1 3408.83 1991)">は<tspan font-size="55" x="-1854.99" y="138">30 53</tspan><tspan font-size="55" x="-1405.89" y="138">30 93</tspan><tspan font-size="55" x="-964.555" y="138">30 68</tspan><tspan font-size="55" x="-517.086" y="138">30 61</tspan><tspan font-size="55" x="-73.4214" y="138">30 6F</tspan><tspan font-size="37" x="-1819.68" y="227">(16bit)</tspan><tspan font-size="37" x="-1373.85" y="227">(16bit)</tspan><tspan font-size="37" x="-928.63" y="227">(16bit)</tspan><tspan font-size="37" x="-485.566" y="227">(16bit)</tspan><tspan font-size="37" x="-42.502" y="223">(16bit)</tspan></text></g></svg>