<svg width="2985" height="1478" xmlns="http://www.w3.org/2000/svg" xmlns:xlink="http://www.w3.org/1999/xlink" xml:space="preserve" overflow="hidden"><defs><clipPath id="clip0"><rect x="233" y="379" width="2985" height="1478"/></clipPath><clipPath id="clip1"><rect x="1186" y="287" width="1050" height="2542"/></clipPath><linearGradient x1="756.5" y1="656" x2="756.5" y2="1124" gradientUnits="userSpaceOnUse" spreadMethod="reflect" id="fill2"><stop offset="0" stop-color="#FFDD9C"/><stop offset="0.5" stop-color="#FFD78E"/><stop offset="1" stop-color="#FFD479"/></linearGradient><linearGradient x1="711" y1="892" x2="711" y2="1004" gradientUnits="userSpaceOnUse" spreadMethod="reflect" id="fill3"><stop offset="0" stop-color="#B5D5A7"/><stop offset="0.5" stop-color="#AACE99"/><stop offset="1" stop-color="#9CCA86"/></linearGradient><linearGradient x1="711" y1="892" x2="711" y2="1004" gradientUnits="userSpaceOnUse" spreadMethod="reflect" id="fill4"><stop offset="0" stop-color="#92AB86"/><stop offset="0.5" stop-color="#89A67B"/><stop offset="1" stop-color="#7DA26C"/></linearGradient><linearGradient x1="843" y1="870" x2="843" y2="982" gradientUnits="userSpaceOnUse" spreadMethod="reflect" id="fill5"><stop offset="0" stop-color="#B5D5A7"/><stop offset="0.5" stop-color="#AACE99"/><stop offset="1" stop-color="#9CCA86"/></linearGradient><linearGradient x1="843" y1="870" x2="843" y2="982" gradientUnits="userSpaceOnUse" spreadMethod="reflect" id="fill6"><stop offset="0" stop-color="#92AB86"/><stop offset="0.5" stop-color="#89A67B"/><stop offset="1" stop-color="#7DA26C"/></linearGradient><linearGradient x1="565" y1="874" x2="565" y2="986" gradientUnits="userSpaceOnUse" spreadMethod="reflect" id="fill7"><stop offset="0" stop-color="#B5D5A7"/><stop offset="0.5" stop-color="#AACE99"/><stop offset="1" stop-color="#9CCA86"/></linearGradient><linearGradient x1="565" y1="874" x2="565" y2="986" gradientUnits="userSpaceOnUse" spreadMethod="reflect" id="fill8"><stop offset="0" stop-color="#92AB86"/><stop offset="0.5" stop-color="#89A67B"/><stop offset="1" stop-color="#7DA26C"/></linearGradient><linearGradient x1="664" y1="732" x2="664" y2="844" gradientUnits="userSpaceOnUse" spreadMethod="reflect" id="fill9"><stop offset="0" stop-color="#B5D5A7"/><stop offset="0.5" stop-color="#AACE99"/><stop offset="1" stop-color="#9CCA86"/></linearGradient><linearGradient x1="664" y1="732" x2="664" y2="844" gradientUnits="userSpaceOnUse" spreadMethod="reflect" id="fill10"><stop offset="0" stop-color="#92AB86"/><stop offset="0.5" stop-color="#89A67B"/><stop offset="1" stop-color="#7DA26C"/></linearGradient><linearGradient x1="823" y1="729" x2="823" y2="841" gradientUnits="userSpaceOnUse" spreadMethod="reflect" id="fill11"><stop offset="0" stop-color="#B5D5A7"/><stop offset="0.5" stop-color="#AACE99"/><stop offset="1" stop-color="#9CCA86"/></linearGradient><linearGradient x1="823" y1="729" x2="823" y2="841" gradientUnits="userSpaceOnUse" spreadMethod="reflect" id="fill12"><stop offset="0" stop-color="#92AB86"/><stop offset="0.5" stop-color="#89A67B"/><stop offset="1" stop-color="#7DA26C"/></linearGradient><linearGradient x1="901" y1="948" x2="901" y2="1060" gradientUnits="userSpaceOnUse" spreadMethod="reflect" id="fill13"><stop offset="0" stop-color="#B5D5A7"/><stop offset="0.5" stop-color="#AACE99"/><stop offset="1" stop-color="#9CCA86"/></linearGradient><linearGradient x1="901" y1="948" x2="901" y2="1060" gradientUnits="userSpaceOnUse" spreadMethod="reflect" id="fill14"><stop offset="0" stop-color="#92AB86"/><stop offset="0.5" stop-color="#89A67B"/><stop offset="1" stop-color="#7DA26C"/></linearGradient><linearGradient x1="642.5" y1="834" x2="642.5" y2="946" gradientUnits="userSpaceOnUse" spreadMethod="reflect" id="fill15"><stop offset="0" stop-color="#B5D5A7"/><stop offset="0.5" stop-color="#AACE99"/><stop offset="1" stop-color="#9CCA86"/></linearGradient><linearGradient x1="642.5" y1="834" x2="642.5" y2="946" gradientUnits="userSpaceOnUse" spreadMethod="reflect" id="fill16"><stop offset="0" stop-color="#92AB86"/><stop offset="0.5" stop-color="#89A67B"/><stop offset="1" stop-color="#7DA26C"/></linearGradient><linearGradient x1="939" y1="959" x2="939" y2="1071" gradientUnits="userSpaceOnUse" spreadMethod="reflect" id="fill17"><stop offset="0" stop-color="#B5D5A7"/><stop offset="0.5" stop-color="#AACE99"/><stop offset="1" stop-color="#9CCA86"/></linearGradient><linearGradient x1="939" y1="959" x2="939" y2="1071" gradientUnits="userSpaceOnUse" spreadMethod="reflect" id="fill18"><stop offset="0" stop-color="#92AB86"/><stop offset="0.5" stop-color="#89A67B"/><stop offset="1" stop-color="#7DA26C"/></linearGradient><linearGradient x1="776.5" y1="959" x2="776.5" y2="1072" gradientUnits="userSpaceOnUse" spreadMethod="reflect" id="fill19"><stop offset="0" stop-color="#B5D5A7"/><stop offset="0.5" stop-color="#AACE99"/><stop offset="1" stop-color="#9CCA86"/></linearGradient><linearGradient x1="776.5" y1="959" x2="776.5" y2="1072" gradientUnits="userSpaceOnUse" spreadMethod="reflect" id="fill20"><stop offset="0" stop-color="#92AB86"/><stop offset="0.5" stop-color="#89A67B"/><stop offset="1" stop-color="#7DA26C"/></linearGradient><linearGradient x1="799" y1="834" x2="799" y2="946" gradientUnits="userSpaceOnUse" spreadMethod="reflect" id="fill21"><stop offset="0" stop-color="#B5D5A7"/><stop offset="0.5" stop-color="#AACE99"/><stop offset="1" stop-color="#9CCA86"/></linearGradient><linearGradient x1="799" y1="834" x2="799" y2="946" gradientUnits="userSpaceOnUse" spreadMethod="reflect" id="fill22"><stop offset="0" stop-color="#92AB86"/><stop offset="0.5" stop-color="#89A67B"/><stop offset="1" stop-color="#7DA26C"/></linearGradient><linearGradient x1="618" y1="954" x2="618" y2="1066" gradientUnits="userSpaceOnUse" spreadMethod="reflect" id="fill23"><stop offset="0" stop-color="#B5D5A7"/><stop offset="0.5" stop-color="#AACE99"/><stop offset="1" stop-color="#9CCA86"/></linearGradient><linearGradient x1="618" y1="954" x2="618" y2="1066" gradientUnits="userSpaceOnUse" spreadMethod="reflect" id="fill24"><stop offset="0" stop-color="#92AB86"/><stop offset="0.5" stop-color="#89A67B"/><stop offset="1" stop-color="#7DA26C"/></linearGradient><linearGradient x1="948" y1="825" x2="948" y2="937" gradientUnits="userSpaceOnUse" spreadMethod="reflect" id="fill25"><stop offset="0" stop-color="#B5D5A7"/><stop offset="0.5" stop-color="#AACE99"/><stop offset="1" stop-color="#9CCA86"/></linearGradient><linearGradient x1="948" y1="825" x2="948" y2="937" gradientUnits="userSpaceOnUse" spreadMethod="reflect" id="fill26"><stop offset="0" stop-color="#92AB86"/><stop offset="0.5" stop-color="#89A67B"/><stop offset="1" stop-color="#7DA26C"/></linearGradient><linearGradient x1="589" y1="704" x2="589" y2="817" gradientUnits="userSpaceOnUse" spreadMethod="reflect" id="fill27"><stop offset="0" stop-color="#B5D5A7"/><stop offset="0.5" stop-color="#AACE99"/><stop offset="1" stop-color="#9CCA86"/></linearGradient><linearGradient x1="589" y1="704" x2="589" y2="817" gradientUnits="userSpaceOnUse" spreadMethod="reflect" id="fill28"><stop offset="0" stop-color="#92AB86"/><stop offset="0.5" stop-color="#89A67B"/><stop offset="1" stop-color="#7DA26C"/></linearGradient><linearGradient x1="743" y1="704" x2="743" y2="817" gradientUnits="userSpaceOnUse" spreadMethod="reflect" id="fill29"><stop offset="0" stop-color="#B5D5A7"/><stop offset="0.5" stop-color="#AACE99"/><stop offset="1" stop-color="#9CCA86"/></linearGradient><linearGradient x1="743" y1="704" x2="743" y2="817" gradientUnits="userSpaceOnUse" spreadMethod="reflect" id="fill30"><stop offset="0" stop-color="#92AB86"/><stop offset="0.5" stop-color="#89A67B"/><stop offset="1" stop-color="#7DA26C"/></linearGradient><linearGradient x1="903" y1="704" x2="903" y2="817" gradientUnits="userSpaceOnUse" spreadMethod="reflect" id="fill31"><stop offset="0" stop-color="#B5D5A7"/><stop offset="0.5" stop-color="#AACE99"/><stop offset="1" stop-color="#9CCA86"/></linearGradient><linearGradient x1="903" y1="704" x2="903" y2="817" gradientUnits="userSpaceOnUse" spreadMethod="reflect" id="fill32"><stop offset="0" stop-color="#92AB86"/><stop offset="0.5" stop-color="#89A67B"/><stop offset="1" stop-color="#7DA26C"/></linearGradient><linearGradient x1="1743" y1="649" x2="1743" y2="1116" gradientUnits="userSpaceOnUse" spreadMethod="reflect" id="fill33"><stop offset="0" stop-color="#FFDD9C"/><stop offset="0.5" stop-color="#FFD78E"/><stop offset="1" stop-color="#FFD479"/></linearGradient><linearGradient x1="1542" y1="696" x2="1542" y2="808" gradientUnits="userSpaceOnUse" spreadMethod="reflect" id="fill34"><stop offset="0" stop-color="#B5D5A7"/><stop offset="0.5" stop-color="#AACE99"/><stop offset="1" stop-color="#9CCA86"/></linearGradient><linearGradient x1="1542" y1="696" x2="1542" y2="808" gradientUnits="userSpaceOnUse" spreadMethod="reflect" id="fill35"><stop offset="0" stop-color="#92AB86"/><stop offset="0.5" stop-color="#89A67B"/><stop offset="1" stop-color="#7DA26C"/></linearGradient><linearGradient x1="1733.5" y1="696" x2="1733.5" y2="808" gradientUnits="userSpaceOnUse" spreadMethod="reflect" id="fill36"><stop offset="0" stop-color="#B5D5A7"/><stop offset="0.5" stop-color="#AACE99"/><stop offset="1" stop-color="#9CCA86"/></linearGradient><linearGradient x1="1733.5" y1="696" x2="1733.5" y2="808" gradientUnits="userSpaceOnUse" spreadMethod="reflect" id="fill37"><stop offset="0" stop-color="#92AB86"/><stop offset="0.5" stop-color="#89A67B"/><stop offset="1" stop-color="#7DA26C"/></linearGradient><linearGradient x1="1927" y1="696" x2="1927" y2="808" gradientUnits="userSpaceOnUse" spreadMethod="reflect" id="fill38"><stop offset="0" stop-color="#B5D5A7"/><stop offset="0.5" stop-color="#AACE99"/><stop offset="1" stop-color="#9CCA86"/></linearGradient><linearGradient x1="1927" y1="696" x2="1927" y2="808" gradientUnits="userSpaceOnUse" spreadMethod="reflect" id="fill39"><stop offset="0" stop-color="#92AB86"/><stop offset="0.5" stop-color="#89A67B"/><stop offset="1" stop-color="#7DA26C"/></linearGradient><linearGradient x1="1542" y1="909" x2="1542" y2="1022" gradientUnits="userSpaceOnUse" spreadMethod="reflect" id="fill40"><stop offset="0" stop-color="#B5D5A7"/><stop offset="0.5" stop-color="#AACE99"/><stop offset="1" stop-color="#9CCA86"/></linearGradient><linearGradient x1="1542" y1="909" x2="1542" y2="1022" gradientUnits="userSpaceOnUse" spreadMethod="reflect" id="fill41"><stop offset="0" stop-color="#92AB86"/><stop offset="0.5" stop-color="#89A67B"/><stop offset="1" stop-color="#7DA26C"/></linearGradient><linearGradient x1="1741" y1="909" x2="1741" y2="1021" gradientUnits="userSpaceOnUse" spreadMethod="reflect" id="fill42"><stop offset="0" stop-color="#B5D5A7"/><stop offset="0.5" stop-color="#AACE99"/><stop offset="1" stop-color="#9CCA86"/></linearGradient><linearGradient x1="1741" y1="909" x2="1741" y2="1021" gradientUnits="userSpaceOnUse" spreadMethod="reflect" id="fill43"><stop offset="0" stop-color="#92AB86"/><stop offset="0.5" stop-color="#89A67B"/><stop offset="1" stop-color="#7DA26C"/></linearGradient><linearGradient x1="1932" y1="912" x2="1932" y2="1024" gradientUnits="userSpaceOnUse" spreadMethod="reflect" id="fill44"><stop offset="0" stop-color="#B5D5A7"/><stop offset="0.5" stop-color="#AACE99"/><stop offset="1" stop-color="#9CCA86"/></linearGradient><linearGradient x1="1932" y1="912" x2="1932" y2="1024" gradientUnits="userSpaceOnUse" spreadMethod="reflect" id="fill45"><stop offset="0" stop-color="#92AB86"/><stop offset="0.5" stop-color="#89A67B"/><stop offset="1" stop-color="#7DA26C"/></linearGradient><linearGradient x1="2772.5" y1="698" x2="2772.5" y2="1165" gradientUnits="userSpaceOnUse" spreadMethod="reflect" id="fill46"><stop offset="0" stop-color="#FFDD9C"/><stop offset="0.5" stop-color="#FFD78E"/><stop offset="1" stop-color="#FFD479"/></linearGradient><linearGradient x1="2562.5" y1="746" x2="2562.5" y2="889" gradientUnits="userSpaceOnUse" spreadMethod="reflect" id="fill47"><stop offset="0" stop-color="#B1CBE9"/><stop offset="0.5" stop-color="#A3C1E5"/><stop offset="1" stop-color="#92B9E4"/></linearGradient><linearGradient x1="2562.5" y1="746" x2="2562.5" y2="889" gradientUnits="userSpaceOnUse" spreadMethod="reflect" id="fill48"><stop offset="0" stop-color="#8EA3BB"/><stop offset="0.5" stop-color="#839BB8"/><stop offset="1" stop-color="#7595B7"/></linearGradient><linearGradient x1="2562.5" y1="746" x2="2562.5" y2="889" gradientUnits="userSpaceOnUse" spreadMethod="reflect" id="fill49"><stop offset="0" stop-color="#C0D5ED"/><stop offset="0.5" stop-color="#B5CDEA"/><stop offset="1" stop-color="#A7C7E9"/></linearGradient><linearGradient x1="2779.5" y1="748" x2="2779.5" y2="892" gradientUnits="userSpaceOnUse" spreadMethod="reflect" id="fill50"><stop offset="0" stop-color="#B1CBE9"/><stop offset="0.5" stop-color="#A3C1E5"/><stop offset="1" stop-color="#92B9E4"/></linearGradient><linearGradient x1="2779.5" y1="748" x2="2779.5" y2="892" gradientUnits="userSpaceOnUse" spreadMethod="reflect" id="fill51"><stop offset="0" stop-color="#8EA3BB"/><stop offset="0.5" stop-color="#839BB8"/><stop offset="1" stop-color="#7595B7"/></linearGradient><linearGradient x1="2779.5" y1="748" x2="2779.5" y2="892" gradientUnits="userSpaceOnUse" spreadMethod="reflect" id="fill52"><stop offset="0" stop-color="#C0D5ED"/><stop offset="0.5" stop-color="#B5CDEA"/><stop offset="1" stop-color="#A7C7E9"/></linearGradient><linearGradient x1="2996" y1="747" x2="2996" y2="890" gradientUnits="userSpaceOnUse" spreadMethod="reflect" id="fill53"><stop offset="0" stop-color="#B1CBE9"/><stop offset="0.5" stop-color="#A3C1E5"/><stop offset="1" stop-color="#92B9E4"/></linearGradient><linearGradient x1="2996" y1="747" x2="2996" y2="890" gradientUnits="userSpaceOnUse" spreadMethod="reflect" id="fill54"><stop offset="0" stop-color="#8EA3BB"/><stop offset="0.5" stop-color="#839BB8"/><stop offset="1" stop-color="#7595B7"/></linearGradient><linearGradient x1="2996" y1="747" x2="2996" y2="890" gradientUnits="userSpaceOnUse" spreadMethod="reflect" id="fill55"><stop offset="0" stop-color="#C0D5ED"/><stop offset="0.5" stop-color="#B5CDEA"/><stop offset="1" stop-color="#A7C7E9"/></linearGradient><linearGradient x1="2562.5" y1="957" x2="2562.5" y2="1100" gradientUnits="userSpaceOnUse" spreadMethod="reflect" id="fill56"><stop offset="0" stop-color="#B1CBE9"/><stop offset="0.5" stop-color="#A3C1E5"/><stop offset="1" stop-color="#92B9E4"/></linearGradient><linearGradient x1="2562.5" y1="957" x2="2562.5" y2="1100" gradientUnits="userSpaceOnUse" spreadMethod="reflect" id="fill57"><stop offset="0" stop-color="#8EA3BB"/><stop offset="0.5" stop-color="#839BB8"/><stop offset="1" stop-color="#7595B7"/></linearGradient><linearGradient x1="2562.5" y1="957" x2="2562.5" y2="1100" gradientUnits="userSpaceOnUse" spreadMethod="reflect" id="fill58"><stop offset="0" stop-color="#C0D5ED"/><stop offset="0.5" stop-color="#B5CDEA"/><stop offset="1" stop-color="#A7C7E9"/></linearGradient><linearGradient x1="2779.5" y1="960" x2="2779.5" y2="1103" gradientUnits="userSpaceOnUse" spreadMethod="reflect" id="fill59"><stop offset="0" stop-color="#B1CBE9"/><stop offset="0.5" stop-color="#A3C1E5"/><stop offset="1" stop-color="#92B9E4"/></linearGradient><linearGradient x1="2779.5" y1="960" x2="2779.5" y2="1103" gradientUnits="userSpaceOnUse" spreadMethod="reflect" id="fill60"><stop offset="0" stop-color="#8EA3BB"/><stop offset="0.5" stop-color="#839BB8"/><stop offset="1" stop-color="#7595B7"/></linearGradient><linearGradient x1="2779.5" y1="960" x2="2779.5" y2="1103" gradientUnits="userSpaceOnUse" spreadMethod="reflect" id="fill61"><stop offset="0" stop-color="#C0D5ED"/><stop offset="0.5" stop-color="#B5CDEA"/><stop offset="1" stop-color="#A7C7E9"/></linearGradient><linearGradient x1="2996" y1="958" x2="2996" y2="1102" gradientUnits="userSpaceOnUse" spreadMethod="reflect" id="fill62"><stop offset="0" stop-color="#B1CBE9"/><stop offset="0.5" stop-color="#A3C1E5"/><stop offset="1" stop-color="#92B9E4"/></linearGradient><linearGradient x1="2996" y1="958" x2="2996" y2="1102" gradientUnits="userSpaceOnUse" spreadMethod="reflect" id="fill63"><stop offset="0" stop-color="#8EA3BB"/><stop offset="0.5" stop-color="#839BB8"/><stop offset="1" stop-color="#7595B7"/></linearGradient><linearGradient x1="2996" y1="958" x2="2996" y2="1102" gradientUnits="userSpaceOnUse" spreadMethod="reflect" id="fill64"><stop offset="0" stop-color="#C0D5ED"/><stop offset="0.5" stop-color="#B5CDEA"/><stop offset="1" stop-color="#A7C7E9"/></linearGradient><linearGradient x1="2497" y1="730" x2="2497" y2="809" gradientUnits="userSpaceOnUse" spreadMethod="reflect" id="fill65"><stop offset="0" stop-color="#B5D5A7"/><stop offset="0.5" stop-color="#AACE99"/><stop offset="1" stop-color="#9CCA86"/></linearGradient><linearGradient x1="2497" y1="730" x2="2497" y2="809" gradientUnits="userSpaceOnUse" spreadMethod="reflect" id="fill66"><stop offset="0" stop-color="#92AB86"/><stop offset="0.5" stop-color="#89A67B"/><stop offset="1" stop-color="#7DA26C"/></linearGradient><linearGradient x1="2732.5" y1="728" x2="2732.5" y2="807" gradientUnits="userSpaceOnUse" spreadMethod="reflect" id="fill67"><stop offset="0" stop-color="#B5D5A7"/><stop offset="0.5" stop-color="#AACE99"/><stop offset="1" stop-color="#9CCA86"/></linearGradient><linearGradient x1="2732.5" y1="728" x2="2732.5" y2="807" gradientUnits="userSpaceOnUse" spreadMethod="reflect" id="fill68"><stop offset="0" stop-color="#92AB86"/><stop offset="0.5" stop-color="#89A67B"/><stop offset="1" stop-color="#7DA26C"/></linearGradient><linearGradient x1="2944.5" y1="731" x2="2944.5" y2="809" gradientUnits="userSpaceOnUse" spreadMethod="reflect" id="fill69"><stop offset="0" stop-color="#B5D5A7"/><stop offset="0.5" stop-color="#AACE99"/><stop offset="1" stop-color="#9CCA86"/></linearGradient><linearGradient x1="2944.5" y1="731" x2="2944.5" y2="809" gradientUnits="userSpaceOnUse" spreadMethod="reflect" id="fill70"><stop offset="0" stop-color="#92AB86"/><stop offset="0.5" stop-color="#89A67B"/><stop offset="1" stop-color="#7DA26C"/></linearGradient><linearGradient x1="2510.5" y1="944" x2="2510.5" y2="1023" gradientUnits="userSpaceOnUse" spreadMethod="reflect" id="fill71"><stop offset="0" stop-color="#B5D5A7"/><stop offset="0.5" stop-color="#AACE99"/><stop offset="1" stop-color="#9CCA86"/></linearGradient><linearGradient x1="2510.5" y1="944" x2="2510.5" y2="1023" gradientUnits="userSpaceOnUse" spreadMethod="reflect" id="fill72"><stop offset="0" stop-color="#92AB86"/><stop offset="0.5" stop-color="#89A67B"/><stop offset="1" stop-color="#7DA26C"/></linearGradient><linearGradient x1="2729" y1="945" x2="2729" y2="1024" gradientUnits="userSpaceOnUse" spreadMethod="reflect" id="fill73"><stop offset="0" stop-color="#B5D5A7"/><stop offset="0.5" stop-color="#AACE99"/><stop offset="1" stop-color="#9CCA86"/></linearGradient><linearGradient x1="2729" y1="945" x2="2729" y2="1024" gradientUnits="userSpaceOnUse" spreadMethod="reflect" id="fill74"><stop offset="0" stop-color="#92AB86"/><stop offset="0.5" stop-color="#89A67B"/><stop offset="1" stop-color="#7DA26C"/></linearGradient><linearGradient x1="2941.5" y1="946" x2="2941.5" y2="1024" gradientUnits="userSpaceOnUse" spreadMethod="reflect" id="fill75"><stop offset="0" stop-color="#B5D5A7"/><stop offset="0.5" stop-color="#AACE99"/><stop offset="1" stop-color="#9CCA86"/></linearGradient><linearGradient x1="2941.5" y1="946" x2="2941.5" y2="1024" gradientUnits="userSpaceOnUse" spreadMethod="reflect" id="fill76"><stop offset="0" stop-color="#92AB86"/><stop offset="0.5" stop-color="#89A67B"/><stop offset="1" stop-color="#7DA26C"/></linearGradient></defs><g clip-path="url(#clip0)" transform="translate(-233 -379)"><path d="M233.095 498.775 1186.6 498.775 1186.6 615.847 233.095 615.847Z" fill="#4472C4" fill-rule="evenodd" fill-opacity="0.2"/><path d="M1186.6 498.775 2235.11 498.775 2235.11 615.847 1186.6 615.847Z" fill="#4472C4" fill-rule="evenodd" fill-opacity="0.2"/><path d="M2235.11 498.775 3214.78 498.775 3214.78 615.847 2235.11 615.847Z" fill="#4472C4" fill-rule="evenodd" fill-opacity="0.2"/><path d="M233.095 1359.79 1186.6 1359.79 1186.6 1854.23 233.095 1854.23Z" fill="#4472C4" fill-rule="evenodd" fill-opacity="0.2"/><path d="M1186.6 1359.79 2235.11 1359.79 2235.11 1854.23 1186.6 1854.23Z" fill="#4472C4" fill-rule="evenodd" fill-opacity="0.2"/><path d="M2235.11 1359.79 3214.78 1359.79 3214.78 1854.23 2235.11 1854.23Z" fill="#4472C4" fill-rule="evenodd" fill-opacity="0.2"/><path d="M233.095 498.775 3214.78 498.775" stroke="#4472C4" stroke-width="4.58333" stroke-linejoin="round" stroke-miterlimit="10" fill="none" fill-rule="evenodd"/><path d="M233.095 381.703 3214.78 381.703" stroke="#4472C4" stroke-width="4.58333" stroke-linejoin="round" stroke-miterlimit="10" fill="none" fill-rule="evenodd"/><path d="M233.095 1854.23 3214.78 1854.23" stroke="#4472C4" stroke-width="4.58333" stroke-linejoin="round" stroke-miterlimit="10" fill="none" fill-rule="evenodd"/><text font-family="Yu Gothic UI,Yu Gothic UI_MSFontService,sans-serif" font-weight="700" font-size="55" transform="matrix(1 0 0 1 544.845 461)">抽象文字集合</text><text font-family="Yu Gothic UI,Yu Gothic UI_MSFontService,sans-serif" font-weight="700" font-size="55" transform="matrix(1 0 0 1 1518.35 461)">符号化文字集合</text><text font-family="Yu Gothic UI,Yu Gothic UI_MSFontService,sans-serif" font-weight="700" font-size="55" transform="matrix(1 0 0 1 2298.69 461)">文字符号化形式・文字符号化スキーム</text><text font-family="Yu Gothic UI,Yu Gothic UI_MSFontService,sans-serif" font-weight="400" font-size="55" transform="matrix(1 0 0 1 462.345 578)">文字集合（未採番）</text><text font-family="Yu Gothic UI,Yu Gothic UI_MSFontService,sans-serif" font-weight="400" font-size="55" transform="matrix(1 0 0 1 1463.35 578)">文字集合（採番済）</text><text font-family="Yu Gothic UI,Yu Gothic UI_MSFontService,sans-serif" font-weight="400" font-size="55" transform="matrix(1 0 0 1 2290.39 578)">計算機上の形式、ネットワーク伝送形式</text><text font-family="Yu Gothic UI,Yu Gothic UI_MSFontService,sans-serif" font-weight="400" font-size="46" transform="matrix(1 0 0 1 1219.6 1253)">※</text><text font-family="Yu Gothic UI,Yu Gothic UI_MSFontService,sans-serif" font-weight="400" font-size="46" transform="matrix(1 0 0 1 1265.43 1253)">文字に採番されている</text><text font-family="Yu Gothic UI,Yu Gothic UI_MSFontService,sans-serif" font-weight="400" font-size="46" transform="matrix(1 0 0 1 1662.46 1253)">番号は「</text><text font-family="Yu Gothic UI,Yu Gothic UI_MSFontService,sans-serif" font-weight="400" font-size="46" transform="matrix(1 0 0 1 1816 1253)">コードポイント」という</text><text font-family="Yu Gothic UI,Yu Gothic UI_MSFontService,sans-serif" font-weight="400" font-size="46" transform="matrix(1 0 0 1 2268.11 1253)">※</text><text font-family="Yu Gothic UI,Yu Gothic UI_MSFontService,sans-serif" font-weight="400" font-size="46" transform="matrix(1 0 0 1 2313.94 1253)">文字に採番されている番号は「文字コード」という</text><text font-family="Yu Gothic UI,Yu Gothic UI_MSFontService,sans-serif" font-weight="400" font-size="50" transform="matrix(1 0 0 1 266.095 1425)">単純な文字の集合。番号が採番されていな</text><text font-family="Yu Gothic UI,Yu Gothic UI_MSFontService,sans-serif" font-weight="400" font-size="50" transform="matrix(1 0 0 1 266.095 1486)">い状態。</text><text font-family="Yu Gothic UI,Yu Gothic UI_MSFontService,sans-serif" font-weight="400" font-size="50" transform="matrix(1 0 0 1 266.095 1546)">（例）アルファベット、ひらがな、カタカナなど</text><text font-family="Yu Gothic UI,Yu Gothic UI_MSFontService,sans-serif" font-weight="400" font-size="50" transform="matrix(1 0 0 1 1219.6 1425)">文字集合の各文字に番号を採番したもの。単純</text><text font-family="Yu Gothic UI,Yu Gothic UI_MSFontService,sans-serif" font-weight="400" font-size="50" transform="matrix(1 0 0 1 1219.6 1486)">に文字に番号を割り当てしているだけで、計算機</text><text font-family="Yu Gothic UI,Yu Gothic UI_MSFontService,sans-serif" font-weight="400" font-size="50" transform="matrix(1 0 0 1 1219.6 1546)">上のバイト表現</text><text font-family="Yu Gothic UI,Yu Gothic UI_MSFontService,sans-serif" font-weight="400" font-size="50" transform="matrix(1 0 0 1 1523.24 1546)">(</text><text font-family="Yu Gothic UI,Yu Gothic UI_MSFontService,sans-serif" font-weight="400" font-size="50" transform="matrix(1 0 0 1 1538.71 1546)">文字コード</text><text font-family="Yu Gothic UI,Yu Gothic UI_MSFontService,sans-serif" font-weight="400" font-size="50" transform="matrix(1 0 0 1 1742.67 1546)">)</text><text font-family="Yu Gothic UI,Yu Gothic UI_MSFontService,sans-serif" font-weight="400" font-size="50" transform="matrix(1 0 0 1 1758.14 1546)">と同じとは限らない</text><text font-family="Yu Gothic UI,Yu Gothic UI_MSFontService,sans-serif" font-weight="400" font-size="50" transform="matrix(1 0 0 1 1219.6 1607)">（例）</text><text font-family="Yu Gothic UI,Yu Gothic UI_MSFontService,sans-serif" font-weight="400" font-size="50" transform="matrix(1 0 0 1 1370.85 1607)">Unicode, JIS X 0201</text><text font-family="Yu Gothic UI,Yu Gothic UI_MSFontService,sans-serif" font-weight="400" font-size="50" transform="matrix(1 0 0 1 1802.82 1607)">、</text><text font-family="Yu Gothic UI,Yu Gothic UI_MSFontService,sans-serif" font-weight="400" font-size="50" transform="matrix(1 0 0 1 1836.05 1607)">JIS X 0208</text><text font-family="Yu Gothic UI,Yu Gothic UI_MSFontService,sans-serif" font-weight="400" font-size="50" transform="matrix(1 0 0 1 2058.92 1607)">、</text><g clip-path="url(#clip1)"><text font-family="Yu Gothic UI,Yu Gothic UI_MSFontService,sans-serif" font-weight="400" font-size="50" transform="matrix(1 0 0 1 2092.15 1607)">JIS X </text></g><text font-family="Yu Gothic UI,Yu Gothic UI_MSFontService,sans-serif" font-weight="400" font-size="50" transform="matrix(1 0 0 1 1219.6 1667)">0212</text><text font-family="Yu Gothic UI,Yu Gothic UI_MSFontService,sans-serif" font-weight="400" font-size="50" transform="matrix(1 0 0 1 1327.3 1667)">、</text><text font-family="Yu Gothic UI,Yu Gothic UI_MSFontService,sans-serif" font-weight="400" font-size="50" transform="matrix(1 0 0 1 1360.53 1667)">JIS X 0213</text><text font-family="Yu Gothic UI,Yu Gothic UI_MSFontService,sans-serif" font-weight="700" font-size="50" transform="matrix(1 0 0 1 2268.11 1425)">文字符号化形式</text><text font-family="Yu Gothic UI,Yu Gothic UI_MSFontService,sans-serif" font-weight="400" font-size="50" transform="matrix(1 0 0 1 2621.02 1425)">：各文字を計算機上のバイ</text><text font-family="Yu Gothic UI,Yu Gothic UI_MSFontService,sans-serif" font-weight="400" font-size="50" transform="matrix(1 0 0 1 2268.11 1486)">ト表現（＝文字コード）で表現したもの。</text><text font-family="Yu Gothic UI,Yu Gothic UI_MSFontService,sans-serif" font-weight="400" font-size="50" transform="matrix(1 0 0 1 2268.11 1546)">byte(8bit), word(16bit), dword’32bit) </text><text font-family="Yu Gothic UI,Yu Gothic UI_MSFontService,sans-serif" font-weight="400" font-size="50" transform="matrix(1 0 0 1 3087.38 1546)">の配</text><text font-family="Yu Gothic UI,Yu Gothic UI_MSFontService,sans-serif" font-weight="400" font-size="50" transform="matrix(1 0 0 1 2268.11 1607)">列で表現される</text><text font-family="Yu Gothic UI,Yu Gothic UI_MSFontService,sans-serif" font-weight="700" font-size="50" transform="matrix(1 0 0 1 2268.11 1667)">文字符号化スキーム</text><text font-family="Yu Gothic UI,Yu Gothic UI_MSFontService,sans-serif" font-weight="400" font-size="50" transform="matrix(1 0 0 1 2672.01 1667)">：各文字をネットワーク伝</text><text font-family="Yu Gothic UI,Yu Gothic UI_MSFontService,sans-serif" font-weight="400" font-size="50" transform="matrix(1 0 0 1 2268.11 1728)">送形式やファイルへシリアライズ形式で表現し</text><text font-family="Yu Gothic UI,Yu Gothic UI_MSFontService,sans-serif" font-weight="400" font-size="50" transform="matrix(1 0 0 1 2268.11 1788)">たもの。</text><text font-family="Yu Gothic UI,Yu Gothic UI_MSFontService,sans-serif" font-weight="400" font-size="50" transform="matrix(1 0 0 1 2420.5 1788)">8bit</text><text font-family="Yu Gothic UI,Yu Gothic UI_MSFontService,sans-serif" font-weight="400" font-size="50" transform="matrix(1 0 0 1 2506.44 1788)">の配列で表現される</text><rect x="406" y="656" width="701" height="468" stroke="#FFC000" stroke-width="2.29167" stroke-miterlimit="8" fill="url(#fill2)"/><path d="M655 892 767 892 767 985.333 748.333 1004 655 1004Z" fill="url(#fill3)" fill-rule="evenodd"/><path d="M748.333 1004 752.066 989.067 767 985.333Z" fill="url(#fill4)" fill-rule="evenodd"/><path d="M748.333 1004 752.066 989.067 767 985.333 748.333 1004 655 1004 655 892 767 892 767 985.333" stroke="#70AD47" stroke-width="2.29167" stroke-miterlimit="8" fill="none" fill-rule="evenodd"/><path d="M787 870 899 870 899 963.333 880.333 982 787 982Z" fill="url(#fill5)" fill-rule="evenodd"/><path d="M880.333 982 884.066 967.067 899 963.333Z" fill="url(#fill6)" fill-rule="evenodd"/><path d="M880.333 982 884.066 967.067 899 963.333 880.333 982 787 982 787 870 899 870 899 963.333" stroke="#70AD47" stroke-width="2.29167" stroke-miterlimit="8" fill="none" fill-rule="evenodd"/><path d="M509 874 621 874 621 967.333 602.333 986 509 986Z" fill="url(#fill7)" fill-rule="evenodd"/><path d="M602.333 986 606.067 971.067 621 967.333Z" fill="url(#fill8)" fill-rule="evenodd"/><path d="M602.333 986 606.067 971.067 621 967.333 602.333 986 509 986 509 874 621 874 621 967.333" stroke="#70AD47" stroke-width="2.29167" stroke-miterlimit="8" fill="none" fill-rule="evenodd"/><text font-family="Yu Gothic UI,Yu Gothic UI_MSFontService,sans-serif" font-weight="400" font-size="83" transform="matrix(1 0 0 1 529.8 951)">は</text><path d="M608 732 720 732 720 825.333 701.333 844 608 844Z" fill="url(#fill9)" fill-rule="evenodd"/><path d="M701.333 844 705.067 829.066 720 825.333Z" fill="url(#fill10)" fill-rule="evenodd"/><path d="M701.333 844 705.067 829.066 720 825.333 701.333 844 608 844 608 732 720 732 720 825.333" stroke="#70AD47" stroke-width="2.29167" stroke-miterlimit="8" fill="none" fill-rule="evenodd"/><path d="M767 729 879 729 879 822.333 860.333 841 767 841Z" fill="url(#fill11)" fill-rule="evenodd"/><path d="M860.333 841 864.066 826.067 879 822.333Z" fill="url(#fill12)" fill-rule="evenodd"/><path d="M860.333 841 864.066 826.067 879 822.333 860.333 841 767 841 767 729 879 729 879 822.333" stroke="#70AD47" stroke-width="2.29167" stroke-miterlimit="8" fill="none" fill-rule="evenodd"/><path d="M845 948 957 948 957 1041.33 938.333 1060 845 1060Z" fill="url(#fill13)" fill-rule="evenodd"/><path d="M938.333 1060 942.066 1045.07 957 1041.33Z" fill="url(#fill14)" fill-rule="evenodd"/><path d="M938.333 1060 942.066 1045.07 957 1041.33 938.333 1060 845 1060 845 948 957 948 957 1041.33" stroke="#70AD47" stroke-width="2.29167" stroke-miterlimit="8" fill="none" fill-rule="evenodd"/><path d="M586 834 699 834 699 927.333 680.333 946 586 946Z" fill="url(#fill15)" fill-rule="evenodd"/><path d="M680.333 946 684.066 931.066 699 927.333Z" fill="url(#fill16)" fill-rule="evenodd"/><path d="M680.333 946 684.066 931.066 699 927.333 680.333 946 586 946 586 834 699 834 699 927.333" stroke="#70AD47" stroke-width="2.29167" stroke-miterlimit="8" fill="none" fill-rule="evenodd"/><text font-family="Yu Gothic UI,Yu Gothic UI_MSFontService,sans-serif" font-weight="400" font-size="83" transform="matrix(1 0 0 1 608.982 911)">か</text><path d="M883 959 995 959 995 1052.33 976.333 1071 883 1071Z" fill="url(#fill17)" fill-rule="evenodd"/><path d="M976.333 1071 980.067 1056.07 995 1052.33Z" fill="url(#fill18)" fill-rule="evenodd"/><path d="M976.333 1071 980.067 1056.07 995 1052.33 976.333 1071 883 1071 883 959 995 959 995 1052.33" stroke="#70AD47" stroke-width="2.29167" stroke-miterlimit="8" fill="none" fill-rule="evenodd"/><text font-family="Yu Gothic UI,Yu Gothic UI_MSFontService,sans-serif" font-weight="400" font-size="83" transform="matrix(1 0 0 1 905.07 1036)">す</text><path d="M720 959 833 959 833 1053.17 814.166 1072 720 1072Z" fill="url(#fill19)" fill-rule="evenodd"/><path d="M814.166 1072 817.933 1056.93 833 1053.17Z" fill="url(#fill20)" fill-rule="evenodd"/><path d="M814.166 1072 817.933 1056.93 833 1053.17 814.166 1072 720 1072 720 959 833 959 833 1053.17" stroke="#70AD47" stroke-width="2.29167" stroke-miterlimit="8" fill="none" fill-rule="evenodd"/><text font-family="Yu Gothic UI,Yu Gothic UI_MSFontService,sans-serif" font-weight="400" font-size="83" transform="matrix(1 0 0 1 747.609 1037)">し</text><path d="M743 834 855 834 855 927.333 836.333 946 743 946Z" fill="url(#fill21)" fill-rule="evenodd"/><path d="M836.333 946 840.066 931.066 855 927.333Z" fill="url(#fill22)" fill-rule="evenodd"/><path d="M836.333 946 840.066 931.066 855 927.333 836.333 946 743 946 743 834 855 834 855 927.333" stroke="#70AD47" stroke-width="2.29167" stroke-miterlimit="8" fill="none" fill-rule="evenodd"/><text font-family="Yu Gothic UI,Yu Gothic UI_MSFontService,sans-serif" font-weight="400" font-size="83" transform="matrix(1 0 0 1 767.403 911)">き</text><path d="M562 954 674 954 674 1047.33 655.333 1066 562 1066Z" fill="url(#fill23)" fill-rule="evenodd"/><path d="M655.333 1066 659.067 1051.07 674 1047.33Z" fill="url(#fill24)" fill-rule="evenodd"/><path d="M655.333 1066 659.067 1051.07 674 1047.33 655.333 1066 562 1066 562 954 674 954 674 1047.33" stroke="#70AD47" stroke-width="2.29167" stroke-miterlimit="8" fill="none" fill-rule="evenodd"/><text font-family="Yu Gothic UI,Yu Gothic UI_MSFontService,sans-serif" font-weight="400" font-size="83" transform="matrix(1 0 0 1 589.929 1031)">さ</text><path d="M892 825 1004 825 1004 918.333 985.333 937 892 937Z" fill="url(#fill25)" fill-rule="evenodd"/><path d="M985.333 937 989.067 922.066 1004 918.333Z" fill="url(#fill26)" fill-rule="evenodd"/><path d="M985.333 937 989.067 922.066 1004 918.333 985.333 937 892 937 892 825 1004 825 1004 918.333" stroke="#70AD47" stroke-width="2.29167" stroke-miterlimit="8" fill="none" fill-rule="evenodd"/><text font-family="Yu Gothic UI,Yu Gothic UI_MSFontService,sans-serif" font-weight="400" font-size="83" transform="matrix(1 0 0 1 922.939 902)">く</text><path d="M533 704 645 704 645 798.333 626.333 817 533 817Z" fill="url(#fill27)" fill-rule="evenodd"/><path d="M626.333 817 630.066 802.067 645 798.333Z" fill="url(#fill28)" fill-rule="evenodd"/><path d="M626.333 817 630.066 802.067 645 798.333 626.333 817 533 817 533 704 645 704 645 798.333" stroke="#70AD47" stroke-width="2.29167" stroke-miterlimit="8" fill="none" fill-rule="evenodd"/><text font-family="Yu Gothic UI,Yu Gothic UI_MSFontService,sans-serif" font-weight="400" font-size="83" transform="matrix(1 0 0 1 555.393 782)">あ</text><path d="M687 704 799 704 799 798.333 780.333 817 687 817Z" fill="url(#fill29)" fill-rule="evenodd"/><path d="M780.333 817 784.066 802.067 799 798.333Z" fill="url(#fill30)" fill-rule="evenodd"/><path d="M780.333 817 784.066 802.067 799 798.333 780.333 817 687 817 687 704 799 704 799 798.333" stroke="#70AD47" stroke-width="2.29167" stroke-miterlimit="8" fill="none" fill-rule="evenodd"/><text font-family="Yu Gothic UI,Yu Gothic UI_MSFontService,sans-serif" font-weight="400" font-size="83" transform="matrix(1 0 0 1 709.066 782)">い</text><path d="M847 704 959 704 959 798.333 940.333 817 847 817Z" fill="url(#fill31)" fill-rule="evenodd"/><path d="M940.333 817 944.066 802.067 959 798.333Z" fill="url(#fill32)" fill-rule="evenodd"/><path d="M940.333 817 944.066 802.067 959 798.333 940.333 817 847 817 847 704 959 704 959 798.333" stroke="#70AD47" stroke-width="2.29167" stroke-miterlimit="8" fill="none" fill-rule="evenodd"/><text font-family="Yu Gothic UI,Yu Gothic UI_MSFontService,sans-serif" font-weight="400" font-size="83" transform="matrix(1 0 0 1 875.475 782)">う</text><rect x="1392" y="649" width="702" height="467" stroke="#FFC000" stroke-width="2.29167" stroke-miterlimit="8" fill="url(#fill33)"/><path d="M1486 696 1598 696 1598 789.333 1579.33 808 1486 808Z" fill="url(#fill34)" fill-rule="evenodd"/><path d="M1579.33 808 1583.07 793.067 1598 789.333Z" fill="url(#fill35)" fill-rule="evenodd"/><path d="M1579.33 808 1583.07 793.067 1598 789.333 1579.33 808 1486 808 1486 696 1598 696 1598 789.333" stroke="#70AD47" stroke-width="2.29167" stroke-miterlimit="8" fill="none" fill-rule="evenodd"/><text font-family="Yu Gothic UI,Yu Gothic UI_MSFontService,sans-serif" font-weight="400" font-size="83" transform="matrix(1 0 0 1 1508.21 774)">あ</text><path d="M1677 696 1790 696 1790 789.333 1771.33 808 1677 808Z" fill="url(#fill36)" fill-rule="evenodd"/><path d="M1771.33 808 1775.07 793.067 1790 789.333Z" fill="url(#fill37)" fill-rule="evenodd"/><path d="M1771.33 808 1775.07 793.067 1790 789.333 1771.33 808 1677 808 1677 696 1790 696 1790 789.333" stroke="#70AD47" stroke-width="2.29167" stroke-miterlimit="8" fill="none" fill-rule="evenodd"/><text font-family="Yu Gothic UI,Yu Gothic UI_MSFontService,sans-serif" font-weight="400" font-size="83" transform="matrix(1 0 0 1 1699.96 774)">い</text><path d="M1871 696 1983 696 1983 789.333 1964.33 808 1871 808Z" fill="url(#fill38)" fill-rule="evenodd"/><path d="M1964.33 808 1968.07 793.067 1983 789.333Z" fill="url(#fill39)" fill-rule="evenodd"/><path d="M1964.33 808 1968.07 793.067 1983 789.333 1964.33 808 1871 808 1871 696 1983 696 1983 789.333" stroke="#70AD47" stroke-width="2.29167" stroke-miterlimit="8" fill="none" fill-rule="evenodd"/><text font-family="Yu Gothic UI,Yu Gothic UI_MSFontService,sans-serif" font-weight="400" font-size="83" transform="matrix(1 0 0 1 1899.54 774)">う</text><text font-family="Yu Gothic UI,Yu Gothic UI_MSFontService,sans-serif" font-weight="400" font-size="37" transform="matrix(1 0 0 1 1472.06 850)">U+3042</text><text font-family="Yu Gothic UI,Yu Gothic UI_MSFontService,sans-serif" font-weight="400" font-size="37" transform="matrix(1 0 0 1 1667.21 850)">U+3044</text><text font-family="Yu Gothic UI,Yu Gothic UI_MSFontService,sans-serif" font-weight="400" font-size="37" transform="matrix(1 0 0 1 1866.01 850)">U+3046</text><path d="M1486 909 1598 909 1598 1003.33 1579.33 1022 1486 1022Z" fill="url(#fill40)" fill-rule="evenodd"/><path d="M1579.33 1022 1583.07 1007.07 1598 1003.33Z" fill="url(#fill41)" fill-rule="evenodd"/><path d="M1579.33 1022 1583.07 1007.07 1598 1003.33 1579.33 1022 1486 1022 1486 909 1598 909 1598 1003.33" stroke="#70AD47" stroke-width="2.29167" stroke-miterlimit="8" fill="none" fill-rule="evenodd"/><text font-family="Yu Gothic UI,Yu Gothic UI_MSFontService,sans-serif" font-weight="400" font-size="83" transform="matrix(1 0 0 1 1508.21 987)">か</text><text font-family="Yu Gothic UI,Yu Gothic UI_MSFontService,sans-serif" font-weight="400" font-size="37" transform="matrix(1 0 0 1 1478.68 1065)">U+304B</text><path d="M1685 909 1797 909 1797 1002.33 1778.33 1021 1685 1021Z" fill="url(#fill42)" fill-rule="evenodd"/><path d="M1778.33 1021 1782.07 1006.07 1797 1002.33Z" fill="url(#fill43)" fill-rule="evenodd"/><path d="M1778.33 1021 1782.07 1006.07 1797 1002.33 1778.33 1021 1685 1021 1685 909 1797 909 1797 1002.33" stroke="#70AD47" stroke-width="2.29167" stroke-miterlimit="8" fill="none" fill-rule="evenodd"/><text font-family="Yu Gothic UI,Yu Gothic UI_MSFontService,sans-serif" font-weight="400" font-size="83" transform="matrix(1 0 0 1 1709.61 987)">き</text><text font-family="Yu Gothic UI,Yu Gothic UI_MSFontService,sans-serif" font-weight="400" font-size="37" transform="matrix(1 0 0 1 1668.83 1063)">U+304D</text><path d="M1876 912 1988 912 1988 1005.33 1969.33 1024 1876 1024Z" fill="url(#fill44)" fill-rule="evenodd"/><path d="M1969.33 1024 1973.07 1009.07 1988 1005.33Z" fill="url(#fill45)" fill-rule="evenodd"/><path d="M1969.33 1024 1973.07 1009.07 1988 1005.33 1969.33 1024 1876 1024 1876 912 1988 912 1988 1005.33" stroke="#70AD47" stroke-width="2.29167" stroke-miterlimit="8" fill="none" fill-rule="evenodd"/><text font-family="Yu Gothic UI,Yu Gothic UI_MSFontService,sans-serif" font-weight="400" font-size="83" transform="matrix(1 0 0 1 1907.11 989)">く</text><text font-family="Yu Gothic UI,Yu Gothic UI_MSFontService,sans-serif" font-weight="400" font-size="37" transform="matrix(1 0 0 1 1866.85 1065)">U+304F</text><rect x="2422" y="698" width="701" height="467" stroke="#FFC000" stroke-width="2.29167" stroke-miterlimit="8" fill="url(#fill46)"/><rect x="2491" y="781.75" width="107.25" height="107.25" fill="url(#fill47)"/><path d="M2598.25 781.75 2634 746 2634 853.25 2598.25 889Z" fill="url(#fill48)" fill-rule="evenodd"/><path d="M2491 781.75 2526.75 746 2634 746 2598.25 781.75Z" fill="url(#fill49)" fill-rule="evenodd"/><path d="M2491 781.75 2526.75 746 2634 746 2634 853.25 2598.25 889 2491 889ZM2491 781.75 2598.25 781.75 2634 746M2598.25 781.75 2598.25 889" stroke="#5B9BD5" stroke-width="2.29167" stroke-miterlimit="8" fill="none" fill-rule="evenodd"/><rect x="2708" y="783.75" width="107.25" height="108.25" fill="url(#fill50)"/><path d="M2815.25 783.75 2851 748 2851 856.25 2815.25 892Z" fill="url(#fill51)" fill-rule="evenodd"/><path d="M2708 783.75 2743.75 748 2851 748 2815.25 783.75Z" fill="url(#fill52)" fill-rule="evenodd"/><path d="M2708 783.75 2743.75 748 2851 748 2851 856.25 2815.25 892 2708 892ZM2708 783.75 2815.25 783.75 2851 748M2815.25 783.75 2815.25 892" stroke="#5B9BD5" stroke-width="2.29167" stroke-miterlimit="8" fill="none" fill-rule="evenodd"/><rect x="2924" y="782.75" width="108.25" height="107.25" fill="url(#fill53)"/><path d="M3032.25 782.75 3068 747 3068 854.25 3032.25 890Z" fill="url(#fill54)" fill-rule="evenodd"/><path d="M2924 782.75 2959.75 747 3068 747 3032.25 782.75Z" fill="url(#fill55)" fill-rule="evenodd"/><path d="M2924 782.75 2959.75 747 3068 747 3068 854.25 3032.25 890 2924 890ZM2924 782.75 3032.25 782.75 3068 747M3032.25 782.75 3032.25 890" stroke="#5B9BD5" stroke-width="2.29167" stroke-miterlimit="8" fill="none" fill-rule="evenodd"/><rect x="2491" y="992.75" width="107.25" height="107.25" fill="url(#fill56)"/><path d="M2598.25 992.75 2634 957 2634 1064.25 2598.25 1100Z" fill="url(#fill57)" fill-rule="evenodd"/><path d="M2491 992.75 2526.75 957 2634 957 2598.25 992.75Z" fill="url(#fill58)" fill-rule="evenodd"/><path d="M2491 992.75 2526.75 957 2634 957 2634 1064.25 2598.25 1100 2491 1100ZM2491 992.75 2598.25 992.75 2634 957M2598.25 992.75 2598.25 1100" stroke="#5B9BD5" stroke-width="2.29167" stroke-miterlimit="8" fill="none" fill-rule="evenodd"/><rect x="2708" y="995.75" width="107.25" height="107.25" fill="url(#fill59)"/><path d="M2815.25 995.75 2851 960 2851 1067.25 2815.25 1103Z" fill="url(#fill60)" fill-rule="evenodd"/><path d="M2708 995.75 2743.75 960 2851 960 2815.25 995.75Z" fill="url(#fill61)" fill-rule="evenodd"/><path d="M2708 995.75 2743.75 960 2851 960 2851 1067.25 2815.25 1103 2708 1103ZM2708 995.75 2815.25 995.75 2851 960M2815.25 995.75 2815.25 1103" stroke="#5B9BD5" stroke-width="2.29167" stroke-miterlimit="8" fill="none" fill-rule="evenodd"/><rect x="2924" y="994" width="108" height="108" fill="url(#fill62)"/><path d="M3032 994 3068 958 3068 1066 3032 1102Z" fill="url(#fill63)" fill-rule="evenodd"/><path d="M2924 994 2960 958 3068 958 3032 994Z" fill="url(#fill64)" fill-rule="evenodd"/><path d="M2924 994 2960 958 3068 958 3068 1066 3032 1102 2924 1102ZM2924 994 3032 994 3068 958M3032 994 3032 1102" stroke="#5B9BD5" stroke-width="2.29167" stroke-miterlimit="8" fill="none" fill-rule="evenodd"/><text font-family="Yu Gothic UI,Yu Gothic UI_MSFontService,sans-serif" font-weight="400" font-size="37" transform="matrix(1 0 0 1 2489.37 861)">0x</text><text font-family="Yu Gothic UI,Yu Gothic UI_MSFontService,sans-serif" font-weight="400" font-size="37" transform="matrix(1 0 0 1 2526.04 861)">3042</text><text font-family="Yu Gothic UI,Yu Gothic UI_MSFontService,sans-serif" font-weight="400" font-size="37" transform="matrix(1 0 0 1 2701.79 859)">0x3044</text><text font-family="Yu Gothic UI,Yu Gothic UI_MSFontService,sans-serif" font-weight="400" font-size="37" transform="matrix(1 0 0 1 2917.12 864)">0x</text><text font-family="Yu Gothic UI,Yu Gothic UI_MSFontService,sans-serif" font-weight="400" font-size="37" transform="matrix(1 0 0 1 2953.78 864)">3046</text><text font-family="Yu Gothic UI,Yu Gothic UI_MSFontService,sans-serif" font-weight="400" font-size="37" transform="matrix(1 0 0 1 2490.84 1069)">0x</text><text font-family="Yu Gothic UI,Yu Gothic UI_MSFontService,sans-serif" font-weight="400" font-size="37" transform="matrix(1 0 0 1 2527.51 1069)">304B</text><text font-family="Yu Gothic UI,Yu Gothic UI_MSFontService,sans-serif" font-weight="400" font-size="37" transform="matrix(1 0 0 1 2696.54 1069)">0x304D</text><text font-family="Yu Gothic UI,Yu Gothic UI_MSFontService,sans-serif" font-weight="400" font-size="37" transform="matrix(1 0 0 1 2921.45 1069)">0x</text><text font-family="Yu Gothic UI,Yu Gothic UI_MSFontService,sans-serif" font-weight="400" font-size="37" transform="matrix(1 0 0 1 2958.12 1069)">304F</text><path d="M2458 730 2536 730 2536 796 2523 809 2458 809Z" fill="url(#fill65)" fill-rule="evenodd"/><path d="M2523 809 2525.6 798.6 2536 796Z" fill="url(#fill66)" fill-rule="evenodd"/><path d="M2523 809 2525.6 798.6 2536 796 2523 809 2458 809 2458 730 2536 730 2536 796" stroke="#70AD47" stroke-width="2.29167" stroke-miterlimit="8" fill="none" fill-rule="evenodd"/><text font-family="Yu Gothic UI,Yu Gothic UI_MSFontService,sans-serif" font-weight="400" font-size="55" transform="matrix(1 0 0 1 2474.65 784)">あ</text><path d="M2693 728 2772 728 2772 793.833 2758.83 807 2693 807Z" fill="url(#fill67)" fill-rule="evenodd"/><path d="M2758.83 807 2761.47 796.467 2772 793.833Z" fill="url(#fill68)" fill-rule="evenodd"/><path d="M2758.83 807 2761.47 796.467 2772 793.833 2758.83 807 2693 807 2693 728 2772 728 2772 793.833" stroke="#70AD47" stroke-width="2.29167" stroke-miterlimit="8" fill="none" fill-rule="evenodd"/><text font-family="Yu Gothic UI,Yu Gothic UI_MSFontService,sans-serif" font-weight="400" font-size="55" transform="matrix(1 0 0 1 2709.89 782)">い</text><path d="M2905 731 2984 731 2984 796 2971 809 2905 809Z" fill="url(#fill69)" fill-rule="evenodd"/><path d="M2971 809 2973.6 798.6 2984 796Z" fill="url(#fill70)" fill-rule="evenodd"/><path d="M2971 809 2973.6 798.6 2984 796 2971 809 2905 809 2905 731 2984 731 2984 796" stroke="#70AD47" stroke-width="2.29167" stroke-miterlimit="8" fill="none" fill-rule="evenodd"/><text font-family="Yu Gothic UI,Yu Gothic UI_MSFontService,sans-serif" font-weight="400" font-size="55" transform="matrix(1 0 0 1 2926.6 785)">う</text><path d="M2471 944 2550 944 2550 1009.83 2536.83 1023 2471 1023Z" fill="url(#fill71)" fill-rule="evenodd"/><path d="M2536.83 1023 2539.47 1012.47 2550 1009.83Z" fill="url(#fill72)" fill-rule="evenodd"/><path d="M2536.83 1023 2539.47 1012.47 2550 1009.83 2536.83 1023 2471 1023 2471 944 2550 944 2550 1009.83" stroke="#70AD47" stroke-width="2.29167" stroke-miterlimit="8" fill="none" fill-rule="evenodd"/><text font-family="Yu Gothic UI,Yu Gothic UI_MSFontService,sans-serif" font-weight="400" font-size="55" transform="matrix(1 0 0 1 2488.26 998)">か</text><path d="M2690 945 2768 945 2768 1011 2755 1024 2690 1024Z" fill="url(#fill73)" fill-rule="evenodd"/><path d="M2755 1024 2757.6 1013.6 2768 1011Z" fill="url(#fill74)" fill-rule="evenodd"/><path d="M2755 1024 2757.6 1013.6 2768 1011 2755 1024 2690 1024 2690 945 2768 945 2768 1011" stroke="#70AD47" stroke-width="2.29167" stroke-miterlimit="8" fill="none" fill-rule="evenodd"/><text font-family="Yu Gothic UI,Yu Gothic UI_MSFontService,sans-serif" font-weight="400" font-size="55" transform="matrix(1 0 0 1 2708.33 999)">き</text><path d="M2902 946 2981 946 2981 1011 2968 1024 2902 1024Z" fill="url(#fill75)" fill-rule="evenodd"/><path d="M2968 1024 2970.6 1013.6 2981 1011Z" fill="url(#fill76)" fill-rule="evenodd"/><path d="M2968 1024 2970.6 1013.6 2981 1011 2968 1024 2902 1024 2902 946 2981 946 2981 1011" stroke="#70AD47" stroke-width="2.29167" stroke-miterlimit="8" fill="none" fill-rule="evenodd"/><text font-family="Yu Gothic UI,Yu Gothic UI_MSFontService,sans-serif" font-weight="400" font-size="55" transform="matrix(1 0 0 1 2924.89 999)">く</text><text font-family="Yu Gothic UI,Yu Gothic UI_MSFontService,sans-serif" font-weight="400" font-size="37" transform="matrix(1 0 0 1 2887.89 1151)">※UTF</text><text font-family="Yu Gothic UI,Yu Gothic UI_MSFontService,sans-serif" font-weight="400" font-size="37" transform="matrix(1 0 0 1 2987.01 1151)">-</text><text font-family="Yu Gothic UI,Yu Gothic UI_MSFontService,sans-serif" font-weight="400" font-size="37" transform="matrix(1 0 0 1 3001.9 1151)">16</text><text font-family="Yu Gothic UI,Yu Gothic UI_MSFontService,sans-serif" font-weight="400" font-size="37" transform="matrix(1 0 0 1 3042.01 1151)">の例</text><path d="M1135.5 814 1236.5 814 1236.5 737.5 1337.5 890.5 1236.5 1043.5 1236.5 967 1135.5 967Z" stroke="#507E32" stroke-width="4.58333" stroke-miterlimit="8" fill="#70AD47" fill-rule="evenodd"/><path d="M2174.5 786 2275 786 2275 709.5 2375.5 862.5 2275 1015.5 2275 939 2174.5 939Z" stroke="#507E32" stroke-width="4.58333" stroke-miterlimit="8" fill="#70AD47" fill-rule="evenodd"/><text font-family="Yu Gothic UI,Yu Gothic UI_MSFontService,sans-serif" font-weight="400" font-size="46" transform="matrix(1 0 0 1 2421.71 683)">文字符号化形式の例</text></g></svg>