<svg width="1974" height="450" xmlns="http://www.w3.org/2000/svg" xmlns:xlink="http://www.w3.org/1999/xlink" xml:space="preserve" overflow="hidden"><defs><clipPath id="clip0"><rect x="286" y="635" width="1974" height="450"/></clipPath><linearGradient x1="423" y1="812" x2="423" y2="1072" gradientUnits="userSpaceOnUse" spreadMethod="reflect" id="fill1"><stop offset="0" stop-color="#B1CBE9"/><stop offset="0.5" stop-color="#A3C1E5"/><stop offset="1" stop-color="#92B9E4"/></linearGradient><linearGradient x1="423" y1="812" x2="423" y2="1072" gradientUnits="userSpaceOnUse" spreadMethod="reflect" id="fill2"><stop offset="0" stop-color="#8EA3BB"/><stop offset="0.5" stop-color="#839BB8"/><stop offset="1" stop-color="#7595B7"/></linearGradient><linearGradient x1="423" y1="812" x2="423" y2="1072" gradientUnits="userSpaceOnUse" spreadMethod="reflect" id="fill3"><stop offset="0" stop-color="#C0D5ED"/><stop offset="0.5" stop-color="#B5CDEA"/><stop offset="1" stop-color="#A7C7E9"/></linearGradient><linearGradient x1="630" y1="812" x2="630" y2="1072" gradientUnits="userSpaceOnUse" spreadMethod="reflect" id="fill4"><stop offset="0" stop-color="#B1CBE9"/><stop offset="0.5" stop-color="#A3C1E5"/><stop offset="1" stop-color="#92B9E4"/></linearGradient><linearGradient x1="630" y1="812" x2="630" y2="1072" gradientUnits="userSpaceOnUse" spreadMethod="reflect" id="fill5"><stop offset="0" stop-color="#8EA3BB"/><stop offset="0.5" stop-color="#839BB8"/><stop offset="1" stop-color="#7595B7"/></linearGradient><linearGradient x1="630" y1="812" x2="630" y2="1072" gradientUnits="userSpaceOnUse" spreadMethod="reflect" id="fill6"><stop offset="0" stop-color="#C0D5ED"/><stop offset="0.5" stop-color="#B5CDEA"/><stop offset="1" stop-color="#A7C7E9"/></linearGradient><linearGradient x1="526" y1="738" x2="526" y2="842" gradientUnits="userSpaceOnUse" spreadMethod="reflect" id="fill7"><stop offset="0" stop-color="#B5D5A7"/><stop offset="0.5" stop-color="#AACE99"/><stop offset="1" stop-color="#9CCA86"/></linearGradient><linearGradient x1="526" y1="738" x2="526" y2="842" gradientUnits="userSpaceOnUse" spreadMethod="reflect" id="fill8"><stop offset="0" stop-color="#92AB86"/><stop offset="0.5" stop-color="#89A67B"/><stop offset="1" stop-color="#7DA26C"/></linearGradient><linearGradient x1="918.5" y1="812" x2="918.5" y2="1071" gradientUnits="userSpaceOnUse" spreadMethod="reflect" id="fill9"><stop offset="0" stop-color="#B1CBE9"/><stop offset="0.5" stop-color="#A3C1E5"/><stop offset="1" stop-color="#92B9E4"/></linearGradient><linearGradient x1="918.5" y1="812" x2="918.5" y2="1071" gradientUnits="userSpaceOnUse" spreadMethod="reflect" id="fill10"><stop offset="0" stop-color="#8EA3BB"/><stop offset="0.5" stop-color="#839BB8"/><stop offset="1" stop-color="#7595B7"/></linearGradient><linearGradient x1="918.5" y1="812" x2="918.5" y2="1071" gradientUnits="userSpaceOnUse" spreadMethod="reflect" id="fill11"><stop offset="0" stop-color="#C0D5ED"/><stop offset="0.5" stop-color="#B5CDEA"/><stop offset="1" stop-color="#A7C7E9"/></linearGradient><linearGradient x1="1125" y1="812" x2="1125" y2="1071" gradientUnits="userSpaceOnUse" spreadMethod="reflect" id="fill12"><stop offset="0" stop-color="#B1CBE9"/><stop offset="0.5" stop-color="#A3C1E5"/><stop offset="1" stop-color="#92B9E4"/></linearGradient><linearGradient x1="1125" y1="812" x2="1125" y2="1071" gradientUnits="userSpaceOnUse" spreadMethod="reflect" id="fill13"><stop offset="0" stop-color="#8EA3BB"/><stop offset="0.5" stop-color="#839BB8"/><stop offset="1" stop-color="#7595B7"/></linearGradient><linearGradient x1="1125" y1="812" x2="1125" y2="1071" gradientUnits="userSpaceOnUse" spreadMethod="reflect" id="fill14"><stop offset="0" stop-color="#C0D5ED"/><stop offset="0.5" stop-color="#B5CDEA"/><stop offset="1" stop-color="#A7C7E9"/></linearGradient><linearGradient x1="1021" y1="738" x2="1021" y2="842" gradientUnits="userSpaceOnUse" spreadMethod="reflect" id="fill15"><stop offset="0" stop-color="#B5D5A7"/><stop offset="0.5" stop-color="#AACE99"/><stop offset="1" stop-color="#9CCA86"/></linearGradient><linearGradient x1="1021" y1="738" x2="1021" y2="842" gradientUnits="userSpaceOnUse" spreadMethod="reflect" id="fill16"><stop offset="0" stop-color="#92AB86"/><stop offset="0.5" stop-color="#89A67B"/><stop offset="1" stop-color="#7DA26C"/></linearGradient><linearGradient x1="1420" y1="812" x2="1420" y2="1071" gradientUnits="userSpaceOnUse" spreadMethod="reflect" id="fill17"><stop offset="0" stop-color="#B1CBE9"/><stop offset="0.5" stop-color="#A3C1E5"/><stop offset="1" stop-color="#92B9E4"/></linearGradient><linearGradient x1="1420" y1="812" x2="1420" y2="1071" gradientUnits="userSpaceOnUse" spreadMethod="reflect" id="fill18"><stop offset="0" stop-color="#8EA3BB"/><stop offset="0.5" stop-color="#839BB8"/><stop offset="1" stop-color="#7595B7"/></linearGradient><linearGradient x1="1420" y1="812" x2="1420" y2="1071" gradientUnits="userSpaceOnUse" spreadMethod="reflect" id="fill19"><stop offset="0" stop-color="#C0D5ED"/><stop offset="0.5" stop-color="#B5CDEA"/><stop offset="1" stop-color="#A7C7E9"/></linearGradient><linearGradient x1="1626.5" y1="812" x2="1626.5" y2="1071" gradientUnits="userSpaceOnUse" spreadMethod="reflect" id="fill20"><stop offset="0" stop-color="#B1CBE9"/><stop offset="0.5" stop-color="#A3C1E5"/><stop offset="1" stop-color="#92B9E4"/></linearGradient><linearGradient x1="1626.5" y1="812" x2="1626.5" y2="1071" gradientUnits="userSpaceOnUse" spreadMethod="reflect" id="fill21"><stop offset="0" stop-color="#8EA3BB"/><stop offset="0.5" stop-color="#839BB8"/><stop offset="1" stop-color="#7595B7"/></linearGradient><linearGradient x1="1626.5" y1="812" x2="1626.5" y2="1071" gradientUnits="userSpaceOnUse" spreadMethod="reflect" id="fill22"><stop offset="0" stop-color="#C0D5ED"/><stop offset="0.5" stop-color="#B5CDEA"/><stop offset="1" stop-color="#A7C7E9"/></linearGradient><linearGradient x1="1523" y1="738" x2="1523" y2="842" gradientUnits="userSpaceOnUse" spreadMethod="reflect" id="fill23"><stop offset="0" stop-color="#B5D5A7"/><stop offset="0.5" stop-color="#AACE99"/><stop offset="1" stop-color="#9CCA86"/></linearGradient><linearGradient x1="1523" y1="738" x2="1523" y2="842" gradientUnits="userSpaceOnUse" spreadMethod="reflect" id="fill24"><stop offset="0" stop-color="#92AB86"/><stop offset="0.5" stop-color="#89A67B"/><stop offset="1" stop-color="#7DA26C"/></linearGradient><linearGradient x1="1923" y1="812" x2="1923" y2="1071" gradientUnits="userSpaceOnUse" spreadMethod="reflect" id="fill25"><stop offset="0" stop-color="#B1CBE9"/><stop offset="0.5" stop-color="#A3C1E5"/><stop offset="1" stop-color="#92B9E4"/></linearGradient><linearGradient x1="1923" y1="812" x2="1923" y2="1071" gradientUnits="userSpaceOnUse" spreadMethod="reflect" id="fill26"><stop offset="0" stop-color="#8EA3BB"/><stop offset="0.5" stop-color="#839BB8"/><stop offset="1" stop-color="#7595B7"/></linearGradient><linearGradient x1="1923" y1="812" x2="1923" y2="1071" gradientUnits="userSpaceOnUse" spreadMethod="reflect" id="fill27"><stop offset="0" stop-color="#C0D5ED"/><stop offset="0.5" stop-color="#B5CDEA"/><stop offset="1" stop-color="#A7C7E9"/></linearGradient><linearGradient x1="2129" y1="812" x2="2129" y2="1071" gradientUnits="userSpaceOnUse" spreadMethod="reflect" id="fill28"><stop offset="0" stop-color="#B1CBE9"/><stop offset="0.5" stop-color="#A3C1E5"/><stop offset="1" stop-color="#92B9E4"/></linearGradient><linearGradient x1="2129" y1="812" x2="2129" y2="1071" gradientUnits="userSpaceOnUse" spreadMethod="reflect" id="fill29"><stop offset="0" stop-color="#8EA3BB"/><stop offset="0.5" stop-color="#839BB8"/><stop offset="1" stop-color="#7595B7"/></linearGradient><linearGradient x1="2129" y1="812" x2="2129" y2="1071" gradientUnits="userSpaceOnUse" spreadMethod="reflect" id="fill30"><stop offset="0" stop-color="#C0D5ED"/><stop offset="0.5" stop-color="#B5CDEA"/><stop offset="1" stop-color="#A7C7E9"/></linearGradient><linearGradient x1="2025.5" y1="738" x2="2025.5" y2="842" gradientUnits="userSpaceOnUse" spreadMethod="reflect" id="fill31"><stop offset="0" stop-color="#B5D5A7"/><stop offset="0.5" stop-color="#AACE99"/><stop offset="1" stop-color="#9CCA86"/></linearGradient><linearGradient x1="2025.5" y1="738" x2="2025.5" y2="842" gradientUnits="userSpaceOnUse" spreadMethod="reflect" id="fill32"><stop offset="0" stop-color="#92AB86"/><stop offset="0.5" stop-color="#89A67B"/><stop offset="1" stop-color="#7DA26C"/></linearGradient></defs><g clip-path="url(#clip0)" transform="translate(-286 -635)"><rect x="293" y="877" width="195" height="195" fill="url(#fill1)"/><path d="M488 877 553 812 553 1007 488 1072Z" fill="url(#fill2)" fill-rule="evenodd"/><path d="M293 877 358 812 553 812 488 877Z" fill="url(#fill3)" fill-rule="evenodd"/><path d="M293 877 358 812 553 812 553 1007 488 1072 293 1072ZM293 877 488 877 553 812M488 877 488 1072" stroke="#5B9BD5" stroke-width="2.29167" stroke-miterlimit="8" fill="none" fill-rule="evenodd"/><rect x="500" y="877" width="195" height="195" fill="url(#fill4)"/><path d="M695 877 760 812 760 1007 695 1072Z" fill="url(#fill5)" fill-rule="evenodd"/><path d="M500 877 565 812 760 812 695 877Z" fill="url(#fill6)" fill-rule="evenodd"/><path d="M500 877 565 812 760 812 760 1007 695 1072 500 1072ZM500 877 695 877 760 812M695 877 695 1072" stroke="#5B9BD5" stroke-width="2.29167" stroke-miterlimit="8" fill="none" fill-rule="evenodd"/><text font-family="Yu Gothic UI,Yu Gothic UI_MSFontService,sans-serif" font-weight="400" font-size="55" transform="matrix(1 0 0 1 320.017 964)">D8 42<tspan font-size="55" x="210.697" y="0">DF B7</tspan><tspan font-size="37" x="39.6072" y="90">(16bit)</tspan><tspan font-size="37" x="246.463" y="90">(16bit)</tspan></text><path d="M474 738 578 738 578 824.666 560.666 842 474 842Z" fill="url(#fill7)" fill-rule="evenodd"/><path d="M560.666 842 564.133 828.133 578 824.666Z" fill="url(#fill8)" fill-rule="evenodd"/><path d="M560.666 842 564.133 828.133 578 824.666 560.666 842 474 842 474 738 578 738 578 824.666" stroke="#70AD47" stroke-width="2.29167" stroke-miterlimit="8" fill="none" fill-rule="evenodd"/><text font-family="Yu Gothic UI,Yu Gothic UI_MSFontService,sans-serif" font-weight="400" font-size="64" transform="translate(493.756 805)">𠮷</text><rect x="789" y="876.75" width="194.25" height="194.25" fill="url(#fill9)"/><path d="M983.25 876.75 1048 812 1048 1006.25 983.25 1071Z" fill="url(#fill10)" fill-rule="evenodd"/><path d="M789 876.75 853.75 812 1048 812 983.25 876.75Z" fill="url(#fill11)" fill-rule="evenodd"/><path d="M789 876.75 853.75 812 1048 812 1048 1006.25 983.25 1071 789 1071ZM789 876.75 983.25 876.75 1048 812M983.25 876.75 983.25 1071" stroke="#5B9BD5" stroke-width="2.29167" stroke-miterlimit="8" fill="none" fill-rule="evenodd"/><rect x="995" y="876.75" width="195.25" height="194.25" fill="url(#fill12)"/><path d="M1190.25 876.75 1255 812 1255 1006.25 1190.25 1071Z" fill="url(#fill13)" fill-rule="evenodd"/><path d="M995 876.75 1059.75 812 1255 812 1190.25 876.75Z" fill="url(#fill14)" fill-rule="evenodd"/><path d="M995 876.75 1059.75 812 1255 812 1255 1006.25 1190.25 1071 995 1071ZM995 876.75 1190.25 876.75 1255 812M1190.25 876.75 1190.25 1071" stroke="#5B9BD5" stroke-width="2.29167" stroke-miterlimit="8" fill="none" fill-rule="evenodd"/><text font-family="Yu Gothic UI,Yu Gothic UI_MSFontService,sans-serif" font-weight="400" font-size="55" transform="matrix(1 0 0 1 815.055 964)">D8 42<tspan font-size="55" x="212.988" y="0">DF 9F</tspan><tspan font-size="37" x="39.6072" y="90">(16bit)</tspan><tspan font-size="37" x="246.463" y="90">(16bit)</tspan></text><path d="M969 738 1073 738 1073 824.666 1055.67 842 969 842Z" fill="url(#fill15)" fill-rule="evenodd"/><path d="M1055.67 842 1059.13 828.133 1073 824.666Z" fill="url(#fill16)" fill-rule="evenodd"/><path d="M1055.67 842 1059.13 828.133 1073 824.666 1055.67 842 969 842 969 738 1073 738 1073 824.666" stroke="#70AD47" stroke-width="2.29167" stroke-miterlimit="8" fill="none" fill-rule="evenodd"/><text font-family="Yu Gothic UI,Yu Gothic UI_MSFontService,sans-serif" font-weight="400" font-size="64" transform="translate(988.793 804)">𠮟</text><rect x="1290" y="876.75" width="195.25" height="194.25" fill="url(#fill17)"/><path d="M1485.25 876.75 1550 812 1550 1006.25 1485.25 1071Z" fill="url(#fill18)" fill-rule="evenodd"/><path d="M1290 876.75 1354.75 812 1550 812 1485.25 876.75Z" fill="url(#fill19)" fill-rule="evenodd"/><path d="M1290 876.75 1354.75 812 1550 812 1550 1006.25 1485.25 1071 1290 1071ZM1290 876.75 1485.25 876.75 1550 812M1485.25 876.75 1485.25 1071" stroke="#5B9BD5" stroke-width="2.29167" stroke-miterlimit="8" fill="none" fill-rule="evenodd"/><rect x="1497" y="876.75" width="194.25" height="194.25" fill="url(#fill20)"/><path d="M1691.25 876.75 1756 812 1756 1006.25 1691.25 1071Z" fill="url(#fill21)" fill-rule="evenodd"/><path d="M1497 876.75 1561.75 812 1756 812 1691.25 876.75Z" fill="url(#fill22)" fill-rule="evenodd"/><path d="M1497 876.75 1561.75 812 1756 812 1756 1006.25 1691.25 1071 1497 1071ZM1497 876.75 1691.25 876.75 1756 812M1691.25 876.75 1691.25 1071" stroke="#5B9BD5" stroke-width="2.29167" stroke-miterlimit="8" fill="none" fill-rule="evenodd"/><text font-family="Yu Gothic UI,Yu Gothic UI_MSFontService,sans-serif" font-weight="400" font-size="55" transform="matrix(1 0 0 1 1316.87 964)">D8 40<tspan font-size="55" x="207.259" y="0">DC 0B</tspan><tspan font-size="37" x="39.6072" y="90">(16bit)</tspan><tspan font-size="37" x="246.463" y="90">(16bit)</tspan></text><path d="M1471 738 1575 738 1575 824.667 1557.67 842 1471 842Z" fill="url(#fill23)" fill-rule="evenodd"/><path d="M1557.67 842 1561.13 828.133 1575 824.667Z" fill="url(#fill24)" fill-rule="evenodd"/><path d="M1557.67 842 1561.13 828.133 1575 824.667 1557.67 842 1471 842 1471 738 1575 738 1575 824.667" stroke="#70AD47" stroke-width="2.29167" stroke-miterlimit="8" fill="none" fill-rule="evenodd"/><text font-family="Yu Gothic UI,Yu Gothic UI_MSFontService,sans-serif" font-weight="400" font-size="64" transform="translate(1490.61 804)">𠀋</text><rect x="1793" y="876.75" width="195.25" height="194.25" fill="url(#fill25)"/><path d="M1988.25 876.75 2053 812 2053 1006.25 1988.25 1071Z" fill="url(#fill26)" fill-rule="evenodd"/><path d="M1793 876.75 1857.75 812 2053 812 1988.25 876.75Z" fill="url(#fill27)" fill-rule="evenodd"/><path d="M1793 876.75 1857.75 812 2053 812 2053 1006.25 1988.25 1071 1793 1071ZM1793 876.75 1988.25 876.75 2053 812M1988.25 876.75 1988.25 1071" stroke="#5B9BD5" stroke-width="2.29167" stroke-miterlimit="8" fill="none" fill-rule="evenodd"/><rect x="1999" y="876.75" width="195.25" height="194.25" fill="url(#fill28)"/><path d="M2194.25 876.75 2259 812 2259 1006.25 2194.25 1071Z" fill="url(#fill29)" fill-rule="evenodd"/><path d="M1999 876.75 2063.75 812 2259 812 2194.25 876.75Z" fill="url(#fill30)" fill-rule="evenodd"/><path d="M1999 876.75 2063.75 812 2259 812 2259 1006.25 2194.25 1071 1999 1071ZM1999 876.75 2194.25 876.75 2259 812M2194.25 876.75 2194.25 1071" stroke="#5B9BD5" stroke-width="2.29167" stroke-miterlimit="8" fill="none" fill-rule="evenodd"/><text font-family="Yu Gothic UI,Yu Gothic UI_MSFontService,sans-serif" font-weight="400" font-size="55" transform="matrix(1 0 0 1 1819.65 964)">D8 55<tspan font-size="55" x="206.686" y="0">DD 0E</tspan><tspan font-size="37" x="39.6073" y="90">(16bit)</tspan><tspan font-size="37" x="246.463" y="90">(16bit)</tspan></text><path d="M1974 738 2077 738 2077 824.833 2059.83 842 1974 842Z" fill="url(#fill31)" fill-rule="evenodd"/><path d="M2059.83 842 2063.27 828.266 2077 824.833Z" fill="url(#fill32)" fill-rule="evenodd"/><path d="M2059.83 842 2063.27 828.266 2077 824.833 2059.83 842 1974 842 1974 738 2077 738 2077 824.833" stroke="#70AD47" stroke-width="2.29167" stroke-miterlimit="8" fill="none" fill-rule="evenodd"/><text font-family="Yu Gothic UI,Yu Gothic UI_MSFontService,sans-serif" font-weight="400" font-size="64" transform="translate(1993.39 804)">𥔎<tspan font-size="55" x="-1625.48" y="-96">𠮷</tspan></text><text font-family="Yu Gothic UI,Yu Gothic UI_MSFontService,sans-serif" font-weight="400" font-size="55" transform="matrix(1 0 0 1 437.803 708)">(U+20BB7)</text><text font-family="Yu Gothic UI,Yu Gothic UI_MSFontService,sans-serif" font-weight="400" font-size="55" transform="translate(865.236 706)">𠮟</text><text font-family="Yu Gothic UI,Yu Gothic UI_MSFontService,sans-serif" font-weight="400" font-size="55" transform="matrix(1 0 0 1 935.132 706)">(U+20B9F)</text><text font-family="Yu Gothic UI,Yu Gothic UI_MSFontService,sans-serif" font-weight="400" font-size="55" transform="translate(1344.2 706)">𠀋</text><text font-family="Yu Gothic UI,Yu Gothic UI_MSFontService,sans-serif" font-weight="400" font-size="55" transform="matrix(1 0 0 1 1414.1 706)">(U+02000B)</text><text font-family="Yu Gothic UI,Yu Gothic UI_MSFontService,sans-serif" font-weight="400" font-size="55" transform="translate(1847.58 708)">𥔎</text><text font-family="Yu Gothic UI,Yu Gothic UI_MSFontService,sans-serif" font-weight="400" font-size="55" transform="matrix(1 0 0 1 1917.48 708)">(U+02550E)</text></g></svg>