<svg width="2671" height="2255" xmlns="http://www.w3.org/2000/svg" xmlns:xlink="http://www.w3.org/1999/xlink" xml:space="preserve" overflow="hidden"><defs><clipPath id="clip0"><rect x="1605" y="97" width="2671" height="2255"/></clipPath><clipPath id="clip1"><rect x="2121" y="203" width="135" height="463"/></clipPath><clipPath id="clip2"><rect x="2255" y="203" width="135" height="463"/></clipPath><clipPath id="clip3"><rect x="2255" y="335" width="135" height="463"/></clipPath><clipPath id="clip4"><rect x="2255" y="467" width="135" height="463"/></clipPath><clipPath id="clip5"><rect x="2255" y="598" width="135" height="463"/></clipPath><clipPath id="clip6"><rect x="2121" y="730" width="135" height="463"/></clipPath><clipPath id="clip7"><rect x="2255" y="730" width="135" height="463"/></clipPath><clipPath id="clip8"><rect x="2255" y="1126" width="135" height="463"/></clipPath><clipPath id="clip9"><rect x="2255" y="1258" width="135" height="463"/></clipPath><clipPath id="clip10"><rect x="2121" y="1917" width="135" height="463"/></clipPath></defs><g clip-path="url(#clip0)" transform="translate(-1605 -97)"><path d="M1987.68 104.543 2121.7 104.543 2121.7 236.433 1987.68 236.433Z" fill="#4472C4" fill-rule="evenodd"/><path d="M2121.7 104.543 2255.71 104.543 2255.71 236.433 2121.7 236.433Z" fill="#4472C4" fill-rule="evenodd"/><path d="M2255.71 104.543 2389.73 104.543 2389.73 236.433 2255.71 236.433Z" fill="#4472C4" fill-rule="evenodd"/><path d="M2389.73 104.543 2523.75 104.543 2523.75 236.433 2389.73 236.433Z" fill="#4472C4" fill-rule="evenodd"/><path d="M2523.75 104.543 2657.77 104.543 2657.77 236.433 2523.75 236.433Z" fill="#4472C4" fill-rule="evenodd"/><path d="M2657.77 104.543 2791.79 104.543 2791.79 236.433 2657.77 236.433Z" fill="#4472C4" fill-rule="evenodd"/><path d="M2791.79 104.543 2925.81 104.543 2925.81 236.433 2791.79 236.433Z" fill="#4472C4" fill-rule="evenodd"/><path d="M2925.81 104.543 3059.83 104.543 3059.83 236.433 2925.81 236.433Z" fill="#4472C4" fill-rule="evenodd"/><path d="M3059.83 104.543 3193.85 104.543 3193.85 236.433 3059.83 236.433Z" fill="#4472C4" fill-rule="evenodd"/><path d="M3193.85 104.543 3327.86 104.543 3327.86 236.433 3193.85 236.433Z" fill="#4472C4" fill-rule="evenodd"/><path d="M3327.86 104.543 3461.88 104.543 3461.88 236.433 3327.86 236.433Z" fill="#4472C4" fill-rule="evenodd"/><path d="M3461.88 104.543 3595.9 104.543 3595.9 236.433 3461.88 236.433Z" fill="#4472C4" fill-rule="evenodd"/><path d="M3595.9 104.543 3729.92 104.543 3729.92 236.433 3595.9 236.433Z" fill="#4472C4" fill-rule="evenodd"/><path d="M3729.92 104.543 3863.94 104.543 3863.94 236.433 3729.92 236.433Z" fill="#4472C4" fill-rule="evenodd"/><path d="M3863.94 104.543 3997.96 104.543 3997.96 236.433 3863.94 236.433Z" fill="#4472C4" fill-rule="evenodd"/><path d="M3997.96 104.543 4131.98 104.543 4131.98 236.433 3997.96 236.433Z" fill="#4472C4" fill-rule="evenodd"/><path d="M4131.98 104.543 4266 104.543 4266 236.433 4131.98 236.433Z" fill="#4472C4" fill-rule="evenodd"/><path d="M1987.68 236.433 2121.7 236.433 2121.7 368.322 1987.68 368.322Z" fill="#4472C4" fill-rule="evenodd"/><path d="M2121.7 236.433 2255.71 236.433 2255.71 368.322 2121.7 368.322Z" fill="#B4C7E7" fill-rule="evenodd"/><path d="M2255.71 236.433 2389.73 236.433 2389.73 368.322 2255.71 368.322Z" fill="#B4C7E7" fill-rule="evenodd"/><path d="M2389.73 236.433 2523.75 236.433 2523.75 368.322 2389.73 368.322Z" fill="#FFF2CC" fill-rule="evenodd"/><path d="M2523.75 236.433 2657.77 236.433 2657.77 368.322 2523.75 368.322Z" fill="#FFF2CC" fill-rule="evenodd"/><path d="M2657.77 236.433 2791.79 236.433 2791.79 368.322 2657.77 368.322Z" fill="#F8CBAD" fill-rule="evenodd"/><path d="M2791.79 236.433 2925.81 236.433 2925.81 368.322 2791.79 368.322Z" fill="#F8CBAD" fill-rule="evenodd"/><path d="M2925.81 236.433 3059.83 236.433 3059.83 368.322 2925.81 368.322Z" fill="#F8CBAD" fill-rule="evenodd"/><path d="M3059.83 236.433 3193.85 236.433 3193.85 368.322 3059.83 368.322Z" fill="#F8CBAD" fill-rule="evenodd"/><path d="M3193.85 236.433 3327.86 236.433 3327.86 368.322 3193.85 368.322Z" fill="#F8CBAD" fill-rule="evenodd"/><path d="M3327.86 236.433 3461.88 236.433 3461.88 368.322 3327.86 368.322Z" fill="#F8CBAD" fill-rule="evenodd"/><path d="M3461.88 236.433 3595.9 236.433 3595.9 368.322 3461.88 368.322Z" fill="#F8CBAD" fill-rule="evenodd"/><path d="M3595.9 236.433 3729.92 236.433 3729.92 368.322 3595.9 368.322Z" fill="#F8CBAD" fill-rule="evenodd"/><path d="M3729.92 236.433 3863.94 236.433 3863.94 368.322 3729.92 368.322Z" fill="#F8CBAD" fill-rule="evenodd"/><path d="M3863.94 236.433 3997.96 236.433 3997.96 368.322 3863.94 368.322Z" fill="#F8CBAD" fill-rule="evenodd"/><path d="M3997.96 236.433 4131.98 236.433 4131.98 368.322 3997.96 368.322Z" fill="#F8CBAD" fill-rule="evenodd"/><path d="M4131.98 236.433 4266 236.433 4266 368.322 4131.98 368.322Z" fill="#F8CBAD" fill-rule="evenodd"/><path d="M1987.68 368.322 2121.7 368.322 2121.7 500.212 1987.68 500.212Z" fill="#4472C4" fill-rule="evenodd"/><path d="M2121.7 368.322 2255.71 368.322 2255.71 500.212 2121.7 500.212Z" fill="#B4C7E7" fill-rule="evenodd"/><path d="M2255.71 368.322 2389.73 368.322 2389.73 500.212 2255.71 500.212Z" fill="#B4C7E7" fill-rule="evenodd"/><path d="M2389.73 368.322 2523.75 368.322 2523.75 500.212 2389.73 500.212Z" fill="#FFF2CC" fill-rule="evenodd"/><path d="M2523.75 368.322 2657.77 368.322 2657.77 500.212 2523.75 500.212Z" fill="#FFF2CC" fill-rule="evenodd"/><path d="M2657.77 368.322 2791.79 368.322 2791.79 500.212 2657.77 500.212Z" fill="#F8CBAD" fill-rule="evenodd"/><path d="M2791.79 368.322 2925.81 368.322 2925.81 500.212 2791.79 500.212Z" fill="#F8CBAD" fill-rule="evenodd"/><path d="M2925.81 368.322 3059.83 368.322 3059.83 500.212 2925.81 500.212Z" fill="#F8CBAD" fill-rule="evenodd"/><path d="M3059.83 368.322 3193.85 368.322 3193.85 500.212 3059.83 500.212Z" fill="#F8CBAD" fill-rule="evenodd"/><path d="M3193.85 368.322 3327.86 368.322 3327.86 500.212 3193.85 500.212Z" fill="#F8CBAD" fill-rule="evenodd"/><path d="M3327.86 368.322 3461.88 368.322 3461.88 500.212 3327.86 500.212Z" fill="#F8CBAD" fill-rule="evenodd"/><path d="M3461.88 368.322 3595.9 368.322 3595.9 500.212 3461.88 500.212Z" fill="#F8CBAD" fill-rule="evenodd"/><path d="M3595.9 368.322 3729.92 368.322 3729.92 500.212 3595.9 500.212Z" fill="#F8CBAD" fill-rule="evenodd"/><path d="M3729.92 368.322 3863.94 368.322 3863.94 500.212 3729.92 500.212Z" fill="#F8CBAD" fill-rule="evenodd"/><path d="M3863.94 368.322 3997.96 368.322 3997.96 500.212 3863.94 500.212Z" fill="#F8CBAD" fill-rule="evenodd"/><path d="M3997.96 368.322 4131.98 368.322 4131.98 500.212 3997.96 500.212Z" fill="#F8CBAD" fill-rule="evenodd"/><path d="M4131.98 368.322 4266 368.322 4266 500.212 4131.98 500.212Z" fill="#F8CBAD" fill-rule="evenodd"/><path d="M1987.68 500.212 2121.7 500.212 2121.7 632.102 1987.68 632.102Z" fill="#4472C4" fill-rule="evenodd"/><path d="M2121.7 500.212 2255.71 500.212 2255.71 632.102 2121.7 632.102Z" fill="#B4C7E7" fill-rule="evenodd"/><path d="M2255.71 500.212 2389.73 500.212 2389.73 632.102 2255.71 632.102Z" fill="#B4C7E7" fill-rule="evenodd"/><path d="M2389.73 500.212 2523.75 500.212 2523.75 632.102 2389.73 632.102Z" fill="#FFF2CC" fill-rule="evenodd"/><path d="M2523.75 500.212 2657.77 500.212 2657.77 632.102 2523.75 632.102Z" fill="#FFF2CC" fill-rule="evenodd"/><path d="M2657.77 500.212 2791.79 500.212 2791.79 632.102 2657.77 632.102Z" fill="#F8CBAD" fill-rule="evenodd"/><path d="M2791.79 500.212 2925.81 500.212 2925.81 632.102 2791.79 632.102Z" fill="#F8CBAD" fill-rule="evenodd"/><path d="M2925.81 500.212 3059.83 500.212 3059.83 632.102 2925.81 632.102Z" fill="#F8CBAD" fill-rule="evenodd"/><path d="M3059.83 500.212 3193.85 500.212 3193.85 632.102 3059.83 632.102Z" fill="#F8CBAD" fill-rule="evenodd"/><path d="M3193.85 500.212 3327.86 500.212 3327.86 632.102 3193.85 632.102Z" fill="#F8CBAD" fill-rule="evenodd"/><path d="M3327.86 500.212 3461.88 500.212 3461.88 632.102 3327.86 632.102Z" fill="#F8CBAD" fill-rule="evenodd"/><path d="M3461.88 500.212 3595.9 500.212 3595.9 632.102 3461.88 632.102Z" fill="#F8CBAD" fill-rule="evenodd"/><path d="M3595.9 500.212 3729.92 500.212 3729.92 632.102 3595.9 632.102Z" fill="#F8CBAD" fill-rule="evenodd"/><path d="M3729.92 500.212 3863.94 500.212 3863.94 632.102 3729.92 632.102Z" fill="#F8CBAD" fill-rule="evenodd"/><path d="M3863.94 500.212 3997.96 500.212 3997.96 632.102 3863.94 632.102Z" fill="#F8CBAD" fill-rule="evenodd"/><path d="M3997.96 500.212 4131.98 500.212 4131.98 632.102 3997.96 632.102Z" fill="#F8CBAD" fill-rule="evenodd"/><path d="M4131.98 500.212 4266 500.212 4266 632.102 4131.98 632.102Z" fill="#F8CBAD" fill-rule="evenodd"/><path d="M1987.68 632.102 2121.7 632.102 2121.7 763.991 1987.68 763.991Z" fill="#4472C4" fill-rule="evenodd"/><path d="M2121.7 632.102 2255.71 632.102 2255.71 763.991 2121.7 763.991Z" fill="#B4C7E7" fill-rule="evenodd"/><path d="M2255.71 632.102 2389.73 632.102 2389.73 763.991 2255.71 763.991Z" fill="#B4C7E7" fill-rule="evenodd"/><path d="M2389.73 632.102 2523.75 632.102 2523.75 763.991 2389.73 763.991Z" fill="#FFF2CC" fill-rule="evenodd"/><path d="M2523.75 632.102 2657.77 632.102 2657.77 763.991 2523.75 763.991Z" fill="#FFF2CC" fill-rule="evenodd"/><path d="M2657.77 632.102 2791.79 632.102 2791.79 763.991 2657.77 763.991Z" fill="#F8CBAD" fill-rule="evenodd"/><path d="M2791.79 632.102 2925.81 632.102 2925.81 763.991 2791.79 763.991Z" fill="#F8CBAD" fill-rule="evenodd"/><path d="M2925.81 632.102 3059.83 632.102 3059.83 763.991 2925.81 763.991Z" fill="#F8CBAD" fill-rule="evenodd"/><path d="M3059.83 632.102 3193.85 632.102 3193.85 763.991 3059.83 763.991Z" fill="#F8CBAD" fill-rule="evenodd"/><path d="M3193.85 632.102 3327.86 632.102 3327.86 763.991 3193.85 763.991Z" fill="#F8CBAD" fill-rule="evenodd"/><path d="M3327.86 632.102 3461.88 632.102 3461.88 763.991 3327.86 763.991Z" fill="#F8CBAD" fill-rule="evenodd"/><path d="M3461.88 632.102 3595.9 632.102 3595.9 763.991 3461.88 763.991Z" fill="#F8CBAD" fill-rule="evenodd"/><path d="M3595.9 632.102 3729.92 632.102 3729.92 763.991 3595.9 763.991Z" fill="#F8CBAD" fill-rule="evenodd"/><path d="M3729.92 632.102 3863.94 632.102 3863.94 763.991 3729.92 763.991Z" fill="#F8CBAD" fill-rule="evenodd"/><path d="M3863.94 632.102 3997.96 632.102 3997.96 763.991 3863.94 763.991Z" fill="#F8CBAD" fill-rule="evenodd"/><path d="M3997.96 632.102 4131.98 632.102 4131.98 763.991 3997.96 763.991Z" fill="#F8CBAD" fill-rule="evenodd"/><path d="M4131.98 632.102 4266 632.102 4266 763.991 4131.98 763.991Z" fill="#F8CBAD" fill-rule="evenodd"/><path d="M1987.68 763.991 2121.7 763.991 2121.7 895.881 1987.68 895.881Z" fill="#4472C4" fill-rule="evenodd"/><path d="M2121.7 763.991 2255.71 763.991 2255.71 895.881 2121.7 895.881Z" fill="#B4C7E7" fill-rule="evenodd"/><path d="M2255.71 763.991 2389.73 763.991 2389.73 895.881 2255.71 895.881Z" fill="#B4C7E7" fill-rule="evenodd"/><path d="M2389.73 763.991 2523.75 763.991 2523.75 895.881 2389.73 895.881Z" fill="#FFF2CC" fill-rule="evenodd"/><path d="M2523.75 763.991 2657.77 763.991 2657.77 895.881 2523.75 895.881Z" fill="#FFF2CC" fill-rule="evenodd"/><path d="M2657.77 763.991 2791.79 763.991 2791.79 895.881 2657.77 895.881Z" fill="#F8CBAD" fill-rule="evenodd"/><path d="M2791.79 763.991 2925.81 763.991 2925.81 895.881 2791.79 895.881Z" fill="#F8CBAD" fill-rule="evenodd"/><path d="M2925.81 763.991 3059.83 763.991 3059.83 895.881 2925.81 895.881Z" fill="#F8CBAD" fill-rule="evenodd"/><path d="M3059.83 763.991 3193.85 763.991 3193.85 895.881 3059.83 895.881Z" fill="#F8CBAD" fill-rule="evenodd"/><path d="M3193.85 763.991 3327.86 763.991 3327.86 895.881 3193.85 895.881Z" fill="#F8CBAD" fill-rule="evenodd"/><path d="M3327.86 763.991 3461.88 763.991 3461.88 895.881 3327.86 895.881Z" fill="#F8CBAD" fill-rule="evenodd"/><path d="M3461.88 763.991 3595.9 763.991 3595.9 895.881 3461.88 895.881Z" fill="#F8CBAD" fill-rule="evenodd"/><path d="M3595.9 763.991 3729.92 763.991 3729.92 895.881 3595.9 895.881Z" fill="#F8CBAD" fill-rule="evenodd"/><path d="M3729.92 763.991 3863.94 763.991 3863.94 895.881 3729.92 895.881Z" fill="#F8CBAD" fill-rule="evenodd"/><path d="M3863.94 763.991 3997.96 763.991 3997.96 895.881 3863.94 895.881Z" fill="#F8CBAD" fill-rule="evenodd"/><path d="M3997.96 763.991 4131.98 763.991 4131.98 895.881 3997.96 895.881Z" fill="#F8CBAD" fill-rule="evenodd"/><path d="M4131.98 763.991 4266 763.991 4266 895.881 4131.98 895.881Z" fill="#F8CBAD" fill-rule="evenodd"/><path d="M1987.68 895.881 2121.7 895.881 2121.7 1027.77 1987.68 1027.77Z" fill="#4472C4" fill-rule="evenodd"/><path d="M2121.7 895.881 2255.71 895.881 2255.71 1027.77 2121.7 1027.77Z" fill="#B4C7E7" fill-rule="evenodd"/><path d="M2255.71 895.881 2389.73 895.881 2389.73 1027.77 2255.71 1027.77Z" fill="#B4C7E7" fill-rule="evenodd"/><path d="M2389.73 895.881 2523.75 895.881 2523.75 1027.77 2389.73 1027.77Z" fill="#FFF2CC" fill-rule="evenodd"/><path d="M2523.75 895.881 2657.77 895.881 2657.77 1027.77 2523.75 1027.77Z" fill="#FFF2CC" fill-rule="evenodd"/><path d="M2657.77 895.881 2791.79 895.881 2791.79 1027.77 2657.77 1027.77Z" fill="#F8CBAD" fill-rule="evenodd"/><path d="M2791.79 895.881 2925.81 895.881 2925.81 1027.77 2791.79 1027.77Z" fill="#F8CBAD" fill-rule="evenodd"/><path d="M2925.81 895.881 3059.83 895.881 3059.83 1027.77 2925.81 1027.77Z" fill="#F8CBAD" fill-rule="evenodd"/><path d="M3059.83 895.881 3193.85 895.881 3193.85 1027.77 3059.83 1027.77Z" fill="#F8CBAD" fill-rule="evenodd"/><path d="M3193.85 895.881 3327.86 895.881 3327.86 1027.77 3193.85 1027.77Z" fill="#F8CBAD" fill-rule="evenodd"/><path d="M3327.86 895.881 3461.88 895.881 3461.88 1027.77 3327.86 1027.77Z" fill="#F8CBAD" fill-rule="evenodd"/><path d="M3461.88 895.881 3595.9 895.881 3595.9 1027.77 3461.88 1027.77Z" fill="#F8CBAD" fill-rule="evenodd"/><path d="M3595.9 895.881 3729.92 895.881 3729.92 1027.77 3595.9 1027.77Z" fill="#F8CBAD" fill-rule="evenodd"/><path d="M3729.92 895.881 3863.94 895.881 3863.94 1027.77 3729.92 1027.77Z" fill="#F8CBAD" fill-rule="evenodd"/><path d="M3863.94 895.881 3997.96 895.881 3997.96 1027.77 3863.94 1027.77Z" fill="#F8CBAD" fill-rule="evenodd"/><path d="M3997.96 895.881 4131.98 895.881 4131.98 1027.77 3997.96 1027.77Z" fill="#F8CBAD" fill-rule="evenodd"/><path d="M4131.98 895.881 4266 895.881 4266 1027.77 4131.98 1027.77Z" fill="#F8CBAD" fill-rule="evenodd"/><path d="M1987.68 1027.77 2121.7 1027.77 2121.7 1159.66 1987.68 1159.66Z" fill="#4472C4" fill-rule="evenodd"/><path d="M2121.7 1027.77 2255.71 1027.77 2255.71 1159.66 2121.7 1159.66Z" fill="#B4C7E7" fill-rule="evenodd"/><path d="M2255.71 1027.77 2389.73 1027.77 2389.73 1159.66 2255.71 1159.66Z" fill="#B4C7E7" fill-rule="evenodd"/><path d="M2389.73 1027.77 2523.75 1027.77 2523.75 1159.66 2389.73 1159.66Z" fill="#FFF2CC" fill-rule="evenodd"/><path d="M2523.75 1027.77 2657.77 1027.77 2657.77 1159.66 2523.75 1159.66Z" fill="#FFF2CC" fill-rule="evenodd"/><path d="M2657.77 1027.77 2791.79 1027.77 2791.79 1159.66 2657.77 1159.66Z" fill="#F8CBAD" fill-rule="evenodd"/><path d="M2791.79 1027.77 2925.81 1027.77 2925.81 1159.66 2791.79 1159.66Z" fill="#F8CBAD" fill-rule="evenodd"/><path d="M2925.81 1027.77 3059.83 1027.77 3059.83 1159.66 2925.81 1159.66Z" fill="#F8CBAD" fill-rule="evenodd"/><path d="M3059.83 1027.77 3193.85 1027.77 3193.85 1159.66 3059.83 1159.66Z" fill="#F8CBAD" fill-rule="evenodd"/><path d="M3193.85 1027.77 3327.86 1027.77 3327.86 1159.66 3193.85 1159.66Z" fill="#F8CBAD" fill-rule="evenodd"/><path d="M3327.86 1027.77 3461.88 1027.77 3461.88 1159.66 3327.86 1159.66Z" fill="#F8CBAD" fill-rule="evenodd"/><path d="M3461.88 1027.77 3595.9 1027.77 3595.9 1159.66 3461.88 1159.66Z" fill="#F8CBAD" fill-rule="evenodd"/><path d="M3595.9 1027.77 3729.92 1027.77 3729.92 1159.66 3595.9 1159.66Z" fill="#F8CBAD" fill-rule="evenodd"/><path d="M3729.92 1027.77 3863.94 1027.77 3863.94 1159.66 3729.92 1159.66Z" fill="#F8CBAD" fill-rule="evenodd"/><path d="M3863.94 1027.77 3997.96 1027.77 3997.96 1159.66 3863.94 1159.66Z" fill="#F8CBAD" fill-rule="evenodd"/><path d="M3997.96 1027.77 4131.98 1027.77 4131.98 1159.66 3997.96 1159.66Z" fill="#F8CBAD" fill-rule="evenodd"/><path d="M4131.98 1027.77 4266 1027.77 4266 1159.66 4131.98 1159.66Z" fill="#F8CBAD" fill-rule="evenodd"/><path d="M1987.68 1159.66 2121.7 1159.66 2121.7 1291.55 1987.68 1291.55Z" fill="#4472C4" fill-rule="evenodd"/><path d="M2121.7 1159.66 2255.71 1159.66 2255.71 1291.55 2121.7 1291.55Z" fill="#B4C7E7" fill-rule="evenodd"/><path d="M2255.71 1159.66 2389.73 1159.66 2389.73 1291.55 2255.71 1291.55Z" fill="#B4C7E7" fill-rule="evenodd"/><path d="M2389.73 1159.66 2523.75 1159.66 2523.75 1291.55 2389.73 1291.55Z" fill="#FFF2CC" fill-rule="evenodd"/><path d="M2523.75 1159.66 2657.77 1159.66 2657.77 1291.55 2523.75 1291.55Z" fill="#FFF2CC" fill-rule="evenodd"/><path d="M2657.77 1159.66 2791.79 1159.66 2791.79 1291.55 2657.77 1291.55Z" fill="#F8CBAD" fill-rule="evenodd"/><path d="M2791.79 1159.66 2925.81 1159.66 2925.81 1291.55 2791.79 1291.55Z" fill="#F8CBAD" fill-rule="evenodd"/><path d="M2925.81 1159.66 3059.83 1159.66 3059.83 1291.55 2925.81 1291.55Z" fill="#F8CBAD" fill-rule="evenodd"/><path d="M3059.83 1159.66 3193.85 1159.66 3193.85 1291.55 3059.83 1291.55Z" fill="#F8CBAD" fill-rule="evenodd"/><path d="M3193.85 1159.66 3327.86 1159.66 3327.86 1291.55 3193.85 1291.55Z" fill="#F8CBAD" fill-rule="evenodd"/><path d="M3327.86 1159.66 3461.88 1159.66 3461.88 1291.55 3327.86 1291.55Z" fill="#F8CBAD" fill-rule="evenodd"/><path d="M3461.88 1159.66 3595.9 1159.66 3595.9 1291.55 3461.88 1291.55Z" fill="#F8CBAD" fill-rule="evenodd"/><path d="M3595.9 1159.66 3729.92 1159.66 3729.92 1291.55 3595.9 1291.55Z" fill="#F8CBAD" fill-rule="evenodd"/><path d="M3729.92 1159.66 3863.94 1159.66 3863.94 1291.55 3729.92 1291.55Z" fill="#F8CBAD" fill-rule="evenodd"/><path d="M3863.94 1159.66 3997.96 1159.66 3997.96 1291.55 3863.94 1291.55Z" fill="#F8CBAD" fill-rule="evenodd"/><path d="M3997.96 1159.66 4131.98 1159.66 4131.98 1291.55 3997.96 1291.55Z" fill="#F8CBAD" fill-rule="evenodd"/><path d="M4131.98 1159.66 4266 1159.66 4266 1291.55 4131.98 1291.55Z" fill="#F8CBAD" fill-rule="evenodd"/><path d="M1987.68 1291.55 2121.7 1291.55 2121.7 1423.44 1987.68 1423.44Z" fill="#4472C4" fill-rule="evenodd"/><path d="M2121.7 1291.55 2255.71 1291.55 2255.71 1423.44 2121.7 1423.44Z" fill="#B4C7E7" fill-rule="evenodd"/><path d="M2255.71 1291.55 2389.73 1291.55 2389.73 1423.44 2255.71 1423.44Z" fill="#B4C7E7" fill-rule="evenodd"/><path d="M2389.73 1291.55 2523.75 1291.55 2523.75 1423.44 2389.73 1423.44Z" fill="#FFF2CC" fill-rule="evenodd"/><path d="M2523.75 1291.55 2657.77 1291.55 2657.77 1423.44 2523.75 1423.44Z" fill="#FFF2CC" fill-rule="evenodd"/><path d="M2657.77 1291.55 2791.79 1291.55 2791.79 1423.44 2657.77 1423.44Z" fill="#F8CBAD" fill-rule="evenodd"/><path d="M2791.79 1291.55 2925.81 1291.55 2925.81 1423.44 2791.79 1423.44Z" fill="#F8CBAD" fill-rule="evenodd"/><path d="M2925.81 1291.55 3059.83 1291.55 3059.83 1423.44 2925.81 1423.44Z" fill="#F8CBAD" fill-rule="evenodd"/><path d="M3059.83 1291.55 3193.85 1291.55 3193.85 1423.44 3059.83 1423.44Z" fill="#F8CBAD" fill-rule="evenodd"/><path d="M3193.85 1291.55 3327.86 1291.55 3327.86 1423.44 3193.85 1423.44Z" fill="#F8CBAD" fill-rule="evenodd"/><path d="M3327.86 1291.55 3461.88 1291.55 3461.88 1423.44 3327.86 1423.44Z" fill="#F8CBAD" fill-rule="evenodd"/><path d="M3461.88 1291.55 3595.9 1291.55 3595.9 1423.44 3461.88 1423.44Z" fill="#F8CBAD" fill-rule="evenodd"/><path d="M3595.9 1291.55 3729.92 1291.55 3729.92 1423.44 3595.9 1423.44Z" fill="#F8CBAD" fill-rule="evenodd"/><path d="M3729.92 1291.55 3863.94 1291.55 3863.94 1423.44 3729.92 1423.44Z" fill="#F8CBAD" fill-rule="evenodd"/><path d="M3863.94 1291.55 3997.96 1291.55 3997.96 1423.44 3863.94 1423.44Z" fill="#F8CBAD" fill-rule="evenodd"/><path d="M3997.96 1291.55 4131.98 1291.55 4131.98 1423.44 3997.96 1423.44Z" fill="#F8CBAD" fill-rule="evenodd"/><path d="M4131.98 1291.55 4266 1291.55 4266 1423.44 4131.98 1423.44Z" fill="#F8CBAD" fill-rule="evenodd"/><path d="M1987.68 1423.44 2121.7 1423.44 2121.7 1555.33 1987.68 1555.33Z" fill="#4472C4" fill-rule="evenodd"/><path d="M2121.7 1423.44 2255.71 1423.44 2255.71 1555.33 2121.7 1555.33Z" fill="#B4C7E7" fill-rule="evenodd"/><path d="M2255.71 1423.44 2389.73 1423.44 2389.73 1555.33 2255.71 1555.33Z" fill="#B4C7E7" fill-rule="evenodd"/><path d="M2389.73 1423.44 2523.75 1423.44 2523.75 1555.33 2389.73 1555.33Z" fill="#FFF2CC" fill-rule="evenodd"/><path d="M2523.75 1423.44 2657.77 1423.44 2657.77 1555.33 2523.75 1555.33Z" fill="#FFF2CC" fill-rule="evenodd"/><path d="M2657.77 1423.44 2791.79 1423.44 2791.79 1555.33 2657.77 1555.33Z" fill="#F8CBAD" fill-rule="evenodd"/><path d="M2791.79 1423.44 2925.81 1423.44 2925.81 1555.33 2791.79 1555.33Z" fill="#F8CBAD" fill-rule="evenodd"/><path d="M2925.81 1423.44 3059.83 1423.44 3059.83 1555.33 2925.81 1555.33Z" fill="#F8CBAD" fill-rule="evenodd"/><path d="M3059.83 1423.44 3193.85 1423.44 3193.85 1555.33 3059.83 1555.33Z" fill="#F8CBAD" fill-rule="evenodd"/><path d="M3193.85 1423.44 3327.86 1423.44 3327.86 1555.33 3193.85 1555.33Z" fill="#F8CBAD" fill-rule="evenodd"/><path d="M3327.86 1423.44 3461.88 1423.44 3461.88 1555.33 3327.86 1555.33Z" fill="#F8CBAD" fill-rule="evenodd"/><path d="M3461.88 1423.44 3595.9 1423.44 3595.9 1555.33 3461.88 1555.33Z" fill="#F8CBAD" fill-rule="evenodd"/><path d="M3595.9 1423.44 3729.92 1423.44 3729.92 1555.33 3595.9 1555.33Z" fill="#F8CBAD" fill-rule="evenodd"/><path d="M3729.92 1423.44 3863.94 1423.44 3863.94 1555.33 3729.92 1555.33Z" fill="#F8CBAD" fill-rule="evenodd"/><path d="M3863.94 1423.44 3997.96 1423.44 3997.96 1555.33 3863.94 1555.33Z" fill="#F8CBAD" fill-rule="evenodd"/><path d="M3997.96 1423.44 4131.98 1423.44 4131.98 1555.33 3997.96 1555.33Z" fill="#F8CBAD" fill-rule="evenodd"/><path d="M4131.98 1423.44 4266 1423.44 4266 1555.33 4131.98 1555.33Z" fill="#F8CBAD" fill-rule="evenodd"/><path d="M1987.68 1555.33 2121.7 1555.33 2121.7 1687.22 1987.68 1687.22Z" fill="#4472C4" fill-rule="evenodd"/><path d="M2121.7 1555.33 2255.71 1555.33 2255.71 1687.22 2121.7 1687.22Z" fill="#B4C7E7" fill-rule="evenodd"/><path d="M2255.71 1555.33 2389.73 1555.33 2389.73 1687.22 2255.71 1687.22Z" fill="#B4C7E7" fill-rule="evenodd"/><path d="M2389.73 1555.33 2523.75 1555.33 2523.75 1687.22 2389.73 1687.22Z" fill="#FFF2CC" fill-rule="evenodd"/><path d="M2523.75 1555.33 2657.77 1555.33 2657.77 1687.22 2523.75 1687.22Z" fill="#FFF2CC" fill-rule="evenodd"/><path d="M2657.77 1555.33 2791.79 1555.33 2791.79 1687.22 2657.77 1687.22Z" fill="#F8CBAD" fill-rule="evenodd"/><path d="M2791.79 1555.33 2925.81 1555.33 2925.81 1687.22 2791.79 1687.22Z" fill="#F8CBAD" fill-rule="evenodd"/><path d="M2925.81 1555.33 3059.83 1555.33 3059.83 1687.22 2925.81 1687.22Z" fill="#F8CBAD" fill-rule="evenodd"/><path d="M3059.83 1555.33 3193.85 1555.33 3193.85 1687.22 3059.83 1687.22Z" fill="#F8CBAD" fill-rule="evenodd"/><path d="M3193.85 1555.33 3327.86 1555.33 3327.86 1687.22 3193.85 1687.22Z" fill="#F8CBAD" fill-rule="evenodd"/><path d="M3327.86 1555.33 3461.88 1555.33 3461.88 1687.22 3327.86 1687.22Z" fill="#F8CBAD" fill-rule="evenodd"/><path d="M3461.88 1555.33 3595.9 1555.33 3595.9 1687.22 3461.88 1687.22Z" fill="#F8CBAD" fill-rule="evenodd"/><path d="M3595.9 1555.33 3729.92 1555.33 3729.92 1687.22 3595.9 1687.22Z" fill="#F8CBAD" fill-rule="evenodd"/><path d="M3729.92 1555.33 3863.94 1555.33 3863.94 1687.22 3729.92 1687.22Z" fill="#F8CBAD" fill-rule="evenodd"/><path d="M3863.94 1555.33 3997.96 1555.33 3997.96 1687.22 3863.94 1687.22Z" fill="#F8CBAD" fill-rule="evenodd"/><path d="M3997.96 1555.33 4131.98 1555.33 4131.98 1687.22 3997.96 1687.22Z" fill="#F8CBAD" fill-rule="evenodd"/><path d="M4131.98 1555.33 4266 1555.33 4266 1687.22 4131.98 1687.22Z" fill="#F8CBAD" fill-rule="evenodd"/><path d="M1987.68 1687.22 2121.7 1687.22 2121.7 1819.11 1987.68 1819.11Z" fill="#4472C4" fill-rule="evenodd"/><path d="M2121.7 1687.22 2255.71 1687.22 2255.71 1819.11 2121.7 1819.11Z" fill="#B4C7E7" fill-rule="evenodd"/><path d="M2255.71 1687.22 2389.73 1687.22 2389.73 1819.11 2255.71 1819.11Z" fill="#B4C7E7" fill-rule="evenodd"/><path d="M2389.73 1687.22 2523.75 1687.22 2523.75 1819.11 2389.73 1819.11Z" fill="#FFF2CC" fill-rule="evenodd"/><path d="M2523.75 1687.22 2657.77 1687.22 2657.77 1819.11 2523.75 1819.11Z" fill="#FFF2CC" fill-rule="evenodd"/><path d="M2657.77 1687.22 2791.79 1687.22 2791.79 1819.11 2657.77 1819.11Z" fill="#F8CBAD" fill-rule="evenodd"/><path d="M2791.79 1687.22 2925.81 1687.22 2925.81 1819.11 2791.79 1819.11Z" fill="#F8CBAD" fill-rule="evenodd"/><path d="M2925.81 1687.22 3059.83 1687.22 3059.83 1819.11 2925.81 1819.11Z" fill="#F8CBAD" fill-rule="evenodd"/><path d="M3059.83 1687.22 3193.85 1687.22 3193.85 1819.11 3059.83 1819.11Z" fill="#F8CBAD" fill-rule="evenodd"/><path d="M3193.85 1687.22 3327.86 1687.22 3327.86 1819.11 3193.85 1819.11Z" fill="#F8CBAD" fill-rule="evenodd"/><path d="M3327.86 1687.22 3461.88 1687.22 3461.88 1819.11 3327.86 1819.11Z" fill="#F8CBAD" fill-rule="evenodd"/><path d="M3461.88 1687.22 3595.9 1687.22 3595.9 1819.11 3461.88 1819.11Z" fill="#F8CBAD" fill-rule="evenodd"/><path d="M3595.9 1687.22 3729.92 1687.22 3729.92 1819.11 3595.9 1819.11Z" fill="#F8CBAD" fill-rule="evenodd"/><path d="M3729.92 1687.22 3863.94 1687.22 3863.94 1819.11 3729.92 1819.11Z" fill="#F8CBAD" fill-rule="evenodd"/><path d="M3863.94 1687.22 3997.96 1687.22 3997.96 1819.11 3863.94 1819.11Z" fill="#F8CBAD" fill-rule="evenodd"/><path d="M3997.96 1687.22 4131.98 1687.22 4131.98 1819.11 3997.96 1819.11Z" fill="#F8CBAD" fill-rule="evenodd"/><path d="M4131.98 1687.22 4266 1687.22 4266 1819.11 4131.98 1819.11Z" fill="#F8CBAD" fill-rule="evenodd"/><path d="M1987.68 1819.11 2121.7 1819.11 2121.7 1951 1987.68 1951Z" fill="#4472C4" fill-rule="evenodd"/><path d="M2121.7 1819.11 2255.71 1819.11 2255.71 1951 2121.7 1951Z" fill="#B4C7E7" fill-rule="evenodd"/><path d="M2255.71 1819.11 2389.73 1819.11 2389.73 1951 2255.71 1951Z" fill="#B4C7E7" fill-rule="evenodd"/><path d="M2389.73 1819.11 2523.75 1819.11 2523.75 1951 2389.73 1951Z" fill="#FFF2CC" fill-rule="evenodd"/><path d="M2523.75 1819.11 2657.77 1819.11 2657.77 1951 2523.75 1951Z" fill="#FFF2CC" fill-rule="evenodd"/><path d="M2657.77 1819.11 2791.79 1819.11 2791.79 1951 2657.77 1951Z" fill="#F8CBAD" fill-rule="evenodd"/><path d="M2791.79 1819.11 2925.81 1819.11 2925.81 1951 2791.79 1951Z" fill="#F8CBAD" fill-rule="evenodd"/><path d="M2925.81 1819.11 3059.83 1819.11 3059.83 1951 2925.81 1951Z" fill="#F8CBAD" fill-rule="evenodd"/><path d="M3059.83 1819.11 3193.85 1819.11 3193.85 1951 3059.83 1951Z" fill="#F8CBAD" fill-rule="evenodd"/><path d="M3193.85 1819.11 3327.86 1819.11 3327.86 1951 3193.85 1951Z" fill="#F8CBAD" fill-rule="evenodd"/><path d="M3327.86 1819.11 3461.88 1819.11 3461.88 1951 3327.86 1951Z" fill="#F8CBAD" fill-rule="evenodd"/><path d="M3461.88 1819.11 3595.9 1819.11 3595.9 1951 3461.88 1951Z" fill="#F8CBAD" fill-rule="evenodd"/><path d="M3595.9 1819.11 3729.92 1819.11 3729.92 1951 3595.9 1951Z" fill="#F8CBAD" fill-rule="evenodd"/><path d="M3729.92 1819.11 3863.94 1819.11 3863.94 1951 3729.92 1951Z" fill="#F8CBAD" fill-rule="evenodd"/><path d="M3863.94 1819.11 3997.96 1819.11 3997.96 1951 3863.94 1951Z" fill="#F8CBAD" fill-rule="evenodd"/><path d="M3997.96 1819.11 4131.98 1819.11 4131.98 1951 3997.96 1951Z" fill="#F8CBAD" fill-rule="evenodd"/><path d="M4131.98 1819.11 4266 1819.11 4266 1951 4131.98 1951Z" fill="#F8CBAD" fill-rule="evenodd"/><path d="M1987.68 1951 2121.7 1951 2121.7 2082.89 1987.68 2082.89Z" fill="#4472C4" fill-rule="evenodd"/><path d="M2121.7 1951 2255.71 1951 2255.71 2082.89 2121.7 2082.89Z" fill="#B4C7E7" fill-rule="evenodd"/><path d="M2255.71 1951 2389.73 1951 2389.73 2082.89 2255.71 2082.89Z" fill="#B4C7E7" fill-rule="evenodd"/><path d="M2389.73 1951 2523.75 1951 2523.75 2082.89 2389.73 2082.89Z" fill="#FFF2CC" fill-rule="evenodd"/><path d="M2523.75 1951 2657.77 1951 2657.77 2082.89 2523.75 2082.89Z" fill="#FFF2CC" fill-rule="evenodd"/><path d="M2657.77 1951 2791.79 1951 2791.79 2082.89 2657.77 2082.89Z" fill="#F8CBAD" fill-rule="evenodd"/><path d="M2791.79 1951 2925.81 1951 2925.81 2082.89 2791.79 2082.89Z" fill="#F8CBAD" fill-rule="evenodd"/><path d="M2925.81 1951 3059.83 1951 3059.83 2082.89 2925.81 2082.89Z" fill="#F8CBAD" fill-rule="evenodd"/><path d="M3059.83 1951 3193.85 1951 3193.85 2082.89 3059.83 2082.89Z" fill="#F8CBAD" fill-rule="evenodd"/><path d="M3193.85 1951 3327.86 1951 3327.86 2082.89 3193.85 2082.89Z" fill="#F8CBAD" fill-rule="evenodd"/><path d="M3327.86 1951 3461.88 1951 3461.88 2082.89 3327.86 2082.89Z" fill="#F8CBAD" fill-rule="evenodd"/><path d="M3461.88 1951 3595.9 1951 3595.9 2082.89 3461.88 2082.89Z" fill="#F8CBAD" fill-rule="evenodd"/><path d="M3595.9 1951 3729.92 1951 3729.92 2082.89 3595.9 2082.89Z" fill="#F8CBAD" fill-rule="evenodd"/><path d="M3729.92 1951 3863.94 1951 3863.94 2082.89 3729.92 2082.89Z" fill="#F8CBAD" fill-rule="evenodd"/><path d="M3863.94 1951 3997.96 1951 3997.96 2082.89 3863.94 2082.89Z" fill="#F8CBAD" fill-rule="evenodd"/><path d="M3997.96 1951 4131.98 1951 4131.98 2082.89 3997.96 2082.89Z" fill="#F8CBAD" fill-rule="evenodd"/><path d="M4131.98 1951 4266 1951 4266 2082.89 4131.98 2082.89Z" fill="#D9D9D9" fill-rule="evenodd"/><path d="M1987.68 2082.89 2121.7 2082.89 2121.7 2214.78 1987.68 2214.78Z" fill="#4472C4" fill-rule="evenodd"/><path d="M2121.7 2082.89 2255.71 2082.89 2255.71 2214.78 2121.7 2214.78Z" fill="#B4C7E7" fill-rule="evenodd"/><path d="M2255.71 2082.89 2389.73 2082.89 2389.73 2214.78 2255.71 2214.78Z" fill="#B4C7E7" fill-rule="evenodd"/><path d="M2389.73 2082.89 2523.75 2082.89 2523.75 2214.78 2389.73 2214.78Z" fill="#FFF2CC" fill-rule="evenodd"/><path d="M2523.75 2082.89 2657.77 2082.89 2657.77 2214.78 2523.75 2214.78Z" fill="#FFF2CC" fill-rule="evenodd"/><path d="M2657.77 2082.89 2791.79 2082.89 2791.79 2214.78 2657.77 2214.78Z" fill="#F8CBAD" fill-rule="evenodd"/><path d="M2791.79 2082.89 2925.81 2082.89 2925.81 2214.78 2791.79 2214.78Z" fill="#F8CBAD" fill-rule="evenodd"/><path d="M2925.81 2082.89 3059.83 2082.89 3059.83 2214.78 2925.81 2214.78Z" fill="#F8CBAD" fill-rule="evenodd"/><path d="M3059.83 2082.89 3193.85 2082.89 3193.85 2214.78 3059.83 2214.78Z" fill="#F8CBAD" fill-rule="evenodd"/><path d="M3193.85 2082.89 3327.86 2082.89 3327.86 2214.78 3193.85 2214.78Z" fill="#F8CBAD" fill-rule="evenodd"/><path d="M3327.86 2082.89 3461.88 2082.89 3461.88 2214.78 3327.86 2214.78Z" fill="#F8CBAD" fill-rule="evenodd"/><path d="M3461.88 2082.89 3595.9 2082.89 3595.9 2214.78 3461.88 2214.78Z" fill="#F8CBAD" fill-rule="evenodd"/><path d="M3595.9 2082.89 3729.92 2082.89 3729.92 2214.78 3595.9 2214.78Z" fill="#F8CBAD" fill-rule="evenodd"/><path d="M3729.92 2082.89 3863.94 2082.89 3863.94 2214.78 3729.92 2214.78Z" fill="#F8CBAD" fill-rule="evenodd"/><path d="M3863.94 2082.89 3997.96 2082.89 3997.96 2214.78 3863.94 2214.78Z" fill="#F8CBAD" fill-rule="evenodd"/><path d="M3997.96 2082.89 4131.98 2082.89 4131.98 2214.78 3997.96 2214.78Z" fill="#F8CBAD" fill-rule="evenodd"/><path d="M4131.98 2082.89 4266 2082.89 4266 2214.78 4131.98 2214.78Z" fill="#D9D9D9" fill-rule="evenodd"/><path d="M1987.68 2214.78 2121.7 2214.78 2121.7 2346.67 1987.68 2346.67Z" fill="#4472C4" fill-rule="evenodd"/><path d="M2121.7 2214.78 2255.71 2214.78 2255.71 2346.67 2121.7 2346.67Z" fill="#B4C7E7" fill-rule="evenodd"/><path d="M2255.71 2214.78 2389.73 2214.78 2389.73 2346.67 2255.71 2346.67Z" fill="#B4C7E7" fill-rule="evenodd"/><path d="M2389.73 2214.78 2523.75 2214.78 2523.75 2346.67 2389.73 2346.67Z" fill="#FFF2CC" fill-rule="evenodd"/><path d="M2523.75 2214.78 2657.77 2214.78 2657.77 2346.67 2523.75 2346.67Z" fill="#FFF2CC" fill-rule="evenodd"/><path d="M2657.77 2214.78 2791.79 2214.78 2791.79 2346.67 2657.77 2346.67Z" fill="#F8CBAD" fill-rule="evenodd"/><path d="M2791.79 2214.78 2925.81 2214.78 2925.81 2346.67 2791.79 2346.67Z" fill="#F8CBAD" fill-rule="evenodd"/><path d="M2925.81 2214.78 3059.83 2214.78 3059.83 2346.67 2925.81 2346.67Z" fill="#F8CBAD" fill-rule="evenodd"/><path d="M3059.83 2214.78 3193.85 2214.78 3193.85 2346.67 3059.83 2346.67Z" fill="#B4C7E7" fill-rule="evenodd"/><path d="M3193.85 2214.78 3327.86 2214.78 3327.86 2346.67 3193.85 2346.67Z" fill="#F8CBAD" fill-rule="evenodd"/><path d="M3327.86 2214.78 3461.88 2214.78 3461.88 2346.67 3327.86 2346.67Z" fill="#F8CBAD" fill-rule="evenodd"/><path d="M3461.88 2214.78 3595.9 2214.78 3595.9 2346.67 3461.88 2346.67Z" fill="#F8CBAD" fill-rule="evenodd"/><path d="M3595.9 2214.78 3729.92 2214.78 3729.92 2346.67 3595.9 2346.67Z" fill="#F8CBAD" fill-rule="evenodd"/><path d="M3729.92 2214.78 3863.94 2214.78 3863.94 2346.67 3729.92 2346.67Z" fill="#F8CBAD" fill-rule="evenodd"/><path d="M3863.94 2214.78 3997.96 2214.78 3997.96 2346.67 3863.94 2346.67Z" fill="#F8CBAD" fill-rule="evenodd"/><path d="M3997.96 2214.78 4131.98 2214.78 4131.98 2346.67 3997.96 2346.67Z" fill="#F8CBAD" fill-rule="evenodd"/><path d="M4131.98 2214.78 4266 2214.78 4266 2346.67 4131.98 2346.67Z" fill="#D9D9D9" fill-rule="evenodd"/><path d="M2121.7 102.252 2121.7 2348.96" stroke="#FFFFFF" stroke-width="4.58333" stroke-linejoin="round" stroke-miterlimit="10" fill="none" fill-rule="evenodd"/><path d="M2255.71 102.252 2255.71 2348.96" stroke="#FFFFFF" stroke-width="4.58333" stroke-linejoin="round" stroke-miterlimit="10" fill="none" fill-rule="evenodd"/><path d="M2389.73 102.252 2389.73 2348.96" stroke="#FFFFFF" stroke-width="4.58333" stroke-linejoin="round" stroke-miterlimit="10" fill="none" fill-rule="evenodd"/><path d="M2523.75 102.252 2523.75 2348.96" stroke="#FFFFFF" stroke-width="4.58333" stroke-linejoin="round" stroke-miterlimit="10" fill="none" fill-rule="evenodd"/><path d="M2657.77 102.252 2657.77 2348.96" stroke="#FFFFFF" stroke-width="4.58333" stroke-linejoin="round" stroke-miterlimit="10" fill="none" fill-rule="evenodd"/><path d="M2791.79 102.252 2791.79 2348.96" stroke="#FFFFFF" stroke-width="4.58333" stroke-linejoin="round" stroke-miterlimit="10" fill="none" fill-rule="evenodd"/><path d="M2925.81 102.252 2925.81 2348.96" stroke="#FFFFFF" stroke-width="4.58333" stroke-linejoin="round" stroke-miterlimit="10" fill="none" fill-rule="evenodd"/><path d="M3059.83 102.252 3059.83 2348.96" stroke="#FFFFFF" stroke-width="4.58333" stroke-linejoin="round" stroke-miterlimit="10" fill="none" fill-rule="evenodd"/><path d="M3193.85 102.252 3193.85 2348.96" stroke="#FFFFFF" stroke-width="4.58333" stroke-linejoin="round" stroke-miterlimit="10" fill="none" fill-rule="evenodd"/><path d="M3327.86 102.252 3327.86 2348.96" stroke="#FFFFFF" stroke-width="4.58333" stroke-linejoin="round" stroke-miterlimit="10" fill="none" fill-rule="evenodd"/><path d="M3461.88 102.252 3461.88 2348.96" stroke="#FFFFFF" stroke-width="4.58333" stroke-linejoin="round" stroke-miterlimit="10" fill="none" fill-rule="evenodd"/><path d="M3595.9 102.252 3595.9 2348.96" stroke="#FFFFFF" stroke-width="4.58333" stroke-linejoin="round" stroke-miterlimit="10" fill="none" fill-rule="evenodd"/><path d="M3729.92 102.252 3729.92 2348.96" stroke="#FFFFFF" stroke-width="4.58333" stroke-linejoin="round" stroke-miterlimit="10" fill="none" fill-rule="evenodd"/><path d="M3863.94 102.252 3863.94 2348.96" stroke="#FFFFFF" stroke-width="4.58333" stroke-linejoin="round" stroke-miterlimit="10" fill="none" fill-rule="evenodd"/><path d="M3997.96 102.252 3997.96 2348.96" stroke="#FFFFFF" stroke-width="4.58333" stroke-linejoin="round" stroke-miterlimit="10" fill="none" fill-rule="evenodd"/><path d="M4131.98 102.252 4131.98 2348.96" stroke="#FFFFFF" stroke-width="4.58333" stroke-linejoin="round" stroke-miterlimit="10" fill="none" fill-rule="evenodd"/><path d="M1985.38 236.433 4268.29 236.433" stroke="#FFFFFF" stroke-width="13.75" stroke-linejoin="round" stroke-miterlimit="10" fill="none" fill-rule="evenodd"/><path d="M1985.38 368.322 4268.29 368.322" stroke="#FFFFFF" stroke-width="4.58333" stroke-linejoin="round" stroke-miterlimit="10" fill="none" fill-rule="evenodd"/><path d="M1985.38 500.212 4268.29 500.212" stroke="#FFFFFF" stroke-width="4.58333" stroke-linejoin="round" stroke-miterlimit="10" fill="none" fill-rule="evenodd"/><path d="M1985.38 632.102 4268.29 632.102" stroke="#FFFFFF" stroke-width="4.58333" stroke-linejoin="round" stroke-miterlimit="10" fill="none" fill-rule="evenodd"/><path d="M1985.38 763.991 4268.29 763.991" stroke="#FFFFFF" stroke-width="4.58333" stroke-linejoin="round" stroke-miterlimit="10" fill="none" fill-rule="evenodd"/><path d="M1985.38 895.881 4268.29 895.881" stroke="#FFFFFF" stroke-width="4.58333" stroke-linejoin="round" stroke-miterlimit="10" fill="none" fill-rule="evenodd"/><path d="M1985.38 1027.77 4268.29 1027.77" stroke="#FFFFFF" stroke-width="4.58333" stroke-linejoin="round" stroke-miterlimit="10" fill="none" fill-rule="evenodd"/><path d="M1985.38 1159.66 4268.29 1159.66" stroke="#FFFFFF" stroke-width="4.58333" stroke-linejoin="round" stroke-miterlimit="10" fill="none" fill-rule="evenodd"/><path d="M1985.38 1291.55 4268.29 1291.55" stroke="#FFFFFF" stroke-width="4.58333" stroke-linejoin="round" stroke-miterlimit="10" fill="none" fill-rule="evenodd"/><path d="M1985.38 1423.44 4268.29 1423.44" stroke="#FFFFFF" stroke-width="4.58333" stroke-linejoin="round" stroke-miterlimit="10" fill="none" fill-rule="evenodd"/><path d="M1985.38 1555.33 4268.29 1555.33" stroke="#FFFFFF" stroke-width="4.58333" stroke-linejoin="round" stroke-miterlimit="10" fill="none" fill-rule="evenodd"/><path d="M1985.38 1687.22 4268.29 1687.22" stroke="#FFFFFF" stroke-width="4.58333" stroke-linejoin="round" stroke-miterlimit="10" fill="none" fill-rule="evenodd"/><path d="M1985.38 1819.11 4268.29 1819.11" stroke="#FFFFFF" stroke-width="4.58333" stroke-linejoin="round" stroke-miterlimit="10" fill="none" fill-rule="evenodd"/><path d="M1985.38 1951 4268.29 1951" stroke="#FFFFFF" stroke-width="4.58333" stroke-linejoin="round" stroke-miterlimit="10" fill="none" fill-rule="evenodd"/><path d="M1985.38 2082.89 4268.29 2082.89" stroke="#FFFFFF" stroke-width="4.58333" stroke-linejoin="round" stroke-miterlimit="10" fill="none" fill-rule="evenodd"/><path d="M1985.38 2214.78 4268.29 2214.78" stroke="#FFFFFF" stroke-width="4.58333" stroke-linejoin="round" stroke-miterlimit="10" fill="none" fill-rule="evenodd"/><path d="M1987.68 102.252 1987.68 2348.96" stroke="#FFFFFF" stroke-width="4.58333" stroke-linejoin="round" stroke-miterlimit="10" fill="none" fill-rule="evenodd"/><path d="M4266 102.252 4266 2348.96" stroke="#FFFFFF" stroke-width="4.58333" stroke-linejoin="round" stroke-miterlimit="10" fill="none" fill-rule="evenodd"/><path d="M1985.38 104.543 4268.29 104.543" stroke="#FFFFFF" stroke-width="4.58333" stroke-linejoin="round" stroke-miterlimit="10" fill="none" fill-rule="evenodd"/><path d="M1985.38 2346.67 4268.29 2346.67" stroke="#FFFFFF" stroke-width="4.58333" stroke-linejoin="round" stroke-miterlimit="10" fill="none" fill-rule="evenodd"/><text fill="#FFFFFF" font-family="Yu Gothic UI,Yu Gothic UI_MSFontService,sans-serif" font-weight="700" font-size="55" transform="matrix(1 0 0 1 2173.52 191)">0<tspan font-size="55" x="138.029" y="0">1</tspan><tspan font-size="55" x="268.038" y="0">2</tspan><tspan font-size="55" x="402.056" y="0">3</tspan><tspan font-size="55" x="535.503" y="0">4</tspan><tspan font-size="55" x="670.094" y="0">5</tspan><tspan font-size="55" x="803.827" y="0">6</tspan><tspan font-size="55" x="938.705" y="0">7</tspan><tspan font-size="55" x="1072.15" y="0">8</tspan><tspan font-size="55" x="1205.88" y="0">9</tspan><tspan font-size="55" x="1337.04" y="0">A</tspan><tspan font-size="55" x="1472.78" y="0">B</tspan><tspan font-size="55" x="1606.22" y="0">C</tspan><tspan font-size="55" x="1737.66" y="0">D</tspan><tspan font-size="55" x="1877.12" y="0">E</tspan><tspan font-size="55" x="2011.72" y="0">F</tspan><tspan font-size="55" x="-134.019" y="132">0</tspan><tspan fill="#000000" font-weight="400" font-size="55" x="-18.3335" y="132">NL</tspan><tspan fill="#000000" font-weight="400" font-size="55" x="117.118" y="132">DL</tspan><tspan fill="#000000" font-weight="400" font-size="55" x="253.142" y="132">SP</tspan><tspan fill="#000000" font-weight="400" font-size="55" x="402.343" y="132">0</tspan><tspan fill="#000000" font-weight="400" font-size="55" x="523.758" y="132">②</tspan><tspan fill="#000000" font-weight="400" font-size="55" x="657.776" y="132">②</tspan><tspan fill="#000000" font-weight="400" font-size="55" x="791.795" y="132">②</tspan><tspan fill="#000000" font-weight="400" font-size="55" x="925.814" y="132">②</tspan><tspan fill="#000000" font-weight="400" font-size="55" x="1059.83" y="132">②</tspan><tspan fill="#000000" font-weight="400" font-size="55" x="1193.85" y="132">②</tspan><tspan fill="#000000" font-weight="400" font-size="55" x="1327.87" y="132">②</tspan><tspan fill="#000000" font-weight="400" font-size="55" x="1461.89" y="132">②</tspan><tspan fill="#000000" font-weight="400" font-size="55" x="1595.91" y="132">②</tspan><tspan fill="#000000" font-weight="400" font-size="55" x="1729.93" y="132">②</tspan><tspan fill="#000000" font-weight="400" font-size="55" x="1863.95" y="132">②</tspan><tspan fill="#000000" font-weight="400" font-size="55" x="1997.97" y="132">②</tspan><tspan font-size="55" x="-130.008" y="264">1</tspan></text><g clip-path="url(#clip1)"><text font-family="Yu Gothic UI,Yu Gothic UI_MSFontService,sans-serif" font-weight="400" font-size="55" transform="matrix(1 0 0 1 2154.62 455)">SH</text></g><g clip-path="url(#clip2)"><text font-family="Yu Gothic UI,Yu Gothic UI_MSFontService,sans-serif" font-weight="400" font-size="55" transform="matrix(1 0 0 1 2288.63 455)">D1</text></g><text font-family="Yu Gothic UI,Yu Gothic UI_MSFontService,sans-serif" font-weight="400" font-size="55" transform="matrix(1 0 0 1 2449.01 455)">!<tspan font-size="55" x="126.857" y="0">1</tspan><tspan font-size="55" x="248.272" y="0">②</tspan><tspan font-size="55" x="382.291" y="0">②</tspan><tspan font-size="55" x="516.31" y="0">②</tspan><tspan font-size="55" x="650.329" y="0">②</tspan><tspan font-size="55" x="784.348" y="0">②</tspan><tspan font-size="55" x="918.366" y="0">②</tspan><tspan font-size="55" x="1052.39" y="0">②</tspan><tspan font-size="55" x="1186.4" y="0">②</tspan><tspan font-size="55" x="1320.42" y="0">②</tspan><tspan font-size="55" x="1454.44" y="0">②</tspan><tspan font-size="55" x="1588.46" y="0">②</tspan><tspan font-size="55" x="1722.48" y="0">②</tspan><tspan fill="#FFFFFF" font-weight="700" font-size="55" x="-409.505" y="132">2</tspan><tspan font-size="55" x="-291.241" y="132">SX</tspan></text><g clip-path="url(#clip3)"><text font-family="Yu Gothic UI,Yu Gothic UI_MSFontService,sans-serif" font-weight="400" font-size="55" transform="matrix(1 0 0 1 2288.63 587)">D2</text></g><text font-family="Yu Gothic UI,Yu Gothic UI_MSFontService,sans-serif" font-weight="400" font-size="55" transform="matrix(1 0 0 1 2446.43 587)">“<tspan font-size="55" x="129.436" y="0">2</tspan><tspan font-size="55" x="250.85" y="0">②</tspan><tspan font-size="55" x="384.869" y="0">②</tspan><tspan font-size="55" x="518.888" y="0">②</tspan><tspan font-size="55" x="652.907" y="0">②</tspan><tspan font-size="55" x="786.926" y="0">②</tspan><tspan font-size="55" x="920.944" y="0">②</tspan><tspan font-size="55" x="1054.96" y="0">②</tspan><tspan font-size="55" x="1188.98" y="0">②</tspan><tspan font-size="55" x="1323" y="0">②</tspan><tspan font-size="55" x="1457.02" y="0">②</tspan><tspan font-size="55" x="1591.04" y="0">②</tspan><tspan font-size="55" x="1725.06" y="0">②</tspan><tspan fill="#FFFFFF" font-weight="700" font-size="55" x="-406.926" y="132">3</tspan><tspan font-size="55" x="-288.09" y="132">EX</tspan></text><g clip-path="url(#clip4)"><text font-family="Yu Gothic UI,Yu Gothic UI_MSFontService,sans-serif" font-weight="400" font-size="55" transform="matrix(1 0 0 1 2288.63 719)">D3</text></g><text font-family="Yu Gothic UI,Yu Gothic UI_MSFontService,sans-serif" font-weight="400" font-size="55" transform="matrix(1 0 0 1 2440.41 719)">#<tspan font-size="55" x="135.451" y="0">3</tspan><tspan font-size="55" x="256.866" y="0">②</tspan><tspan font-size="55" x="390.885" y="0">②</tspan><tspan font-size="55" x="524.903" y="0">②</tspan><tspan font-size="55" x="658.922" y="0">②</tspan><tspan font-size="55" x="792.941" y="0">②</tspan><tspan font-size="55" x="926.96" y="0">②</tspan><tspan font-size="55" x="1060.98" y="0">②</tspan><tspan font-size="55" x="1195" y="0">②</tspan><tspan font-size="55" x="1329.02" y="0">②</tspan><tspan font-size="55" x="1463.04" y="0">②</tspan><tspan font-size="55" x="1597.05" y="0">②</tspan><tspan font-size="55" x="1731.07" y="0">②</tspan><tspan fill="#FFFFFF" font-weight="700" font-size="55" x="-401.484" y="132">4</tspan><tspan font-size="55" x="-280.069" y="132">ET</tspan></text><g clip-path="url(#clip5)"><text font-family="Yu Gothic UI,Yu Gothic UI_MSFontService,sans-serif" font-weight="400" font-size="55" transform="matrix(1 0 0 1 2288.63 851)">D4</text></g><text font-family="Yu Gothic UI,Yu Gothic UI_MSFontService,sans-serif" font-weight="400" font-size="55" transform="matrix(1 0 0 1 2441.85 851)">$<tspan font-size="55" x="134.019" y="0">4</tspan><tspan font-size="55" x="255.433" y="0">②</tspan><tspan font-size="55" x="389.452" y="0">②</tspan><tspan font-size="55" x="523.471" y="0">②</tspan><tspan font-size="55" x="657.49" y="0">②</tspan><tspan font-size="55" x="791.509" y="0">②</tspan><tspan font-size="55" x="925.528" y="0">②</tspan><tspan font-size="55" x="1059.55" y="0">②</tspan><tspan font-size="55" x="1193.57" y="0">②</tspan><tspan font-size="55" x="1327.58" y="0">②</tspan><tspan font-size="55" x="1461.6" y="0">②</tspan><tspan font-size="55" x="1595.62" y="0">②</tspan><tspan font-size="55" x="1729.64" y="0">②</tspan><tspan fill="#FFFFFF" font-weight="700" font-size="55" x="-402.343" y="132">5</tspan></text><g clip-path="url(#clip6)"><text font-family="Yu Gothic UI,Yu Gothic UI_MSFontService,sans-serif" font-weight="400" font-size="55" transform="matrix(1 0 0 1 2154.04 983)">EQ</text></g><g clip-path="url(#clip7)"><text font-family="Yu Gothic UI,Yu Gothic UI_MSFontService,sans-serif" font-weight="400" font-size="55" transform="matrix(1 0 0 1 2286.06 983)">NK</text></g><text font-family="Yu Gothic UI,Yu Gothic UI_MSFontService,sans-serif" font-weight="400" font-size="55" transform="matrix(1 0 0 1 2434.11 983)">%<tspan font-size="55" x="141.753" y="0">5</tspan><tspan font-size="55" x="263.168" y="0">②</tspan><tspan font-size="55" x="397.187" y="0">②</tspan><tspan font-size="55" x="531.206" y="0">②</tspan><tspan font-size="55" x="665.225" y="0">②</tspan><tspan font-size="55" x="799.244" y="0">②</tspan><tspan font-size="55" x="933.262" y="0">②</tspan><tspan font-size="55" x="1067.28" y="0">②</tspan><tspan font-size="55" x="1201.3" y="0">②</tspan><tspan font-size="55" x="1335.32" y="0">②</tspan><tspan font-size="55" x="1469.34" y="0">②</tspan><tspan font-size="55" x="1603.36" y="0">②</tspan><tspan font-size="55" x="1737.38" y="0">②</tspan><tspan fill="#FFFFFF" font-weight="700" font-size="55" x="-394.895" y="132">6</tspan><tspan font-size="55" x="-279.21" y="132">AK</tspan><tspan font-size="55" x="-141.18" y="132">SY</tspan><tspan font-size="55" x="0.572998" y="132">&amp;</tspan><tspan font-size="55" x="141.753" y="132">6</tspan><tspan font-size="55" x="263.168" y="132">②</tspan><tspan font-size="55" x="397.187" y="132">②</tspan><tspan font-size="55" x="531.206" y="132">②</tspan><tspan font-size="55" x="665.225" y="132">②</tspan><tspan font-size="55" x="799.244" y="132">②</tspan><tspan font-size="55" x="933.262" y="132">②</tspan><tspan font-size="55" x="1067.28" y="132">②</tspan><tspan font-size="55" x="1201.3" y="132">②</tspan><tspan font-size="55" x="1335.32" y="132">②</tspan><tspan font-size="55" x="1469.34" y="132">②</tspan><tspan font-size="55" x="1603.36" y="132">②</tspan><tspan font-size="55" x="1737.38" y="132">②</tspan><tspan fill="#FFFFFF" font-weight="700" font-size="55" x="-394.036" y="264">7</tspan><tspan font-size="55" x="-274.053" y="264">BL</tspan><tspan font-size="55" x="-141.18" y="264">EB</tspan><tspan font-size="55" x="16.3281" y="264">‘</tspan><tspan font-size="55" x="141.753" y="264">7</tspan><tspan font-size="55" x="263.168" y="264">②</tspan><tspan font-size="55" x="397.187" y="264">②</tspan><tspan font-size="55" x="531.206" y="264">②</tspan><tspan font-size="55" x="665.225" y="264">②</tspan><tspan font-size="55" x="799.244" y="264">②</tspan><tspan font-size="55" x="933.262" y="264">②</tspan><tspan font-size="55" x="1067.28" y="264">②</tspan><tspan font-size="55" x="1201.3" y="264">②</tspan><tspan font-size="55" x="1335.32" y="264">②</tspan><tspan font-size="55" x="1469.34" y="264">②</tspan><tspan font-size="55" x="1603.36" y="264">②</tspan><tspan font-size="55" x="1737.38" y="264">②</tspan><tspan fill="#FFFFFF" font-weight="700" font-size="55" x="-394.609" y="395">8</tspan><tspan font-size="55" x="-275.772" y="395">BS</tspan></text><g clip-path="url(#clip8)"><text font-family="Yu Gothic UI,Yu Gothic UI_MSFontService,sans-serif" font-weight="400" font-size="55" transform="matrix(1 0 0 1 2285.2 1378)">CN</text></g><text font-family="Yu Gothic UI,Yu Gothic UI_MSFontService,sans-serif" font-weight="400" font-size="55" transform="matrix(1 0 0 1 2448.43 1378)">(<tspan font-size="55" x="127.43" y="0">8</tspan><tspan font-size="55" x="248.845" y="0">②</tspan><tspan font-size="55" x="382.864" y="0">②</tspan><tspan font-size="55" x="516.883" y="0">②</tspan><tspan font-size="55" x="650.902" y="0">②</tspan><tspan font-size="55" x="784.921" y="0">②</tspan><tspan font-size="55" x="918.939" y="0">②</tspan><tspan font-size="55" x="1052.96" y="0">②</tspan><tspan font-size="55" x="1186.98" y="0">②</tspan><tspan font-size="55" x="1321" y="0">②</tspan><tspan font-size="55" x="1455.01" y="0">②</tspan><tspan font-size="55" x="1589.03" y="0">②</tspan><tspan font-size="55" x="1723.05" y="0">②</tspan><tspan fill="#FFFFFF" font-weight="700" font-size="55" x="-409.218" y="132">9</tspan><tspan font-size="55" x="-293.533" y="132">HT</tspan></text><g clip-path="url(#clip9)"><text font-family="Yu Gothic UI,Yu Gothic UI_MSFontService,sans-serif" font-weight="400" font-size="55" transform="matrix(1 0 0 1 2284.05 1510)">EM</text></g><text font-family="Yu Gothic UI,Yu Gothic UI_MSFontService,sans-serif" font-weight="400" font-size="55" transform="matrix(1 0 0 1 2448.43 1510)">)<tspan font-size="55" x="127.43" y="0">9</tspan><tspan font-size="55" x="248.845" y="0">②</tspan><tspan font-size="55" x="382.864" y="0">②</tspan><tspan font-size="55" x="516.883" y="0">②</tspan><tspan font-size="55" x="650.902" y="0">②</tspan><tspan font-size="55" x="784.921" y="0">②</tspan><tspan font-size="55" x="918.939" y="0">②</tspan><tspan font-size="55" x="1052.96" y="0">②</tspan><tspan font-size="55" x="1186.98" y="0">②</tspan><tspan font-size="55" x="1321" y="0">②</tspan><tspan font-size="55" x="1455.01" y="0">②</tspan><tspan font-size="55" x="1589.03" y="0">②</tspan><tspan font-size="55" x="1723.05" y="0">②</tspan><tspan fill="#FFFFFF" font-weight="700" font-size="55" x="-412.082" y="132">A</tspan><tspan font-size="55" x="-286.085" y="132">LF</tspan><tspan font-size="55" x="-156.076" y="132">SB</tspan><tspan font-size="55" x="-3.15088" y="132">*</tspan><tspan font-size="55" x="136.311" y="132">:</tspan><tspan font-size="55" x="248.845" y="132">②</tspan><tspan font-size="55" x="382.864" y="132">②</tspan><tspan font-size="55" x="516.883" y="132">②</tspan><tspan font-size="55" x="650.902" y="132">②</tspan><tspan font-size="55" x="784.921" y="132">②</tspan><tspan font-size="55" x="918.939" y="132">②</tspan><tspan font-size="55" x="1052.96" y="132">②</tspan><tspan font-size="55" x="1186.98" y="132">②</tspan><tspan font-size="55" x="1321" y="132">②</tspan><tspan font-size="55" x="1455.01" y="132">②</tspan><tspan font-size="55" x="1589.03" y="132">②</tspan><tspan font-size="55" x="1723.05" y="132">②</tspan><tspan fill="#FFFFFF" font-weight="700" font-size="55" x="-410.364" y="264">B</tspan><tspan font-size="55" x="-291.241" y="264">VT</tspan><tspan font-size="55" x="-156.649" y="264">EC</tspan><tspan font-size="55" x="-10.5991" y="264">+</tspan><tspan font-size="55" x="136.311" y="264">;</tspan><tspan font-size="55" x="248.845" y="264">②</tspan><tspan font-size="55" x="382.864" y="264">②</tspan><tspan font-size="55" x="516.883" y="264">②</tspan><tspan font-size="55" x="650.902" y="264">②</tspan><tspan font-size="55" x="784.921" y="264">②</tspan><tspan font-size="55" x="918.939" y="264">②</tspan><tspan font-size="55" x="1052.96" y="264">②</tspan><tspan font-size="55" x="1186.98" y="264">②</tspan><tspan font-size="55" x="1321" y="264">②</tspan><tspan font-size="55" x="1455.01" y="264">②</tspan><tspan font-size="55" x="1589.03" y="264">②</tspan><tspan font-size="55" x="1723.05" y="264">②</tspan><tspan fill="#FFFFFF" font-weight="700" font-size="55" x="-410.937" y="396">C</tspan><tspan font-size="55" x="-286.658" y="396">FF</tspan><tspan font-size="55" x="-153.784" y="396">FS</tspan><tspan font-size="55" x="2.29175" y="396">,</tspan><tspan font-size="55" x="123.42" y="396">&lt;</tspan><tspan font-size="55" x="248.845" y="396">②</tspan><tspan font-size="55" x="382.864" y="396">②</tspan><tspan font-size="55" x="516.883" y="396">②</tspan><tspan font-size="55" x="650.902" y="396">②</tspan><tspan font-size="55" x="784.921" y="396">②</tspan><tspan font-size="55" x="918.939" y="396">②</tspan><tspan font-size="55" x="1052.96" y="396">②</tspan><tspan font-size="55" x="1186.98" y="396">②</tspan><tspan font-size="55" x="1321" y="396">②</tspan><tspan font-size="55" x="1455.01" y="396">②</tspan><tspan font-size="55" x="1589.03" y="396">②</tspan><tspan font-size="55" x="1723.05" y="396">②</tspan><tspan fill="#FFFFFF" font-weight="700" font-size="55" x="-413.515" y="528">D</tspan><tspan font-size="55" x="-292.96" y="528">CR</tspan><tspan font-size="55" x="-159.227" y="528">GS</tspan><tspan font-size="55" x="-2.57813" y="528">-</tspan><tspan font-size="55" x="123.42" y="528">=</tspan><tspan font-size="55" x="248.845" y="528">②</tspan><tspan font-size="55" x="382.864" y="528">②</tspan><tspan font-size="55" x="516.883" y="528">②</tspan><tspan font-size="55" x="650.902" y="528">②</tspan><tspan font-size="55" x="784.921" y="528">②</tspan><tspan font-size="55" x="918.939" y="528">②</tspan><tspan font-size="55" x="1052.96" y="528">②</tspan><tspan font-size="55" x="1186.98" y="528">②</tspan><tspan font-size="55" x="1321" y="528">②</tspan><tspan font-size="55" x="1455.01" y="528">②</tspan><tspan font-size="55" x="1589.03" y="528">②</tspan><tspan fill="#FFFFFF" font-weight="700" font-size="55" x="-408.072" y="660">E</tspan></text><g clip-path="url(#clip10)"><text font-family="Yu Gothic UI,Yu Gothic UI_MSFontService,sans-serif" font-weight="400" font-size="55" transform="matrix(1 0 0 1 2153.47 2170)">SO</text></g><text font-family="Yu Gothic UI,Yu Gothic UI_MSFontService,sans-serif" font-weight="400" font-size="55" transform="matrix(1 0 0 1 2291.79 2170)">RS<tspan font-size="55" x="158.941" y="0">.</tspan><tspan font-size="55" x="280.069" y="0">&gt;</tspan><tspan font-size="55" x="405.494" y="0">②</tspan><tspan font-size="55" x="539.513" y="0">②</tspan><tspan font-size="55" x="673.532" y="0">②</tspan><tspan font-size="55" x="807.551" y="0">②</tspan><tspan font-size="55" x="941.569" y="0">②</tspan><tspan font-size="55" x="1075.59" y="0">②</tspan><tspan font-size="55" x="1209.61" y="0">②</tspan><tspan font-size="55" x="1343.63" y="0">②</tspan><tspan font-size="55" x="1477.64" y="0">②</tspan><tspan font-size="55" x="1611.66" y="0">②</tspan><tspan font-size="55" x="1745.68" y="0">②</tspan><tspan fill="#FFFFFF" font-weight="700" font-size="55" x="-250.85" y="132">F</tspan><tspan font-size="55" x="-125.139" y="132">SI</tspan><tspan font-size="55" x="-2.57813" y="132">US</tspan><tspan font-size="55" x="154.357" y="132">/</tspan><tspan font-size="55" x="286.657" y="132">?</tspan><tspan font-size="55" x="405.494" y="132">②</tspan><tspan font-size="55" x="539.513" y="132">②</tspan><tspan font-size="55" x="673.532" y="132">②</tspan><tspan font-size="55" x="802.967" y="132">DL</tspan><tspan font-size="55" x="941.569" y="132">②</tspan><tspan font-size="55" x="1075.59" y="132">②</tspan><tspan font-size="55" x="1209.61" y="132">②</tspan><tspan font-size="55" x="1343.63" y="132">②</tspan><tspan font-size="55" x="1477.64" y="132">②</tspan><tspan font-size="55" x="1611.66" y="132">②</tspan><tspan font-size="55" x="1745.68" y="132">②</tspan></text><rect x="1614" y="105" width="338" height="52.0003" fill="#B4C7E7"/><text font-family="Yu Gothic UI,Yu Gothic UI_MSFontService,sans-serif" font-weight="400" font-size="37" transform="matrix(1 0 0 1 1627.23 145)">コントロール文字</text><rect x="1614" y="166" width="338" height="51.9999" fill="#E2F0D9"/><text font-family="Yu Gothic UI,Yu Gothic UI_MSFontService,sans-serif" font-weight="400" font-size="37" transform="matrix(1 0 0 1 1627.23 206)">半角カナ</text><rect x="1614" y="227" width="338" height="52.0003" fill="#FFF2CC"/><text font-family="Yu Gothic UI,Yu Gothic UI_MSFontService,sans-serif" font-weight="400" font-size="37" transform="matrix(1 0 0 1 1627.23 267)">半角英数</text><rect x="1614" y="288" width="338" height="51.9999" fill="#F8CBAD"/><text font-family="Yu Gothic UI,Yu Gothic UI_MSFontService,sans-serif" font-weight="400" font-size="37" transform="matrix(1 0 0 1 1627.23 328)">SJIS <tspan font-size="37" x="72.1875" y="0">第二バイト目</tspan></text><path d="M2663.5 233.463C2665.15 938.142 2666.81 1642.82 2668.46 2347.5L3063.01 2345.02 3063.01 2213.51 3197.01 2215.99 3197.01 2340.06 4139.95 2345.02 4132.5 1950.5 4266.5 1950.5C4265.67 1376.5 4264.85 802.499 4264.02 228.5L2663.5 233.463Z" stroke="#FF0000" stroke-width="6.875" stroke-miterlimit="8" fill="none" fill-rule="evenodd"/><path d="M3326.5 2336.5 3326.5 2211.29 3461.5 2211.29 3461.5 234.5" stroke="#FF0000" stroke-width="9.16667" stroke-miterlimit="8" stroke-dasharray="9.16667 9.16667" fill="none" fill-rule="evenodd"/></g></svg>