<svg width="1599" height="2255" xmlns="http://www.w3.org/2000/svg" xmlns:xlink="http://www.w3.org/1999/xlink" xml:space="preserve" overflow="hidden"><defs><clipPath id="clip0"><rect x="1605" y="97" width="1599" height="2255"/></clipPath><clipPath id="clip1"><rect x="2121" y="203" width="135" height="463"/></clipPath><clipPath id="clip2"><rect x="2255" y="203" width="135" height="463"/></clipPath><clipPath id="clip3"><rect x="2255" y="335" width="135" height="463"/></clipPath><clipPath id="clip4"><rect x="2255" y="467" width="135" height="463"/></clipPath><clipPath id="clip5"><rect x="2255" y="598" width="135" height="463"/></clipPath><clipPath id="clip6"><rect x="2121" y="730" width="135" height="463"/></clipPath><clipPath id="clip7"><rect x="2255" y="730" width="135" height="463"/></clipPath><clipPath id="clip8"><rect x="2255" y="1126" width="135" height="463"/></clipPath><clipPath id="clip9"><rect x="2255" y="1258" width="135" height="463"/></clipPath><clipPath id="clip10"><rect x="2121" y="1917" width="135" height="463"/></clipPath></defs><g clip-path="url(#clip0)" transform="translate(-1605 -97)"><path d="M1987.68 104.543 2121.7 104.543 2121.7 236.433 1987.68 236.433Z" fill="#4472C4" fill-rule="evenodd"/><path d="M2121.7 104.543 2255.71 104.543 2255.71 236.433 2121.7 236.433Z" fill="#4472C4" fill-rule="evenodd"/><path d="M2255.71 104.543 2389.73 104.543 2389.73 236.433 2255.71 236.433Z" fill="#4472C4" fill-rule="evenodd"/><path d="M2389.73 104.543 2523.75 104.543 2523.75 236.433 2389.73 236.433Z" fill="#4472C4" fill-rule="evenodd"/><path d="M2523.75 104.543 2657.77 104.543 2657.77 236.433 2523.75 236.433Z" fill="#4472C4" fill-rule="evenodd"/><path d="M2657.77 104.543 2791.79 104.543 2791.79 236.433 2657.77 236.433Z" fill="#4472C4" fill-rule="evenodd"/><path d="M2791.79 104.543 2925.81 104.543 2925.81 236.433 2791.79 236.433Z" fill="#4472C4" fill-rule="evenodd"/><path d="M2925.81 104.543 3059.83 104.543 3059.83 236.433 2925.81 236.433Z" fill="#4472C4" fill-rule="evenodd"/><path d="M3059.83 104.543 3193.85 104.543 3193.85 236.433 3059.83 236.433Z" fill="#4472C4" fill-rule="evenodd"/><path d="M1987.68 236.433 2121.7 236.433 2121.7 368.322 1987.68 368.322Z" fill="#4472C4" fill-rule="evenodd"/><path d="M2121.7 236.433 2255.71 236.433 2255.71 368.322 2121.7 368.322Z" fill="#B4C7E7" fill-rule="evenodd"/><path d="M2255.71 236.433 2389.73 236.433 2389.73 368.322 2255.71 368.322Z" fill="#B4C7E7" fill-rule="evenodd"/><path d="M2389.73 236.433 2523.75 236.433 2523.75 368.322 2389.73 368.322Z" fill="#FFF2CC" fill-rule="evenodd"/><path d="M2523.75 236.433 2657.77 236.433 2657.77 368.322 2523.75 368.322Z" fill="#F8CBAD" fill-rule="evenodd"/><path d="M2657.77 236.433 2791.79 236.433 2791.79 368.322 2657.77 368.322Z" fill="#F8CBAD" fill-rule="evenodd"/><path d="M2791.79 236.433 2925.81 236.433 2925.81 368.322 2791.79 368.322Z" fill="#F8CBAD" fill-rule="evenodd"/><path d="M2925.81 236.433 3059.83 236.433 3059.83 368.322 2925.81 368.322Z" fill="#F8CBAD" fill-rule="evenodd"/><path d="M3059.83 236.433 3193.85 236.433 3193.85 368.322 3059.83 368.322Z" fill="#F8CBAD" fill-rule="evenodd"/><path d="M1987.68 368.322 2121.7 368.322 2121.7 500.212 1987.68 500.212Z" fill="#4472C4" fill-rule="evenodd"/><path d="M2121.7 368.322 2255.71 368.322 2255.71 500.212 2121.7 500.212Z" fill="#B4C7E7" fill-rule="evenodd"/><path d="M2255.71 368.322 2389.73 368.322 2389.73 500.212 2255.71 500.212Z" fill="#B4C7E7" fill-rule="evenodd"/><path d="M2389.73 368.322 2523.75 368.322 2523.75 500.212 2389.73 500.212Z" fill="#F8CBAD" fill-rule="evenodd"/><path d="M2523.75 368.322 2657.77 368.322 2657.77 500.212 2523.75 500.212Z" fill="#F8CBAD" fill-rule="evenodd"/><path d="M2657.77 368.322 2791.79 368.322 2791.79 500.212 2657.77 500.212Z" fill="#F8CBAD" fill-rule="evenodd"/><path d="M2791.79 368.322 2925.81 368.322 2925.81 500.212 2791.79 500.212Z" fill="#F8CBAD" fill-rule="evenodd"/><path d="M2925.81 368.322 3059.83 368.322 3059.83 500.212 2925.81 500.212Z" fill="#F8CBAD" fill-rule="evenodd"/><path d="M3059.83 368.322 3193.85 368.322 3193.85 500.212 3059.83 500.212Z" fill="#F8CBAD" fill-rule="evenodd"/><path d="M1987.68 500.212 2121.7 500.212 2121.7 632.102 1987.68 632.102Z" fill="#4472C4" fill-rule="evenodd"/><path d="M2121.7 500.212 2255.71 500.212 2255.71 632.102 2121.7 632.102Z" fill="#B4C7E7" fill-rule="evenodd"/><path d="M2255.71 500.212 2389.73 500.212 2389.73 632.102 2255.71 632.102Z" fill="#B4C7E7" fill-rule="evenodd"/><path d="M2389.73 500.212 2523.75 500.212 2523.75 632.102 2389.73 632.102Z" fill="#F8CBAD" fill-rule="evenodd"/><path d="M2523.75 500.212 2657.77 500.212 2657.77 632.102 2523.75 632.102Z" fill="#F8CBAD" fill-rule="evenodd"/><path d="M2657.77 500.212 2791.79 500.212 2791.79 632.102 2657.77 632.102Z" fill="#F8CBAD" fill-rule="evenodd"/><path d="M2791.79 500.212 2925.81 500.212 2925.81 632.102 2791.79 632.102Z" fill="#F8CBAD" fill-rule="evenodd"/><path d="M2925.81 500.212 3059.83 500.212 3059.83 632.102 2925.81 632.102Z" fill="#F8CBAD" fill-rule="evenodd"/><path d="M3059.83 500.212 3193.85 500.212 3193.85 632.102 3059.83 632.102Z" fill="#F8CBAD" fill-rule="evenodd"/><path d="M1987.68 632.102 2121.7 632.102 2121.7 763.991 1987.68 763.991Z" fill="#4472C4" fill-rule="evenodd"/><path d="M2121.7 632.102 2255.71 632.102 2255.71 763.991 2121.7 763.991Z" fill="#B4C7E7" fill-rule="evenodd"/><path d="M2255.71 632.102 2389.73 632.102 2389.73 763.991 2255.71 763.991Z" fill="#B4C7E7" fill-rule="evenodd"/><path d="M2389.73 632.102 2523.75 632.102 2523.75 763.991 2389.73 763.991Z" fill="#F8CBAD" fill-rule="evenodd"/><path d="M2523.75 632.102 2657.77 632.102 2657.77 763.991 2523.75 763.991Z" fill="#F8CBAD" fill-rule="evenodd"/><path d="M2657.77 632.102 2791.79 632.102 2791.79 763.991 2657.77 763.991Z" fill="#F8CBAD" fill-rule="evenodd"/><path d="M2791.79 632.102 2925.81 632.102 2925.81 763.991 2791.79 763.991Z" fill="#F8CBAD" fill-rule="evenodd"/><path d="M2925.81 632.102 3059.83 632.102 3059.83 763.991 2925.81 763.991Z" fill="#F8CBAD" fill-rule="evenodd"/><path d="M3059.83 632.102 3193.85 632.102 3193.85 763.991 3059.83 763.991Z" fill="#F8CBAD" fill-rule="evenodd"/><path d="M1987.68 763.991 2121.7 763.991 2121.7 895.881 1987.68 895.881Z" fill="#4472C4" fill-rule="evenodd"/><path d="M2121.7 763.991 2255.71 763.991 2255.71 895.881 2121.7 895.881Z" fill="#B4C7E7" fill-rule="evenodd"/><path d="M2255.71 763.991 2389.73 763.991 2389.73 895.881 2255.71 895.881Z" fill="#B4C7E7" fill-rule="evenodd"/><path d="M2389.73 763.991 2523.75 763.991 2523.75 895.881 2389.73 895.881Z" fill="#F8CBAD" fill-rule="evenodd"/><path d="M2523.75 763.991 2657.77 763.991 2657.77 895.881 2523.75 895.881Z" fill="#F8CBAD" fill-rule="evenodd"/><path d="M2657.77 763.991 2791.79 763.991 2791.79 895.881 2657.77 895.881Z" fill="#F8CBAD" fill-rule="evenodd"/><path d="M2791.79 763.991 2925.81 763.991 2925.81 895.881 2791.79 895.881Z" fill="#F8CBAD" fill-rule="evenodd"/><path d="M2925.81 763.991 3059.83 763.991 3059.83 895.881 2925.81 895.881Z" fill="#F8CBAD" fill-rule="evenodd"/><path d="M3059.83 763.991 3193.85 763.991 3193.85 895.881 3059.83 895.881Z" fill="#F8CBAD" fill-rule="evenodd"/><path d="M1987.68 895.881 2121.7 895.881 2121.7 1027.77 1987.68 1027.77Z" fill="#4472C4" fill-rule="evenodd"/><path d="M2121.7 895.881 2255.71 895.881 2255.71 1027.77 2121.7 1027.77Z" fill="#B4C7E7" fill-rule="evenodd"/><path d="M2255.71 895.881 2389.73 895.881 2389.73 1027.77 2255.71 1027.77Z" fill="#B4C7E7" fill-rule="evenodd"/><path d="M2389.73 895.881 2523.75 895.881 2523.75 1027.77 2389.73 1027.77Z" fill="#F8CBAD" fill-rule="evenodd"/><path d="M2523.75 895.881 2657.77 895.881 2657.77 1027.77 2523.75 1027.77Z" fill="#F8CBAD" fill-rule="evenodd"/><path d="M2657.77 895.881 2791.79 895.881 2791.79 1027.77 2657.77 1027.77Z" fill="#F8CBAD" fill-rule="evenodd"/><path d="M2791.79 895.881 2925.81 895.881 2925.81 1027.77 2791.79 1027.77Z" fill="#F8CBAD" fill-rule="evenodd"/><path d="M2925.81 895.881 3059.83 895.881 3059.83 1027.77 2925.81 1027.77Z" fill="#F8CBAD" fill-rule="evenodd"/><path d="M3059.83 895.881 3193.85 895.881 3193.85 1027.77 3059.83 1027.77Z" fill="#F8CBAD" fill-rule="evenodd"/><path d="M1987.68 1027.77 2121.7 1027.77 2121.7 1159.66 1987.68 1159.66Z" fill="#4472C4" fill-rule="evenodd"/><path d="M2121.7 1027.77 2255.71 1027.77 2255.71 1159.66 2121.7 1159.66Z" fill="#B4C7E7" fill-rule="evenodd"/><path d="M2255.71 1027.77 2389.73 1027.77 2389.73 1159.66 2255.71 1159.66Z" fill="#B4C7E7" fill-rule="evenodd"/><path d="M2389.73 1027.77 2523.75 1027.77 2523.75 1159.66 2389.73 1159.66Z" fill="#F8CBAD" fill-rule="evenodd"/><path d="M2523.75 1027.77 2657.77 1027.77 2657.77 1159.66 2523.75 1159.66Z" fill="#F8CBAD" fill-rule="evenodd"/><path d="M2657.77 1027.77 2791.79 1027.77 2791.79 1159.66 2657.77 1159.66Z" fill="#F8CBAD" fill-rule="evenodd"/><path d="M2791.79 1027.77 2925.81 1027.77 2925.81 1159.66 2791.79 1159.66Z" fill="#F8CBAD" fill-rule="evenodd"/><path d="M2925.81 1027.77 3059.83 1027.77 3059.83 1159.66 2925.81 1159.66Z" fill="#F8CBAD" fill-rule="evenodd"/><path d="M3059.83 1027.77 3193.85 1027.77 3193.85 1159.66 3059.83 1159.66Z" fill="#F8CBAD" fill-rule="evenodd"/><path d="M1987.68 1159.66 2121.7 1159.66 2121.7 1291.55 1987.68 1291.55Z" fill="#4472C4" fill-rule="evenodd"/><path d="M2121.7 1159.66 2255.71 1159.66 2255.71 1291.55 2121.7 1291.55Z" fill="#B4C7E7" fill-rule="evenodd"/><path d="M2255.71 1159.66 2389.73 1159.66 2389.73 1291.55 2255.71 1291.55Z" fill="#B4C7E7" fill-rule="evenodd"/><path d="M2389.73 1159.66 2523.75 1159.66 2523.75 1291.55 2389.73 1291.55Z" fill="#F8CBAD" fill-rule="evenodd"/><path d="M2523.75 1159.66 2657.77 1159.66 2657.77 1291.55 2523.75 1291.55Z" fill="#F8CBAD" fill-rule="evenodd"/><path d="M2657.77 1159.66 2791.79 1159.66 2791.79 1291.55 2657.77 1291.55Z" fill="#F8CBAD" fill-rule="evenodd"/><path d="M2791.79 1159.66 2925.81 1159.66 2925.81 1291.55 2791.79 1291.55Z" fill="#F8CBAD" fill-rule="evenodd"/><path d="M2925.81 1159.66 3059.83 1159.66 3059.83 1291.55 2925.81 1291.55Z" fill="#F8CBAD" fill-rule="evenodd"/><path d="M3059.83 1159.66 3193.85 1159.66 3193.85 1291.55 3059.83 1291.55Z" fill="#F8CBAD" fill-rule="evenodd"/><path d="M1987.68 1291.55 2121.7 1291.55 2121.7 1423.44 1987.68 1423.44Z" fill="#4472C4" fill-rule="evenodd"/><path d="M2121.7 1291.55 2255.71 1291.55 2255.71 1423.44 2121.7 1423.44Z" fill="#B4C7E7" fill-rule="evenodd"/><path d="M2255.71 1291.55 2389.73 1291.55 2389.73 1423.44 2255.71 1423.44Z" fill="#B4C7E7" fill-rule="evenodd"/><path d="M2389.73 1291.55 2523.75 1291.55 2523.75 1423.44 2389.73 1423.44Z" fill="#F8CBAD" fill-rule="evenodd"/><path d="M2523.75 1291.55 2657.77 1291.55 2657.77 1423.44 2523.75 1423.44Z" fill="#F8CBAD" fill-rule="evenodd"/><path d="M2657.77 1291.55 2791.79 1291.55 2791.79 1423.44 2657.77 1423.44Z" fill="#F8CBAD" fill-rule="evenodd"/><path d="M2791.79 1291.55 2925.81 1291.55 2925.81 1423.44 2791.79 1423.44Z" fill="#F8CBAD" fill-rule="evenodd"/><path d="M2925.81 1291.55 3059.83 1291.55 3059.83 1423.44 2925.81 1423.44Z" fill="#F8CBAD" fill-rule="evenodd"/><path d="M3059.83 1291.55 3193.85 1291.55 3193.85 1423.44 3059.83 1423.44Z" fill="#F8CBAD" fill-rule="evenodd"/><path d="M1987.68 1423.44 2121.7 1423.44 2121.7 1555.33 1987.68 1555.33Z" fill="#4472C4" fill-rule="evenodd"/><path d="M2121.7 1423.44 2255.71 1423.44 2255.71 1555.33 2121.7 1555.33Z" fill="#B4C7E7" fill-rule="evenodd"/><path d="M2255.71 1423.44 2389.73 1423.44 2389.73 1555.33 2255.71 1555.33Z" fill="#B4C7E7" fill-rule="evenodd"/><path d="M2389.73 1423.44 2523.75 1423.44 2523.75 1555.33 2389.73 1555.33Z" fill="#F8CBAD" fill-rule="evenodd"/><path d="M2523.75 1423.44 2657.77 1423.44 2657.77 1555.33 2523.75 1555.33Z" fill="#F8CBAD" fill-rule="evenodd"/><path d="M2657.77 1423.44 2791.79 1423.44 2791.79 1555.33 2657.77 1555.33Z" fill="#F8CBAD" fill-rule="evenodd"/><path d="M2791.79 1423.44 2925.81 1423.44 2925.81 1555.33 2791.79 1555.33Z" fill="#F8CBAD" fill-rule="evenodd"/><path d="M2925.81 1423.44 3059.83 1423.44 3059.83 1555.33 2925.81 1555.33Z" fill="#F8CBAD" fill-rule="evenodd"/><path d="M3059.83 1423.44 3193.85 1423.44 3193.85 1555.33 3059.83 1555.33Z" fill="#F8CBAD" fill-rule="evenodd"/><path d="M1987.68 1555.33 2121.7 1555.33 2121.7 1687.22 1987.68 1687.22Z" fill="#4472C4" fill-rule="evenodd"/><path d="M2121.7 1555.33 2255.71 1555.33 2255.71 1687.22 2121.7 1687.22Z" fill="#B4C7E7" fill-rule="evenodd"/><path d="M2255.71 1555.33 2389.73 1555.33 2389.73 1687.22 2255.71 1687.22Z" fill="#B4C7E7" fill-rule="evenodd"/><path d="M2389.73 1555.33 2523.75 1555.33 2523.75 1687.22 2389.73 1687.22Z" fill="#F8CBAD" fill-rule="evenodd"/><path d="M2523.75 1555.33 2657.77 1555.33 2657.77 1687.22 2523.75 1687.22Z" fill="#F8CBAD" fill-rule="evenodd"/><path d="M2657.77 1555.33 2791.79 1555.33 2791.79 1687.22 2657.77 1687.22Z" fill="#F8CBAD" fill-rule="evenodd"/><path d="M2791.79 1555.33 2925.81 1555.33 2925.81 1687.22 2791.79 1687.22Z" fill="#F8CBAD" fill-rule="evenodd"/><path d="M2925.81 1555.33 3059.83 1555.33 3059.83 1687.22 2925.81 1687.22Z" fill="#F8CBAD" fill-rule="evenodd"/><path d="M3059.83 1555.33 3193.85 1555.33 3193.85 1687.22 3059.83 1687.22Z" fill="#F8CBAD" fill-rule="evenodd"/><path d="M1987.68 1687.22 2121.7 1687.22 2121.7 1819.11 1987.68 1819.11Z" fill="#4472C4" fill-rule="evenodd"/><path d="M2121.7 1687.22 2255.71 1687.22 2255.71 1819.11 2121.7 1819.11Z" fill="#B4C7E7" fill-rule="evenodd"/><path d="M2255.71 1687.22 2389.73 1687.22 2389.73 1819.11 2255.71 1819.11Z" fill="#B4C7E7" fill-rule="evenodd"/><path d="M2389.73 1687.22 2523.75 1687.22 2523.75 1819.11 2389.73 1819.11Z" fill="#F8CBAD" fill-rule="evenodd"/><path d="M2523.75 1687.22 2657.77 1687.22 2657.77 1819.11 2523.75 1819.11Z" fill="#F8CBAD" fill-rule="evenodd"/><path d="M2657.77 1687.22 2791.79 1687.22 2791.79 1819.11 2657.77 1819.11Z" fill="#F8CBAD" fill-rule="evenodd"/><path d="M2791.79 1687.22 2925.81 1687.22 2925.81 1819.11 2791.79 1819.11Z" fill="#F8CBAD" fill-rule="evenodd"/><path d="M2925.81 1687.22 3059.83 1687.22 3059.83 1819.11 2925.81 1819.11Z" fill="#F8CBAD" fill-rule="evenodd"/><path d="M3059.83 1687.22 3193.85 1687.22 3193.85 1819.11 3059.83 1819.11Z" fill="#F8CBAD" fill-rule="evenodd"/><path d="M1987.68 1819.11 2121.7 1819.11 2121.7 1951 1987.68 1951Z" fill="#4472C4" fill-rule="evenodd"/><path d="M2121.7 1819.11 2255.71 1819.11 2255.71 1951 2121.7 1951Z" fill="#B4C7E7" fill-rule="evenodd"/><path d="M2255.71 1819.11 2389.73 1819.11 2389.73 1951 2255.71 1951Z" fill="#B4C7E7" fill-rule="evenodd"/><path d="M2389.73 1819.11 2523.75 1819.11 2523.75 1951 2389.73 1951Z" fill="#F8CBAD" fill-rule="evenodd"/><path d="M2523.75 1819.11 2657.77 1819.11 2657.77 1951 2523.75 1951Z" fill="#F8CBAD" fill-rule="evenodd"/><path d="M2657.77 1819.11 2791.79 1819.11 2791.79 1951 2657.77 1951Z" fill="#F8CBAD" fill-rule="evenodd"/><path d="M2791.79 1819.11 2925.81 1819.11 2925.81 1951 2791.79 1951Z" fill="#F8CBAD" fill-rule="evenodd"/><path d="M2925.81 1819.11 3059.83 1819.11 3059.83 1951 2925.81 1951Z" fill="#F8CBAD" fill-rule="evenodd"/><path d="M3059.83 1819.11 3193.85 1819.11 3193.85 1951 3059.83 1951Z" fill="#F8CBAD" fill-rule="evenodd"/><path d="M1987.68 1951 2121.7 1951 2121.7 2082.89 1987.68 2082.89Z" fill="#4472C4" fill-rule="evenodd"/><path d="M2121.7 1951 2255.71 1951 2255.71 2082.89 2121.7 2082.89Z" fill="#B4C7E7" fill-rule="evenodd"/><path d="M2255.71 1951 2389.73 1951 2389.73 2082.89 2255.71 2082.89Z" fill="#B4C7E7" fill-rule="evenodd"/><path d="M2389.73 1951 2523.75 1951 2523.75 2082.89 2389.73 2082.89Z" fill="#F8CBAD" fill-rule="evenodd"/><path d="M2523.75 1951 2657.77 1951 2657.77 2082.89 2523.75 2082.89Z" fill="#F8CBAD" fill-rule="evenodd"/><path d="M2657.77 1951 2791.79 1951 2791.79 2082.89 2657.77 2082.89Z" fill="#F8CBAD" fill-rule="evenodd"/><path d="M2791.79 1951 2925.81 1951 2925.81 2082.89 2791.79 2082.89Z" fill="#F8CBAD" fill-rule="evenodd"/><path d="M2925.81 1951 3059.83 1951 3059.83 2082.89 2925.81 2082.89Z" fill="#F8CBAD" fill-rule="evenodd"/><path d="M3059.83 1951 3193.85 1951 3193.85 2082.89 3059.83 2082.89Z" fill="#F8CBAD" fill-rule="evenodd"/><path d="M1987.68 2082.89 2121.7 2082.89 2121.7 2214.78 1987.68 2214.78Z" fill="#4472C4" fill-rule="evenodd"/><path d="M2121.7 2082.89 2255.71 2082.89 2255.71 2214.78 2121.7 2214.78Z" fill="#B4C7E7" fill-rule="evenodd"/><path d="M2255.71 2082.89 2389.73 2082.89 2389.73 2214.78 2255.71 2214.78Z" fill="#B4C7E7" fill-rule="evenodd"/><path d="M2389.73 2082.89 2523.75 2082.89 2523.75 2214.78 2389.73 2214.78Z" fill="#F8CBAD" fill-rule="evenodd"/><path d="M2523.75 2082.89 2657.77 2082.89 2657.77 2214.78 2523.75 2214.78Z" fill="#F8CBAD" fill-rule="evenodd"/><path d="M2657.77 2082.89 2791.79 2082.89 2791.79 2214.78 2657.77 2214.78Z" fill="#F8CBAD" fill-rule="evenodd"/><path d="M2791.79 2082.89 2925.81 2082.89 2925.81 2214.78 2791.79 2214.78Z" fill="#F8CBAD" fill-rule="evenodd"/><path d="M2925.81 2082.89 3059.83 2082.89 3059.83 2214.78 2925.81 2214.78Z" fill="#F8CBAD" fill-rule="evenodd"/><path d="M3059.83 2082.89 3193.85 2082.89 3193.85 2214.78 3059.83 2214.78Z" fill="#F8CBAD" fill-rule="evenodd"/><path d="M1987.68 2214.78 2121.7 2214.78 2121.7 2346.67 1987.68 2346.67Z" fill="#4472C4" fill-rule="evenodd"/><path d="M2121.7 2214.78 2255.71 2214.78 2255.71 2346.67 2121.7 2346.67Z" fill="#B4C7E7" fill-rule="evenodd"/><path d="M2255.71 2214.78 2389.73 2214.78 2389.73 2346.67 2255.71 2346.67Z" fill="#B4C7E7" fill-rule="evenodd"/><path d="M2389.73 2214.78 2523.75 2214.78 2523.75 2346.67 2389.73 2346.67Z" fill="#F8CBAD" fill-rule="evenodd"/><path d="M2523.75 2214.78 2657.77 2214.78 2657.77 2346.67 2523.75 2346.67Z" fill="#F8CBAD" fill-rule="evenodd"/><path d="M2657.77 2214.78 2791.79 2214.78 2791.79 2346.67 2657.77 2346.67Z" fill="#F8CBAD" fill-rule="evenodd"/><path d="M2791.79 2214.78 2925.81 2214.78 2925.81 2346.67 2791.79 2346.67Z" fill="#F8CBAD" fill-rule="evenodd"/><path d="M2925.81 2214.78 3059.83 2214.78 3059.83 2346.67 2925.81 2346.67Z" fill="#F8CBAD" fill-rule="evenodd"/><path d="M3059.83 2214.78 3193.85 2214.78 3193.85 2346.67 3059.83 2346.67Z" fill="#B4C7E7" fill-rule="evenodd"/><path d="M2121.7 102.252 2121.7 2348.96" stroke="#FFFFFF" stroke-width="4.58333" stroke-linejoin="round" stroke-miterlimit="10" fill="none" fill-rule="evenodd"/><path d="M2255.71 102.252 2255.71 2348.96" stroke="#FFFFFF" stroke-width="4.58333" stroke-linejoin="round" stroke-miterlimit="10" fill="none" fill-rule="evenodd"/><path d="M2389.73 102.252 2389.73 2348.96" stroke="#FFFFFF" stroke-width="4.58333" stroke-linejoin="round" stroke-miterlimit="10" fill="none" fill-rule="evenodd"/><path d="M2523.75 102.252 2523.75 2348.96" stroke="#FFFFFF" stroke-width="4.58333" stroke-linejoin="round" stroke-miterlimit="10" fill="none" fill-rule="evenodd"/><path d="M2657.77 102.252 2657.77 2348.96" stroke="#FFFFFF" stroke-width="4.58333" stroke-linejoin="round" stroke-miterlimit="10" fill="none" fill-rule="evenodd"/><path d="M2791.79 102.252 2791.79 2348.96" stroke="#FFFFFF" stroke-width="4.58333" stroke-linejoin="round" stroke-miterlimit="10" fill="none" fill-rule="evenodd"/><path d="M2925.81 102.252 2925.81 2348.96" stroke="#FFFFFF" stroke-width="4.58333" stroke-linejoin="round" stroke-miterlimit="10" fill="none" fill-rule="evenodd"/><path d="M3059.83 102.252 3059.83 2348.96" stroke="#FFFFFF" stroke-width="4.58333" stroke-linejoin="round" stroke-miterlimit="10" fill="none" fill-rule="evenodd"/><path d="M1985.38 236.433 3196.14 236.433" stroke="#FFFFFF" stroke-width="13.75" stroke-linejoin="round" stroke-miterlimit="10" fill="none" fill-rule="evenodd"/><path d="M1985.38 368.322 3196.14 368.322" stroke="#FFFFFF" stroke-width="4.58333" stroke-linejoin="round" stroke-miterlimit="10" fill="none" fill-rule="evenodd"/><path d="M1985.38 500.212 3196.14 500.212" stroke="#FFFFFF" stroke-width="4.58333" stroke-linejoin="round" stroke-miterlimit="10" fill="none" fill-rule="evenodd"/><path d="M1985.38 632.102 3196.14 632.102" stroke="#FFFFFF" stroke-width="4.58333" stroke-linejoin="round" stroke-miterlimit="10" fill="none" fill-rule="evenodd"/><path d="M1985.38 763.991 3196.14 763.991" stroke="#FFFFFF" stroke-width="4.58333" stroke-linejoin="round" stroke-miterlimit="10" fill="none" fill-rule="evenodd"/><path d="M1985.38 895.881 3196.14 895.881" stroke="#FFFFFF" stroke-width="4.58333" stroke-linejoin="round" stroke-miterlimit="10" fill="none" fill-rule="evenodd"/><path d="M1985.38 1027.77 3196.14 1027.77" stroke="#FFFFFF" stroke-width="4.58333" stroke-linejoin="round" stroke-miterlimit="10" fill="none" fill-rule="evenodd"/><path d="M1985.38 1159.66 3196.14 1159.66" stroke="#FFFFFF" stroke-width="4.58333" stroke-linejoin="round" stroke-miterlimit="10" fill="none" fill-rule="evenodd"/><path d="M1985.38 1291.55 3196.14 1291.55" stroke="#FFFFFF" stroke-width="4.58333" stroke-linejoin="round" stroke-miterlimit="10" fill="none" fill-rule="evenodd"/><path d="M1985.38 1423.44 3196.14 1423.44" stroke="#FFFFFF" stroke-width="4.58333" stroke-linejoin="round" stroke-miterlimit="10" fill="none" fill-rule="evenodd"/><path d="M1985.38 1555.33 3196.14 1555.33" stroke="#FFFFFF" stroke-width="4.58333" stroke-linejoin="round" stroke-miterlimit="10" fill="none" fill-rule="evenodd"/><path d="M1985.38 1687.22 3196.14 1687.22" stroke="#FFFFFF" stroke-width="4.58333" stroke-linejoin="round" stroke-miterlimit="10" fill="none" fill-rule="evenodd"/><path d="M1985.38 1819.11 3196.14 1819.11" stroke="#FFFFFF" stroke-width="4.58333" stroke-linejoin="round" stroke-miterlimit="10" fill="none" fill-rule="evenodd"/><path d="M1985.38 1951 3196.14 1951" stroke="#FFFFFF" stroke-width="4.58333" stroke-linejoin="round" stroke-miterlimit="10" fill="none" fill-rule="evenodd"/><path d="M1985.38 2082.89 3196.14 2082.89" stroke="#FFFFFF" stroke-width="4.58333" stroke-linejoin="round" stroke-miterlimit="10" fill="none" fill-rule="evenodd"/><path d="M1985.38 2214.78 3196.14 2214.78" stroke="#FFFFFF" stroke-width="4.58333" stroke-linejoin="round" stroke-miterlimit="10" fill="none" fill-rule="evenodd"/><path d="M1987.68 102.252 1987.68 2348.96" stroke="#FFFFFF" stroke-width="4.58333" stroke-linejoin="round" stroke-miterlimit="10" fill="none" fill-rule="evenodd"/><path d="M3193.85 102.252 3193.85 2348.96" stroke="#FFFFFF" stroke-width="4.58333" stroke-linejoin="round" stroke-miterlimit="10" fill="none" fill-rule="evenodd"/><path d="M1985.38 104.543 3196.14 104.543" stroke="#FFFFFF" stroke-width="4.58333" stroke-linejoin="round" stroke-miterlimit="10" fill="none" fill-rule="evenodd"/><path d="M1985.38 2346.67 3196.14 2346.67" stroke="#FFFFFF" stroke-width="4.58333" stroke-linejoin="round" stroke-miterlimit="10" fill="none" fill-rule="evenodd"/><text fill="#FFFFFF" font-family="Yu Gothic UI,Yu Gothic UI_MSFontService,sans-serif" font-weight="700" font-size="55" transform="matrix(1 0 0 1 2173.52 191)">0<tspan font-size="55" x="138.029" y="0">1</tspan><tspan font-size="55" x="268.038" y="0">2</tspan><tspan font-size="55" x="402.056" y="0">3</tspan><tspan font-size="55" x="535.503" y="0">4</tspan><tspan font-size="55" x="670.094" y="0">5</tspan><tspan font-size="55" x="803.827" y="0">6</tspan><tspan font-size="55" x="938.705" y="0">7</tspan><tspan font-size="55" x="-134.019" y="132">0</tspan><tspan fill="#000000" font-weight="400" font-size="55" x="-18.3335" y="132">NL</tspan><tspan fill="#000000" font-weight="400" font-size="55" x="117.118" y="132">DL</tspan><tspan fill="#000000" font-weight="400" font-size="55" x="253.142" y="132">SP</tspan><tspan fill="#000000" font-weight="400" font-size="55" x="389.739" y="132">○</tspan><tspan fill="#000000" font-weight="400" font-size="55" x="523.758" y="132">○</tspan><tspan fill="#000000" font-weight="400" font-size="55" x="657.776" y="132">○</tspan><tspan fill="#000000" font-weight="400" font-size="55" x="791.795" y="132">○</tspan><tspan fill="#000000" font-weight="400" font-size="55" x="925.814" y="132">○</tspan><tspan font-size="55" x="-130.008" y="264">1</tspan></text><g clip-path="url(#clip1)"><text font-family="Yu Gothic UI,Yu Gothic UI_MSFontService,sans-serif" font-weight="400" font-size="55" transform="matrix(1 0 0 1 2154.62 455)">SH</text></g><g clip-path="url(#clip2)"><text font-family="Yu Gothic UI,Yu Gothic UI_MSFontService,sans-serif" font-weight="400" font-size="55" transform="matrix(1 0 0 1 2288.63 455)">D1</text></g><text font-family="Yu Gothic UI,Yu Gothic UI_MSFontService,sans-serif" font-weight="400" font-size="55" transform="matrix(1 0 0 1 2429.24 455)">○<tspan font-size="55" x="134.019" y="0">○</tspan><tspan font-size="55" x="268.038" y="0">○</tspan><tspan font-size="55" x="402.056" y="0">○</tspan><tspan font-size="55" x="536.075" y="0">○</tspan><tspan font-size="55" x="670.094" y="0">○</tspan><tspan fill="#FFFFFF" font-weight="700" font-size="55" x="-389.739" y="132">2</tspan><tspan font-size="55" x="-271.475" y="132">SX</tspan></text><g clip-path="url(#clip3)"><text font-family="Yu Gothic UI,Yu Gothic UI_MSFontService,sans-serif" font-weight="400" font-size="55" transform="matrix(1 0 0 1 2288.63 587)">D2</text></g><text font-family="Yu Gothic UI,Yu Gothic UI_MSFontService,sans-serif" font-weight="400" font-size="55" transform="matrix(1 0 0 1 2429.24 587)">○<tspan font-size="55" x="134.019" y="0">○</tspan><tspan font-size="55" x="268.038" y="0">○</tspan><tspan font-size="55" x="402.056" y="0">○</tspan><tspan font-size="55" x="536.075" y="0">○</tspan><tspan font-size="55" x="670.094" y="0">○</tspan><tspan fill="#FFFFFF" font-weight="700" font-size="55" x="-389.739" y="132">3</tspan><tspan font-size="55" x="-270.902" y="132">EX</tspan></text><g clip-path="url(#clip4)"><text font-family="Yu Gothic UI,Yu Gothic UI_MSFontService,sans-serif" font-weight="400" font-size="55" transform="matrix(1 0 0 1 2288.63 719)">D3</text></g><text font-family="Yu Gothic UI,Yu Gothic UI_MSFontService,sans-serif" font-weight="400" font-size="55" transform="matrix(1 0 0 1 2429.24 719)">○<tspan font-size="55" x="134.019" y="0">○</tspan><tspan font-size="55" x="268.038" y="0">○</tspan><tspan font-size="55" x="402.056" y="0">○</tspan><tspan font-size="55" x="536.075" y="0">○</tspan><tspan font-size="55" x="670.094" y="0">○</tspan><tspan fill="#FFFFFF" font-weight="700" font-size="55" x="-390.312" y="132">4</tspan><tspan font-size="55" x="-268.897" y="132">ET</tspan></text><g clip-path="url(#clip5)"><text font-family="Yu Gothic UI,Yu Gothic UI_MSFontService,sans-serif" font-weight="400" font-size="55" transform="matrix(1 0 0 1 2288.63 851)">D4</text></g><text font-family="Yu Gothic UI,Yu Gothic UI_MSFontService,sans-serif" font-weight="400" font-size="55" transform="matrix(1 0 0 1 2429.24 851)">○<tspan font-size="55" x="134.019" y="0">○</tspan><tspan font-size="55" x="268.038" y="0">○</tspan><tspan font-size="55" x="402.056" y="0">○</tspan><tspan font-size="55" x="536.075" y="0">○</tspan><tspan font-size="55" x="670.094" y="0">○</tspan><tspan fill="#FFFFFF" font-weight="700" font-size="55" x="-389.739" y="132">5</tspan></text><g clip-path="url(#clip6)"><text font-family="Yu Gothic UI,Yu Gothic UI_MSFontService,sans-serif" font-weight="400" font-size="55" transform="matrix(1 0 0 1 2154.04 983)">EQ</text></g><g clip-path="url(#clip7)"><text font-family="Yu Gothic UI,Yu Gothic UI_MSFontService,sans-serif" font-weight="400" font-size="55" transform="matrix(1 0 0 1 2286.06 983)">NK</text></g><text font-family="Yu Gothic UI,Yu Gothic UI_MSFontService,sans-serif" font-weight="400" font-size="55" transform="matrix(1 0 0 1 2429.24 983)">○<tspan font-size="55" x="134.019" y="0">○</tspan><tspan font-size="55" x="268.038" y="0">○</tspan><tspan font-size="55" x="402.056" y="0">○</tspan><tspan font-size="55" x="536.075" y="0">○</tspan><tspan font-size="55" x="670.094" y="0">○</tspan><tspan fill="#FFFFFF" font-weight="700" font-size="55" x="-390.025" y="132">6</tspan><tspan font-size="55" x="-274.34" y="132">AK</tspan><tspan font-size="55" x="-136.311" y="132">SY</tspan><tspan font-size="55" x="0" y="132">○</tspan><tspan font-size="55" x="134.019" y="132">○</tspan><tspan font-size="55" x="268.038" y="132">○</tspan><tspan font-size="55" x="402.056" y="132">○</tspan><tspan font-size="55" x="536.075" y="132">○</tspan><tspan font-size="55" x="670.094" y="132">○</tspan><tspan fill="#FFFFFF" font-weight="700" font-size="55" x="-389.166" y="264">7</tspan><tspan font-size="55" x="-269.183" y="264">BL</tspan><tspan font-size="55" x="-136.311" y="264">EB</tspan><tspan font-size="55" x="0" y="264">○</tspan><tspan font-size="55" x="134.019" y="264">○</tspan><tspan font-size="55" x="268.038" y="264">○</tspan><tspan font-size="55" x="402.056" y="264">○</tspan><tspan font-size="55" x="536.075" y="264">○</tspan><tspan font-size="55" x="670.094" y="264">○</tspan><tspan fill="#FFFFFF" font-weight="700" font-size="55" x="-389.739" y="395">8</tspan><tspan font-size="55" x="-270.902" y="395">BS</tspan></text><g clip-path="url(#clip8)"><text font-family="Yu Gothic UI,Yu Gothic UI_MSFontService,sans-serif" font-weight="400" font-size="55" transform="matrix(1 0 0 1 2285.2 1378)">CN</text></g><text font-family="Yu Gothic UI,Yu Gothic UI_MSFontService,sans-serif" font-weight="400" font-size="55" transform="matrix(1 0 0 1 2429.24 1378)">○<tspan font-size="55" x="134.019" y="0">○</tspan><tspan font-size="55" x="268.038" y="0">○</tspan><tspan font-size="55" x="402.056" y="0">○</tspan><tspan font-size="55" x="536.075" y="0">○</tspan><tspan font-size="55" x="670.094" y="0">○</tspan><tspan fill="#FFFFFF" font-weight="700" font-size="55" x="-390.025" y="132">9</tspan><tspan font-size="55" x="-274.34" y="132">HT</tspan></text><g clip-path="url(#clip9)"><text font-family="Yu Gothic UI,Yu Gothic UI_MSFontService,sans-serif" font-weight="400" font-size="55" transform="matrix(1 0 0 1 2284.05 1510)">EM</text></g><text font-family="Yu Gothic UI,Yu Gothic UI_MSFontService,sans-serif" font-weight="400" font-size="55" transform="matrix(1 0 0 1 2429.24 1510)">○<tspan font-size="55" x="134.019" y="0">○</tspan><tspan font-size="55" x="268.038" y="0">○</tspan><tspan font-size="55" x="402.056" y="0">○</tspan><tspan font-size="55" x="536.075" y="0">○</tspan><tspan font-size="55" x="670.094" y="0">○</tspan><tspan fill="#FFFFFF" font-weight="700" font-size="55" x="-392.89" y="132">A</tspan><tspan font-size="55" x="-266.892" y="132">LF</tspan><tspan font-size="55" x="-136.884" y="132">SB</tspan><tspan font-size="55" x="0" y="132">○</tspan><tspan font-size="55" x="134.019" y="132">○</tspan><tspan font-size="55" x="268.038" y="132">○</tspan><tspan font-size="55" x="402.056" y="132">○</tspan><tspan font-size="55" x="536.075" y="132">○</tspan><tspan font-size="55" x="670.094" y="132">○</tspan><tspan fill="#FFFFFF" font-weight="700" font-size="55" x="-391.171" y="264">B</tspan><tspan font-size="55" x="-272.048" y="264">VT</tspan><tspan font-size="55" x="-137.456" y="264">EC</tspan><tspan font-size="55" x="0" y="264">○</tspan><tspan font-size="55" x="134.019" y="264">○</tspan><tspan font-size="55" x="268.038" y="264">○</tspan><tspan font-size="55" x="402.056" y="264">○</tspan><tspan font-size="55" x="536.075" y="264">○</tspan><tspan font-size="55" x="670.094" y="264">○</tspan><tspan fill="#FFFFFF" font-weight="700" font-size="55" x="-391.744" y="396">C</tspan><tspan font-size="55" x="-267.465" y="396">FF</tspan><tspan font-size="55" x="-134.592" y="396">FS</tspan><tspan font-size="55" x="0" y="396">○</tspan><tspan font-size="55" x="134.019" y="396">○</tspan><tspan font-size="55" x="268.038" y="396">○</tspan><tspan font-size="55" x="402.056" y="396">○</tspan><tspan font-size="55" x="536.075" y="396">○</tspan><tspan font-size="55" x="670.094" y="396">○</tspan><tspan fill="#FFFFFF" font-weight="700" font-size="55" x="-394.322" y="528">D</tspan><tspan font-size="55" x="-273.767" y="528">CR</tspan><tspan font-size="55" x="-140.034" y="528">GS</tspan><tspan font-size="55" x="0" y="528">○</tspan><tspan font-size="55" x="134.019" y="528">○</tspan><tspan font-size="55" x="268.038" y="528">○</tspan><tspan font-size="55" x="402.056" y="528">○</tspan><tspan font-size="55" x="536.075" y="528">○</tspan><tspan font-size="55" x="670.094" y="528">○</tspan><tspan fill="#FFFFFF" font-weight="700" font-size="55" x="-388.88" y="660">E</tspan></text><g clip-path="url(#clip10)"><text font-family="Yu Gothic UI,Yu Gothic UI_MSFontService,sans-serif" font-weight="400" font-size="55" transform="matrix(1 0 0 1 2153.47 2170)">SO</text></g><text font-family="Yu Gothic UI,Yu Gothic UI_MSFontService,sans-serif" font-weight="400" font-size="55" transform="matrix(1 0 0 1 2291.79 2170)">RS<tspan font-size="55" x="137.456" y="0">○</tspan><tspan font-size="55" x="271.475" y="0">○</tspan><tspan font-size="55" x="405.494" y="0">○</tspan><tspan font-size="55" x="539.513" y="0">○</tspan><tspan font-size="55" x="673.532" y="0">○</tspan><tspan font-size="55" x="807.551" y="0">○</tspan><tspan fill="#FFFFFF" font-weight="700" font-size="55" x="-250.85" y="132">F</tspan><tspan font-size="55" x="-125.139" y="132">SI</tspan><tspan font-size="55" x="-2.57813" y="132">US</tspan><tspan font-size="55" x="137.456" y="132">○</tspan><tspan font-size="55" x="271.475" y="132">○</tspan><tspan font-size="55" x="405.494" y="132">○</tspan><tspan font-size="55" x="539.513" y="132">○</tspan><tspan font-size="55" x="673.532" y="132">○</tspan><tspan font-size="55" x="802.967" y="132">DL</tspan></text><rect x="1614" y="105" width="338" height="52.0003" fill="#B4C7E7"/><text font-family="Yu Gothic UI,Yu Gothic UI_MSFontService,sans-serif" font-weight="400" font-size="37" transform="matrix(1 0 0 1 1627.23 145)">コントロール文字</text><rect x="1614" y="166" width="338" height="51.9999" fill="#FFF2CC"/><text font-family="Yu Gothic UI,Yu Gothic UI_MSFontService,sans-serif" font-weight="400" font-size="37" transform="matrix(1 0 0 1 1627.23 206)">半角英数</text><rect x="1614" y="227" width="338" height="52.0003" fill="#F8CBAD"/><text font-family="Yu Gothic UI,Yu Gothic UI_MSFontService,sans-serif" font-weight="400" font-size="37" transform="matrix(1 0 0 1 1627.23 267)">JIS <tspan font-size="37" x="52.7084" y="0">コード</tspan></text></g></svg>