<svg width="4115" height="856" xmlns="http://www.w3.org/2000/svg" xmlns:xlink="http://www.w3.org/1999/xlink" xml:space="preserve" overflow="hidden"><defs><clipPath id="clip0"><rect x="190" y="715" width="4115" height="856"/></clipPath></defs><g clip-path="url(#clip0)" transform="translate(-190 -715)"><path d="M192.5 717.597 937.75 717.597 937.75 887.303 192.5 887.303Z" fill="#4472C4" fill-rule="evenodd"/><path d="M937.75 717.597 1772.94 717.597 1772.94 887.303 937.75 887.303Z" fill="#4472C4" fill-rule="evenodd"/><path d="M1772.94 717.597 2171.99 717.597 2171.99 887.303 1772.94 887.303Z" fill="#4472C4" fill-rule="evenodd"/><path d="M2171.99 717.597 2702.87 717.597 2702.87 887.303 2171.99 887.303Z" fill="#4472C4" fill-rule="evenodd"/><path d="M2702.87 717.597 3233.75 717.597 3233.75 887.303 2702.87 887.303Z" fill="#4472C4" fill-rule="evenodd"/><path d="M3233.75 717.597 3764.62 717.597 3764.62 887.303 3233.75 887.303Z" fill="#4472C4" fill-rule="evenodd"/><path d="M3764.62 717.597 4295.5 717.597 4295.5 887.303 3764.62 887.303Z" fill="#4472C4" fill-rule="evenodd"/><path d="M192.5 887.303 937.75 887.303 937.75 1057.01 192.5 1057.01Z" fill="#E9EBF5" fill-rule="evenodd"/><path d="M937.75 887.303 1772.94 887.303 1772.94 1057.01 937.75 1057.01Z" fill="#E9EBF5" fill-rule="evenodd"/><path d="M1772.94 887.303 2171.99 887.303 2171.99 1057.01 1772.94 1057.01Z" fill="#E9EBF5" fill-rule="evenodd"/><path d="M2171.99 887.303 2702.87 887.303 2702.87 1057.01 2171.99 1057.01Z" fill="#E9EBF5" fill-rule="evenodd"/><path d="M2702.87 887.303 3233.75 887.303 3233.75 1057.01 2702.87 1057.01Z" fill="#E9EBF5" fill-rule="evenodd"/><path d="M3233.75 887.303 3764.62 887.303 3764.62 1057.01 3233.75 1057.01Z" fill="#E9EBF5" fill-rule="evenodd"/><path d="M3764.62 887.303 4295.5 887.303 4295.5 1057.01 3764.62 1057.01Z" fill="#E9EBF5" fill-rule="evenodd"/><path d="M192.5 1057.01 937.75 1057.01 937.75 1226.71 192.5 1226.71Z" fill="#E9EBF5" fill-rule="evenodd"/><path d="M937.75 1057.01 1772.94 1057.01 1772.94 1226.71 937.75 1226.71Z" fill="#E9EBF5" fill-rule="evenodd"/><path d="M1772.94 1057.01 2171.99 1057.01 2171.99 1226.71 1772.94 1226.71Z" fill="#E9EBF5" fill-rule="evenodd"/><path d="M2171.99 1057.01 2702.87 1057.01 2702.87 1226.71 2171.99 1226.71Z" fill="#E9EBF5" fill-rule="evenodd"/><path d="M2702.87 1057.01 3233.75 1057.01 3233.75 1226.71 2702.87 1226.71Z" fill="#E9EBF5" fill-rule="evenodd"/><path d="M3233.75 1057.01 3764.62 1057.01 3764.62 1226.71 3233.75 1226.71Z" fill="#E9EBF5" fill-rule="evenodd"/><path d="M3764.62 1057.01 4295.5 1057.01 4295.5 1226.71 3764.62 1226.71Z" fill="#E9EBF5" fill-rule="evenodd"/><path d="M192.5 1226.71 937.75 1226.71 937.75 1396.42 192.5 1396.42Z" fill="#E9EBF5" fill-rule="evenodd"/><path d="M937.75 1226.71 1772.94 1226.71 1772.94 1396.42 937.75 1396.42Z" fill="#E9EBF5" fill-rule="evenodd"/><path d="M1772.94 1226.71 2171.99 1226.71 2171.99 1396.42 1772.94 1396.42Z" fill="#E9EBF5" fill-rule="evenodd"/><path d="M2171.99 1226.71 2702.87 1226.71 2702.87 1396.42 2171.99 1396.42Z" fill="#E9EBF5" fill-rule="evenodd"/><path d="M2702.87 1226.71 3233.75 1226.71 3233.75 1396.42 2702.87 1396.42Z" fill="#E9EBF5" fill-rule="evenodd"/><path d="M3233.75 1226.71 3764.62 1226.71 3764.62 1396.42 3233.75 1396.42Z" fill="#E9EBF5" fill-rule="evenodd"/><path d="M3764.62 1226.71 4295.5 1226.71 4295.5 1396.42 3764.62 1396.42Z" fill="#E9EBF5" fill-rule="evenodd"/><path d="M192.5 1396.42 937.75 1396.42 937.75 1566.13 192.5 1566.13Z" fill="#E9EBF5" fill-rule="evenodd"/><path d="M937.75 1396.42 1772.94 1396.42 1772.94 1566.13 937.75 1566.13Z" fill="#E9EBF5" fill-rule="evenodd"/><path d="M1772.94 1396.42 2171.99 1396.42 2171.99 1566.13 1772.94 1566.13Z" fill="#E9EBF5" fill-rule="evenodd"/><path d="M2171.99 1396.42 2702.87 1396.42 2702.87 1566.13 2171.99 1566.13Z" fill="#E9EBF5" fill-rule="evenodd"/><path d="M2702.87 1396.42 3233.75 1396.42 3233.75 1566.13 2702.87 1566.13Z" fill="#E9EBF5" fill-rule="evenodd"/><path d="M3233.75 1396.42 3764.62 1396.42 3764.62 1566.13 3233.75 1566.13Z" fill="#E9EBF5" fill-rule="evenodd"/><path d="M3764.62 1396.42 4295.5 1396.42 4295.5 1566.13 3764.62 1566.13Z" fill="#E9EBF5" fill-rule="evenodd"/><path d="M937.75 715.305 937.75 1568.42" stroke="#FFFFFF" stroke-width="4.58333" stroke-linejoin="round" stroke-miterlimit="10" fill="none" fill-rule="evenodd"/><path d="M1772.94 715.305 1772.94 1568.42" stroke="#FFFFFF" stroke-width="4.58333" stroke-linejoin="round" stroke-miterlimit="10" fill="none" fill-rule="evenodd"/><path d="M2171.99 715.305 2171.99 1568.42" stroke="#FFFFFF" stroke-width="4.58333" stroke-linejoin="round" stroke-miterlimit="10" fill="none" fill-rule="evenodd"/><path d="M2702.87 715.305 2702.87 1568.42" stroke="#FFFFFF" stroke-width="4.58333" stroke-linejoin="round" stroke-miterlimit="10" fill="none" fill-rule="evenodd"/><path d="M3233.75 715.305 3233.75 1568.42" stroke="#FFFFFF" stroke-width="4.58333" stroke-linejoin="round" stroke-miterlimit="10" fill="none" fill-rule="evenodd"/><path d="M3764.62 715.305 3764.62 1568.42" stroke="#FFFFFF" stroke-width="4.58333" stroke-linejoin="round" stroke-miterlimit="10" fill="none" fill-rule="evenodd"/><path d="M190.208 887.303 4297.79 887.303" stroke="#FFFFFF" stroke-width="13.75" stroke-linejoin="round" stroke-miterlimit="10" fill="none" fill-rule="evenodd"/><path d="M190.208 1057.01 4297.79 1057.01" stroke="#FFFFFF" stroke-width="4.58333" stroke-linejoin="round" stroke-miterlimit="10" fill="none" fill-rule="evenodd"/><path d="M190.208 1226.71 4297.79 1226.71" stroke="#FFFFFF" stroke-width="4.58333" stroke-linejoin="round" stroke-miterlimit="10" fill="none" fill-rule="evenodd"/><path d="M190.208 1396.42 4297.79 1396.42" stroke="#FFFFFF" stroke-width="4.58333" stroke-linejoin="round" stroke-miterlimit="10" fill="none" fill-rule="evenodd"/><path d="M192.5 715.305 192.5 1568.42" stroke="#FFFFFF" stroke-width="4.58333" stroke-linejoin="round" stroke-miterlimit="10" fill="none" fill-rule="evenodd"/><path d="M4295.5 715.305 4295.5 1568.42" stroke="#FFFFFF" stroke-width="4.58333" stroke-linejoin="round" stroke-miterlimit="10" fill="none" fill-rule="evenodd"/><path d="M190.208 717.597 4297.79 717.597" stroke="#FFFFFF" stroke-width="4.58333" stroke-linejoin="round" stroke-miterlimit="10" fill="none" fill-rule="evenodd"/><path d="M190.208 1566.13 4297.79 1566.13" stroke="#FFFFFF" stroke-width="4.58333" stroke-linejoin="round" stroke-miterlimit="10" fill="none" fill-rule="evenodd"/><text fill="#FFFFFF" font-family="Yu Gothic,Yu Gothic_MSFontService,sans-serif" font-weight="700" font-size="55" transform="matrix(1 0 0 1 228.536 820)">コードポイント範囲<tspan font-size="55" x="510.469" y="0">(16</tspan><tspan font-size="55" x="595.833" y="0">進</tspan>)<tspan font-size="55" x="906.81" y="0">ビットパターン例</tspan><tspan font-size="55" x="1578.93" y="0">有効ビット数</tspan><tspan font-size="55" x="2067.67" y="0">第</tspan><tspan font-size="55" x="2138.14" y="0">1 </tspan><tspan font-size="55" x="2185.12" y="0">バイト</tspan><tspan font-size="55" x="2598.55" y="0">第</tspan><tspan font-size="55" x="2669.02" y="0">2 </tspan><tspan font-size="55" x="2715.99" y="0">バイト</tspan><tspan font-size="55" x="3129.42" y="0">第</tspan><tspan font-size="55" x="3199.89" y="0">3 </tspan>バイト<tspan font-size="55" x="3660.3" y="0">第</tspan><tspan font-size="55" x="3730.77" y="0">4 </tspan>バイト<tspan fill="#000000" font-size="55" x="98.5417" y="173">U+0000 </tspan><tspan fill="#000000" font-size="55" x="323.125" y="173">-</tspan><tspan fill="#000000" font-size="55" x="362.083" y="173">U+007F</tspan><tspan fill="#000000" font-size="55" x="765.3" y="171">0 0000 0000 0000 0xxx xxxx</tspan><tspan fill="#000000" font-size="55" x="1728.18" y="171">7</tspan><tspan fill="#FF0000" font-size="55" x="2083.14" y="171">0</tspan><tspan fill="#000000" font-size="55" x="2114.65" y="171">xxx </tspan><tspan fill="#000000" font-size="55" x="2217.77" y="171">xxxx</tspan><tspan fill="#000000" font-size="55" x="2728.03" y="171">-</tspan><tspan fill="#000000" font-size="55" x="3258.9" y="171">-</tspan><tspan fill="#000000" font-size="55" x="3789.78" y="171">-</tspan><tspan fill="#000000" font-size="55" x="96.8229" y="343">U+0080 </tspan><tspan fill="#000000" font-size="55" x="321.406" y="343">-</tspan><tspan fill="#000000" font-size="55" x="360.365" y="343">U+07FF</tspan><tspan fill="#000000" font-size="55" x="769.883" y="341">0 0000 0000 0xxx </tspan><tspan fill="#000000" font-size="55" x="1234.52" y="341">xxxx</tspan><tspan fill="#000000" font-size="55" x="1366.86" y="341">xxxx</tspan><tspan fill="#000000" font-size="55" x="1712.42" y="341">11</tspan><tspan fill="#FF0000" font-size="55" x="2080.85" y="341">110</tspan><tspan fill="#000000" font-size="55" x="2175.38" y="341">x </tspan><tspan fill="#000000" font-size="55" x="2220.07" y="341">xxxx</tspan><tspan fill="#FF0000" font-size="55" x="2612.87" y="341">10</tspan><tspan fill="#000000" font-size="55" x="2675.89" y="341">xx </tspan><tspan fill="#000000" font-size="55" x="2749.8" y="341">xxxx</tspan><tspan fill="#000000" font-size="55" x="3258.9" y="341">-</tspan><tspan fill="#000000" font-size="55" x="3789.78" y="341">-</tspan><tspan fill="#000000" font-size="55" x="93.3854" y="513">U+0800 </tspan><tspan fill="#000000" font-size="55" x="317.969" y="513">-</tspan><tspan fill="#000000" font-size="55" x="356.927" y="513">U+FFFF</tspan><tspan fill="#000000" font-size="55" x="775.612" y="511">0 0000 </tspan><tspan fill="#000000" font-size="55" x="964.102" y="511">xxxx</tspan><tspan fill="#000000" font-size="55" x="1096.45" y="511">xxxx</tspan><tspan fill="#000000" font-size="55" x="1228.79" y="511">xxxx</tspan><tspan fill="#000000" font-size="55" x="1361.13" y="511">xxxx</tspan><tspan fill="#000000" font-size="55" x="1712.42" y="511">16</tspan><tspan fill="#FF0000" font-size="55" x="2079.7" y="511">1110</tspan><tspan fill="#000000" font-size="55" x="2221.21" y="511">xxxx</tspan><tspan fill="#FF0000" font-size="55" x="2612.87" y="511">10</tspan><tspan fill="#000000" font-size="55" x="2675.89" y="511">xx </tspan><tspan fill="#000000" font-size="55" x="2749.8" y="511">xxxx</tspan><tspan fill="#FF0000" font-size="55" x="3143.75" y="511">10</tspan><tspan fill="#000000" font-size="55" x="3206.77" y="511">xx </tspan><tspan fill="#000000" font-size="55" x="3280.67" y="511">xxxx</tspan><tspan fill="#000000" font-size="55" x="3789.78" y="511">-</tspan><tspan fill="#000000" font-size="55" x="46.1197" y="682">U+10000 </tspan><tspan fill="#000000" font-size="55" x="302.213" y="682">-</tspan><tspan fill="#000000" font-size="55" x="341.172" y="682">U+10FFFF</tspan><tspan fill="#000000" font-size="55" x="781.341" y="680">x </tspan><tspan fill="#000000" font-size="55" x="826.029" y="680">xxxx</tspan><tspan fill="#000000" font-size="55" x="958.373" y="680">xxxx</tspan><tspan fill="#000000" font-size="55" x="1090.72" y="680">xxxx</tspan><tspan fill="#000000" font-size="55" x="1223.06" y="680">xxxx</tspan><tspan fill="#000000" font-size="55" x="1355.4" y="680">xxxx</tspan><tspan fill="#000000" font-size="55" x="1712.42" y="680">21</tspan><tspan fill="#FF0000" font-size="55" x="2078.56" y="680">1111 0</tspan><tspan fill="#000000" font-size="55" x="2251.58" y="680">xxx</tspan><tspan fill="#FF0000" font-size="55" x="2612.87" y="680">10</tspan><tspan fill="#000000" font-size="55" x="2675.89" y="680">xx </tspan><tspan fill="#000000" font-size="55" x="2749.8" y="680">xxxx</tspan><tspan fill="#FF0000" font-size="55" x="3143.75" y="680">10</tspan><tspan fill="#000000" font-size="55" x="3206.77" y="680">xx </tspan><tspan fill="#000000" font-size="55" x="3280.67" y="680">xxxx</tspan><tspan fill="#FF0000" font-size="55" x="3674.62" y="680">10</tspan><tspan fill="#000000" font-size="55" x="3737.65" y="680">xx </tspan><tspan fill="#000000" font-size="55" x="3811.55" y="680">xxxx</tspan></text><rect x="193.5" y="724.5" width="4103" height="842" stroke="#7F7F7F" stroke-width="4.58333" stroke-miterlimit="8" fill="none"/></g></svg>